<svg width="24" height="24" viewBox="0 0 24 24" fill="none" xmlns="http://www.w3.org/2000/svg">
<g clip-path="url(#clip0_41_13784)">
<path d="M23.2635 7.8915C22.6625 6.2503 21.7109 4.75989 20.4749 3.52416C19.2389 2.28843 17.7483 1.33711 16.107 0.7365C16.887 0.2805 17.781 0 18.75 0C21.651 0 24 2.3505 24 5.25C24 6.219 23.718 7.113 23.2635 7.8915ZM22.5 12C22.5 14.856 21.351 17.4405 19.5 19.3335V22.5C19.5 23.3295 18.8295 24 18 24C17.1705 24 16.5 23.3295 16.5 22.5V21.4515C15.132 22.104 13.617 22.5 12 22.5C10.3815 22.5 8.868 22.104 7.5 21.4515V22.5C7.5 22.8978 7.34196 23.2794 7.06066 23.5607C6.77936 23.842 6.39782 24 6 24C5.60218 24 5.22064 23.842 4.93934 23.5607C4.65804 23.2794 4.5 22.8978 4.5 22.5V19.3335C2.649 17.4405 1.5 14.856 1.5 12C1.5 6.201 6.201 1.5 12 1.5C17.799 1.5 22.5 6.201 22.5 12ZM12 4.5C7.8585 4.5 4.5 7.857 4.5 12C4.5 16.143 7.8585 19.5 12 19.5C16.143 19.5 19.5 16.143 19.5 12C19.5 7.857 16.143 4.5 12 4.5ZM15 13.5H12C11.6022 13.5 11.2206 13.342 10.9393 13.0607C10.658 12.7794 10.5 12.3978 10.5 12V9C10.5 8.60218 10.658 8.22064 10.9393 7.93934C11.2206 7.65804 11.6022 7.5 12 7.5C12.8295 7.5 13.5 8.1705 13.5 9V10.5H15C15.8295 10.5 16.5 11.1705 16.5 12C16.5 12.8295 15.8295 13.5 15 13.5ZM0.7365 7.8915C0.2805 7.113 0 6.219 0 5.25C0 2.3505 2.3505 0 5.25 0C6.219 0 7.113 0.2805 7.8915 0.7365C6.2505 1.33738 4.76024 2.28882 3.52453 3.52453C2.28882 4.76024 1.33738 6.2505 0.7365 7.8915Z" fill="url(#paint0_linear_41_13784)"/>
</g>
<defs>
<linearGradient id="paint0_linear_41_13784" x1="0" y1="0" x2="24" y2="24" gradientUnits="userSpaceOnUse">
<stop stop-color="#F73636"/>
<stop offset="1" stop-color="#F73636" stop-opacity="0.8"/>
</linearGradient>
<clipPath id="clip0_41_13784">
<rect width="24" height="24" fill="white"/>
</clipPath>
</defs>
</svg>
