<svg width="375" height="190" viewBox="0 0 375 190" fill="none" xmlns="http://www.w3.org/2000/svg">
<path d="M0 77C128.516 140.624 365.625 131.453 375 190C321.875 190 0 190 0 190V77Z" fill="#4C5BD4"/>
<g clip-path="url(#clip0)">
<path d="M333.121 13.5442C311.019 -7.66495 279.539 -1.84353 262.243 14.1922C249.605 25.9269 229.697 42.9422 214.284 42.2024C199.003 41.4626 181.534 30.8657 162.549 39.0289C143.815 47.0697 138.697 73.6667 147.167 94.0034C155.667 114.412 186.682 130.998 224.207 146.468C237.993 152.242 252.813 155.138 267.758 154.978C267.758 154.978 301.728 154.626 314.493 146.458C324.488 140.049 328.769 135.84 339.575 119.529C347.738 107.182 353.207 89.8249 353.82 73.0085C354.59 52.4626 349.631 29.3912 333.121 13.5442Z" fill="#4C5BD4"/>
<path opacity="0.8" d="M333.121 13.5442C311.019 -7.66495 279.539 -1.84353 262.243 14.1922C249.605 25.9269 229.697 42.9422 214.284 42.2024C199.003 41.4626 181.534 30.8657 162.549 39.0289C143.815 47.0697 138.697 73.6667 147.167 94.0034C155.667 114.412 186.682 130.998 224.207 146.468C237.993 152.242 252.813 155.138 267.758 154.978C267.758 154.978 301.728 154.626 314.493 146.458C324.488 140.049 328.769 135.84 339.575 119.529C347.738 107.182 353.207 89.8249 353.82 73.0085C354.59 52.4626 349.631 29.3912 333.121 13.5442Z" fill="white"/>
<path d="M244.088 173.142C296.823 173.142 339.573 170.599 339.573 167.463C339.573 164.327 296.823 161.785 244.088 161.785C191.353 161.785 148.604 164.327 148.604 167.463C148.604 170.599 191.353 173.142 244.088 173.142Z" fill="#4C5BD4"/>
<path opacity="0.6" d="M244.088 173.142C296.823 173.142 339.573 170.599 339.573 167.463C339.573 164.327 296.823 161.785 244.088 161.785C191.353 161.785 148.604 164.327 148.604 167.463C148.604 170.599 191.353 173.142 244.088 173.142Z" fill="white"/>
<path d="M166.101 47.1484H325.106C326.521 47.1484 327.879 47.7107 328.88 48.7115C329.88 49.7124 330.443 51.0698 330.443 52.4852V157.281H160.769V52.4852C160.769 51.0707 161.331 49.714 162.331 48.7133C163.33 47.7126 164.686 47.1498 166.101 47.1484Z" fill="#4C5BD4" stroke="#263238" stroke-width="0.920603" stroke-miterlimit="10"/>
<path d="M323.56 55.7548H167.652V143.862H323.56V55.7548Z" fill="white"/>
<g style="mix-blend-mode:multiply" opacity="0.4">
<path d="M323.561 143.864V68.6545L194.597 143.864H323.561Z" fill="#4C5BD4"/>
</g>
<path d="M323.56 55.7548H167.652V143.862H323.56V55.7548Z" stroke="#263238" stroke-width="0.690452" stroke-miterlimit="10"/>
<path d="M304.296 151.98H187.688V157.725H304.296V151.98Z" fill="#4C5BD4" stroke="#263238" stroke-width="0.691688" stroke-miterlimit="10"/>
<path d="M304.296 154.751H187.688V157.73H304.296V154.751Z" fill="#4C5BD4" stroke="#263238" stroke-width="0.691688" stroke-miterlimit="10"/>
<path d="M147.046 161.133C147.046 161.133 148.964 163.475 154.699 165.388H337.281C337.281 165.388 341.536 164.322 343.454 161.342L147.046 161.133Z" fill="#4C5BD4" stroke="#263238" stroke-width="0.920603" stroke-miterlimit="10"/>
<path d="M342.489 156.939H148.035C147.274 156.939 146.658 157.555 146.658 158.316V160.036C146.658 160.796 147.274 161.413 148.035 161.413H342.489C343.25 161.413 343.867 160.796 343.867 160.036V158.316C343.867 157.555 343.25 156.939 342.489 156.939Z" fill="#4C5BD4" stroke="#263238" stroke-width="0.920603" stroke-miterlimit="10"/>
<path d="M245.57 51.971C246.393 51.971 247.06 51.304 247.06 50.4812C247.06 49.6584 246.393 48.9914 245.57 48.9914C244.747 48.9914 244.08 49.6584 244.08 50.4812C244.08 51.304 244.747 51.971 245.57 51.971Z" fill="#263238"/>
<path d="M225.887 48.9898H188.642C188.545 48.9898 188.448 48.9705 188.357 48.9331C188.267 48.8957 188.185 48.8408 188.116 48.7716C188.046 48.7024 187.992 48.6203 187.954 48.53C187.917 48.4396 187.897 48.3427 187.897 48.2449C187.897 48.1471 187.917 48.0502 187.954 47.9598C187.992 47.8695 188.046 47.7873 188.116 47.7182C188.185 47.649 188.267 47.5941 188.357 47.5567C188.448 47.5193 188.545 47.5 188.642 47.5H225.887C226.084 47.5013 226.273 47.5802 226.412 47.7196C226.552 47.8591 226.631 48.0477 226.632 48.2449C226.632 48.4425 226.554 48.6319 226.414 48.7716C226.274 48.9113 226.085 48.9898 225.887 48.9898Z" fill="#4C5BD4" stroke="#263238" stroke-width="0.691688" stroke-miterlimit="10"/>
<path d="M301.852 48.9898H264.607C264.409 48.9898 264.22 48.9113 264.08 48.7716C263.941 48.6319 263.862 48.4425 263.862 48.2449C263.863 48.0477 263.942 47.8591 264.082 47.7196C264.221 47.5802 264.41 47.5013 264.607 47.5H301.852C302.049 47.5 302.239 47.5785 302.379 47.7182C302.518 47.8579 302.597 48.0473 302.597 48.2449C302.597 48.4425 302.518 48.6319 302.379 48.7716C302.239 48.9113 302.049 48.9898 301.852 48.9898Z" fill="#4C5BD4" stroke="#263238" stroke-width="0.691688" stroke-miterlimit="10"/>
<path d="M328.983 78.1429C328.871 78.1429 328.762 78.0984 328.682 78.0192C328.602 77.9399 328.556 77.8322 328.555 77.7194V65.3776C328.556 65.2643 328.602 65.1561 328.682 65.076C328.762 64.9959 328.87 64.9503 328.983 64.949C329.096 64.9503 329.204 64.9961 329.283 65.0763C329.362 65.1566 329.407 65.2648 329.407 65.3776V77.7194C329.407 77.8317 329.362 77.9395 329.283 78.0189C329.203 78.0983 329.096 78.1429 328.983 78.1429Z" fill="#4C5BD4" stroke="#263238" stroke-width="0.691688" stroke-miterlimit="10"/>
<path d="M162.367 78.1429C162.311 78.1429 162.256 78.1319 162.205 78.1107C162.153 78.0894 162.106 78.0582 162.067 78.0189C162.028 77.9795 161.997 77.9329 161.975 77.8815C161.954 77.8301 161.943 77.775 161.943 77.7194V65.3776C161.943 65.2648 161.988 65.1566 162.067 65.0763C162.146 64.9961 162.254 64.9503 162.367 64.949C162.48 64.9503 162.588 64.9959 162.668 65.076C162.748 65.1561 162.794 65.2643 162.795 65.3776V77.7194C162.794 77.8322 162.748 77.9399 162.668 78.0192C162.588 78.0984 162.479 78.1429 162.367 78.1429Z" fill="#4C5BD4" stroke="#263238" stroke-width="0.691688" stroke-miterlimit="10"/>
<path d="M278.987 81.3782C279.711 80.868 280.492 79.9599 280.517 79.0007C280.527 78.7759 280.489 78.5517 280.407 78.3423C280.325 78.133 280.2 77.9431 280.039 77.785C279.879 77.6269 279.688 77.5041 279.478 77.4244C279.267 77.3446 279.043 77.3098 278.818 77.3221C277.466 77.4446 276.267 79.567 275.981 80.7456C275.981 80.8476 275.777 82.4854 275.803 82.4803C275.828 82.4752 278.129 81.9854 278.987 81.3782Z" fill="#263238"/>
<path d="M267.307 106.962C267.275 106.78 267.204 106.607 267.1 106.454C266.996 106.301 266.86 106.173 266.703 106.076C266.545 105.98 266.368 105.918 266.185 105.895C266.002 105.871 265.815 105.887 265.639 105.942C264.618 106.294 264.042 108.207 264.057 109.197C264.057 109.258 264.154 110.003 264.21 110.38C264.093 110.089 263.981 109.794 263.863 109.487C263.695 109.044 263.532 108.574 263.353 108.115L263.123 107.385C263.042 107.14 262.991 106.875 262.924 106.651C262.833 106.283 262.756 105.901 262.679 105.518C263.509 105.288 264.297 104.93 265.016 104.457C265.572 103.947 266.139 103.197 266.083 102.416C266.076 102.233 266.031 102.053 265.95 101.888C265.869 101.723 265.754 101.577 265.613 101.46C265.472 101.342 265.308 101.256 265.131 101.206C264.954 101.156 264.769 101.144 264.588 101.171C263.501 101.365 262.664 103.171 262.547 104.151C262.547 104.181 262.547 104.39 262.547 104.661C262.486 104.283 262.419 103.911 262.368 103.528C262.215 102.447 262.098 101.339 261.975 100.232C261.95 99.9976 261.919 99.768 261.894 99.5384C262.747 99.2993 263.558 98.9329 264.302 98.4517C264.858 97.9415 265.424 97.1915 265.368 96.4109C265.361 96.2277 265.315 96.0482 265.234 95.8838C265.153 95.7194 265.038 95.5739 264.897 95.4565C264.756 95.3392 264.592 95.2528 264.416 95.2027C264.24 95.1527 264.055 95.1402 263.873 95.166C262.787 95.3599 261.95 97.166 261.833 98.1456C261.833 98.1813 261.833 98.4313 261.833 98.7068C261.756 98.1099 261.674 97.5078 261.572 96.916C261.406 95.9001 261.172 94.8962 260.873 93.9109C261.011 93.8701 262.73 93.3497 263.358 92.8038C263.909 92.2935 264.481 91.5435 264.419 90.7629C264.413 90.5795 264.367 90.3995 264.286 90.2348C264.206 90.07 264.091 89.9241 263.95 89.8066C263.809 89.6892 263.645 89.6028 263.468 89.553C263.291 89.5033 263.106 89.4914 262.924 89.518C261.838 89.7119 261.001 91.518 260.884 92.4976C260.884 92.564 260.853 93.4721 260.858 93.7935C260.856 93.7817 260.856 93.7696 260.858 93.7578C260.537 92.7989 260.133 91.8701 259.649 90.9823C259.222 90.1862 258.749 89.4161 258.231 88.6762C257.756 87.9823 257.282 87.3803 256.853 86.8497C256.623 86.564 256.404 86.3038 256.2 86.0691C256.2 86.0691 255.833 84.7884 255.797 84.7068C255.404 83.8038 254.113 82.2884 253.011 82.4007C252.829 82.4236 252.655 82.4845 252.498 82.5796C252.341 82.6748 252.207 82.8018 252.103 82.9526C251.999 83.1033 251.928 83.2743 251.894 83.4544C251.861 83.6345 251.866 83.8196 251.909 83.9976C252.062 84.7629 252.817 85.3497 253.486 85.6711C254.336 85.9384 255.222 86.0709 256.113 86.064C256.322 86.3191 256.542 86.5742 256.776 86.8905C257.19 87.4313 257.654 88.0435 258.108 88.7425C258.231 88.9313 258.353 89.1354 258.475 89.3293C258.2 89.0435 257.817 88.6507 257.771 88.6201C257.006 87.9976 255.164 87.2476 254.241 87.8497C254.09 87.9545 253.963 88.0899 253.867 88.247C253.772 88.4042 253.711 88.5796 253.688 88.762C253.665 88.9443 253.68 89.1295 253.733 89.3054C253.786 89.4814 253.876 89.6442 253.996 89.7833C254.274 90.058 254.608 90.2698 254.975 90.4044C255.342 90.5391 255.734 90.5935 256.123 90.564C256.889 90.564 258.338 89.8497 258.674 89.6966C258.945 90.1354 259.185 90.5946 259.455 91.0895C259.914 91.9758 260.293 92.9013 260.588 93.8548C260.588 93.9109 260.588 93.9721 260.628 94.0282C260.516 93.8599 259.838 93.0078 259.782 92.9415C259.088 92.2374 257.338 91.2884 256.353 91.7884C256.191 91.8756 256.05 91.996 255.938 92.1416C255.826 92.2872 255.746 92.4547 255.703 92.6334C255.66 92.812 255.655 92.9977 255.689 93.1783C255.723 93.3588 255.794 93.5302 255.899 93.6813C256.317 94.3344 257.236 94.615 257.97 94.6711C258.817 94.7374 260.572 94.0895 260.639 94.0639C260.905 95.0243 261.11 96.0008 261.251 96.9874C261.358 97.717 261.44 98.4568 261.511 99.2068C261.363 98.9925 260.725 98.1864 260.674 98.1354C259.981 97.4313 258.231 96.4874 257.246 96.9823C257.084 97.0695 256.943 97.1898 256.831 97.3354C256.719 97.481 256.639 97.6486 256.596 97.8272C256.553 98.0059 256.548 98.1916 256.582 98.3721C256.616 98.5527 256.687 98.7241 256.792 98.8752C257.21 99.5333 258.128 99.8089 258.863 99.865C259.69 99.9313 261.373 99.3191 261.516 99.268C261.552 99.6048 261.583 99.9466 261.613 100.288C261.715 101.401 261.807 102.513 261.935 103.61C261.981 103.987 262.037 104.36 262.093 104.732C261.858 104.421 261.414 103.865 261.373 103.819C260.679 103.12 258.929 102.171 257.945 102.671C257.783 102.757 257.641 102.877 257.528 103.022C257.416 103.167 257.335 103.334 257.292 103.512C257.249 103.69 257.243 103.876 257.277 104.056C257.31 104.237 257.381 104.408 257.486 104.559C257.909 105.217 258.827 105.493 259.562 105.549C260.437 105.492 261.297 105.301 262.113 104.982C262.21 105.605 262.317 106.217 262.455 106.814C262.521 107.074 262.572 107.324 262.649 107.579C262.725 107.834 262.787 108.089 262.858 108.314C263.021 108.824 263.169 109.268 263.333 109.727C263.414 109.957 263.496 110.171 263.577 110.396C263.389 110.044 263.067 109.493 263.037 109.447C262.46 108.651 260.873 107.447 259.822 107.788C259.65 107.85 259.492 107.948 259.359 108.075C259.227 108.202 259.122 108.355 259.053 108.525C258.984 108.695 258.951 108.877 258.957 109.061C258.963 109.244 259.007 109.424 259.088 109.589C259.404 110.304 260.271 110.717 260.986 110.885C261.7 111.054 263.481 110.737 263.685 110.697C263.889 111.243 264.093 111.773 264.287 112.268C264.914 113.829 265.491 115.105 265.909 115.993C266.327 116.88 266.588 117.38 266.588 117.38C266.636 117.467 266.717 117.532 266.812 117.56C266.907 117.589 267.01 117.579 267.098 117.533C267.184 117.484 267.247 117.404 267.276 117.309C267.304 117.214 267.295 117.112 267.251 117.023C267.251 117.023 266.991 116.544 266.557 115.671C266.123 114.799 265.537 113.554 264.873 112.023C264.685 111.579 264.491 111.11 264.297 110.625C264.496 110.528 266.052 109.778 266.572 109.156C267.093 108.533 267.481 107.722 267.307 106.962Z" fill="#263238"/>
<path d="M258.675 89.4815C258.675 89.4815 260.323 88.461 260.797 87.7417C261.205 87.1243 261.547 86.2111 261.307 85.4968C261.252 85.3221 261.16 85.161 261.039 85.024C260.917 84.887 260.768 84.7771 260.601 84.7016C260.434 84.626 260.253 84.5864 260.069 84.5854C259.886 84.5844 259.705 84.622 259.537 84.6957C258.516 85.1651 258.21 87.1294 258.338 88.109C258.338 88.1906 258.675 89.4917 258.675 89.4815Z" fill="#263238"/>
<path d="M283.787 81.3802C284.64 82.0128 286.976 82.4822 286.976 82.4822C286.976 82.4822 286.823 80.8496 286.798 80.7475C286.527 79.569 285.318 77.4465 283.966 77.3241C283.741 77.311 283.516 77.3452 283.306 77.4247C283.095 77.5041 282.903 77.627 282.743 77.7852C282.583 77.9435 282.458 78.1336 282.376 78.3434C282.294 78.5531 282.257 78.7777 282.267 79.0026C282.277 79.9363 283.058 80.819 283.787 81.3802Z" fill="#263238"/>
<path d="M293.48 104.007C292.128 104.063 290.807 106.119 290.48 107.288C290.48 107.354 290.337 108.124 290.266 108.614C290.266 108.318 290.266 108.038 290.266 107.737C290.266 107.14 290.235 106.543 290.21 105.905C290.21 105.599 290.169 105.288 290.143 104.971C290.118 104.655 290.072 104.328 290.036 104.007C289.939 103.257 289.807 102.507 289.653 101.747C290.164 101.747 292.031 101.691 292.852 101.313C293.674 100.935 294.613 100.221 294.817 99.2722C294.874 99.054 294.884 98.8262 294.846 98.6038C294.809 98.3814 294.724 98.1695 294.599 97.982C294.474 97.7945 294.31 97.6357 294.119 97.516C293.928 97.3963 293.714 97.3184 293.49 97.2875C292.143 97.1294 290.526 98.9661 290.026 100.073C289.995 100.14 289.725 100.971 289.587 101.43C289.49 100.976 289.398 100.522 289.291 100.068C288.97 98.7518 288.602 97.4304 288.245 96.109C288.133 95.7059 288.031 95.2977 287.924 94.8947C288.215 94.8947 290.337 94.8947 291.235 94.4559C292.133 94.0171 292.995 93.3641 293.199 92.4151C293.255 92.1969 293.265 91.9693 293.227 91.7473C293.189 91.5252 293.105 91.3136 292.98 91.1263C292.854 90.939 292.691 90.7802 292.5 90.6603C292.31 90.5404 292.096 90.4621 291.873 90.4304C290.526 90.2773 288.914 92.1141 288.414 93.2161C288.373 93.2977 287.985 94.4967 287.903 94.8079C287.669 93.9151 287.444 93.0273 287.261 92.1396C287.006 90.9466 286.831 89.7382 286.735 88.5222C286.893 88.5222 289.138 88.5222 290.067 88.0835C290.888 87.7059 291.827 86.9916 292.036 86.0426C292.091 85.8241 292.1 85.5964 292.061 85.3743C292.023 85.1523 291.938 84.9408 291.812 84.7536C291.687 84.5664 291.523 84.4078 291.332 84.2879C291.142 84.1681 290.928 84.0897 290.704 84.0579C289.358 83.9049 287.745 85.7416 287.245 86.8437C287.204 86.9304 286.791 88.2212 286.735 88.4559C286.735 88.3896 286.735 88.313 286.735 88.2416C286.667 87.0176 286.708 85.79 286.858 84.5732C286.934 83.8998 287.041 83.2569 287.164 82.6396C287.602 82.6855 289.551 82.859 290.444 82.5579C291.337 82.2569 292.317 81.6702 292.623 80.762C292.701 80.5512 292.735 80.3262 292.721 80.1016C292.707 79.8771 292.647 79.6579 292.543 79.4583C292.439 79.2587 292.294 79.0831 292.118 78.943C291.942 78.8028 291.739 78.7012 291.521 78.6447C290.194 78.3437 288.388 79.9916 287.771 81.0324C287.74 81.0886 287.46 81.7008 287.261 82.1549C287.317 81.8743 287.373 81.5835 287.434 81.3182C287.664 80.2977 287.944 79.4151 288.179 78.6192C288.322 78.1702 288.46 77.762 288.592 77.3845C289.036 77.2059 290.812 76.4763 291.454 75.8079C292.097 75.1396 292.704 74.1549 292.557 73.211C292.53 72.9872 292.457 72.7715 292.341 72.578C292.226 72.3844 292.071 72.2175 291.886 72.0879C291.702 71.9584 291.492 71.8692 291.271 71.8263C291.05 71.7833 290.822 71.7875 290.602 71.8386C289.291 72.1804 288.449 74.4763 288.378 75.6855C288.378 75.7875 288.47 77.4355 288.49 77.4253H288.516C288.383 77.7875 288.24 78.1753 288.092 78.6039C287.832 79.3947 287.541 80.2926 287.291 81.2926C287.009 82.3656 286.789 83.4542 286.633 84.5528C286.455 85.7824 286.387 87.0254 286.429 88.2671V88.313C286.296 87.9406 285.888 86.9049 285.847 86.8335C285.276 85.762 283.541 84.0375 282.21 84.2824C281.911 84.3359 281.637 84.4802 281.424 84.6957C281.212 84.4791 280.937 84.3346 280.638 84.2824C279.306 84.0426 277.577 85.7671 277.005 86.8335C276.965 86.9049 276.551 87.9406 276.419 88.313C276.419 88.313 276.419 88.2824 276.419 88.2671C276.459 87.0253 276.389 85.7823 276.21 84.5528C276.053 83.4548 275.835 82.3663 275.556 81.2926C275.306 80.2722 275.016 79.3947 274.75 78.6039C274.602 78.1753 274.465 77.7875 274.327 77.4253H274.352C274.352 77.4253 274.47 75.7875 274.465 75.6855C274.398 74.4763 273.551 72.1804 272.24 71.8386C272.021 71.7875 271.793 71.7833 271.572 71.8263C271.35 71.8692 271.141 71.9584 270.956 72.0879C270.772 72.2175 270.617 72.3844 270.501 72.578C270.386 72.7715 270.313 72.9872 270.286 73.211C270.138 74.1549 270.761 75.16 271.388 75.8079C272.016 76.4559 273.806 77.2059 274.25 77.3845C274.383 77.762 274.521 78.1702 274.669 78.6192C274.914 79.4151 275.179 80.3182 275.409 81.3182C275.47 81.5835 275.526 81.8743 275.587 82.1549C275.388 81.7008 275.113 81.0886 275.077 81.0324C274.46 80.012 272.653 78.3437 271.332 78.6447C271.114 78.7005 270.91 78.8017 270.733 78.9417C270.557 79.0817 270.412 79.2573 270.308 79.4571C270.204 79.6569 270.143 79.8764 270.13 80.1013C270.116 80.3261 270.15 80.5513 270.23 80.762C270.536 81.6702 271.546 82.2926 272.403 82.5579C273.261 82.8233 275.245 82.6855 275.689 82.6396C275.807 83.2569 275.914 83.8998 275.99 84.5732C276.142 85.7898 276.184 87.0175 276.118 88.2416C276.118 88.313 276.118 88.3896 276.092 88.4559C276.036 88.2212 275.618 86.9253 275.582 86.8437C275.072 85.7416 273.465 83.9049 272.118 84.0579C271.895 84.0896 271.681 84.1679 271.49 84.2879C271.299 84.4078 271.136 84.5666 271.011 84.7539C270.886 84.9411 270.801 85.1527 270.764 85.3748C270.726 85.5969 270.735 85.8244 270.791 86.0426C270.995 86.9763 271.934 87.6906 272.755 88.0835C273.684 88.512 275.929 88.5222 276.087 88.5222C275.986 89.7416 275.807 90.9533 275.551 92.1498C275.363 93.0375 275.138 93.9253 274.903 94.8181C274.822 94.5069 274.434 93.2875 274.393 93.2263C273.883 92.1243 272.276 90.2875 270.929 90.4406C270.706 90.4723 270.492 90.5506 270.301 90.6705C270.111 90.7904 269.947 90.9492 269.822 91.1365C269.697 91.3238 269.613 91.5354 269.575 91.7575C269.537 91.9795 269.546 92.2071 269.602 92.4253C269.807 93.359 270.745 94.0732 271.567 94.4661C272.465 94.8794 274.592 94.9049 274.878 94.9049C274.771 95.3079 274.669 95.7161 274.557 96.1192C274.199 97.4406 273.832 98.762 273.536 100.078C273.424 100.532 273.332 100.987 273.235 101.441C273.097 100.981 272.827 100.15 272.796 100.083C272.286 98.9763 270.679 97.1396 269.332 97.2977C269.109 97.3294 268.895 97.4077 268.704 97.5277C268.514 97.6476 268.35 97.8064 268.225 97.9937C268.1 98.1809 268.016 98.3925 267.978 98.6146C267.94 98.8367 267.949 99.0642 268.005 99.2824C268.21 100.216 269.148 100.925 269.97 101.323C270.791 101.721 272.638 101.752 273.169 101.757C273.016 102.517 272.883 103.288 272.786 104.017C272.75 104.339 272.694 104.67 272.679 104.981C272.664 105.293 272.633 105.609 272.613 105.915C272.587 106.553 272.567 107.15 272.562 107.747C272.562 108.048 272.562 108.328 272.562 108.624C272.49 108.114 272.363 107.364 272.342 107.298C272.016 106.129 270.699 104.073 269.342 104.017C269.117 104.015 268.894 104.061 268.688 104.151C268.482 104.241 268.297 104.373 268.145 104.539C267.993 104.705 267.877 104.901 267.806 105.114C267.734 105.327 267.709 105.553 267.73 105.777C267.791 106.737 268.613 107.578 269.368 108.078C270.123 108.578 272.225 108.961 272.556 109.012C272.556 109.731 272.556 110.425 272.556 111.078C272.613 113.145 272.735 114.859 272.837 116.063C272.939 117.267 273.026 117.951 273.026 117.951C273.055 118.066 273.126 118.167 273.225 118.233C273.325 118.299 273.445 118.325 273.563 118.307C273.68 118.29 273.787 118.229 273.863 118.136C273.938 118.044 273.976 117.927 273.97 117.808C273.97 117.808 273.873 117.145 273.745 115.956C273.618 114.767 273.46 113.073 273.358 111.032C273.332 110.446 273.306 109.818 273.291 109.175C273.628 109.145 275.694 108.935 276.536 108.456C277.378 107.976 278.199 107.216 278.322 106.267C278.358 106.045 278.347 105.818 278.29 105.6C278.232 105.382 278.13 105.179 277.989 105.003C277.848 104.828 277.672 104.684 277.471 104.581C277.271 104.478 277.052 104.418 276.827 104.405C275.47 104.369 274.021 106.339 273.618 107.466C273.592 107.538 273.383 108.435 273.291 108.895C273.291 108.507 273.291 108.124 273.291 107.716C273.291 107.14 273.291 106.522 273.291 105.925C273.291 105.619 273.327 105.308 273.342 104.992C273.358 104.675 273.398 104.369 273.424 104.058C273.475 103.594 273.546 103.124 273.623 102.65C274.23 102.68 275.96 102.731 276.771 102.42C277.582 102.109 278.602 101.446 278.863 100.527C278.933 100.313 278.957 100.087 278.933 99.863C278.91 99.639 278.84 99.4225 278.727 99.2275C278.615 99.0325 278.462 98.8635 278.28 98.7314C278.097 98.5993 277.889 98.5072 277.669 98.461C276.337 98.2161 274.608 99.9457 274.031 101.012L273.807 101.568C273.888 101.109 273.975 100.65 274.077 100.191C274.363 98.8794 274.699 97.5528 275.031 96.2212L275.23 95.3896C275.74 95.4151 277.618 95.4916 278.47 95.1651C279.322 94.8385 280.301 94.1906 280.567 93.2722C280.636 93.0578 280.659 92.8313 280.635 92.6073C280.611 92.3834 280.54 92.1669 280.427 91.9721C280.314 91.7773 280.162 91.6084 279.979 91.4764C279.796 91.3444 279.588 91.2522 279.368 91.2059C278.036 90.961 276.306 92.6906 275.73 93.7569C275.73 93.7977 275.597 94.0783 275.47 94.3998C275.638 93.6753 275.796 92.9508 275.934 92.2263C276.176 90.985 276.333 89.7287 276.403 88.4661C276.689 88.4661 278.817 88.5988 279.74 88.2416C280.388 88.0045 280.967 87.61 281.424 87.0937C281.881 87.61 282.46 88.0045 283.108 88.2416C284.031 88.5988 286.169 88.4814 286.444 88.4661C286.518 89.7285 286.674 90.9846 286.914 92.2263C287.051 92.9508 287.21 93.6753 287.378 94.3998C287.25 94.0783 287.138 93.7977 287.118 93.7569C286.546 92.6906 284.817 90.961 283.48 91.2059C283.26 91.2521 283.051 91.3442 282.869 91.4763C282.687 91.6084 282.534 91.7774 282.421 91.9724C282.309 92.1674 282.239 92.3839 282.215 92.6079C282.192 92.8318 282.216 93.0582 282.286 93.2722C282.551 94.1906 283.536 94.8385 284.378 95.1651C285.22 95.4916 287.118 95.4151 287.618 95.3896C287.684 95.6702 287.75 95.9457 287.822 96.2212C288.148 97.5528 288.485 98.8794 288.776 100.191C288.878 100.65 288.96 101.109 289.046 101.568C288.934 101.288 288.837 101.058 288.817 101.012C288.245 99.9457 286.516 98.2161 285.179 98.461C284.959 98.5072 284.75 98.5993 284.568 98.7314C284.386 98.8635 284.233 99.0325 284.12 99.2275C284.008 99.4225 283.938 99.639 283.914 99.863C283.891 100.087 283.915 100.313 283.985 100.527C284.25 101.446 285.235 102.094 286.077 102.42C286.919 102.747 288.628 102.68 289.23 102.65C289.301 103.124 289.378 103.594 289.424 104.058C289.454 104.369 289.5 104.67 289.511 104.992C289.521 105.313 289.541 105.619 289.557 105.925C289.557 106.522 289.557 107.14 289.557 107.716C289.557 108.124 289.557 108.507 289.557 108.895C289.46 108.435 289.25 107.538 289.225 107.466C288.822 106.323 287.373 104.354 286.016 104.405C285.791 104.418 285.571 104.478 285.371 104.581C285.171 104.684 284.995 104.828 284.854 105.003C284.713 105.179 284.61 105.382 284.553 105.6C284.496 105.818 284.485 106.045 284.521 106.267C284.643 107.216 285.541 108.007 286.307 108.456C287.072 108.905 289.215 109.145 289.551 109.175C289.551 109.818 289.516 110.446 289.485 111.032C289.388 113.073 289.23 114.772 289.102 115.956C288.975 117.14 288.873 117.808 288.873 117.808C288.867 117.927 288.905 118.044 288.98 118.136C289.055 118.229 289.162 118.29 289.28 118.307C289.398 118.325 289.518 118.299 289.617 118.233C289.716 118.167 289.788 118.066 289.817 117.951C289.817 117.951 289.903 117.262 290.011 116.063C290.118 114.864 290.235 113.145 290.286 111.078C290.286 110.425 290.312 109.731 290.312 109.012C290.643 108.961 292.689 108.619 293.505 108.078C294.322 107.538 295.082 106.737 295.138 105.777C295.162 105.549 295.136 105.318 295.062 105.1C294.989 104.882 294.87 104.682 294.712 104.514C294.555 104.347 294.364 104.214 294.151 104.127C293.939 104.039 293.71 103.998 293.48 104.007Z" fill="#263238"/>
<path d="M230.838 91.25H199.511C197.35 91.25 195.598 93.002 195.598 95.1633V161.296C195.598 163.457 197.35 165.209 199.511 165.209H230.838C232.999 165.209 234.751 163.457 234.751 161.296V95.1633C234.751 93.002 232.999 91.25 230.838 91.25Z" fill="#263238"/>
<path d="M233.012 99.3726H197.339V157.092H233.012V99.3726Z" fill="white"/>
<g style="mix-blend-mode:multiply" opacity="0.4">
<path d="M233.011 137.693L199.756 157.086H233.011V137.693Z" fill="#4C5BD4"/>
</g>
<path d="M233.012 99.3726H197.339V157.092H233.012V99.3726Z" stroke="#263238" stroke-width="0.52825" stroke-miterlimit="10"/>
<path d="M219.053 95.3316H211.298C211.163 95.3316 211.033 95.2778 210.938 95.1821C210.842 95.0865 210.788 94.9567 210.788 94.8214C210.788 94.6861 210.842 94.5563 210.938 94.4606C211.033 94.3649 211.163 94.3112 211.298 94.3112H219.053C219.189 94.3112 219.318 94.3649 219.414 94.4606C219.51 94.5563 219.564 94.6861 219.564 94.8214C219.564 94.9567 219.51 95.0865 219.414 95.1821C219.318 95.2778 219.189 95.3316 219.053 95.3316Z" fill="#4C5BD4"/>
<path opacity="0.4" d="M219.053 95.3316H211.298C211.163 95.3316 211.033 95.2778 210.938 95.1821C210.842 95.0865 210.788 94.9567 210.788 94.8214C210.788 94.6861 210.842 94.5563 210.938 94.4606C211.033 94.3649 211.163 94.3112 211.298 94.3112H219.053C219.189 94.3112 219.318 94.3649 219.414 94.4606C219.51 94.5563 219.564 94.6861 219.564 94.8214C219.564 94.9567 219.51 95.0865 219.414 95.1821C219.318 95.2778 219.189 95.3316 219.053 95.3316Z" fill="white"/>
<path d="M217.292 160.347C217.292 159.928 217.168 159.519 216.935 159.171C216.702 158.823 216.372 158.551 215.985 158.391C215.598 158.231 215.172 158.189 214.761 158.271C214.351 158.352 213.973 158.554 213.677 158.85C213.381 159.146 213.18 159.523 213.098 159.934C213.016 160.345 213.058 160.771 213.218 161.157C213.379 161.544 213.65 161.875 213.998 162.108C214.346 162.34 214.756 162.465 215.174 162.465C215.736 162.465 216.275 162.241 216.672 161.844C217.069 161.447 217.292 160.909 217.292 160.347Z" fill="#4C5BD4" stroke="#263238" stroke-width="0.704333" stroke-miterlimit="10"/>
<path d="M216.247 159.275H214.104V161.418H216.247V159.275Z" fill="#4C5BD4" stroke="#263238" stroke-width="0.52825" stroke-linecap="round" stroke-linejoin="round"/>
<path opacity="0.6" d="M216.247 159.275H214.104V161.418H216.247V159.275Z" fill="white" stroke="#263238" stroke-width="0.52825" stroke-linecap="round" stroke-linejoin="round"/>
<path d="M216.247 159.275H214.104V161.418H216.247V159.275Z" stroke="#263238" stroke-width="0.52825" stroke-linecap="round" stroke-linejoin="round"/>
<path d="M336.826 159.687V114.039C336.826 110.889 334.272 108.335 331.121 108.335H234.759C231.609 108.335 229.055 110.889 229.055 114.039V159.687C229.055 162.838 231.609 165.392 234.759 165.392H331.121C334.272 165.392 336.826 162.838 336.826 159.687Z" fill="#4C5BD4" stroke="#263238" stroke-width="0.868674" stroke-miterlimit="10"/>
<path d="M331.081 162.856V110.871H234.8V162.856H331.081Z" fill="white"/>
<g style="mix-blend-mode:multiply" opacity="0.4">
<path d="M331.081 121.306L259.841 162.852H331.081V121.306Z" fill="#4C5BD4"/>
</g>
<path d="M331.081 162.856V110.871H234.8V162.856H331.081Z" stroke="#263238" stroke-width="0.651505" stroke-miterlimit="10"/>
<path d="M333.671 137.641C333.516 137.641 333.364 137.595 333.234 137.508C333.105 137.422 333.004 137.299 332.945 137.155C332.886 137.011 332.87 136.853 332.901 136.7C332.932 136.547 333.007 136.408 333.118 136.298C333.228 136.188 333.368 136.114 333.521 136.084C333.674 136.054 333.832 136.071 333.976 136.131C334.119 136.191 334.241 136.293 334.327 136.422C334.413 136.552 334.458 136.705 334.457 136.86C334.456 137.068 334.372 137.266 334.225 137.413C334.078 137.559 333.879 137.641 333.671 137.641Z" fill="#263238"/>
<path d="M319.724 108.855H323.168C323.272 108.855 323.356 108.771 323.356 108.667V108.524C323.356 108.42 323.272 108.335 323.168 108.335H319.724C319.62 108.335 319.535 108.42 319.535 108.524V108.667C319.535 108.771 319.62 108.855 319.724 108.855Z" fill="#4C5BD4" stroke="#263238" stroke-width="0.652671" stroke-miterlimit="10"/>
<path d="M307.56 108.851H314.157C314.191 108.851 314.226 108.845 314.258 108.832C314.29 108.819 314.319 108.8 314.344 108.776C314.369 108.752 314.388 108.723 314.402 108.691C314.415 108.659 314.422 108.625 314.422 108.59C314.422 108.556 314.415 108.521 314.402 108.49C314.388 108.458 314.369 108.429 314.344 108.405C314.319 108.38 314.29 108.361 314.258 108.348C314.226 108.336 314.191 108.329 314.157 108.33H307.56C307.491 108.33 307.424 108.358 307.376 108.406C307.327 108.455 307.299 108.521 307.299 108.59C307.299 108.659 307.327 108.726 307.376 108.774C307.424 108.823 307.491 108.851 307.56 108.851Z" fill="#4C5BD4" stroke="#263238" stroke-width="0.652671" stroke-miterlimit="10"/>
<path d="M325.688 166.835C325.688 167.595 321.137 168.212 315.525 168.212C309.913 168.212 305.357 167.6 305.357 166.835C305.357 166.069 309.908 165.452 315.525 165.452C321.143 165.452 325.688 166.069 325.688 166.835Z" fill="#4C5BD4"/>
<path d="M306.775 146.387C306.775 157.999 315.959 167.407 315.959 167.407C315.959 167.407 325.142 157.999 325.142 146.387C325.142 134.774 315.959 125.366 315.959 125.366C315.959 125.366 306.775 134.774 306.775 146.387Z" fill="#263238"/>
<path d="M315.975 167.407V125.366" stroke="white" stroke-width="0.738" stroke-miterlimit="10"/>
<path d="M315.974 140.31L310.821 135.815" stroke="white" stroke-width="0.738" stroke-miterlimit="10"/>
<path d="M316.057 147.258L322.429 138.018" stroke="white" stroke-width="0.738" stroke-miterlimit="10"/>
<path d="M315.974 151.264L308.372 144.478" stroke="white" stroke-width="0.738" stroke-miterlimit="10"/>
<path d="M316.057 156.658L323.577 149.953" stroke="white" stroke-width="0.738" stroke-miterlimit="10"/>
<path d="M316.056 161.314L310.168 156.656" stroke="white" stroke-width="0.738" stroke-miterlimit="10"/>
<path d="M300.402 161.479C304.872 166.52 312.479 167.06 312.479 167.06C312.479 167.06 312.851 159.443 308.397 154.402C303.943 149.361 296.321 148.821 296.321 148.821C296.321 148.821 295.918 156.463 300.402 161.479Z" fill="#263238"/>
<path d="M312.48 167.08L296.306 148.84" stroke="white" stroke-width="0.738" stroke-miterlimit="10"/>
<path d="M302.055 155.325L298.091 155.356" stroke="white" stroke-width="0.738" stroke-miterlimit="10"/>
<path d="M304.766 158.31L303.975 151.851" stroke="white" stroke-width="0.738" stroke-miterlimit="10"/>
<path d="M306.27 160.076L300.361 160.061" stroke="white" stroke-width="0.738" stroke-miterlimit="10"/>
<path d="M308.384 162.386L309.067 156.585" stroke="white" stroke-width="0.738" stroke-miterlimit="10"/>
<path d="M310.174 164.407L305.827 164.652" stroke="white" stroke-width="0.738" stroke-miterlimit="10"/>
<path d="M323.841 154.249C319.147 159.076 319.173 166.708 319.173 166.708C319.173 166.708 326.8 166.509 331.489 161.678C336.178 156.846 336.158 149.234 336.158 149.234C336.158 149.234 328.53 149.417 323.841 154.249Z" fill="#263238"/>
<path d="M319.173 166.709L336.158 149.219" stroke="white" stroke-width="0.738" stroke-miterlimit="10"/>
<path d="M330.122 155.433L329.795 151.484" stroke="white" stroke-width="0.738" stroke-miterlimit="10"/>
<path d="M327.346 158.355L333.729 157.09" stroke="white" stroke-width="0.738" stroke-miterlimit="10"/>
<path d="M325.694 159.989L325.276 154.096" stroke="white" stroke-width="0.738" stroke-miterlimit="10"/>
<path d="M323.55 162.268L329.387 162.513" stroke="white" stroke-width="0.738" stroke-miterlimit="10"/>
<path d="M321.668 164.209L321.102 159.892" stroke="white" stroke-width="0.738" stroke-miterlimit="10"/>
<path d="M179.8 155.075C179.8 155.075 216.387 136.014 224.321 146.529C232.254 157.044 216.356 165.305 213.285 167.162C210.214 169.019 179.137 179.575 179.137 179.575L170.938 170.825L179.8 155.075Z" fill="#263238"/>
<path d="M194.23 165.274L208.817 173.126L222.148 176.013C222.375 176.064 222.59 176.16 222.778 176.296C222.967 176.432 223.125 176.605 223.244 176.805C223.363 177.005 223.44 177.227 223.47 177.458C223.5 177.688 223.483 177.922 223.419 178.146C223.345 178.406 223.21 178.644 223.024 178.841C222.839 179.037 222.608 179.186 222.352 179.274C219.041 180.427 206.852 184.605 205.817 183.973C204.618 183.238 189.878 176.707 189.878 176.707L194.23 165.274Z" fill="white"/>
<g opacity="0.6">
<path opacity="0.6" d="M223.419 178.148L204.822 183.443L205.444 183.765C205.986 184.042 206.608 184.116 207.2 183.974C208.776 183.602 213.113 182.443 222.327 179.301C222.592 179.21 222.83 179.056 223.021 178.851C223.211 178.646 223.348 178.398 223.419 178.127V178.148Z" fill="white"/>
</g>
<g opacity="0.6">
<path opacity="0.6" d="M201.603 178.009C201.829 177.894 202.089 177.867 202.333 177.933C202.577 177.999 202.788 178.154 202.925 178.366C203.047 178.588 203.079 178.848 203.016 179.092C202.952 179.337 202.797 179.548 202.583 179.683C202.343 179.802 202.068 179.828 201.81 179.756C201.552 179.685 201.329 179.52 201.185 179.295C201.081 179.051 201.076 178.776 201.171 178.528C201.267 178.281 201.454 178.08 201.695 177.968" fill="white"/>
</g>
<path d="M215.251 178.234C215.332 178.173 214.74 177.443 214.74 176.357C214.74 175.27 215.363 174.556 215.281 174.489C215.2 174.423 215.041 174.586 214.817 174.908C214.535 175.337 214.382 175.838 214.378 176.352C214.366 176.865 214.505 177.37 214.776 177.806C215.011 178.132 215.22 178.265 215.251 178.234Z" fill="#263238"/>
<path d="M217.76 178.188C217.862 178.152 217.623 177.433 217.791 176.561C217.959 175.688 218.424 175.096 218.342 175.03C218.26 174.964 217.612 175.499 217.434 176.499C217.255 177.499 217.684 178.249 217.76 178.188Z" fill="#263238"/>
<path d="M211.72 178.901C211.822 178.866 211.45 177.764 211.598 176.381C211.746 174.998 212.302 173.983 212.205 173.932C212.108 173.881 211.373 174.861 211.235 176.345C211.098 177.83 211.643 178.952 211.72 178.901Z" fill="#263238"/>
<path d="M207.088 176.882C207.195 176.882 207.267 175.902 207.772 174.841C208.277 173.78 208.956 173.05 208.884 172.968C208.813 172.887 207.966 173.519 207.44 174.688C206.915 175.856 206.991 176.897 207.088 176.882Z" fill="#263238"/>
<path d="M202.745 174.687C202.852 174.687 202.781 173.61 203.403 172.519C204.026 171.427 204.934 170.901 204.888 170.809C204.842 170.718 204.602 170.84 204.235 171.08C203.755 171.401 203.36 171.834 203.082 172.34C202.801 172.845 202.644 173.41 202.623 173.988C202.618 174.427 202.699 174.692 202.745 174.687Z" fill="#263238"/>
<path d="M202.562 172.126C202.562 172.126 202.394 171.973 202.016 171.82C201.479 171.608 200.905 171.506 200.328 171.519C199.904 171.491 199.483 171.602 199.129 171.835C199.021 171.925 198.944 172.045 198.905 172.18C198.867 172.314 198.87 172.457 198.914 172.59C199.022 172.843 199.218 173.048 199.465 173.167C199.978 173.385 200.551 173.418 201.086 173.26C201.62 173.101 202.083 172.762 202.394 172.299C202.693 171.836 202.848 171.294 202.838 170.742C202.828 170.191 202.654 169.655 202.338 169.202C202.259 169.088 202.156 168.993 202.036 168.922C201.916 168.852 201.782 168.808 201.644 168.794C201.503 168.796 201.366 168.842 201.253 168.925C201.139 169.008 201.055 169.125 201.011 169.259C200.903 169.661 200.903 170.085 201.011 170.488C201.125 171.052 201.339 171.592 201.644 172.08C201.863 172.422 202.021 172.59 202.042 172.59C201.679 171.923 201.418 171.206 201.266 170.463C201.177 170.111 201.177 169.743 201.266 169.391C201.288 169.317 201.332 169.252 201.394 169.206C201.456 169.16 201.531 169.135 201.608 169.136C201.699 169.151 201.785 169.186 201.862 169.237C201.938 169.288 202.003 169.354 202.052 169.432C202.31 169.832 202.447 170.298 202.447 170.774C202.447 171.25 202.31 171.716 202.052 172.116C201.787 172.505 201.399 172.793 200.949 172.933C200.5 173.073 200.016 173.056 199.578 172.886C199.403 172.809 199.26 172.674 199.175 172.503C199.147 172.431 199.143 172.351 199.164 172.276C199.184 172.201 199.227 172.134 199.287 172.085C199.588 171.885 199.945 171.783 200.307 171.794C201.073 171.769 201.836 171.882 202.562 172.126Z" fill="#263238"/>
<path d="M199.459 167.141C199.459 167.141 164.985 146.253 160.327 143.672C156.322 141.442 143.669 136.529 139.209 148.646C134.75 160.764 158.76 178.667 158.76 178.667L179.138 179.58L185.939 176.983L193.664 179.361L199.459 167.141Z" fill="#263238"/>
<path d="M175.22 179.998L159.766 185.993L148.909 194.243C148.723 194.384 148.511 194.486 148.285 194.542C148.058 194.597 147.823 194.606 147.593 194.566C147.364 194.527 147.144 194.441 146.949 194.314C146.754 194.186 146.588 194.02 146.46 193.825C146.313 193.601 146.223 193.345 146.194 193.079C146.166 192.813 146.201 192.544 146.296 192.294C147.572 189.034 152.327 177.055 153.48 176.682C154.817 176.248 169.363 169.299 169.363 169.299L175.22 179.998Z" fill="white"/>
<g opacity="0.6">
<path opacity="0.6" d="M146.46 193.8L154.516 176.213L153.868 176.479C153.306 176.709 152.844 177.132 152.567 177.672C151.827 179.116 149.868 183.152 146.276 192.208C146.174 192.468 146.137 192.749 146.169 193.027C146.201 193.305 146.301 193.57 146.46 193.8Z" fill="white"/>
</g>
<g opacity="0.6">
<path opacity="0.6" d="M160.75 177.321C160.69 177.567 160.541 177.782 160.332 177.924C160.123 178.066 159.868 178.126 159.617 178.091C159.37 178.04 159.152 177.897 159.008 177.69C158.863 177.483 158.804 177.228 158.842 176.979C158.907 176.719 159.066 176.492 159.288 176.343C159.511 176.193 159.78 176.13 160.046 176.168C160.299 176.247 160.512 176.421 160.639 176.655C160.765 176.888 160.796 177.162 160.724 177.418" fill="white"/>
</g>
<path d="M151.704 187.525C151.704 187.632 152.643 187.642 153.449 188.377C154.255 189.111 154.414 190.02 154.516 189.999C154.618 189.979 154.597 189.754 154.516 189.377C154.372 188.884 154.092 188.443 153.707 188.104C153.322 187.765 152.849 187.543 152.342 187.463C151.939 187.423 151.704 187.494 151.704 187.525Z" fill="#263238"/>
<path d="M150.118 189.473C150.083 189.575 150.782 189.861 151.333 190.56C151.884 191.259 152.042 191.989 152.144 191.973C152.246 191.958 152.261 191.116 151.634 190.33C151.006 189.545 150.118 189.376 150.118 189.473Z" fill="#263238"/>
<path d="M153.495 184.422C153.454 184.524 154.515 184.958 155.49 185.953C156.464 186.948 156.852 188.045 156.954 187.994C157.056 187.943 156.791 186.759 155.75 185.688C154.709 184.616 153.505 184.331 153.495 184.422Z" fill="#263238"/>
<path d="M158.041 182.212C157.964 182.289 158.668 182.988 159.163 184.074C159.658 185.161 159.755 186.141 159.862 186.115C159.969 186.09 160.036 185.059 159.495 183.901C158.954 182.743 158.092 182.131 158.041 182.212Z" fill="#263238"/>
<path d="M162.53 180.346C162.464 180.427 163.326 181.065 163.755 182.254C164.184 183.443 163.974 184.473 164.082 184.494C164.189 184.514 164.245 184.259 164.306 183.82C164.373 183.247 164.299 182.665 164.092 182.126C163.893 181.583 163.568 181.095 163.143 180.703C162.811 180.412 162.556 180.305 162.53 180.346Z" fill="#263238"/>
<path d="M164.597 181.871C164.807 181.844 165.008 181.769 165.184 181.652C165.694 181.382 166.145 181.013 166.51 180.565C166.808 180.263 166.997 179.87 167.046 179.448C167.051 179.307 167.012 179.169 166.934 179.052C166.856 178.935 166.744 178.845 166.612 178.795C166.352 178.712 166.07 178.728 165.821 178.841C165.322 179.088 164.923 179.502 164.695 180.012C164.467 180.521 164.423 181.094 164.571 181.632C164.73 182.16 165.043 182.629 165.469 182.98C165.895 183.33 166.415 183.546 166.964 183.601C167.103 183.614 167.242 183.597 167.373 183.551C167.505 183.506 167.624 183.432 167.725 183.336C167.814 183.228 167.868 183.094 167.878 182.954C167.888 182.814 167.854 182.675 167.781 182.555C167.545 182.212 167.22 181.938 166.842 181.764C166.338 181.486 165.789 181.298 165.219 181.208C165.013 181.165 164.799 181.165 164.592 181.208C165.334 181.367 166.049 181.634 166.714 181.999C167.036 182.167 167.311 182.413 167.515 182.713C167.558 182.777 167.578 182.853 167.572 182.93C167.567 183.007 167.536 183.079 167.485 183.137C167.415 183.195 167.333 183.239 167.245 183.264C167.157 183.29 167.065 183.297 166.975 183.285C166.504 183.22 166.063 183.022 165.701 182.715C165.339 182.408 165.073 182.003 164.934 181.55C164.81 181.096 164.844 180.613 165.029 180.181C165.214 179.748 165.54 179.391 165.954 179.167C166.125 179.082 166.321 179.062 166.505 179.111C166.579 179.137 166.642 179.186 166.686 179.25C166.73 179.314 166.752 179.39 166.75 179.468C166.707 179.823 166.556 180.156 166.316 180.422C165.833 181.003 165.251 181.493 164.597 181.871Z" fill="#263238"/>
<path d="M168.485 183.855C168.919 183.631 186.373 176.524 186.373 176.524L169.026 167.932L158.587 173.345L168.485 183.855Z" fill="#263238"/>
<path d="M146.929 162.85L147.169 162.922L147.857 163.151L150.495 164.065L160.189 167.468L192.153 178.748L193.684 179.223L193.526 179.294L199.347 167.116L199.398 167.274L179.291 154.978L173.505 151.406L171.975 150.447L171.582 150.192C171.495 150.136 171.449 150.105 171.454 150.1L171.592 150.177L172 150.412L173.556 151.335L179.383 154.84L199.536 167.054L199.633 167.116L199.587 167.218L193.781 179.412L193.73 179.514L193.623 179.478L192.092 179.003C191.291 178.774 190.526 178.493 189.755 178.213L187.459 177.396L182.954 175.789L174.48 172.764L160.128 167.662L150.459 164.177L147.837 163.218L147.158 162.963C147.079 162.93 147.003 162.893 146.929 162.85Z" fill="#455A64"/>
<path d="M168.485 183.856C168.257 183.664 168.04 183.458 167.837 183.239L166.143 181.489C164.72 180.004 162.766 177.917 160.618 175.647L158.46 173.336L158.342 173.208L158.495 173.132L163.791 170.581L165.322 169.856C165.505 169.764 165.694 169.685 165.888 169.621C165.729 169.743 165.558 169.847 165.378 169.933L163.893 170.688L158.638 173.341L158.674 173.137L160.842 175.443C162.99 177.734 164.924 179.82 166.312 181.341L167.944 183.147C168.146 183.366 168.327 183.604 168.485 183.856Z" fill="#455A64"/>
<path d="M203.688 150.019C203.719 150.086 199.423 151.953 194.096 154.182C188.77 156.412 184.433 158.172 184.403 158.106C184.372 158.04 188.668 156.172 193.994 153.938C199.321 151.703 203.688 149.948 203.688 150.019Z" fill="#455A64"/>
<path d="M177.158 97.4476C176.796 97.4476 164.209 97.3302 161.669 99.871C159.128 102.412 153.852 141.325 153.852 141.325C156.567 141.835 158.332 142.856 159.975 143.662L181.368 156.136L190.628 151.325C190.929 151.159 191.189 150.928 191.39 150.649C191.591 150.37 191.728 150.05 191.79 149.712C191.852 149.373 191.839 149.026 191.751 148.693C191.663 148.361 191.502 148.052 191.281 147.789L203.602 103.254C201.778 101.869 199.755 100.769 197.602 99.9884C193.995 98.6618 177.158 97.4476 177.158 97.4476Z" fill="#455A64"/>
<path d="M199.459 101.58C199.459 101.58 203.245 102.417 204.694 104.753C208.092 110.228 218.53 129.672 220.285 134.345C222.143 139.279 220.148 142.085 218.806 144.167C217.362 146.406 209.428 146.401 205.831 142.559C204.301 140.906 195.699 133.116 195.699 133.116L199.459 101.58Z" fill="#455A64"/>
<path d="M203.765 108.799C203.728 108.93 203.68 109.058 203.623 109.182L203.158 110.263C202.776 111.207 202.24 112.58 201.628 114.294C200.393 117.728 198.883 122.529 197.281 127.855C195.679 133.182 194.286 138.003 193.25 141.523C192.74 143.273 192.301 144.687 191.99 145.656L191.623 146.773C191.587 146.905 191.539 147.033 191.48 147.156C191.5 147.021 191.531 146.888 191.572 146.758C191.653 146.476 191.76 146.098 191.893 145.625C192.179 144.605 192.577 143.207 193.072 141.472C194.061 137.962 195.429 133.115 197.026 127.779C198.623 122.442 200.168 117.651 201.449 114.233C202.087 112.518 202.653 111.171 203.066 110.222L203.577 109.161C203.627 109.034 203.691 108.913 203.765 108.799Z" fill="#263238"/>
<path d="M162.271 99.427C162.271 99.427 158.296 101.687 156.842 102.998C155.388 104.31 140.368 125.743 138.444 132.422C137.327 136.289 141.587 144.289 146.179 143.901C152.184 143.391 174.715 134.754 174.715 134.754L169.659 123.748L156.904 125.789L166.164 116.483L162.71 99.177" fill="#455A64"/>
<path d="M215.709 132.049C215.629 132.012 215.554 131.966 215.484 131.912L214.862 131.483L212.602 129.871C210.704 128.493 208.091 126.57 205.214 124.432L203.29 122.998L203.469 122.973C201.637 125.366 200.005 127.452 198.816 128.927C198.221 129.746 197.557 130.512 196.831 131.218L198.683 128.82L203.275 122.815L203.352 122.713L203.454 122.789L205.382 124.218C208.26 126.355 210.852 128.299 212.724 129.723L214.913 131.401L215.505 131.871C215.579 131.922 215.648 131.982 215.709 132.049Z" fill="#263238"/>
<path d="M180.051 119.856L169.949 124.381L173.98 133.142L180.296 128.973L180.051 119.856Z" fill="#FFC3BC"/>
<path d="M189.598 120.714L196.358 116.122C196.595 115.959 196.882 115.883 197.169 115.907L206.006 116.663C206.179 116.677 206.339 116.757 206.455 116.886C206.571 117.015 206.633 117.183 206.628 117.356C206.638 117.531 206.609 117.705 206.545 117.867C206.481 118.029 206.382 118.175 206.256 118.295L191.904 128.28L181.189 126.581L189.598 120.714Z" fill="#E0E0E0"/>
<path d="M180.052 119.856C180.052 119.856 183.7 117.152 184.557 117.004C185.414 116.856 189.266 116.871 189.266 116.871L192.511 118.723L190.501 120.085C189.108 119.779 188.71 119.238 188.71 119.238L186.465 119.386L180.052 119.856Z" fill="#FFC3BC"/>
<path d="M184.154 118.682L189.914 120.687L198.199 121.855C198.214 122.318 198.051 122.769 197.744 123.115C197.436 123.462 197.008 123.677 196.546 123.717C195.526 123.825 193.801 123.942 193.801 123.942C193.801 123.942 193.378 125.472 192.087 125.804C191.791 126.385 191.365 126.89 190.842 127.279C190.763 127.328 190.677 127.365 190.587 127.391C189.791 127.62 188.205 129.779 187.143 130.069C186.082 130.36 180.286 128.993 180.286 128.993L180.041 119.881L184.154 118.682Z" fill="#FFC3BC"/>
<path d="M185.832 123.387C185.832 123.361 186.291 123.484 187.021 123.632C187.979 123.822 188.949 123.948 189.924 124.009C190.895 124.077 191.871 124.077 192.842 124.009C193.592 123.958 194.051 123.892 194.057 123.918C193.952 123.955 193.845 123.98 193.735 123.994C193.531 124.035 193.225 124.081 192.852 124.122C191.876 124.222 190.893 124.239 189.914 124.173C188.932 124.114 187.957 123.971 187 123.744C186.633 123.657 186.337 123.576 186.138 123.509C186.032 123.48 185.929 123.439 185.832 123.387Z" fill="#8E4842"/>
<path d="M186.964 125.747C186.988 125.94 186.969 126.135 186.907 126.319C186.855 126.529 186.748 126.721 186.596 126.875C186.494 126.965 186.375 127.033 186.246 127.076C186.118 127.119 185.982 127.135 185.846 127.125C185.586 127.104 185.333 127.031 185.101 126.911C184.892 126.804 184.719 126.691 184.566 126.61C184.27 126.431 184.055 126.365 184.055 126.339C184.247 126.351 184.432 126.409 184.596 126.508C184.976 126.74 185.397 126.896 185.836 126.967C185.951 126.978 186.067 126.966 186.177 126.931C186.288 126.897 186.39 126.842 186.479 126.768C186.619 126.635 186.723 126.468 186.78 126.283C186.831 126.101 186.892 125.922 186.964 125.747Z" fill="#8E4842"/>
<path d="M191.225 126.3C191.023 126.381 190.81 126.436 190.593 126.463C190.086 126.553 189.575 126.616 189.062 126.652C188.54 126.681 188.018 126.681 187.496 126.652C187.278 126.656 187.06 126.632 186.848 126.58C186.848 126.529 187.838 126.58 189.052 126.473C190.266 126.366 191.215 126.269 191.225 126.3Z" fill="#8E4842"/>
<path d="M186.853 128.709C186.578 128.926 186.251 129.069 185.904 129.124C185.557 129.178 185.202 129.143 184.873 129.02C184.873 128.969 185.332 129.056 185.894 128.969C186.455 128.882 186.853 128.668 186.853 128.709Z" fill="#8E4842"/>
<path d="M188.929 128.605C188.929 128.646 188.659 128.717 188.312 128.768C188.1 128.818 187.88 128.818 187.669 128.768C187.861 128.665 188.074 128.609 188.291 128.605C188.638 128.564 188.924 128.559 188.929 128.605Z" fill="#8E4842"/>
<path d="M189.913 120.687C188.988 120.468 188.084 120.166 187.214 119.784C186.479 119.498 185.821 119.228 185.352 119.013C185.09 118.916 184.841 118.786 184.612 118.626C184.879 118.703 185.139 118.798 185.393 118.911L187.27 119.636L189.143 120.365C189.632 120.534 189.913 120.646 189.913 120.687Z" fill="#8E4842"/>
<path d="M198.378 122.728C198.378 122.728 197.741 122.508 198.429 121.503C199.118 120.498 201.047 121.718 201.047 121.718L203.511 123.182C203.511 123.182 204.062 124.463 203.378 124.804L202.868 125.427C202.868 125.427 203.832 126.401 203.445 127.253C203.324 127.499 203.131 127.702 202.89 127.834C202.65 127.965 202.375 128.019 202.103 127.988C202.103 127.988 202.215 129.713 201.654 130.376C201.393 130.736 201.014 130.993 200.582 131.1C200.402 131.557 200.115 131.964 199.745 132.286C199.374 132.608 198.932 132.837 198.455 132.952C196.802 133.376 195.934 133.406 195.485 132.707C195.183 132.211 194.938 131.683 194.756 131.131C194.756 131.131 191.21 129.269 191.133 128.325C191.057 127.381 191.22 127.304 191.22 127.304C191.141 127.084 191.107 126.85 191.119 126.616C191.132 126.382 191.19 126.153 191.292 125.942C191.649 125.366 193.057 125.871 193.057 125.871L197.582 126.932C197.582 126.932 193.96 125.233 193.531 124.677C193.103 124.121 193.562 123.437 195.016 123.61C196.47 123.784 200.863 124.605 200.863 124.605C200.75 124.373 200.573 124.179 200.353 124.044C200.062 123.922 199.154 123.396 199.154 123.396L198.378 122.728Z" fill="#FFC3BC"/>
<path d="M199.459 129.601C199.459 129.641 197.612 129.172 195.377 128.555C193.143 127.937 191.296 127.396 191.321 127.356C191.347 127.315 193.168 127.784 195.403 128.402C197.638 129.019 199.469 129.56 199.459 129.601Z" fill="#8E4842"/>
<path d="M197.302 132.065C196.849 132.011 196.404 131.898 195.981 131.728C195.674 131.628 195.372 131.512 195.078 131.381C194.985 131.341 194.896 131.294 194.812 131.238C194.79 131.222 194.769 131.203 194.751 131.182C194.751 131.182 194.751 131.136 194.751 131.146C194.751 131.157 195.312 131.34 196.021 131.575C196.463 131.696 196.892 131.86 197.302 132.065Z" fill="#8E4842"/>
<path d="M201.179 127.61C201.179 127.651 200.286 127.472 199.194 127.294C198.102 127.115 197.209 126.998 197.214 126.952C197.888 126.942 198.56 127.005 199.219 127.141C199.888 127.223 200.545 127.381 201.179 127.61Z" fill="#8E4842"/>
<path d="M202.287 125.28C202.257 125.321 201.9 125.065 201.4 124.887C200.9 124.708 200.466 124.662 200.466 124.616C200.801 124.556 201.146 124.598 201.456 124.739C201.781 124.832 202.07 125.021 202.287 125.28Z" fill="#8E4842"/>
<path d="M206.241 117.484H206.078L205.604 117.427C205.195 117.371 204.583 117.295 203.874 117.213C202.41 117.045 200.379 116.866 198.129 116.815C197.598 116.743 197.058 116.806 196.558 116.999C196.335 117.127 196.121 117.269 195.915 117.422L195.303 117.856L193.185 119.351L191.752 120.346L191.354 120.611C191.267 120.672 191.216 120.698 191.211 120.693C191.251 120.655 191.294 120.619 191.338 120.586L191.716 120.3L193.124 119.279L195.221 117.749L195.828 117.31C196.039 117.152 196.259 117.006 196.486 116.871C196.738 116.742 197.015 116.672 197.297 116.667C197.578 116.667 197.854 116.667 198.134 116.667C200.057 116.715 201.977 116.863 203.884 117.111C204.619 117.208 205.211 117.305 205.614 117.376L206.083 117.463C206.137 117.462 206.19 117.468 206.241 117.484Z" fill="#263238"/>
<path d="M200.705 118.269C200.657 118.205 200.591 118.156 200.516 118.127C200.442 118.098 200.36 118.091 200.281 118.106H200.21C200.076 118.129 199.953 118.198 199.863 118.3C199.809 118.365 199.78 118.447 199.78 118.532C199.78 118.616 199.809 118.698 199.863 118.764C199.931 118.83 200.019 118.871 200.113 118.881C200.202 118.899 200.294 118.896 200.382 118.874C200.47 118.852 200.553 118.811 200.623 118.754C200.685 118.691 200.726 118.611 200.74 118.524C200.755 118.438 200.742 118.349 200.705 118.269Z" fill="white"/>
<path d="M180.618 69.2082L179.639 68.698C179.203 68.3962 178.668 68.2721 178.144 68.351C177.659 68.4888 177.322 68.9531 176.822 69.0041C176.241 69.0704 175.761 68.5449 175.179 68.5755C174.598 68.6061 174.195 69.0857 173.649 69.0857C173.241 69.0857 172.807 68.7949 172.455 68.9939C172.383 69.0347 172.322 69.0908 172.256 69.1367C172.041 69.2359 171.804 69.2808 171.568 69.2675C171.331 69.2541 171.101 69.183 170.899 69.0602C170.493 68.8124 170.007 68.7285 169.542 68.8255C169.27 68.9625 169.03 69.1555 168.838 69.3918C168.737 69.509 168.61 69.6006 168.467 69.6592C168.325 69.7177 168.17 69.7415 168.016 69.7286C167.848 69.6929 167.71 69.5857 167.542 69.5449C167.031 69.4122 166.577 69.9735 166.042 70.1163C165.506 70.2592 164.97 70.0041 164.511 70.2286C164.342 70.3153 164.211 70.4605 164.141 70.637C164.072 70.8135 164.069 71.0093 164.133 71.1878C164.215 71.3633 164.339 71.5161 164.494 71.6326C164.649 71.7491 164.83 71.8259 165.021 71.8561C165.422 71.9268 165.834 71.897 166.22 71.7694C166.527 71.6417 166.853 71.5675 167.184 71.55C167.945 71.5755 168.542 72.3612 169.287 72.198C169.63 72.0704 169.943 71.8722 170.205 71.6163C170.636 71.3063 171.153 71.1387 171.684 71.1367C172.034 71.1826 172.388 71.1636 172.73 71.0806C173.133 70.9174 173.363 70.4939 173.781 70.3816C174.2 70.2694 174.679 70.5398 175.144 70.4939C175.445 70.4684 175.725 70.3 176.031 70.2847C176.465 70.2592 176.858 70.5398 177.292 70.5041C177.725 70.4684 178.108 70.101 178.552 70.1367C178.726 70.1675 178.896 70.2136 179.062 70.2745C179.147 70.3043 179.238 70.313 179.327 70.2996C179.416 70.2863 179.5 70.2514 179.572 70.198C179.669 70.1061 179.7 69.9582 179.817 69.8918C179.911 69.8525 180.014 69.8418 180.113 69.8612L181.552 70.0092L180.618 69.2082Z" fill="#263238"/>
<path d="M182.164 69.1566C181.679 68.7995 181.031 68.427 180.486 68.7281C180.287 68.8352 180.139 69.0138 179.94 69.1107C179.48 69.325 178.919 69.0444 178.44 69.177C178.026 69.2944 177.751 69.6873 177.368 69.8658C176.751 70.1719 175.838 69.9934 175.46 70.5342C175.251 70.8301 175.215 71.3046 174.853 71.3862C174.722 71.3994 174.59 71.3837 174.465 71.3403C174.024 71.2323 173.565 71.2184 173.118 71.2995C172.863 71.3335 172.621 71.4358 172.419 71.5954C172.052 71.9271 172.042 72.4934 171.69 72.8403C171.179 73.3505 170.225 73.1107 169.552 73.4424C169.25 73.6326 168.974 73.8607 168.73 74.1209C168.192 74.5351 167.611 74.8893 166.996 75.1771C166.378 75.4613 165.849 75.9073 165.465 76.4679C165.286 76.7357 165.207 77.0581 165.243 77.3782C165.278 77.6984 165.426 77.9957 165.659 78.2179C165.777 78.3211 165.926 78.3813 166.083 78.3887C166.24 78.3961 166.394 78.3503 166.521 78.2587C166.598 78.1873 166.649 78.0852 166.72 78.0036C166.897 77.8645 167.1 77.7621 167.317 77.7026C167.526 77.6209 167.746 77.4628 167.746 77.2485C167.746 77.1158 167.669 76.9577 167.776 76.8658C167.824 76.8353 167.878 76.8177 167.935 76.8148C168.475 76.7587 169.139 76.7842 169.429 76.3454C169.526 76.1381 169.6 75.9208 169.649 75.6975C169.725 75.5142 169.844 75.3524 169.997 75.2261C170.15 75.0998 170.332 75.0129 170.526 74.973C170.858 74.8964 171.23 74.9475 171.496 74.7434C171.761 74.5393 171.807 74.075 172.077 73.8199C172.531 73.3913 173.429 73.7026 173.838 73.2383C173.94 73.1209 173.996 72.973 174.123 72.8862C174.491 72.6464 174.935 73.1413 175.368 73.0597C175.802 72.9781 175.878 72.5495 176.139 72.3046C176.526 72.0461 176.951 71.8498 177.399 71.723C177.935 71.4628 178.322 70.9577 178.889 70.7893C179.399 70.6413 179.98 70.7434 180.343 70.3964C180.48 70.2638 180.577 70.075 180.766 70.0138C180.877 69.9908 180.992 69.9908 181.103 70.0138C181.663 70.0871 182.232 69.9723 182.72 69.6872L182.164 69.1566Z" fill="#263238"/>
<path d="M181.338 70.4524C180.721 70.3462 180.089 70.3829 179.489 70.5598C178.889 70.7368 178.338 71.0491 177.878 71.4728C177.688 71.6751 177.468 71.8472 177.225 71.983C176.812 72.1053 176.38 72.1537 175.95 72.1259C175.472 72.1786 175.02 72.3671 174.647 72.6692C174.273 72.9712 173.994 73.3741 173.843 73.83C173.649 74.4167 173.577 75.1871 173.011 75.3912C172.904 75.4187 172.8 75.4563 172.7 75.5034C172.322 75.7381 172.583 76.3402 172.577 76.8045C172.577 77.5698 171.72 78.0953 171.69 78.8453C171.698 79.1268 171.765 79.4033 171.889 79.6565C172.185 80.3878 172.509 81.1021 172.863 81.7994C173.021 82.1106 173.231 82.4575 173.567 82.5034C174.077 82.5698 174.353 81.9932 174.496 81.483C174.638 81.1437 174.649 80.7637 174.526 80.4167C174.384 80.1463 174.093 79.9881 173.965 79.7075C173.766 79.2636 174.088 78.7688 174.317 78.3453C174.78 77.4854 174.92 76.488 174.71 75.5341C175.22 75.4371 175.491 74.7126 176.021 74.6106C176.17 74.6023 176.319 74.5835 176.465 74.5545C176.817 74.4116 176.858 73.8759 177.169 73.6565C177.481 73.4371 178.19 73.6055 178.363 73.1718C178.414 73.0341 178.389 72.8708 178.475 72.7586C178.547 72.6756 178.647 72.6227 178.756 72.6106L180.042 72.2892C180.292 72.2487 180.527 72.1451 180.725 71.9881C181.057 71.6718 181.108 71.0698 181.526 70.9065L181.338 70.4524Z" fill="#263238"/>
<path d="M182.7 67.8966C182.649 67.1415 182.506 66.2333 181.838 65.9272C181.445 65.7435 180.965 65.8404 180.577 65.6415C179.833 65.269 179.771 64.0649 179.047 63.6823C178.322 63.2996 177.353 63.8915 176.771 63.3302C176.47 63.0394 176.429 62.5547 176.185 62.2129C176.02 62.0302 175.817 61.8854 175.59 61.7885C175.364 61.6916 175.119 61.6449 174.873 61.6517C174.386 61.6725 173.899 61.6069 173.435 61.4578C172.669 61.121 172.179 60.1721 171.358 60.1057C170.659 60.0547 170.113 60.667 169.674 61.2282C169.553 61.3613 169.467 61.5227 169.424 61.6976C169.418 61.8561 169.457 62.0133 169.537 62.15C169.618 62.2867 169.736 62.3972 169.878 62.468C170.435 62.7945 171.149 62.7435 171.664 63.1261C171.839 63.2886 172.025 63.4386 172.22 63.5751C172.516 63.7333 172.889 63.6976 173.174 63.8761C173.73 64.218 173.72 65.1517 174.276 65.4986C174.833 65.8455 175.48 65.4374 176.083 65.5751C176.899 65.769 177.348 66.9068 178.185 66.9374C178.55 66.8824 178.912 66.8023 179.266 66.6976C179.505 66.6827 179.744 66.7399 179.95 66.8617C180.157 66.9836 180.322 67.1646 180.424 67.3812C180.557 67.667 180.577 68.0037 180.736 68.2792C180.84 68.4469 180.981 68.5888 181.148 68.694C181.315 68.7992 181.504 68.8649 181.7 68.8863C182.085 68.9254 182.475 68.903 182.853 68.82L182.7 67.8966Z" fill="#263238"/>
<path d="M182.067 70.2483C181.557 69.284 180.93 68.2534 179.884 67.8044C179.331 67.6501 178.789 67.461 178.261 67.238C177.843 66.9931 177.547 66.6003 177.154 66.3197C176.241 65.6717 174.981 65.7125 173.858 65.8911C172.736 66.0697 171.577 66.3503 170.475 66.0799C169.486 65.835 168.623 65.1666 167.608 65.1054C167.054 65.1069 166.503 65.2018 165.981 65.386L164.134 65.8962C163.932 65.934 163.751 66.0426 163.623 66.2023C163.424 66.534 163.812 66.9166 164.18 67.0697C164.783 67.3202 165.445 67.3911 166.088 67.2738C166.582 67.1129 167.099 67.0353 167.618 67.0442C167.964 67.1348 168.305 67.2438 168.639 67.3707C169.076 67.4473 169.523 67.4473 169.96 67.3707L172.001 67.1564C172.522 67.0555 173.061 67.1014 173.557 67.2891C173.924 67.4676 174.215 67.7993 174.623 67.8503C175.032 67.9013 175.511 67.5646 175.965 67.6309C176.506 67.7176 176.776 68.3197 177.271 68.5493C177.853 68.8197 178.618 68.5034 179.179 68.8146C179.562 69.0238 179.725 69.4523 179.97 69.8044C180.175 70.0998 180.441 70.347 180.751 70.5289C181.165 70.7458 181.606 70.9071 182.062 71.0085L182.067 70.2483Z" fill="#263238"/>
<path d="M183.148 65.9629C182.903 65.6261 182.53 65.2843 182.637 64.8761C182.688 64.6772 182.852 64.5139 182.887 64.3098C182.949 63.9425 182.576 63.6568 182.438 63.2894C182.301 62.9221 182.438 62.371 182.204 61.9935C181.969 61.6159 181.428 61.5394 180.979 61.4272C180.73 61.3844 180.495 61.2805 180.295 61.1247C180.096 60.9689 179.938 60.766 179.836 60.5343C179.783 60.197 179.762 59.8552 179.775 59.5139C179.695 59.0775 179.468 58.6819 179.13 58.3937C178.793 58.1056 178.367 57.9427 177.923 57.9323C177.665 57.953 177.405 57.9235 177.158 57.8455C176.724 57.6414 176.648 57.0853 176.377 56.6721C176.211 56.3881 175.963 56.1615 175.665 56.022C175.367 55.8826 175.033 55.8371 174.709 55.8914C174.403 55.9527 174.066 56.2741 174.245 56.5292C174.316 56.6312 174.449 56.6721 174.546 56.7537C174.893 57.0496 174.643 57.6465 174.847 58.0496C175.051 58.4527 175.704 58.5598 175.903 58.9884C176.056 59.32 175.877 59.7333 176.02 60.07C176.199 60.4833 176.734 60.5802 177.183 60.5802C177.632 60.5802 178.168 60.7027 178.336 61.0904C178.388 61.2801 178.418 61.4754 178.423 61.6721C178.453 61.8431 178.521 62.0051 178.622 62.1457C178.724 62.2863 178.857 62.4018 179.01 62.4833C179.444 62.7027 180.03 62.6619 180.311 63.0751C180.591 63.4884 180.183 64.1976 180.444 64.6823C180.632 65.0343 181.086 65.1261 181.428 65.3404C181.51 65.3847 181.574 65.4572 181.607 65.5445C181.617 65.6389 181.595 65.7339 181.546 65.8149C181.275 66.3659 180.933 66.9986 181.194 67.5496C181.318 67.7644 181.476 67.9574 181.663 68.121C182.22 68.6931 182.627 69.3942 182.847 70.1619L183.321 68.0853C183.481 67.7475 183.549 67.3734 183.519 67.0008C183.489 66.6282 183.36 66.2702 183.148 65.9629Z" fill="#263238"/>
<path d="M185.781 58.9533C185.875 58.6566 185.866 58.3372 185.757 58.046C185.648 57.7547 185.444 57.5084 185.179 57.3462C185.042 57.2747 184.892 57.233 184.738 57.2236C184.584 57.2143 184.429 57.2376 184.285 57.292C184.14 57.3465 184.009 57.4308 183.899 57.5394C183.79 57.6481 183.704 57.7787 183.648 57.9227C183.444 58.6012 184.016 59.3972 183.648 60.0094C183.524 60.1564 183.419 60.3194 183.337 60.4941C183.21 60.9431 183.771 61.3206 183.776 61.79C183.781 62.2594 183.128 62.591 182.995 63.091C182.863 63.591 183.419 64.2696 183.21 64.8257C183.137 64.9757 183.046 65.1162 182.939 65.2441C182.342 66.1217 182.648 67.2849 182.975 68.3053L184.327 68.1064C184.077 67.1676 185.398 66.2288 184.95 65.3717C184.735 64.9635 184.148 64.6676 184.281 64.2237C184.327 64.1083 184.396 64.004 184.485 63.9176L185.745 62.54C185.952 62.357 186.094 62.1117 186.148 61.841C186.205 61.2441 185.46 60.8564 185.363 60.2594C185.322 59.79 185.643 59.3768 185.781 58.9533Z" fill="#263238"/>
<path d="M186.244 66.6053C186.117 66.1614 185.54 66.0288 185.086 66.0951C183.831 66.289 182.913 67.34 182.112 68.3196C181.198 69.3767 180.369 70.5043 179.632 71.692C179.458 71.9504 179.34 72.2424 179.285 72.5492C179.259 72.7027 179.274 72.8604 179.33 73.0058C179.386 73.1513 179.479 73.279 179.602 73.3757C179.664 73.4196 179.736 73.4498 179.811 73.4643C179.886 73.4788 179.963 73.4774 180.038 73.4601C180.112 73.4428 180.183 73.41 180.244 73.3638C180.305 73.3176 180.355 73.2591 180.392 73.192L180.765 73.1002C181.987 71.0308 183.606 69.2239 185.53 67.7839C185.923 67.4778 186.377 67.0645 186.244 66.6053Z" fill="#4C5BD4"/>
<path d="M179.342 85.7992C178.973 83.3239 178.818 80.8215 178.877 78.3196C178.944 75.81 179.631 73.3558 180.877 71.1768C181.076 70.8502 182.638 68.7278 183 68.8349C183.26 68.9115 182.153 70.9625 182.245 71.2176C183.092 73.6615 182.923 76.3706 182.245 78.8706C181.544 81.2857 180.575 83.6148 179.357 85.8145" fill="#263238"/>
<path d="M190.46 102.095C190.817 100.365 191.102 99.0028 191.118 99.0028C191.133 99.0028 197.184 99.564 198.725 93.7426C199.47 90.9314 200.526 85.0181 201.424 79.6559C201.894 76.8723 201.299 74.0137 199.755 71.6497C198.212 69.2858 195.835 67.5901 193.097 66.9008L192.531 66.7579C186.368 65.5895 181.929 70.1661 180.929 76.3599L176.74 97.9109L186.342 108.003L190.46 102.095Z" fill="#FFC3BC"/>
<path d="M191.118 99.0023C188.423 98.3177 185.981 96.8746 184.082 94.8442C184.082 94.8442 184.867 99.5585 190.822 100.497L191.118 99.0023Z" fill="#8E4842"/>
<path d="M198.445 84.2894C198.393 84.5084 198.257 84.6981 198.066 84.8174C197.875 84.9368 197.644 84.9762 197.425 84.9271C197.317 84.9088 197.213 84.8689 197.121 84.8099C197.028 84.7509 196.948 84.6739 196.886 84.5836C196.824 84.4932 196.78 84.3913 196.758 84.2838C196.736 84.1763 196.735 84.0654 196.756 83.9578C196.81 83.7394 196.946 83.5506 197.137 83.4315C197.328 83.3123 197.557 83.2723 197.777 83.32C197.885 83.3377 197.989 83.3771 198.082 83.436C198.175 83.4948 198.255 83.5718 198.317 83.6623C198.38 83.7528 198.423 83.8551 198.445 83.9628C198.467 84.0706 198.467 84.1817 198.445 84.2894Z" fill="#263238"/>
<path d="M199.568 81.7642C199.44 81.8458 198.925 81.2234 198.037 80.9989C197.149 80.7744 196.369 81.0601 196.297 80.9223C196.267 80.8611 196.42 80.6927 196.756 80.555C197.214 80.387 197.713 80.3621 198.185 80.4835C198.652 80.5988 199.07 80.8597 199.379 81.2285C199.608 81.5091 199.634 81.7285 199.568 81.7642Z" fill="#263238"/>
<path d="M190.307 82.7232C190.255 82.9425 190.119 83.1325 189.928 83.2527C189.738 83.3728 189.507 83.4135 189.287 83.366C189.179 83.3477 189.075 83.3078 188.983 83.2488C188.89 83.1898 188.81 83.1128 188.748 83.0225C188.686 82.9321 188.642 82.8301 188.62 82.7227C188.598 82.6152 188.597 82.5043 188.619 82.3967C188.671 82.1776 188.807 81.9879 188.998 81.8686C189.189 81.7493 189.419 81.7099 189.639 81.7589C189.747 81.7766 189.85 81.8159 189.943 81.8744C190.035 81.9329 190.115 82.0094 190.178 82.0994C190.24 82.1894 190.284 82.2909 190.306 82.3981C190.328 82.5052 190.329 82.6158 190.307 82.7232Z" fill="#263238"/>
<path d="M190.69 79.918C190.557 79.9996 190.042 79.3772 189.159 79.1527C188.277 78.9282 187.491 79.2139 187.42 79.0761C187.384 79.02 187.537 78.8465 187.879 78.7139C188.334 78.5414 188.831 78.5147 189.302 78.6374C189.77 78.7499 190.189 79.0113 190.496 79.3823C190.71 79.6629 190.751 79.8721 190.69 79.918Z" fill="#263238"/>
<path d="M192.173 87.6205C192.686 87.5902 193.2 87.6245 193.704 87.7225C193.938 87.7583 194.168 87.7685 194.245 87.6205C194.319 87.3865 194.319 87.1352 194.245 86.9011C194.168 86.294 194.091 85.6562 194.005 84.9878C193.688 82.2685 193.525 80.0542 193.632 80.044C193.739 80.0338 194.086 82.2276 194.403 84.947C194.479 85.6154 194.546 86.2531 194.612 86.8654C194.686 87.1779 194.648 87.5066 194.505 87.794C194.451 87.8653 194.381 87.9238 194.302 87.9653C194.223 88.0068 194.135 88.0301 194.046 88.0338C193.91 88.0389 193.774 88.0234 193.642 87.9878C193.139 87.9273 192.646 87.8039 192.173 87.6205Z" fill="#263238"/>
<path d="M189.403 87.5801C189.551 87.6056 189.307 88.6005 189.97 89.4832C190.633 90.3658 191.694 90.5342 191.664 90.6719C191.633 90.8097 191.388 90.8046 190.944 90.7076C190.373 90.5694 189.867 90.2355 189.516 89.7638C189.178 89.312 189.03 88.7465 189.102 88.1872C189.143 87.7689 189.312 87.5546 189.403 87.5801Z" fill="#263238"/>
<path d="M191.556 76.2643C191.403 76.4888 190.536 76.147 189.454 76.0092C188.373 75.8715 187.444 75.9429 187.362 75.6878C187.327 75.5705 187.531 75.3766 187.934 75.2286C188.464 75.0518 189.028 74.9994 189.582 75.0755C190.136 75.1515 190.665 75.3541 191.128 75.6674C191.475 75.9174 191.623 76.1572 191.556 76.2643Z" fill="#263238"/>
<path d="M199.95 78.688C199.741 78.8513 199.174 78.489 198.419 78.29C197.664 78.091 197.011 78.0808 196.919 77.8308C196.884 77.7135 197.032 77.5349 197.358 77.4074C197.786 77.2709 198.245 77.264 198.677 77.3874C199.109 77.5109 199.495 77.7592 199.787 78.1013C200.011 78.3768 200.042 78.6064 199.95 78.688Z" fill="#263238"/>
<path d="M180.322 80.8309C180.23 80.7646 176.608 78.637 175.73 82.6574C174.853 86.6778 179.077 86.7391 179.108 86.6166C179.138 86.4942 180.322 80.8309 180.322 80.8309Z" fill="#FFC3BC"/>
<path d="M178.21 84.8248C178.21 84.8248 178.128 84.8605 178.001 84.886C177.824 84.9184 177.641 84.8819 177.49 84.784C177.097 84.534 176.888 83.7636 177.026 83.0544C177.089 82.7073 177.23 82.3791 177.439 82.0952C177.504 81.9775 177.596 81.8773 177.708 81.8035C177.82 81.7297 177.949 81.6844 178.082 81.6717C178.167 81.6672 178.251 81.6928 178.32 81.7441C178.388 81.7955 178.435 81.8692 178.455 81.9523C178.485 82.0748 178.455 82.1513 178.455 82.1615C178.455 82.1717 178.557 82.1156 178.562 81.9421C178.561 81.8381 178.525 81.7374 178.46 81.6564C178.414 81.6022 178.358 81.5576 178.295 81.5252C178.232 81.4928 178.163 81.4733 178.092 81.4677C177.92 81.4657 177.751 81.5072 177.599 81.5884C177.447 81.6695 177.319 81.7877 177.225 81.9319C176.971 82.2411 176.796 82.6069 176.715 82.9983C176.567 83.8146 176.817 84.6666 177.363 84.9626C177.464 85.0161 177.576 85.0466 177.691 85.0519C177.806 85.0572 177.92 85.0371 178.026 84.9932C178.179 84.9217 178.22 84.835 178.21 84.8248Z" fill="#8E4842"/>
<path d="M200.21 72.4332C200.94 72.2087 199.419 69.6883 197.97 68.6271C195.776 67.0251 192.215 65.5659 189.848 65.7444C187.001 65.9434 184.486 66.8159 182.628 68.9842C180.807 71.2059 179.61 73.8718 179.159 76.7087C178.947 77.5589 178.967 78.4502 179.215 79.2904C179.593 80.3108 180.557 81.0863 180.236 82.3057C180.174 82.5249 180.157 82.7542 180.185 82.9802C180.213 83.2063 180.285 83.4244 180.399 83.622C180.97 84.5608 182.026 84.0097 182.598 83.3567C183.812 81.9638 184.302 80.1016 184.756 78.3057C185.152 77.0506 185.336 75.7385 185.302 74.423C185.246 73.7087 185.062 73.0046 185.042 72.2904C185.012 71.9328 185.06 71.573 185.183 71.2358C185.305 70.8985 185.499 70.5917 185.751 70.3363C185.875 70.2396 186.006 70.1526 186.144 70.0761C186.808 69.7019 187.56 69.5118 188.322 69.5252C189.085 69.5387 189.83 69.7552 190.48 70.1526C192.582 71.4281 196.21 73.4332 197.383 72.8771C199.072 72.071 199.572 71.423 199.572 71.423L200.21 72.4332Z" fill="#263238"/>
<path d="M157.317 141.065C157.42 141.006 157.53 140.958 157.643 140.923L158.597 140.55L162.2 139.203L174.669 134.611L174.597 134.785C173.577 132.535 172.434 130.086 171.261 127.55L169.541 123.8L169.679 123.871L157.189 125.79C154.916 126.429 152.743 127.384 150.735 128.627C150.021 129.065 149.485 129.443 149.118 129.698L148.71 129.994C148.666 130.033 148.616 130.064 148.562 130.086L148.689 129.968L149.082 129.652C149.434 129.377 149.965 128.984 150.674 128.53C152.673 127.243 154.849 126.254 157.133 125.596L169.618 123.647H169.715L169.761 123.734C170.317 124.953 170.898 126.208 171.485 127.484C172.648 130.035 173.776 132.468 174.807 134.724L174.868 134.846L174.735 134.897L162.23 139.387L158.608 140.667L157.638 140.999L157.317 141.065Z" fill="#263238"/>
<path d="M164.791 118.137C164.491 118.586 164.149 119.006 163.771 119.392C163.108 120.142 162.179 121.162 161.123 122.27C160.067 123.377 159.082 124.351 158.342 125.02C158.051 125.292 157.741 125.542 157.414 125.77C157.286 125.841 157.199 125.912 157.087 125.892C157.075 125.878 157.068 125.86 157.068 125.841C157.068 125.822 157.075 125.804 157.087 125.79V125.764C157.087 125.764 157.087 125.831 157.118 125.841C157.209 125.807 157.292 125.755 157.363 125.688C157.572 125.514 157.873 125.234 158.22 124.887C158.929 124.183 159.888 123.188 160.939 122.086L163.643 119.264C163.995 118.858 164.379 118.481 164.791 118.137Z" fill="#263238"/>
<path d="M167.22 113.096C167.164 113.096 167.327 112.295 167.327 111.004C167.326 110.252 167.261 109.501 167.134 108.76C166.824 106.936 166.155 105.193 165.164 103.632C164.757 102.996 164.3 102.394 163.797 101.831C162.929 100.877 162.266 100.397 162.317 100.356C162.486 100.443 162.643 100.549 162.787 100.673C162.966 100.803 163.136 100.944 163.297 101.096C163.52 101.287 163.733 101.49 163.935 101.703C164.466 102.257 164.946 102.858 165.368 103.499C165.879 104.288 166.309 105.125 166.654 105.999C166.982 106.88 167.225 107.791 167.378 108.719C167.495 109.476 167.541 110.243 167.516 111.01C167.51 111.303 167.487 111.596 167.45 111.887C167.434 112.109 167.401 112.328 167.353 112.545C167.331 112.734 167.287 112.919 167.22 113.096Z" fill="#263238"/>
<path d="M180.22 151.141C180.22 151.095 180.863 151.141 181.893 151.141C184.584 151.079 187.211 150.304 189.505 148.896C190.383 148.386 190.883 147.957 190.914 147.993C190.944 148.029 190.812 148.121 190.592 148.315C190.279 148.581 189.95 148.828 189.607 149.054C188.472 149.808 187.23 150.389 185.924 150.779C184.615 151.163 183.257 151.349 181.893 151.33C181.482 151.327 181.071 151.298 180.664 151.243C180.512 151.23 180.362 151.196 180.22 151.141Z" fill="#263238"/>
<path d="M187.812 139.877C187.717 140.035 187.602 140.181 187.47 140.31C187.241 140.581 186.894 140.958 186.45 141.422C185.578 142.346 184.328 143.586 182.879 144.877C181.43 146.167 180.067 147.28 179.052 148.045C178.542 148.428 178.129 148.734 177.833 148.933C177.69 149.05 177.532 149.148 177.363 149.223C177.484 149.083 177.621 148.958 177.771 148.851L178.935 147.897C179.914 147.096 181.261 145.973 182.705 144.683C184.149 143.392 185.409 142.178 186.317 141.29L187.389 140.239C187.649 139.994 187.797 139.861 187.812 139.877Z" fill="#263238"/>
<path d="M299.261 18.2662H268.715C267.438 18.2662 266.213 18.7736 265.31 19.6769C264.406 20.5801 263.899 21.8052 263.899 23.0825V30.6846C263.899 31.9619 264.406 33.187 265.31 34.0902C266.213 34.9935 267.438 35.5009 268.715 35.5009H269.032V39.8427L273.924 35.5009H299.261C300.539 35.5009 301.764 34.9935 302.667 34.0902C303.57 33.187 304.078 31.9619 304.078 30.6846V23.0825C304.078 21.8052 303.57 20.5801 302.667 19.6769C301.764 18.7736 300.539 18.2662 299.261 18.2662Z" fill="white"/>
<path d="M299.261 18.266H299.527C299.763 18.2692 299.998 18.2914 300.231 18.3323C300.384 18.3629 300.557 18.4088 300.741 18.4548C300.943 18.5191 301.14 18.5958 301.333 18.6844C301.818 18.9042 302.263 19.2044 302.649 19.5721C303.135 20.0337 303.522 20.5891 303.787 21.2048C304.081 21.9471 304.212 22.7441 304.17 23.5415C304.17 25.2405 304.17 27.1792 304.17 29.3323C304.17 29.8731 304.17 30.419 304.17 30.9905C304.112 31.9162 303.795 32.8069 303.253 33.5598C302.711 34.3127 301.968 34.8971 301.108 35.2456C300.491 35.4895 299.833 35.6125 299.17 35.6078H297.154H292.94H273.935L274.022 35.5721L269.134 39.919L268.909 40.1129V35.4751L269.042 35.6078C268.087 35.6518 267.139 35.4311 266.302 34.9701C265.481 34.5034 264.808 33.8158 264.358 32.9854C264.145 32.5722 263.985 32.1332 263.884 31.6792C263.8 31.2302 263.765 30.7736 263.777 30.317C263.777 29.4241 263.777 28.5364 263.777 27.6639V23.7711C263.777 23.3476 263.777 22.9241 263.812 22.4905C263.913 21.6486 264.227 20.8465 264.726 20.1605C265.224 19.4746 265.89 18.9278 266.659 18.5721C267.402 18.237 268.213 18.0815 269.027 18.118H275.751H283.664L295.088 18.1588H298.18H298.986C299.17 18.1588 299.261 18.1588 299.261 18.1588H298.986H298.18H295.088L283.664 18.2048H275.751H269.022C268.243 18.1663 267.466 18.315 266.756 18.6384C266.025 18.9759 265.393 19.4956 264.92 20.1479C264.447 20.8001 264.15 21.5628 264.057 22.3629C264.024 22.7804 264.014 23.1994 264.027 23.618V30.1639C264.014 30.6034 264.049 31.0429 264.129 31.4752C264.227 31.9042 264.38 32.3191 264.583 32.7098C265.008 33.4964 265.646 34.1472 266.425 34.5874C267.222 35.0247 268.124 35.233 269.032 35.1894H269.164V39.669L268.94 39.5721L273.833 35.2303L273.869 35.1945H273.92H292.925H297.139C298.501 35.1537 299.858 35.3629 301.017 34.8578C301.844 34.5258 302.56 33.9661 303.082 33.2437C303.604 32.5213 303.91 31.6657 303.966 30.7762C303.996 30.2252 303.966 29.6639 303.966 29.1282C303.966 26.9752 303.966 25.0466 303.966 23.3374C304.013 22.5558 303.893 21.773 303.613 21.0415C303.36 20.4373 302.987 19.8906 302.517 19.4344C302.143 19.0686 301.71 18.7684 301.236 18.5466C301.048 18.4575 300.856 18.3792 300.659 18.3119L300.149 18.1792C299.852 18.1934 299.556 18.2224 299.261 18.266Z" fill="#263238"/>
<path d="M273.313 26.5827L274.293 27.0929L273.737 28.0113L272.716 27.4092L272.747 28.5113H271.655L271.681 27.4092L270.66 28.0113L270.114 27.0929L271.089 26.5827L270.114 26.047L270.66 25.1235L271.681 25.7409L271.655 24.6235H272.747L272.716 25.7409L273.737 25.1235L274.293 26.047L273.313 26.5827Z" fill="#E0E0E0"/>
<path d="M277.853 26.5827L278.833 27.0929L278.277 28.0113L277.256 27.4092L277.287 28.5113H276.195V27.4092L275.175 28.0113L274.629 27.0929L275.603 26.5827L274.629 26.047L275.175 25.1235L276.195 25.7409V24.6235H277.287L277.256 25.7409L278.277 25.1235L278.833 26.047L277.853 26.5827Z" fill="#E0E0E0"/>
<path d="M282.394 26.5827L283.373 27.0929L282.817 28.0113L281.797 27.4092L281.822 28.5113H280.73L280.756 27.4092L279.735 28.0113L279.189 27.0929L280.164 26.5827L279.189 26.047L279.735 25.1235L280.756 25.7409L280.73 24.6235H281.822L281.797 25.7409L282.817 25.1235L283.373 26.047L282.394 26.5827Z" fill="#E0E0E0"/>
<path d="M286.935 26.5827L287.915 27.0929L287.358 28.0113L286.338 27.4092L286.364 28.5113H285.272L285.297 27.4092L284.277 28.0113L283.731 27.0929L284.711 26.5827L283.731 26.047L284.277 25.1235L285.297 25.7409L285.272 24.6235H286.364L286.338 25.7409L287.358 25.1235L287.915 26.047L286.935 26.5827Z" fill="#E0E0E0"/>
<path d="M291.475 26.5827L292.455 27.0929L291.899 28.0113L290.878 27.4092L290.904 28.5113H289.832L289.858 27.4092L288.837 28.0113L288.292 27.0929L289.271 26.5827L288.302 26.047L288.848 25.1235L289.868 25.7409L289.842 24.6235H290.934L290.909 25.7409L291.929 25.1235L292.485 26.047L291.475 26.5827Z" fill="#E0E0E0"/>
<path d="M296.017 26.5816L296.996 27.0918L296.466 28.0561L295.445 27.454V28.5561H294.353L294.379 27.454L293.404 28.0561L292.859 27.1377L293.838 26.6275L292.859 26.0918L293.404 25.1683L294.425 25.7857L294.399 24.6683H295.445V25.7857L296.466 25.1683L297.022 26.0918L296.017 26.5816Z" fill="#E0E0E0"/>
</g>
<defs>
<clipPath id="clip0">
<rect width="250" height="190" fill="white" transform="translate(125)"/>
</clipPath>
</defs>
</svg>
