<svg width="18" height="20" viewBox="0 0 18 20" fill="none" xmlns="http://www.w3.org/2000/svg">
<path d="M17.2466 13.8085C17.1725 13.7192 17.0997 13.6299 17.0283 13.5438C16.0461 12.3558 15.4519 11.6388 15.4519 8.27589C15.4519 6.53482 15.0354 5.10625 14.2144 4.03482C13.6091 3.2433 12.7908 2.64286 11.7122 2.19911C11.6983 2.19139 11.6859 2.18126 11.6756 2.1692C11.2876 0.870089 10.226 0 9.02872 0C7.8314 0 6.77024 0.870089 6.38229 2.16786C6.37194 2.17948 6.35972 2.18928 6.34613 2.19688C3.82917 3.23304 2.60595 5.22098 2.60595 8.27455C2.60595 11.6388 2.01265 12.3558 1.02961 13.5424C0.958185 13.6286 0.885417 13.7161 0.81131 13.8071C0.619882 14.038 0.498596 14.3189 0.461807 14.6165C0.425018 14.9141 0.474265 15.2161 0.603721 15.4866C0.879167 16.067 1.46622 16.4272 2.13631 16.4272H15.926C16.593 16.4272 17.176 16.0674 17.4524 15.4897C17.5824 15.2191 17.6321 14.917 17.5956 14.619C17.5592 14.321 17.438 14.0397 17.2466 13.8085ZM9.02872 20C9.67383 19.9995 10.3068 19.8244 10.8604 19.4932C11.414 19.1621 11.8677 18.6873 12.1734 18.1192C12.1878 18.092 12.1949 18.0615 12.194 18.0307C12.1931 17.9999 12.1843 17.9699 12.1684 17.9435C12.1525 17.9171 12.1301 17.8953 12.1032 17.8802C12.0764 17.865 12.0461 17.8571 12.0153 17.8571H6.04301C6.01217 17.857 5.98183 17.8649 5.95494 17.88C5.92806 17.8951 5.90554 17.9169 5.88958 17.9433C5.87362 17.9697 5.86477 17.9998 5.86388 18.0306C5.863 18.0614 5.87011 18.0919 5.88452 18.1192C6.19012 18.6872 6.64374 19.162 7.1973 19.4931C7.75085 19.8242 8.38369 19.9994 9.02872 20Z" fill="url(#paint0_linear_5328_118467)"/>
<!-- <defs>
<linearGradient id="paint0_linear_5328_118467" x1="0.449951" y1="11.2636" x2="17.6074" y2="11.2523" gradientUnits="userSpaceOnUse">
<stop stop-color="#0086DA"/>
<stop offset="1" stop-color="#00A9E9"/>
<stop offset="1" stop-color="#00A9E9"/>
</linearGradient>
</defs> -->
</svg>
