<svg width="26" height="26" viewBox="0 0 26 26" fill="none" xmlns="http://www.w3.org/2000/svg">
<path d="M21.3512 16.9837C21.009 16.9837 20.7305 16.7202 20.7305 16.3963V12.2474C20.7305 8.97173 18.4436 6.19211 15.3012 5.263C15.3956 5.01406 15.4455 4.74978 15.4455 4.48087C15.4455 3.20481 14.3485 2.16663 12.9999 2.16663C11.6513 2.16663 10.5542 3.20481 10.5542 4.48092C10.5542 4.75191 10.6031 5.0158 10.6969 5.26354C7.55541 6.19309 5.26917 8.97231 5.26917 12.2474V16.3963C5.26917 16.7202 4.99073 16.9837 4.64852 16.9837C3.2799 16.9837 2.1665 18.0373 2.1665 19.3324C2.1665 20.6274 3.2799 21.681 4.64852 21.681H10.4386C10.3827 21.8852 10.3534 22.0974 10.3534 22.3139C10.3534 23.6947 11.5406 24.8181 12.9999 24.8181C14.4591 24.8181 15.6463 23.6947 15.6463 22.3139C15.6463 22.0974 15.617 21.8852 15.5611 21.681H21.3512C22.7198 21.681 23.8332 20.6274 23.8332 19.3324C23.8333 18.0373 22.7198 16.9837 21.3512 16.9837ZM11.964 4.48092C11.964 3.94043 12.4287 3.50072 12.9999 3.50072C13.571 3.50072 14.0357 3.94043 14.0357 4.48092C14.0357 4.65813 13.9851 4.83063 13.8908 4.98093C13.5984 4.94905 13.3012 4.93206 12.9999 4.93206C12.6989 4.93206 12.402 4.949 12.1098 4.98084C12.0155 4.83098 11.964 4.65986 11.964 4.48092ZM14.2365 22.3138C14.2365 22.9591 13.6818 23.484 12.9999 23.484C12.3181 23.484 11.7633 22.9591 11.7633 22.3138C11.7633 22.0859 11.832 21.868 11.9596 21.681H14.0402C14.1678 21.868 14.2365 22.0859 14.2365 22.3138ZM21.3512 20.3469H4.64852C4.05733 20.3469 3.57634 19.8917 3.57634 19.3323C3.57634 18.7729 4.05733 18.3177 4.64852 18.3177C5.76811 18.3177 6.67901 17.4558 6.67901 16.3963V12.2474C6.67901 8.94927 9.51452 6.26611 12.9999 6.26611C16.4852 6.26611 19.3207 8.94927 19.3207 12.2474V16.3963C19.3207 17.4558 20.2316 18.3177 21.3512 18.3177C21.9424 18.3177 22.4234 18.7729 22.4234 19.3323C22.4234 19.8917 21.9424 20.3469 21.3512 20.3469Z" fill="#666666"/>
</svg>
