<svg width="16" height="16" viewBox="0 0 16 16" fill="none" xmlns="http://www.w3.org/2000/svg">
<path d="M11.1912 2.03097L9.9888 3.23097H2.6L2.4848 3.23577C2.13464 3.26468 1.80815 3.42419 1.57014 3.68265C1.33214 3.94111 1.20001 4.27961 1.2 4.63097V6.42297L3.288 5.11097C3.67254 4.86923 4.13425 4.7818 4.58055 4.86623C5.02685 4.95065 5.42473 5.20067 5.6944 5.56617L5.7704 5.67737C5.92514 5.92378 6.01784 6.20404 6.04055 6.49412C6.06326 6.78421 6.01531 7.07547 5.9008 7.34297L5.8376 7.47577L4.8712 9.30457C4.81416 9.4126 4.79145 9.53546 4.80611 9.65675C4.82078 9.77803 4.87211 9.89194 4.95326 9.98327C5.0344 10.0746 5.14149 10.139 5.26021 10.1678C5.37893 10.1966 5.50361 10.1885 5.6176 10.1446L5.696 10.1078L7.104 9.31337C7.23608 9.23952 7.39119 9.21831 7.53824 9.25399C7.6853 9.28966 7.81345 9.37958 7.89701 9.50574C7.98058 9.63189 8.01339 9.78496 7.98887 9.93429C7.96435 10.0836 7.88432 10.2182 7.7648 10.311L7.6968 10.3566L6.2848 11.1534C5.95559 11.3387 5.57643 11.4157 5.20102 11.3735C4.82561 11.3313 4.47299 11.1721 4.19309 10.9184C3.91319 10.6647 3.7202 10.3294 3.64147 9.9599C3.56274 9.59042 3.60225 9.20554 3.7544 8.85977L3.8104 8.74377L4.7768 6.91497C4.83484 6.80492 4.85724 6.67955 4.84089 6.55621C4.82454 6.43288 4.77025 6.31767 4.68554 6.22655C4.60083 6.13542 4.48989 6.07289 4.36807 6.04759C4.24625 6.0223 4.11958 6.0355 4.0056 6.08537L3.9272 6.12697L1.2 7.84057V12.235C1.2 13.0078 1.8272 13.635 2.6 13.635H13.4C13.7713 13.635 14.1274 13.4875 14.3899 13.2249C14.6525 12.9624 14.8 12.6063 14.8 12.235V6.38537L16 5.18777V12.235C16 12.5764 15.9327 12.9145 15.8021 13.2299C15.6714 13.5454 15.4799 13.832 15.2385 14.0734C14.997 14.3149 14.7104 14.5064 14.395 14.6371C14.0795 14.7677 13.7414 14.835 13.4 14.835H2.6C1.91044 14.835 1.24912 14.561 0.761522 14.0734C0.273928 13.5858 5.58015e-09 12.9245 5.58015e-09 12.235V4.63097C-4.34774e-05 3.96686 0.254043 3.3279 0.710137 2.84518C1.16623 2.36246 1.78976 2.07257 2.4528 2.03497L2.6 2.03097H11.1912ZM15.34 1.66697L15.444 1.76297L15.5408 1.86697C15.8379 2.2144 15.993 2.66114 15.975 3.11793C15.9571 3.57471 15.7674 4.00791 15.444 4.33097L12.0192 7.74937C11.8087 7.95922 11.5495 8.11368 11.2648 8.19897L9.4032 8.75897C9.26344 8.80107 9.11482 8.80414 8.97344 8.76783C8.83206 8.73152 8.70331 8.65722 8.60113 8.55298C8.49896 8.44874 8.42724 8.31854 8.39376 8.17646C8.36029 8.03439 8.36631 7.88586 8.4112 7.74697L9.0024 5.91097C9.0904 5.63897 9.2416 5.39097 9.444 5.18857L12.876 1.76217C13.1993 1.43901 13.6325 1.24964 14.0892 1.23185C14.5459 1.21405 14.9926 1.36914 15.34 1.66617V1.66697ZM13.724 2.61097L10.292 6.03817C10.2246 6.10538 10.1742 6.18764 10.1448 6.27817L9.7872 7.39017L10.92 7.05017C11.0148 7.02148 11.1011 6.96982 11.1712 6.89977L14.5952 3.48137L14.6552 3.41257C14.75 3.28786 14.7936 3.13169 14.7772 2.97591C14.7608 2.82013 14.6856 2.67648 14.567 2.57423C14.4483 2.47199 14.2951 2.41887 14.1386 2.42569C13.9821 2.43252 13.8341 2.49878 13.7248 2.61097H13.724Z" fill="#CCCCCC"/>
</svg>
