<svg width="24" height="24" viewBox="0 0 24 24" fill="none" xmlns="http://www.w3.org/2000/svg">
<path d="M19.5 24H4.5C2.0145 24 0 21.984 0 19.5V4.5C0 2.544 1.257 0.8955 3 0.276V2.25C3 2.54547 3.0582 2.83806 3.17127 3.11104C3.28434 3.38402 3.45008 3.63206 3.65901 3.84099C3.86794 4.04992 4.11598 4.21566 4.38896 4.32873C4.66194 4.4418 4.95453 4.5 5.25 4.5C5.54547 4.5 5.83806 4.4418 6.11104 4.32873C6.38402 4.21566 6.63206 4.04992 6.84099 3.84099C7.04992 3.63206 7.21566 3.38402 7.32873 3.11104C7.4418 2.83806 7.5 2.54547 7.5 2.25V0H16.5V2.25C16.5 2.54547 16.5582 2.83806 16.6713 3.11104C16.7843 3.38402 16.9501 3.63206 17.159 3.84099C17.3679 4.04992 17.616 4.21566 17.889 4.32873C18.1619 4.4418 18.4545 4.5 18.75 4.5C19.0455 4.5 19.3381 4.4418 19.611 4.32873C19.884 4.21566 20.1321 4.04992 20.341 3.84099C20.5499 3.63206 20.7157 3.38402 20.8287 3.11104C20.9418 2.83806 21 2.54547 21 2.25V0.276C22.743 0.8955 24 2.544 24 4.5V19.5C24 21.984 21.9855 24 19.5 24ZM21 7.5H3V19.5C3 20.3295 3.6705 21 4.5 21H19.5C20.3295 21 21 20.3295 21 19.5V7.5ZM15 15H18V18H15V15ZM15 10.5H18V13.5H15V10.5ZM10.5 15H13.5V18H10.5V15ZM10.5 10.5H13.5V13.5H10.5V10.5ZM6 15H9V18H6V15ZM6 10.5H9V13.5H6V10.5ZM18.75 3C18.5511 3 18.3603 2.92098 18.2197 2.78033C18.079 2.63968 18 2.44891 18 2.25V0H19.5V2.25C19.5 2.44891 19.421 2.63968 19.2803 2.78033C19.1397 2.92098 18.9489 3 18.75 3ZM5.25 3C5.05109 3 4.86032 2.92098 4.71967 2.78033C4.57902 2.63968 4.5 2.44891 4.5 2.25V0H6V2.25C6 2.44891 5.92098 2.63968 5.78033 2.78033C5.63968 2.92098 5.44891 3 5.25 3Z" fill="url(#paint0_linear_41_13780)"/>
<defs>
<linearGradient id="paint0_linear_41_13780" x1="2.58908e-07" y1="1" x2="21.5" y2="24" gradientUnits="userSpaceOnUse">
<stop stop-color="#138DD1"/>
<stop offset="1" stop-color="#138DD1" stop-opacity="0.8"/>
</linearGradient>
</defs>
</svg>
