<svg width="24" height="24" viewBox="0 0 24 24" fill="none" xmlns="http://www.w3.org/2000/svg">
<path d="M8 2V6M16 2V6M2 9H22M6 4H18C20.2091 4 22 5.79086 22 8V18C22 20.2091 20.2091 22 18 22H6C3.79086 22 2 20.2091 2 18V8C2 5.79086 3.79086 4 6 4Z" stroke="#474747" stroke-width="1.2" stroke-linecap="round" stroke-linejoin="round"/>
<path d="M15.5057 21C15.3987 20.9997 15.2919 20.9877 15.1874 20.9642C13.1965 20.543 11.3625 19.5555 9.89622 18.1154C8.46126 16.6721 7.46604 14.8345 7.03097 12.8249C6.97967 12.5745 6.99226 12.3147 7.06753 12.0707C7.1428 11.8266 7.27822 11.6065 7.46076 11.4315L8.7342 10.178C8.79925 10.1151 8.87653 10.067 8.96101 10.0367C9.04549 10.0064 9.13526 9.99465 9.22448 10.0022C9.31698 10.0121 9.40625 10.0426 9.486 10.0915C9.56575 10.1405 9.63405 10.2067 9.6861 10.2855L11.2779 12.6914C11.3376 12.7848 11.3664 12.8953 11.3601 13.0066C11.3538 13.118 11.3127 13.2243 11.2429 13.31L10.4438 14.2867C10.7621 15.007 11.2128 15.6581 11.7714 16.2043C12.3264 16.7704 12.9824 17.2225 13.7038 17.5359L14.6939 16.7318C14.7771 16.6646 14.8783 16.6248 14.984 16.6178C15.0898 16.6109 15.1952 16.637 15.2861 16.6927L17.6897 18.2815C17.7722 18.3318 17.8425 18.4006 17.8952 18.4827C17.948 18.5648 17.982 18.658 17.9945 18.7554C18.0071 18.8528 17.9979 18.9519 17.9677 19.0451C17.9376 19.1384 17.8871 19.2235 17.8202 19.294L16.5786 20.5507C16.4376 20.6942 16.2702 20.8078 16.0861 20.8849C15.9019 20.962 15.7047 21.0011 15.5057 21ZM9.17354 10.6469L7.9001 11.9003C7.79741 11.9982 7.7214 12.1217 7.67953 12.2587C7.63767 12.3957 7.63139 12.5414 7.66133 12.6817C8.06587 14.5674 8.99581 16.293 10.3387 17.6499C11.7186 19.0047 13.4445 19.9335 15.3179 20.3293C15.4597 20.3596 15.6066 20.3535 15.7456 20.3114C15.8845 20.2694 16.011 20.1927 16.1138 20.0884L17.3554 18.8317L15.0346 17.2983L13.9712 18.1643C13.9305 18.1972 13.8826 18.2195 13.8315 18.2291C13.7805 18.2388 13.7279 18.2355 13.6783 18.2196C12.7954 17.8869 11.9953 17.3589 11.3352 16.6732C10.6524 16.0211 10.1225 15.2198 9.78479 14.3291C9.77051 14.2751 9.77003 14.2184 9.78342 14.1642C9.7968 14.11 9.82358 14.0603 9.8612 14.0198L10.7208 12.9682L9.17354 10.6469Z" fill="#474747" stroke="#474747" stroke-width="0.4"/>
</svg>
