<svg width="18" height="18" viewBox="0 0 18 18" fill="none" xmlns="http://www.w3.org/2000/svg">
<path d="M17.3087 14.2763C17.3087 14.5763 17.242 14.8846 17.1003 15.1846C16.9587 15.4846 16.7753 15.768 16.5337 16.0346C16.1253 16.4846 15.6753 16.8096 15.167 17.018C14.667 17.2263 14.1253 17.3346 13.542 17.3346C12.692 17.3346 11.7837 17.1346 10.8253 16.7263C9.86699 16.318 8.90866 15.768 7.95866 15.0763C7.00033 14.3763 6.09199 13.6013 5.22533 12.743C4.36699 11.8763 3.59199 10.968 2.90033 10.018C2.21699 9.06797 1.66699 8.11797 1.26699 7.1763C0.866992 6.2263 0.666992 5.31797 0.666992 4.4513C0.666992 3.88464 0.766992 3.34297 0.966992 2.84297C1.16699 2.33464 1.48366 1.86797 1.92533 1.4513C2.45866 0.926302 3.04199 0.667969 3.65866 0.667969C3.89199 0.667969 4.12533 0.717969 4.33366 0.817969C4.55033 0.917969 4.74199 1.06797 4.89199 1.28464L6.82533 4.00964C6.97533 4.21797 7.08366 4.40964 7.15866 4.59297C7.23366 4.76797 7.27533 4.94297 7.27533 5.1013C7.27533 5.3013 7.21699 5.5013 7.10033 5.69297C6.99199 5.88464 6.83366 6.08464 6.63366 6.28464L6.00033 6.94297C5.90866 7.03464 5.86699 7.14297 5.86699 7.2763C5.86699 7.34297 5.87533 7.4013 5.89199 7.46797C5.91699 7.53464 5.94199 7.58464 5.95866 7.63464C6.10866 7.90964 6.36699 8.26797 6.73366 8.7013C7.10866 9.13464 7.50866 9.5763 7.94199 10.018C8.39199 10.4596 8.82533 10.868 9.26699 11.243C9.70033 11.6096 10.0587 11.8596 10.342 12.0096C10.3837 12.0263 10.4337 12.0513 10.492 12.0763C10.5587 12.1013 10.6253 12.1096 10.7003 12.1096C10.842 12.1096 10.9503 12.0596 11.042 11.968L11.6753 11.343C11.8837 11.1346 12.0837 10.9763 12.2753 10.8763C12.467 10.7596 12.6587 10.7013 12.867 10.7013C13.0253 10.7013 13.192 10.7346 13.3753 10.8096C13.5587 10.8846 13.7503 10.993 13.9587 11.1346L16.717 13.093C16.9337 13.243 17.0837 13.418 17.1753 13.6263C17.2587 13.8346 17.3087 14.043 17.3087 14.2763Z" fill="url(#paint0_linear_1070_3333)"/>
<defs>
<linearGradient id="paint0_linear_1070_3333" x1="0.666992" y1="10.0543" x2="17.3087" y2="10.0415" gradientUnits="userSpaceOnUse">
<stop stop-color="#4C5BD4"/>
<stop offset="1" stop-color="#737FDD"/>
</linearGradient>
</defs>
</svg>
