<svg width="20" height="20" viewBox="0 0 20 20" fill="none" xmlns="http://www.w3.org/2000/svg">
<path d="M14.5545 18.3334C14.3923 18.3329 14.2305 18.3147 14.0721 18.2791C11.0557 17.641 8.27679 16.1449 6.0552 13.9629C3.88103 11.7761 2.37312 8.9918 1.71392 5.94694C1.63619 5.56746 1.65527 5.17391 1.76932 4.80415C1.88336 4.43439 2.08854 4.10087 2.36511 3.83567L4.29457 1.93652C4.39312 1.84121 4.51022 1.76822 4.63822 1.72232C4.76622 1.67643 4.90224 1.65865 5.03741 1.67014C5.17757 1.6851 5.31283 1.73127 5.43366 1.80541C5.5545 1.87956 5.65798 1.97987 5.73684 2.0993L8.14867 5.74469C8.23911 5.88614 8.28277 6.05354 8.27322 6.22226C8.26367 6.39098 8.20141 6.55211 8.09561 6.68194L6.88487 8.1618C7.36707 9.25317 8.04995 10.2396 8.89633 11.0673C9.73724 11.925 10.7312 12.6099 11.8243 13.0848L13.3244 11.8664C13.4504 11.7646 13.6038 11.7044 13.764 11.6938C13.9243 11.6832 14.0839 11.7228 14.2216 11.8072L17.8635 14.2144C17.9885 14.2907 18.0949 14.395 18.1749 14.5194C18.2549 14.6437 18.3064 14.785 18.3254 14.9326C18.3444 15.0801 18.3305 15.2302 18.2848 15.3715C18.2391 15.5128 18.1626 15.6417 18.0613 15.7486L16.18 17.6526C15.9664 17.8701 15.7127 18.0422 15.4337 18.159C15.1548 18.2759 14.8559 18.3351 14.5545 18.3334ZM4.96024 2.64685L3.03078 4.54601C2.87519 4.69426 2.76002 4.88138 2.69659 5.08896C2.63315 5.29654 2.62365 5.51742 2.669 5.7299C3.28195 8.58708 4.69094 11.2016 6.72569 13.2575C8.81636 15.3103 11.4315 16.7176 14.2699 17.3172C14.4847 17.3631 14.7074 17.3538 14.9178 17.2901C15.1283 17.2264 15.32 17.1103 15.4758 16.9522L17.357 15.0481L13.8406 12.7247L12.2295 14.0368C12.1678 14.0868 12.0951 14.1205 12.0178 14.1351C11.9404 14.1497 11.8608 14.1448 11.7857 14.1207C10.448 13.6167 9.23566 12.8166 8.23549 11.7776C7.20099 10.7896 6.39798 9.57557 5.88638 8.22593C5.86473 8.14422 5.86401 8.0582 5.88429 7.97612C5.90456 7.89405 5.94515 7.8187 6.00214 7.75731L7.30453 6.16399L4.96024 2.64685Z" fill="#666666"/>
<path d="M14.1686 7.49984L13.3353 7.49984L13.3353 5.589L10.5911 8.33317L10.002 7.744L12.7461 4.99984L10.8353 4.99984L10.8353 4.1665L14.1686 4.1665L14.1686 7.49984Z" fill="#666666"/>
</svg>
