<svg width="20" height="20" viewBox="0 0 20 20" fill="none" xmlns="http://www.w3.org/2000/svg">
<circle cx="10" cy="10" r="10" fill="#E0E0E0"/>
<path d="M10.0007 8.66601C9.73801 8.66601 9.47793 8.71775 9.23528 8.81826C8.99263 8.91876 8.77215 9.06608 8.58644 9.2518C8.40072 9.43752 8.2534 9.658 8.15289 9.90065C8.05238 10.1433 8.00065 10.4034 8.00065 10.666C8.00065 10.9287 8.05238 11.1887 8.15289 11.4314C8.2534 11.674 8.40072 11.8945 8.58644 12.0802C8.77215 12.2659 8.99263 12.4133 9.23528 12.5138C9.47793 12.6143 9.73801 12.666 10.0007 12.666C10.5311 12.666 11.0398 12.4553 11.4149 12.0802C11.7899 11.7052 12.0007 11.1964 12.0007 10.666C12.0007 10.1356 11.7899 9.62687 11.4149 9.2518C11.0398 8.87673 10.5311 8.66601 10.0007 8.66601ZM15.334 6.66602H13.734C13.6188 6.66076 13.5077 6.62201 13.4143 6.5545C13.3208 6.487 13.2491 6.39369 13.208 6.28602L12.794 5.04535C12.7525 4.9378 12.6806 4.84465 12.5871 4.77728C12.4936 4.70992 12.3825 4.67125 12.2673 4.66602H7.73398C7.51398 4.66602 7.27665 4.83668 7.20798 5.04468L6.79332 6.28602C6.75209 6.39364 6.68037 6.48691 6.58694 6.5544C6.49352 6.62189 6.38245 6.66068 6.26732 6.66602H4.66732C3.93398 6.66602 3.33398 7.26602 3.33398 7.99935V13.9993C3.33398 14.7327 3.93398 15.3327 4.66732 15.3327H15.334C16.0673 15.3327 16.6673 14.7327 16.6673 13.9993V7.99935C16.6673 7.26602 16.0673 6.66602 15.334 6.66602ZM10.0007 13.9993C9.1166 13.9993 8.26875 13.6482 7.64363 13.023C7.01851 12.3979 6.66732 11.5501 6.66732 10.666C6.66732 9.78196 7.01851 8.93411 7.64363 8.30899C8.26875 7.68387 9.1166 7.33268 10.0007 7.33268C10.8847 7.33268 11.7326 7.68387 12.3577 8.30899C12.9828 8.93411 13.334 9.78196 13.334 10.666C13.334 11.5501 12.9828 12.3979 12.3577 13.023C11.7326 13.6482 10.8847 13.9993 10.0007 13.9993ZM15.0007 8.79935C14.8769 8.79935 14.7582 8.75018 14.6707 8.66266C14.5832 8.57515 14.534 8.45645 14.534 8.33268C14.534 8.20891 14.5832 8.09022 14.6707 8.0027C14.7582 7.91518 14.8769 7.86601 15.0007 7.86601C15.1244 7.86601 15.2431 7.91518 15.3306 8.0027C15.4181 8.09022 15.4673 8.20891 15.4673 8.33268C15.4673 8.45645 15.4181 8.57515 15.3306 8.66266C15.2431 8.75018 15.1244 8.79935 15.0007 8.79935Z" fill="#474747"/>
</svg>
