<svg width="16" height="16" viewBox="0 0 16 16" fill="none" xmlns="http://www.w3.org/2000/svg">
<g clip-path="url(#clip0_2_3562)">
<path fill-rule="evenodd" clip-rule="evenodd" d="M0 9.62205C0 9.19186 0.170895 8.77928 0.475089 8.47509C0.779283 8.17089 1.19186 8 1.62205 8H7.70476C8.09818 7.99995 8.47821 8.1429 8.77408 8.40221C9.06995 8.66152 9.26149 9.01953 9.31303 9.40957L11.8353 8.28873C11.9588 8.23371 12.094 8.21043 12.2288 8.22099C12.3635 8.23155 12.4935 8.27562 12.6069 8.3492C12.7203 8.42277 12.8135 8.52352 12.878 8.64227C12.9425 8.76103 12.9764 8.89403 12.9764 9.02919V15.0811C12.9763 15.2161 12.9425 15.349 12.878 15.4677C12.8135 15.5863 12.7204 15.687 12.6071 15.7606C12.4938 15.8341 12.364 15.8782 12.2294 15.8889C12.0947 15.8995 11.9596 15.8764 11.8361 15.8215L9.31303 14.7007C9.26149 15.0907 9.06995 15.4487 8.77408 15.7081C8.47821 15.9674 8.09818 16.1103 7.70476 16.1103H1.62205C1.19186 16.1103 0.779283 15.9394 0.475089 15.6352C0.170895 15.331 0 14.9184 0 14.4882L0 9.62205Z" fill="#474747"/>
<g clip-path="url(#clip1_2_3562)">
<path d="M11.9998 7.33342C13.8408 7.33342 15.3332 5.84103 15.3332 4.00008C15.3332 2.15913 13.8408 0.666748 11.9998 0.666748C10.1589 0.666748 8.6665 2.15913 8.6665 4.00008C8.6665 5.84103 10.1589 7.33342 11.9998 7.33342Z" stroke="#FF3333" stroke-width="0.8" stroke-linecap="round" stroke-linejoin="round"/>
<path d="M9.64355 1.64331L14.3569 6.35664" stroke="#FF3333" stroke-width="0.8" stroke-linecap="round" stroke-linejoin="round"/>
</g>
</g>
<defs>
<clipPath id="clip0_2_3562">
<rect width="16" height="16" fill="white"/>
</clipPath>
<clipPath id="clip1_2_3562">
<rect width="8" height="8" fill="white" transform="translate(8)"/>
</clipPath>
</defs>
</svg>
