<svg width="24" height="24" viewBox="0 0 24 24" fill="none" xmlns="http://www.w3.org/2000/svg">
<path d="M22.2681 5.64855C21.8289 5.19686 21.2224 4.92995 20.5323 4.92995H17.0608V4.88889C17.0608 4.3756 16.8517 3.88285 16.4962 3.55435C16.1407 3.20531 15.6597 3 15.1369 3H8.86312C8.31939 3 7.8384 3.20531 7.48289 3.55435C7.12738 3.90338 6.91825 4.3756 6.91825 4.88889V4.92995H3.46768C2.77757 4.92995 2.1711 5.19686 1.73194 5.64855C1.29278 6.07971 1 6.69565 1 7.35266V17.5773C1 18.2548 1.27186 18.8502 1.73194 19.2814C2.1711 19.7126 2.79848 20 3.46768 20H20.5323C21.2224 20 21.8289 19.7331 22.2681 19.2814C22.7072 18.8502 23 18.2343 23 17.5773V7.35266C23 6.67512 22.7281 6.07971 22.2681 5.64855ZM21.9125 17.5773H21.8916C21.8916 17.9469 21.7452 18.2754 21.4943 18.5217C21.2433 18.7681 20.9087 18.9118 20.5323 18.9118H3.46768C3.09125 18.9118 2.75665 18.7681 2.5057 18.5217C2.25475 18.2754 2.10837 17.9469 2.10837 17.5773V7.35266C2.10837 6.98309 2.25475 6.65459 2.5057 6.40821C2.75665 6.16184 3.09125 6.01812 3.46768 6.01812H7.5038C7.81749 6.01812 8.06844 5.77174 8.06844 5.46377V4.86836C8.06844 4.64251 8.15209 4.4372 8.29848 4.29348C8.44487 4.14976 8.65399 4.06763 8.88403 4.06763H15.1369C15.3669 4.06763 15.576 4.14976 15.7224 4.29348C15.8688 4.4372 15.9525 4.64251 15.9525 4.86836V5.46377C15.9525 5.77174 16.2034 6.01812 16.5171 6.01812H20.5532C20.9297 6.01812 21.2643 6.16184 21.5152 6.40821C21.7662 6.65459 21.9125 6.98309 21.9125 7.35266V17.5773Z" fill="#474747" stroke="#474747" stroke-width="0.5"/>
<path d="M12 7.41455C10.5779 7.41455 9.28133 7.98943 8.36117 8.89281C7.42011 9.81673 6.85547 11.0691 6.85547 12.4653C6.85547 13.8614 7.44102 15.1344 8.36117 16.0377C9.30224 16.9617 10.5779 17.516 12 17.516C13.422 17.516 14.7186 16.9411 15.6387 16.0377C16.5798 15.1138 17.1444 13.8614 17.1444 12.4653C17.1444 11.0691 16.5589 9.7962 15.6387 8.89281C14.7186 7.98943 13.422 7.41455 12 7.41455ZM14.8441 15.2781C14.1121 15.9762 13.1083 16.4278 12 16.4278C10.8916 16.4278 9.88779 15.9762 9.15585 15.2781C8.42391 14.5595 7.98475 13.574 7.98475 12.4858C7.98475 11.3976 8.44482 10.4121 9.15585 9.69354C9.88779 8.97494 10.8916 8.54378 12 8.54378C13.1083 8.54378 14.1121 8.99547 14.8441 9.69354C15.576 10.4121 16.0152 11.3976 16.0152 12.4858C16.0361 13.574 15.576 14.5595 14.8441 15.2781Z" fill="#474747" stroke="#474747" stroke-width="0.5"/>
<path d="M19.4446 9.40612C20.0106 9.40612 20.4694 8.9557 20.4694 8.40008C20.4694 7.84446 20.0106 7.39404 19.4446 7.39404C18.8787 7.39404 18.4199 7.84446 18.4199 8.40008C18.4199 8.9557 18.8787 9.40612 19.4446 9.40612Z" fill="#474747"/>
</svg>
