<svg width="27" height="28" viewBox="0 0 27 28" fill="none" xmlns="http://www.w3.org/2000/svg">
<path d="M8.44119 9.21376C8.45753 8.2054 8.78584 7.22684 9.381 6.41252C9.97615 5.5982 10.809 4.98808 11.765 4.66598C13.83 3.96137 16.1047 4.861 17.2863 6.63632C18.1071 7.86341 18.0519 9.23952 18.0445 10.6377L18.028 13.9382C18.028 14.7531 19.2868 14.7587 19.2923 13.9382C19.3089 10.7812 19.8923 7.22135 17.393 4.80212C15.6925 3.15558 12.9907 2.71221 10.8374 3.66518C9.76187 4.14268 8.84539 4.91775 8.19613 5.89893C7.54686 6.88011 7.1919 8.02646 7.17314 9.20272C7.15105 10.0177 8.41542 10.0232 8.43751 9.20272L8.44119 9.21376Z" fill="white"/>
<path d="M7.51321 12.2289C8.53832 12.1792 9.36283 11.7138 9.82846 10.7829C10.1818 10.0801 10.1266 9.36999 10.2738 8.62858C10.5904 7.05011 12.2762 5.85245 13.8535 6.14497C15.2485 6.40437 16.2111 7.70505 16.2055 9.08851C16.1969 10.667 16.1871 12.2455 16.1761 13.8239C16.1632 15.5349 17.1092 16.6737 18.9036 16.7454C19.7189 16.7785 19.7226 15.5146 18.9036 15.4834C16.9619 15.4042 17.4313 13.4358 17.4478 12.0652C17.4589 10.5621 17.7644 8.67273 17.0797 7.28191C15.7601 4.57569 12.4603 4.14336 10.318 6.11737C9.45391 6.94734 8.95423 8.0859 8.92849 9.28352C8.888 10.1445 8.4371 10.9227 7.50768 10.9687C6.69606 11.011 6.68685 12.2749 7.50768 12.2326L7.51321 12.2289Z" fill="white"/>
<path d="M7.7144 14.3169C8.46524 14.3729 9.21581 14.2048 9.87105 13.8341C10.5263 13.4634 11.0568 12.9066 11.3953 12.2343C11.671 11.6246 11.8272 10.9676 11.8554 10.299C11.8664 10.1279 11.8701 9.95494 11.8664 9.78201C11.8664 10.0285 11.8554 9.86848 11.8664 9.79305C11.9108 9.56853 11.9723 9.34773 12.0504 9.13259C12.505 7.7988 14.3197 7.42717 14.4228 9.12155C14.5019 10.4369 14.4228 11.7597 13.9995 13.0125C13.1068 15.6157 10.5413 16.5209 7.98679 16.5338C7.17332 16.5338 7.16596 17.8013 7.98679 17.7977C10.8671 17.7829 13.6811 16.7674 14.9565 14.0134C15.6595 12.4919 15.7037 10.9024 15.6926 9.26505C15.6926 7.7436 14.789 6.61034 13.1878 6.68945C11.8002 6.75384 10.9959 8.06556 10.6922 9.27609C10.3885 10.4866 10.6701 11.8039 9.47017 12.6188C8.95432 12.955 8.34084 13.1091 7.72729 13.0567C6.91382 12.9868 6.91382 14.2507 7.72729 14.3206L7.7144 14.3169Z" fill="white"/>
<path d="M12.6713 9.63695C12.736 10.4981 12.6103 11.363 12.3032 12.1702C11.5763 14.1553 9.58677 14.8617 7.62303 14.8765C6.80773 14.8765 6.80036 16.1477 7.62303 16.1403C9.98246 16.122 12.2388 15.2536 13.3081 13.0312C13.8155 11.9774 14.0364 10.8087 13.9486 9.64247C13.875 8.83852 12.6106 8.82564 12.6842 9.64247L12.6713 9.63695Z" fill="white"/>
<path d="M8.76916 19.4654C10.2651 19.5646 11.757 19.2196 13.0574 18.4738C13.5298 18.192 13.9583 17.8424 14.3291 17.4362C14.5352 17.2173 14.7377 17.0039 14.9622 16.8015C15.3211 16.474 15.3781 16.7904 15.5714 17.0848C16.1879 18.0286 17.0676 18.8362 18.2547 18.7921C19.0682 18.7608 19.0774 17.5043 18.2547 17.5282C16.9167 17.5778 16.7603 16.0233 15.8088 15.4585C14.8573 14.8937 13.8156 16.1318 13.2543 16.7242C12.1684 17.8759 10.3096 18.3284 8.76733 18.196C7.95386 18.1279 7.95386 19.3936 8.76733 19.4599L8.76916 19.4654Z" fill="white"/>
<path d="M17.2578 18.8876C16.2401 18.6705 15.8076 17.39 14.6076 17.9677C13.4077 18.5454 12.0954 20.1459 10.5808 19.6069C9.80962 19.3328 9.4765 20.5525 10.2384 20.823C11.5267 21.2829 13.0837 20.536 14.1033 19.8038C14.5579 19.4781 15.042 18.8545 15.5517 19.2905C15.9438 19.6253 16.3947 19.9896 16.9118 20.1018C17.7069 20.2729 18.051 19.055 17.2541 18.8839L17.2578 18.8876Z" fill="white"/>
<path d="M13.5529 21.7132C14.4257 21.6664 15.2751 21.4142 16.032 20.9773C16.7203 20.545 16.0927 19.4467 15.4007 19.8827C15.0177 20.1087 14.5988 20.2674 14.1621 20.3518C13.9642 20.3999 13.7631 20.4337 13.5603 20.453C12.7542 20.5211 12.7395 21.785 13.5603 21.7169L13.5529 21.7132Z" fill="white"/>
<path d="M1.62949 4.45481H0.602539L0.611739 2.72731C0.613426 2.38893 0.681805 2.05419 0.812968 1.74222C0.944131 1.43026 1.13551 1.14719 1.37616 0.909198C1.61681 0.671202 1.90202 0.482944 2.21549 0.355181C2.52896 0.227418 2.86454 0.162655 3.20306 0.164593H4.81711V1.19115L3.20306 1.18196C2.79205 1.18048 2.3972 1.34191 2.10502 1.63088C1.81284 1.91984 1.64714 2.31279 1.64422 2.72363L1.62949 4.45481Z" fill="white"/>
<path d="M24.9384 4.48052H25.9653L25.9745 2.75303C25.9762 2.41479 25.9113 2.07954 25.7833 1.7664C25.6554 1.45327 25.467 1.16839 25.229 0.928023C24.9909 0.68766 24.7078 0.496522 24.3959 0.365525C24.0839 0.234528 23.7492 0.166238 23.4108 0.164551H21.7949V1.19111L23.409 1.20031C23.8171 1.20659 24.2063 1.3732 24.4925 1.66411C24.7787 1.95502 24.9389 2.34685 24.9384 2.75487V4.48052Z" fill="white"/>
<path d="M24.8341 22.5513H25.8592L25.85 24.2769C25.8483 24.6152 25.78 24.9497 25.649 25.2616C25.5179 25.5734 25.3267 25.8564 25.0863 26.0944C24.8458 26.3324 24.5608 26.5207 24.2475 26.6485C23.9343 26.7764 23.5989 26.8413 23.2605 26.8396H21.6465V25.8131H23.2624C23.6734 25.8146 24.0682 25.6531 24.3604 25.3642C24.6526 25.0752 24.8183 24.6823 24.8212 24.2714L24.8341 22.5513Z" fill="white"/>
<path d="M1.52602 22.4321H0.499056V24.1596C0.49736 24.4979 0.562327 24.8331 0.690248 25.1462C0.81817 25.4594 1.00654 25.7443 1.24461 25.9846C1.48267 26.225 1.76576 26.4161 2.07772 26.5471C2.38968 26.6781 2.72441 26.7464 3.06277 26.7481H4.67682V25.7215H3.06277C2.65177 25.7186 2.25867 25.553 1.96959 25.2609C1.68051 24.9689 1.51902 24.5742 1.5205 24.1633L1.52602 22.4321Z" fill="white"/>
<path d="M13.3035 25.3687H12.8066V26.6363H12.4256V25.3687H11.9287V25.0449H13.3035V25.3687Z" fill="white"/>
<path d="M13.7733 25.3757H13.5635L13.1328 25.0225H13.5285L13.7733 25.3757ZM13.7365 26.6377H13.3684V25.4548H13.7365V26.6377Z" fill="white"/>
<path d="M15.5853 26.6376H15.2338V25.9311C15.2398 25.8799 15.2288 25.8282 15.2025 25.7839C15.1622 25.7597 15.115 25.7494 15.0682 25.7545H14.932V26.6357H14.5768V25.7545H14.2841V26.6357H13.9326V25.4528H15.0921C15.2234 25.4427 15.3539 25.4799 15.4602 25.5576C15.5033 25.6014 15.5364 25.654 15.5571 25.7118C15.5777 25.7697 15.5855 25.8313 15.5798 25.8925L15.5853 26.6376Z" fill="white"/>
<path d="M17.5763 25.4541L17.0555 26.637H16.7021L16.207 25.4541H16.599L16.8898 26.2047L17.199 25.4541H17.5763Z" fill="white"/>
<path d="M17.9989 25.3787H17.6309V25.042H17.9989V25.3787ZM17.9989 26.6352H17.6309V25.4523H17.9989V26.6352Z" fill="white"/>
<path d="M19.1813 26.6377H18.723C18.643 26.6473 18.5619 26.6385 18.4859 26.6121C18.4098 26.5857 18.3407 26.5422 18.284 26.4851C18.2272 26.428 18.1842 26.3587 18.1582 26.2825C18.1322 26.2063 18.124 26.1252 18.134 26.0453C18.1242 25.9657 18.1327 25.8848 18.1588 25.8089C18.1849 25.733 18.228 25.6641 18.2848 25.6073C18.3416 25.5505 18.4105 25.5075 18.4865 25.4814C18.5624 25.4553 18.6433 25.4468 18.723 25.4566H19.1813V25.7436H18.7635C18.6949 25.7366 18.6257 25.7501 18.5647 25.7823C18.5479 25.797 18.5347 25.8155 18.5264 25.8363C18.5181 25.8571 18.5148 25.8796 18.5169 25.9018H19.1813V26.1925H18.5169C18.5153 26.2139 18.5181 26.2353 18.525 26.2555C18.532 26.2758 18.543 26.2944 18.5574 26.3103C18.6198 26.3441 18.6912 26.3576 18.7616 26.3489H19.1813V26.6377ZM19.1316 25.3757H18.9236L18.7506 25.223L18.5758 25.3757H18.3696L18.6126 25.0225H18.8886L19.1316 25.3757ZM18.9034 27.0756H18.5942V26.7463H18.9034V27.0756Z" fill="white"/>
<path d="M20.2929 26.6372H19.8641C19.8169 26.6402 19.7695 26.6402 19.7223 26.6372C19.6798 26.627 19.638 26.6141 19.5972 26.5986C19.5288 26.5743 19.4661 26.5361 19.4132 26.4864C19.3867 26.46 19.3638 26.4303 19.3451 26.398C19.3229 26.3627 19.3032 26.3258 19.2862 26.2877C19.2713 26.2502 19.2602 26.2114 19.253 26.1718C19.2326 26.0483 19.244 25.9217 19.2862 25.8038C19.3155 25.7279 19.3586 25.6581 19.4132 25.5978C19.4664 25.5506 19.5292 25.5155 19.5972 25.4947C19.6812 25.4691 19.7689 25.4573 19.8567 25.4598H20.2855V25.756H19.945C19.8877 25.7545 19.8303 25.7588 19.7739 25.7689C19.7368 25.7769 19.7025 25.7947 19.6745 25.8204C19.6474 25.8521 19.6271 25.889 19.6147 25.9289C19.6024 25.9687 19.5983 26.0107 19.6027 26.0522C19.6016 26.106 19.6123 26.1593 19.634 26.2086C19.6533 26.2509 19.6838 26.2872 19.7223 26.3134L19.7923 26.3373H19.8493H19.945H20.2855L20.2929 26.6372Z" fill="white"/>
<path d="M7.28135 26.1993C7.28432 26.259 7.27415 26.3185 7.25157 26.3739C7.229 26.4292 7.19455 26.4788 7.15068 26.5194C7.04592 26.601 6.91524 26.6422 6.78259 26.6353H5.99121V26.3152H6.6464C6.70462 26.3195 6.76283 26.3067 6.81388 26.2784C6.83192 26.2636 6.84618 26.2446 6.85546 26.2232C6.86474 26.2018 6.86878 26.1784 6.86726 26.1551C6.86856 26.1323 6.86459 26.1095 6.85566 26.0884C6.84672 26.0674 6.83306 26.0486 6.81572 26.0337C6.76534 26.0018 6.70577 25.9876 6.6464 25.9932H6.11268V25.6768H6.6372C6.69686 25.6816 6.75656 25.6681 6.80836 25.6382C6.82593 25.6239 6.83966 25.6055 6.84834 25.5847C6.85702 25.5638 6.86035 25.5411 6.85805 25.5186C6.85958 25.4965 6.85588 25.4743 6.84724 25.4538C6.83861 25.4334 6.82529 25.4152 6.80836 25.4009C6.78832 25.3854 6.76504 25.3747 6.74027 25.3696C6.70598 25.3664 6.67149 25.3664 6.6372 25.3696H5.99121V25.0495H6.74947C6.89021 25.0394 7.03026 25.0769 7.147 25.1562C7.19405 25.1968 7.23077 25.248 7.25413 25.3055C7.27749 25.3631 7.28683 25.4254 7.28135 25.4873C7.28259 25.5574 7.26546 25.6265 7.23166 25.6878C7.19594 25.7466 7.14978 25.7984 7.09547 25.8405C7.1508 25.8736 7.19649 25.9205 7.22798 25.9767C7.26512 26.0449 7.28354 26.1217 7.28135 26.1993Z" fill="white"/>
<path d="M8.86011 26.1465C8.86428 26.2204 8.84957 26.2941 8.81738 26.3608C8.78518 26.4274 8.73655 26.4847 8.67607 26.5274C8.51805 26.6218 8.33534 26.6666 8.15155 26.6562C8.04415 26.6652 7.93603 26.6527 7.8336 26.6192C7.73116 26.5857 7.6365 26.5319 7.55525 26.4611C7.48621 26.3773 7.43441 26.2807 7.40282 26.1769C7.37124 26.073 7.3605 25.9639 7.37121 25.8559C7.36159 25.7448 7.37492 25.6329 7.41038 25.5272C7.44584 25.4215 7.50267 25.3242 7.57734 25.2414C7.75405 25.0946 7.98149 25.0232 8.21044 25.0427H8.78282V25.3628H8.20308C8.09233 25.3533 7.98172 25.3825 7.89021 25.4456C7.85885 25.4723 7.83479 25.5065 7.82027 25.545C7.80278 25.592 7.79405 25.6419 7.7945 25.6921H8.31167C8.45957 25.6818 8.60667 25.7213 8.72944 25.8044C8.77591 25.8476 8.81186 25.901 8.83451 25.9603C8.85716 26.0196 8.86591 26.0833 8.86011 26.1465ZM8.44786 26.1649C8.44943 26.1436 8.44665 26.1222 8.43969 26.1019C8.43273 26.0817 8.42173 26.0631 8.40737 26.0472C8.37322 26.0211 8.33058 26.0086 8.28774 26.0122H7.79083C7.78781 26.0575 7.79446 26.1029 7.81033 26.1454C7.82619 26.1879 7.85091 26.2265 7.88285 26.2588C7.96456 26.3219 8.06702 26.3521 8.16995 26.3434C8.24387 26.3494 8.31796 26.334 8.38344 26.2992C8.40476 26.2842 8.42187 26.264 8.43314 26.2405C8.44442 26.217 8.44948 26.191 8.44786 26.1649Z" fill="white"/>
<path d="M10.3176 26.1528C10.3227 26.2213 10.3121 26.29 10.2866 26.3538C10.261 26.4176 10.2213 26.4746 10.1703 26.5207C10.0505 26.6095 9.90322 26.6531 9.75438 26.644H8.91699V26.3239H9.68261C9.73795 26.3289 9.79343 26.316 9.84088 26.2871C9.85687 26.2707 9.8691 26.251 9.87672 26.2294C9.88435 26.2078 9.88719 26.1848 9.88506 26.162C9.88749 26.1386 9.8848 26.115 9.87717 26.0927C9.86954 26.0705 9.85716 26.0502 9.84088 26.0332C9.79409 26.0026 9.73823 25.989 9.68261 25.9946H8.91699V25.0508H10.2384V25.3709H9.309V25.6763H9.82616C9.96054 25.6679 10.0928 25.7129 10.1942 25.8014C10.2369 25.845 10.2701 25.897 10.2918 25.9541C10.3116 26.0184 10.3203 26.0856 10.3176 26.1528Z" fill="white"/>
<path fill-rule="evenodd" clip-rule="evenodd" d="M11.7258 26.8002L11.0872 26.6162L10.502 27.1516C10.502 27.1516 11.2289 27.3484 11.3338 27.3834C11.7019 27.4827 11.805 27.3834 11.9099 27.2804C12.1455 26.9676 11.7258 26.8002 11.7258 26.8002Z" fill="white"/>
<path fill-rule="evenodd" clip-rule="evenodd" d="M11.3847 25.2571C11.2264 24.8598 10.7535 24.7347 10.2915 24.7236C10.2716 24.7246 10.2526 24.7326 10.238 24.7462C10.2234 24.7598 10.214 24.7781 10.2116 24.7979C10.2092 24.8177 10.2138 24.8377 10.2247 24.8544C10.2357 24.8712 10.2521 24.8835 10.2713 24.8892C10.4995 24.9444 10.8234 25.0934 10.851 25.3602C10.8952 25.7833 10.5436 26.1494 10.2565 26.4106L10.2381 26.4272C9.82323 26.7869 9.33447 27.0513 8.80628 27.2017C8.62285 27.2593 8.43423 27.2987 8.24311 27.3195C8.10086 27.3345 7.95722 27.3302 7.81613 27.3066C7.70887 27.2887 7.60512 27.254 7.50878 27.2036C7.43258 27.1636 7.36305 27.1121 7.30265 27.0509C7.25442 27.0027 7.21294 26.9483 7.17934 26.889C7.16463 26.8655 7.15171 26.8409 7.14069 26.8154L7.12413 26.7731C7.11929 26.7635 7.11376 26.7543 7.10757 26.7455C7.08773 26.7167 7.0581 26.6962 7.02423 26.6878C6.99035 26.6793 6.95455 26.6835 6.92352 26.6995C6.903 26.7178 6.88787 26.7413 6.87976 26.7676C6.87165 26.7939 6.87087 26.8218 6.87751 26.8485C6.9084 27.018 6.97082 27.1803 7.06155 27.3268C7.21815 27.5586 7.45692 27.7223 7.72963 27.7849C8.00305 27.845 8.28548 27.8518 8.5615 27.8052C8.80609 27.7688 9.04736 27.7128 9.28295 27.6377C9.61504 27.5335 9.93281 27.3883 10.2289 27.2054C10.5955 26.9951 10.9125 26.7083 11.1583 26.3647C11.3011 26.1555 11.389 25.9138 11.4142 25.6619C11.4312 25.5264 11.4212 25.3888 11.3847 25.2571Z" fill="white"/>
<path fill-rule="evenodd" clip-rule="evenodd" d="M7.29395 26.7374C7.60866 27.707 9.34418 26.8681 9.50246 26.6841C8.10557 27.4715 7.29395 26.7374 7.29395 26.7374Z" fill="white"/>
<path opacity="0.1" d="M26.5004 12.3462H1.10254V21.1768H26.5004V12.3462Z" fill="white"/>
</svg>
