<svg width="30" height="30" viewBox="0 0 30 30" fill="none" xmlns="http://www.w3.org/2000/svg">
<path d="M23.0385 4H6.96154C6.17678 4.00242 5.42479 4.34122 4.86988 4.94237C4.31497 5.54353 4.00223 6.35817 4 7.20833V18.2083C4.00223 19.0585 4.31497 19.8731 4.86988 20.4743C5.42479 21.0755 6.17678 21.4142 6.96154 21.4167H9.07692V26L14.0333 21.5232C14.1094 21.4544 14.2054 21.4166 14.3046 21.4167H23.0385C23.8232 21.4142 24.5752 21.0755 25.1301 20.4743C25.685 19.8731 25.9978 19.0585 26 18.2083V7.20833C25.9978 6.35817 25.685 5.54353 25.1301 4.94237C24.5752 4.34122 23.8232 4.00242 23.0385 4V4Z" stroke="#474747" stroke-width="1.2" stroke-linejoin="round"/>
<path d="M16.8301 11.6611H19.6055V12.8574H16.8301V16.002H15.5586V12.8574H12.7832V11.6611H15.5586V8.75586H16.8301V11.6611Z" fill="#474747"/>
</svg>
