<svg width="21" height="20" viewBox="0 0 21 20" fill="none" xmlns="http://www.w3.org/2000/svg">
<path d="M10.5 0C16.023 0 20.5 4.477 20.5 10C20.5 15.523 16.023 20 10.5 20C8.904 20.0022 7.33083 19.6208 5.91301 18.888L2.08701 19.955C1.87355 20.0146 1.64809 20.0163 1.43373 19.9601C1.21937 19.9038 1.02382 19.7916 0.867118 19.6349C0.710412 19.4782 0.598185 19.2826 0.541936 19.0683C0.485686 18.8539 0.487437 18.6285 0.547008 18.415L1.61501 14.592C0.88036 13.1729 0.497931 11.5979 0.500008 10C0.500008 4.477 4.97701 0 10.5 0ZM10.5 1.5C8.24567 1.5 6.08366 2.39553 4.4896 3.98959C2.89554 5.58365 2.00001 7.74566 2.00001 10C2.00001 11.47 2.37301 12.883 3.07301 14.137L3.22301 14.407L2.11101 18.391L6.09801 17.279L6.36801 17.429C7.50239 18.0597 8.76614 18.4222 10.0624 18.4888C11.3586 18.5554 12.6528 18.3242 13.8458 17.8131C15.0389 17.3019 16.099 16.5244 16.945 15.54C17.7909 14.5556 18.4002 13.3906 18.7261 12.1343C19.052 10.8779 19.0858 9.56364 18.825 8.29219C18.5643 7.02073 18.0158 5.82589 17.2216 4.79927C16.4275 3.77264 15.4088 2.94152 14.2437 2.36962C13.0786 1.79773 11.7979 1.50025 10.5 1.5ZM7.25001 11H11.748C11.938 11.0001 12.1209 11.0722 12.2598 11.202C12.3987 11.3317 12.4831 11.5093 12.496 11.6989C12.509 11.8885 12.4495 12.0759 12.3296 12.2233C12.2097 12.3707 12.0383 12.4671 11.85 12.493L11.748 12.5H7.25001C7.05999 12.4999 6.87707 12.4278 6.73822 12.298C6.59937 12.1683 6.51493 11.9907 6.50198 11.8011C6.48903 11.6115 6.54852 11.4241 6.66844 11.2767C6.78836 11.1293 6.95976 11.0329 7.14801 11.007L7.25001 11ZM7.25001 7.5H13.755C13.9449 7.50031 14.1277 7.57267 14.2664 7.70248C14.405 7.83229 14.4893 8.00987 14.5021 8.19938C14.5149 8.38888 14.4553 8.57619 14.3354 8.72349C14.2155 8.8708 14.0442 8.96711 13.856 8.993L13.755 9H7.25001C7.05999 8.99994 6.87707 8.92776 6.73822 8.79803C6.59937 8.6683 6.51493 8.4907 6.50198 8.30112C6.48903 8.11154 6.54852 7.92411 6.66844 7.7767C6.78836 7.62929 6.95976 7.5329 7.14801 7.507L7.25001 7.5Z" fill="#666666"/>
</svg>
