<svg width="25" height="24" viewBox="0 0 25 24" fill="none" xmlns="http://www.w3.org/2000/svg">
<path d="M19.4581 2H4.8427C4.12928 2.0022 3.44566 2.3102 2.94119 2.8567C2.43672 3.40321 2.15242 4.14379 2.15039 4.91667V14.9167C2.15242 15.6895 2.43672 16.4301 2.94119 16.9766C3.44566 17.5231 4.12928 17.8311 4.8427 17.8333H6.76578V22L11.2715 17.9302C11.3407 17.8676 11.428 17.8333 11.5182 17.8333H19.4581C20.1715 17.8311 20.8551 17.5231 21.3596 16.9766C21.8641 16.4301 22.1484 15.6895 22.1504 14.9167V4.91667C22.1484 4.14379 21.8641 3.40321 21.3596 2.8567C20.8551 2.3102 20.1715 2.0022 19.4581 2V2Z" stroke="#474747" stroke-width="1.5" stroke-linejoin="round"/>
<path d="M14.8171 7.91092H15.7059C15.8238 7.91092 15.9369 7.95774 16.0202 8.04109C16.1036 8.12444 16.1504 8.23749 16.1504 8.35536V13.6887C16.1504 13.8066 16.1036 13.9196 16.0202 14.003C15.9369 14.0863 15.8238 14.1331 15.7059 14.1331H8.59484C8.47696 14.1331 8.36391 14.0863 8.28057 14.003C8.19722 13.9196 8.15039 13.8066 8.15039 13.6887V8.35536C8.15039 8.23749 8.19722 8.12444 8.28057 8.04109C8.36391 7.95774 8.47696 7.91092 8.59484 7.91092H9.48372V7.46647C9.48372 6.75923 9.76468 6.08095 10.2648 5.58085C10.7649 5.08076 11.4431 4.7998 12.1504 4.7998C12.8576 4.7998 13.5359 5.08076 14.036 5.58085C14.5361 6.08095 14.8171 6.75923 14.8171 7.46647V7.91092ZM8.59484 8.35536V13.6887H15.7059V8.35536H8.59484ZM14.3726 7.91092V7.46647C14.3726 6.99498 14.0393 6.24431 13.7059 5.91092C13.3725 5.57752 12.6219 5.24425 12.1504 5.24425C11.6789 5.24425 10.9282 5.57752 10.5948 5.91092C10.2614 6.24431 9.92817 6.99498 9.92817 7.46647V7.91092H14.3726Z" fill="#474747" stroke="#474747" stroke-width="0.5"/>
</svg>
