<svg width="24" height="24" viewBox="0 0 24 24" fill="none" xmlns="http://www.w3.org/2000/svg">
<path d="M17.5769 2H4.42308C3.781 2.00198 3.16574 2.27918 2.71172 2.77103C2.2577 3.26289 2.00183 3.92942 2 4.625V13.625C2.00183 14.3206 2.2577 14.9871 2.71172 15.479C3.16574 15.9708 3.781 16.248 4.42308 16.25H6.15385V20L10.209 16.3372C10.2713 16.2808 10.3499 16.25 10.431 16.25H17.5769C18.219 16.248 18.8343 15.9708 19.2883 15.479C19.7423 14.9871 19.9982 14.3206 20 13.625V4.625C19.9982 3.92942 19.7423 3.26289 19.2883 2.77103C18.8343 2.27918 18.219 2.00198 17.5769 2V2Z" stroke="#474747" stroke-width="1.3" stroke-linejoin="round"/>
<path d="M13 7.33333H13.6667C13.7551 7.33333 13.8399 7.36845 13.9024 7.43096C13.9649 7.49348 14 7.57826 14 7.66667V11.6667C14 11.7551 13.9649 11.8399 13.9024 11.9024C13.8399 11.9649 13.7551 12 13.6667 12H8.33333C8.24493 12 8.16014 11.9649 8.09763 11.9024C8.03512 11.8399 8 11.7551 8 11.6667V7.66667C8 7.57826 8.03512 7.49348 8.09763 7.43096C8.16014 7.36845 8.24493 7.33333 8.33333 7.33333H9V7C9 6.46957 9.21071 5.96086 9.58579 5.58579C9.96086 5.21071 10.4696 5 11 5C11.5304 5 12.0391 5.21071 12.4142 5.58579C12.7893 5.96086 13 6.46957 13 7V7.33333ZM8.33333 7.66667V11.6667H13.6667V7.66667H8.33333ZM12.6667 7.33333V7C12.6667 6.64638 12.4167 6.08338 12.1667 5.83333C11.9166 5.58328 11.3536 5.33333 11 5.33333C10.6464 5.33333 10.0834 5.58328 9.83333 5.83333C9.58328 6.08338 9.33333 6.64638 9.33333 7V7.33333H12.6667Z" fill="#474747" stroke="#474747" stroke-width="0.5"/>
</svg>
