<svg width="21" height="20" viewBox="0 0 21 20" fill="none" xmlns="http://www.w3.org/2000/svg">
<path d="M10.5005 0C16.0237 0 20.5 4.47716 20.5 9.99949C20.5 15.5218 16.0237 19.999 10.5005 19.999C8.80495 19.999 7.17025 19.5755 5.71815 18.7834L1.61054 19.9659C1.46118 20.009 1.30301 20.0113 1.15249 19.9725C1.00196 19.9337 0.864592 19.8552 0.754677 19.7453C0.644761 19.6354 0.566321 19.498 0.527522 19.3475C0.488723 19.197 0.490984 19.0388 0.53407 18.8895L1.71836 14.7845C0.91732 13.317 0.498675 11.6714 0.501028 9.99949C0.501028 4.47716 4.97906 0 10.5005 0ZM11.1518 11.3038H7.23894L7.15112 11.3099C6.99503 11.3313 6.852 11.4086 6.74846 11.5274C6.64491 11.6461 6.58787 11.7983 6.58787 11.9559C6.58787 12.1135 6.64491 12.2657 6.74846 12.3845C6.852 12.5032 6.99503 12.5805 7.15112 12.602L7.23894 12.608H11.1509L11.2387 12.602C11.3948 12.5805 11.5379 12.5032 11.6414 12.3845C11.7449 12.2657 11.802 12.1135 11.802 11.9559C11.802 11.7983 11.7449 11.6461 11.6414 11.5274C11.5379 11.4086 11.3948 11.3313 11.2387 11.3099L11.1509 11.3038H11.1518ZM13.7656 7.39092H7.23894L7.15112 7.39701C6.99503 7.41849 6.852 7.49575 6.74846 7.61451C6.64491 7.73327 6.58787 7.8855 6.58787 8.04306C6.58787 8.20062 6.64491 8.35286 6.74846 8.47162C6.852 8.59038 6.99503 8.66764 7.15112 8.68912L7.23894 8.6952H13.7647L13.8534 8.68912C14.0095 8.66764 14.1525 8.59038 14.2561 8.47162C14.3596 8.35286 14.4166 8.20062 14.4166 8.04306C14.4166 7.8855 14.3596 7.73327 14.2561 7.61451C14.1525 7.49575 14.0095 7.41849 13.8534 7.39701L13.7656 7.39092Z" fill="url(#paint0_linear_5328_118450)"/>
<defs>
<linearGradient id="paint0_linear_5328_118450" x1="0.5" y1="11.2636" x2="20.5001" y2="11.2482" gradientUnits="userSpaceOnUse">
<stop stop-color="#0086DA"/>
<stop offset="1" stop-color="#00A9E9"/>
<stop offset="1" stop-color="#00A9E9"/>
</linearGradient>
</defs>
</svg>
