<svg width="150" height="150" viewBox="0 0 150 150" fill="none" xmlns="http://www.w3.org/2000/svg">
<path d="M75 150C116.421 150 150 116.421 150 75C150 33.5786 116.421 0 75 0C33.5786 0 0 33.5786 0 75C0 116.421 33.5786 150 75 150Z" fill="#76B51B"/>
<path d="M55.8359 108.833L94.4006 147.397C126.341 138.88 150 109.779 150 75C150 74.2902 150 73.5804 150 72.8706L119.716 44.9527L55.8359 108.833Z" fill="#659E13"/>
<path d="M107.203 39.5624C108.812 37.9382 110.999 37.0171 113.285 37.0002C115.571 36.9834 117.771 37.8723 119.404 39.4726C121.037 41.0729 121.97 43.2545 121.999 45.5407C122.029 47.8268 121.152 50.0316 119.56 51.6732L73.5136 109.237C72.7226 110.089 71.768 110.773 70.7069 111.247C69.6459 111.722 68.5 111.978 67.3378 112C66.1757 112.021 65.021 111.809 63.9428 111.375C62.8645 110.941 61.8849 110.293 61.0623 109.472L30.5329 78.9546C28.9106 77.3315 27.9994 75.1304 28 72.8355C28.0006 70.5406 28.9127 68.3399 30.5358 66.7176C32.159 65.0953 34.3601 64.1842 36.6549 64.1847C38.9498 64.1853 41.1505 65.0974 42.7728 66.7205L66.9179 90.8715L106.974 39.8326C107.047 39.7397 107.125 39.6515 107.209 39.5683L107.203 39.5624Z" fill="white" stroke="white" stroke-width="5"/>
</svg>
