<svg width="26" height="26" viewBox="0 0 26 26" fill="none" xmlns="http://www.w3.org/2000/svg">
<path d="M19.2969 11.0909C19.2969 11.0909 17.4688 9.58777 16.4937 8.12527C16.1281 7.59714 14.95 7.67839 14.5438 8.69402L8.20625 11.1315L4.02187 8.89714C3.37187 8.49089 2.51875 8.77527 2.15312 9.54714C1.7875 10.2784 1.99062 11.2128 2.68125 11.619L3.33125 11.9846C2.7625 11.9034 2.15312 12.1878 1.86875 12.7565C1.50312 13.4878 1.70625 14.4221 2.39687 14.8284L3.85938 15.6815C3.20937 15.2753 2.35625 15.5596 1.99062 16.3315C1.625 17.0628 1.82812 17.9971 2.51875 18.4034C2.51875 18.4034 9.87188 22.9534 12.3906 24.294C14.3813 25.3909 18.3219 25.919 20.8 22.9128C21.6125 21.8565 19.2969 11.0909 19.2969 11.0909Z" fill="#D99B57"/>
<path d="M22.3438 11.0898C21.0438 10.1961 20.15 9.01794 19.5 7.23044C19.2563 6.62106 18.3625 6.49919 17.8344 7.51482C17.0625 8.97732 17.7938 10.1554 18.2 10.6836L18.4031 10.9273C18.4031 10.9273 18.525 11.3742 18.7281 11.9023C17.6313 11.6586 16.4125 12.2679 15.5594 13.4054C14.6656 14.5836 12.5531 16.6148 11.6594 17.7929C10.5625 19.2148 10.8469 21.2461 12.0656 22.1398C12.0656 22.1398 18.4438 26.8117 22.6688 21.0836C26 16.6148 23.6438 11.9836 22.3438 11.0898Z" fill="#FFDD67"/>
<path d="M20.1906 12.7954C20.8406 13.2829 21.0031 14.2173 20.5156 14.9485C20.0688 15.6798 19.1344 15.8829 18.4844 15.3954L8.36875 8.12353C7.71875 7.63603 7.55625 6.70166 8.04375 5.97041C8.49062 5.23916 9.425 5.03603 10.075 5.52353L20.1906 12.7954Z" fill="#FFDD67"/>
<path d="M14.95 11.9859L8.49062 7.31406C8.125 7.07031 7.88125 6.66406 8.00312 6.05469C7.55625 6.86719 7.84062 7.67969 8.36875 8.08594L14.8281 12.7578C15.4781 13.2453 15.6 12.4734 14.95 11.9859Z" fill="#EBA352"/>
<path d="M16.9 14.2188C17.55 14.7063 17.7125 15.6407 17.225 16.372C16.7781 17.1032 15.8437 17.3063 15.1937 16.8188L5.07812 9.50634C4.42812 9.01884 4.26562 8.08447 4.75312 7.35322C5.2 6.62197 6.13437 6.41884 6.78437 6.90634L16.9 14.2188Z" fill="#FFDD67"/>
<path d="M13 14.3828L5.2 8.73594C4.83437 8.49219 4.59063 8.00469 4.7125 7.47656C4.26563 8.28906 4.50937 9.18281 5.07812 9.58906L12.9187 15.1547C13.5281 15.6422 13.65 14.8297 13 14.3828Z" fill="#EBA352"/>
<path d="M16.25 17.4688C16.9 17.9563 17.0625 18.8907 16.575 19.622C16.1281 20.3532 15.1938 20.5563 14.5437 20.0688L4.42813 12.7563C3.77813 12.2688 3.61563 11.3345 4.10313 10.6032C4.55 9.87197 5.48438 9.66884 6.13438 10.1563L16.25 17.4688Z" fill="#FFDD67"/>
<path d="M11.4562 16.982L4.55 12.0258C4.18437 11.782 3.94062 11.2133 4.10312 10.6445C3.575 11.4164 3.77812 12.432 4.34687 12.8383L11.3344 17.7539C11.9844 18.2414 12.1062 17.4695 11.4562 16.982Z" fill="#EBA352"/>
<path d="M15.9656 21.1235C16.6156 21.611 11.9844 22.0985 11.3344 21.611L4.18437 16.4517C3.53437 15.9642 3.37187 15.0298 3.85937 14.2985C4.30625 13.5673 5.24062 13.3642 5.89062 13.8517L15.9656 21.1235Z" fill="#FFDD67"/>
<path d="M24.3344 16.8992C24.3344 16.8992 23.6438 20.4742 20.8 22.6273C18.2813 24.5367 14.3813 22.8711 12.5125 21.6523C10.5625 20.3117 9.5875 19.6617 4.875 16.0867C3.98125 15.3961 3.7375 14.9492 3.85938 14.218C3.16875 14.9492 3.53438 16.0867 4.10313 16.493L4.59063 16.818C4.59063 16.818 10.2375 20.9617 12.1469 22.2617C13.8938 23.4805 18.4031 25.3898 21.2469 23.1148C24.4563 20.6367 24.3344 16.8992 24.3344 16.8992ZM19.5 12.2273C18.6875 11.3742 18.6469 10.1555 18.6469 10.1555L18.4438 9.91172C18.1188 9.50547 17.5906 8.65234 17.7938 7.63672C17.0219 9.05859 17.7938 10.1961 18.1594 10.6836L18.3625 10.9273C18.3625 10.9273 18.3219 11.293 18.525 11.5773L19.5 12.2273Z" fill="#EBA352"/>
<path d="M15.3563 0.8125L16.575 5.76875L18.9719 1.17813L15.3563 0.8125ZM21.3688 2.275L19.5406 6.37812L23.8063 5.28125L21.3688 2.275ZM12.2688 1.42187L13.4063 5.89062L9.66875 3.49375L12.2688 1.42187Z" fill="#42ADE2"/>
</svg>
