<svg width="20" height="20" viewBox="0 0 20 20" fill="none" xmlns="http://www.w3.org/2000/svg">
<path d="M7.08366 15.8333H6.66699C3.33366 15.8333 1.66699 15 1.66699 10.8333V6.66663C1.66699 3.33329 3.33366 1.66663 6.66699 1.66663H13.3337C16.667 1.66663 18.3337 3.33329 18.3337 6.66663V10.8333C18.3337 14.1666 16.667 15.8333 13.3337 15.8333H12.917C12.6587 15.8333 12.4087 15.9583 12.2503 16.1666L11.0003 17.8333C10.4503 18.5666 9.55033 18.5666 9.00033 17.8333L7.75033 16.1666C7.61699 15.9833 7.30866 15.8333 7.08366 15.8333Z" stroke="white" stroke-width="1.5" stroke-miterlimit="10" stroke-linecap="round" stroke-linejoin="round"/>
<path d="M13.3301 9.16667H13.3375" stroke="white" stroke-width="2" stroke-linecap="round" stroke-linejoin="round"/>
<path d="M9.99607 9.16667H10.0036" stroke="white" stroke-width="2" stroke-linecap="round" stroke-linejoin="round"/>
<path d="M6.66209 9.16667H6.66957" stroke="white" stroke-width="2" stroke-linecap="round" stroke-linejoin="round"/>
</svg>
