<svg width="20" height="21" viewBox="0 0 20 21" fill="none" xmlns="http://www.w3.org/2000/svg">
<path d="M5.375 8.25C5.375 8.39918 5.31574 8.54226 5.21025 8.64775C5.10476 8.75324 4.96168 8.8125 4.8125 8.8125H2.5625C2.41332 8.8125 2.27024 8.75324 2.16475 8.64775C2.05926 8.54226 2 8.39918 2 8.25C2 8.10082 2.05926 7.95774 2.16475 7.85225C2.27024 7.74676 2.41332 7.6875 2.5625 7.6875H4.8125C4.96168 7.6875 5.10476 7.74676 5.21025 7.85225C5.31574 7.95774 5.375 8.10082 5.375 8.25ZM5.375 10.5C5.375 10.6492 5.31574 10.7923 5.21025 10.8977C5.10476 11.0032 4.96168 11.0625 4.8125 11.0625H2.5625C2.41332 11.0625 2.27024 11.0032 2.16475 10.8977C2.05926 10.7923 2 10.6492 2 10.5C2 10.3508 2.05926 10.2077 2.16475 10.1023C2.27024 9.99676 2.41332 9.9375 2.5625 9.9375H4.8125C4.96168 9.9375 5.10476 9.99676 5.21025 10.1023C5.31574 10.2077 5.375 10.3508 5.375 10.5Z" fill="white"/>
<path d="M17.1875 1.5H4.8125C4.36495 1.5 3.93572 1.67779 3.61926 1.99426C3.30279 2.31072 3.125 2.73995 3.125 3.1875V7.6875H4.25V3.1875C4.25 3.03832 4.30926 2.89524 4.41475 2.78975C4.52024 2.68426 4.66332 2.625 4.8125 2.625H6.5V18.375H4.8125C4.66332 18.375 4.52024 18.3157 4.41475 18.2102C4.30926 18.1048 4.25 17.9617 4.25 17.8125V13.3125H3.125V17.8125C3.125 18.2601 3.30279 18.6893 3.61926 19.0057C3.93572 19.3222 4.36495 19.5 4.8125 19.5H17.1875C17.6351 19.5 18.0643 19.3222 18.3807 19.0057C18.6972 18.6893 18.875 18.2601 18.875 17.8125V3.1875C18.875 2.73995 18.6972 2.31072 18.3807 1.99426C18.0643 1.67779 17.6351 1.5 17.1875 1.5ZM12.6875 6.84375C12.9656 6.84375 13.2375 6.92622 13.4688 7.08075C13.7 7.23527 13.8803 7.45489 13.9867 7.71185C14.0931 7.96881 14.121 8.25156 14.0667 8.52435C14.0125 8.79713 13.8785 9.0477 13.6819 9.24437C13.4852 9.44104 13.2346 9.57497 12.9618 9.62923C12.6891 9.68349 12.4063 9.65564 12.1494 9.54921C11.8924 9.44277 11.6728 9.26253 11.5182 9.03127C11.3637 8.80001 11.2812 8.52813 11.2812 8.25C11.2812 7.87704 11.4294 7.51935 11.6931 7.25563C11.9569 6.99191 12.3145 6.84375 12.6875 6.84375ZM15.7812 13.875C15.7812 13.9496 15.7516 14.0211 15.6989 14.0739C15.6461 14.1266 15.5746 14.1562 15.5 14.1562H9.875C9.80041 14.1562 9.72887 14.1266 9.67613 14.0739C9.62338 14.0211 9.59375 13.9496 9.59375 13.875V13.3125C9.59524 12.6416 9.8624 11.9987 10.3368 11.5243C10.8112 11.0499 11.4541 10.7827 12.125 10.7812H13.25C13.9209 10.7827 14.5638 11.0499 15.0382 11.5243C15.5126 11.9987 15.7798 12.6416 15.7812 13.3125V13.875Z" fill="white"/>
<path d="M3.125 8.8125V9.9375H4.25V8.8125H3.125ZM3.125 11.0625V12.1875H4.25V11.0625H3.125ZM5.375 12.75C5.375 12.8992 5.31574 13.0423 5.21025 13.1477C5.10476 13.2532 4.96168 13.3125 4.8125 13.3125H2.5625C2.41332 13.3125 2.27024 13.2532 2.16475 13.1477C2.05926 13.0423 2 12.8992 2 12.75C2 12.6008 2.05926 12.4577 2.16475 12.3523C2.27024 12.2468 2.41332 12.1875 2.5625 12.1875H4.8125C4.96168 12.1875 5.10476 12.2468 5.21025 12.3523C5.31574 12.4577 5.375 12.6008 5.375 12.75Z" fill="white"/>
</svg>
