<svg width="25" height="24" viewBox="0 0 25 24" fill="none" xmlns="http://www.w3.org/2000/svg">
<path d="M13.0654 10.1054C13.0654 9.92298 13.1378 9.74809 13.2668 9.61913C13.3957 9.49018 13.5706 9.41774 13.753 9.41774H18.7955C18.9779 9.41774 19.1528 9.49018 19.2817 9.61913C19.4107 9.74809 19.4831 9.92298 19.4831 10.1054C19.4831 10.2877 19.4107 10.4626 19.2817 10.5916C19.1528 10.7205 18.9779 10.793 18.7955 10.793H13.753C13.5706 10.793 13.3957 10.7205 13.2668 10.5916C13.1378 10.4626 13.0654 10.2877 13.0654 10.1054ZM13.753 13.085C13.5706 13.085 13.3957 13.1575 13.2668 13.2864C13.1378 13.4154 13.0654 13.5903 13.0654 13.7726C13.0654 13.955 13.1378 14.1299 13.2668 14.2588C13.3957 14.3878 13.5706 14.4602 13.753 14.4602H18.7955C18.9779 14.4602 19.1528 14.3878 19.2817 14.2588C19.4107 14.1299 19.4831 13.955 19.4831 13.7726C19.4831 13.5903 19.4107 13.4154 19.2817 13.2864C19.1528 13.1575 18.9779 13.085 18.7955 13.085H13.753ZM9.6273 10.1054C9.6273 10.5309 9.45827 10.939 9.15738 11.2399C8.85649 11.5407 8.44839 11.7098 8.02287 11.7098C7.59735 11.7098 7.18925 11.5407 6.88836 11.2399C6.58747 10.939 6.41844 10.5309 6.41844 10.1054C6.41844 9.67983 6.58747 9.27173 6.88836 8.97084C7.18925 8.66995 7.59735 8.50092 8.02287 8.50092C8.44839 8.50092 8.85649 8.66995 9.15738 8.97084C9.45827 9.27173 9.6273 9.67983 9.6273 10.1054ZM5.73082 12.6266H10.3149C10.5581 12.6266 10.7913 12.7232 10.9632 12.8951C11.1351 13.0671 11.2317 13.3003 11.2317 13.5434V14.0018C11.2317 14.0018 10.7733 16.2939 8.02287 16.2939C5.27241 16.2939 4.814 14.0018 4.814 14.0018V13.5434C4.814 13.3003 4.91059 13.0671 5.08253 12.8951C5.25447 12.7232 5.48767 12.6266 5.73082 12.6266ZM1.15039 5.52125C1.15039 4.85258 1.41602 4.21128 1.88885 3.73846C2.36168 3.26563 3.00297 3 3.67164 3H20.6291C21.2978 3 21.9391 3.26563 22.4119 3.73846C22.8848 4.21128 23.1504 4.85258 23.1504 5.52125V18.8151C23.1504 19.4838 22.8848 20.1251 22.4119 20.5979C21.9391 21.0708 21.2978 21.3364 20.6291 21.3364H3.67256C3.00388 21.3364 2.36259 21.0708 1.88977 20.5979C1.41694 20.1251 1.15131 19.4838 1.15131 18.8151V5.52125H1.15039ZM3.67164 4.37523C3.03904 4.37523 2.52562 4.88865 2.52562 5.52125V18.8151C2.52562 19.4477 3.03904 19.9612 3.67164 19.9612H20.6291C21.2617 19.9612 21.7752 19.4477 21.7752 18.8151V5.52125C21.7752 4.88865 21.2617 4.37523 20.6291 4.37523H3.67256H3.67164Z" fill="#474747"/>
</svg>
