<svg width="20" height="20" viewBox="0 0 20 20" fill="none" xmlns="http://www.w3.org/2000/svg">
<path d="M10.008 7.94444C10.4804 7.94444 10.9481 7.8514 11.3846 7.67062C11.821 7.48984 12.2176 7.22487 12.5516 6.89084C12.8856 6.55681 13.1506 6.16025 13.3314 5.72382C13.5122 5.28738 13.6052 4.81962 13.6052 4.34722C13.6052 3.87483 13.5122 3.40706 13.3314 2.97062C13.1506 2.53419 12.8856 2.13763 12.5516 1.8036C12.2176 1.46957 11.821 1.2046 11.3846 1.02382C10.9481 0.843045 10.4804 0.75 10.008 0.75C9.05393 0.75 8.13896 1.12899 7.46435 1.8036C6.78974 2.47821 6.41075 3.39318 6.41075 4.34722C6.41075 5.30126 6.78974 6.21623 7.46435 6.89084C8.13896 7.56545 9.05393 7.94444 10.008 7.94444Z" fill="url(#paint0_linear_5328_118457)" stroke="url(#paint1_linear_5328_118457)" stroke-width="1.5" stroke-linecap="round" stroke-linejoin="round"/>
<path d="M2.2998 18.6325V19.2491H17.7165V18.6325C17.7165 16.3302 17.7165 15.1791 17.2684 14.2994C16.8742 13.5258 16.2453 12.8969 15.4718 12.5028C14.592 12.0547 13.4409 12.0547 11.1387 12.0547H8.87758C6.57536 12.0547 5.42425 12.0547 4.54447 12.5028C3.77095 12.8969 3.14206 13.5258 2.74792 14.2994C2.2998 15.1791 2.2998 16.3302 2.2998 18.6325Z" fill="url(#paint2_linear_5328_118457)" stroke="url(#paint3_linear_5328_118457)" stroke-width="1.5" stroke-linecap="round" stroke-linejoin="round"/>
<!-- <defs>
<linearGradient id="paint0_linear_5328_118457" x1="6.41075" y1="4.80176" x2="13.6052" y2="4.79623" gradientUnits="userSpaceOnUse">
<stop stop-color="#0086DA"/>
<stop offset="1" stop-color="#00A9E9"/>
<stop offset="1" stop-color="#00A9E9"/>
</linearGradient>
<linearGradient id="paint1_linear_5328_118457" x1="6.41075" y1="4.80176" x2="13.6052" y2="4.79623" gradientUnits="userSpaceOnUse">
<stop stop-color="#0086DA"/>
<stop offset="1" stop-color="#00A9E9"/>
<stop offset="1" stop-color="#00A9E9"/>
</linearGradient>
<linearGradient id="paint2_linear_5328_118457" x1="2.2998" y1="16.1064" x2="17.7165" y2="16.0811" gradientUnits="userSpaceOnUse">
<stop stop-color="#0086DA"/>
<stop offset="1" stop-color="#00A9E9"/>
<stop offset="1" stop-color="#00A9E9"/>
</linearGradient>
<linearGradient id="paint3_linear_5328_118457" x1="2.2998" y1="16.1064" x2="17.7165" y2="16.0811" gradientUnits="userSpaceOnUse">
<stop stop-color="#0086DA"/>
<stop offset="1" stop-color="#00A9E9"/>
<stop offset="1" stop-color="#00A9E9"/>
</linearGradient>
</defs> -->
</svg>
