<svg width="18" height="20" viewBox="0 0 18 20" fill="none" xmlns="http://www.w3.org/2000/svg">
<path d="M12.2998 10.2505C12.2998 10.0516 12.2208 9.86081 12.0801 9.72016C11.9395 9.57951 11.7487 9.50049 11.5498 9.50049H6.5498C6.35089 9.50049 6.16013 9.57951 6.01947 9.72016C5.87882 9.86081 5.7998 10.0516 5.7998 10.2505V10.7505C5.7998 11.7505 7.1828 12.5005 9.0498 12.5005C10.9168 12.5005 12.2998 11.7505 12.2998 10.7505V10.2505ZM10.7998 6.74549C10.7998 5.78049 10.0168 5.00049 9.0498 5.00049C8.0828 5.00049 7.2998 5.77949 7.2998 6.74549C7.2998 7.20962 7.48418 7.65474 7.81237 7.98293C8.14056 8.31111 8.58568 8.49549 9.0498 8.49549C9.51393 8.49549 9.95905 8.31111 10.2872 7.98293C10.6154 7.65474 10.7998 7.20962 10.7998 6.74549ZM0.799805 2.50049C0.799805 1.83745 1.0632 1.20156 1.53204 0.732721C2.00088 0.26388 2.63676 0.000488281 3.2998 0.000488281H14.7998C15.1281 0.000488281 15.4532 0.0651527 15.7565 0.190789C16.0598 0.316426 16.3354 0.500575 16.5676 0.732721C16.7997 0.964868 16.9839 1.24047 17.1095 1.54378C17.2351 1.84709 17.2998 2.17218 17.2998 2.50049V16.7505C17.2998 16.9494 17.2208 17.1402 17.0801 17.2808C16.9395 17.4215 16.7487 17.5005 16.5498 17.5005H2.2998C2.2998 17.7657 2.40516 18.0201 2.5927 18.2076C2.78023 18.3951 3.03459 18.5005 3.2998 18.5005H16.5498C16.7487 18.5005 16.9395 18.5795 17.0801 18.7202C17.2208 18.8608 17.2998 19.0516 17.2998 19.2505C17.2998 19.4494 17.2208 19.6402 17.0801 19.7808C16.9395 19.9215 16.7487 20.0005 16.5498 20.0005H3.2998C2.63676 20.0005 2.00088 19.7371 1.53204 19.2683C1.0632 18.7994 0.799805 18.1635 0.799805 17.5005V2.50049ZM2.2998 2.50049V16.0005H15.7998V2.50049C15.7998 2.23527 15.6944 1.98092 15.5069 1.79338C15.3194 1.60585 15.065 1.50049 14.7998 1.50049H3.2998C3.03459 1.50049 2.78023 1.60585 2.5927 1.79338C2.40516 1.98092 2.2998 2.23527 2.2998 2.50049Z" fill="#666666"/>
</svg>
