<svg width="24" height="24" viewBox="0 0 24 24" fill="none" xmlns="http://www.w3.org/2000/svg">
<path d="M4.92188 6H15.3281C16.8038 6 18 7.19624 18 8.67188V19.0781C18 20.5538 16.8038 21.75 15.3281 21.75H4.92188C3.44624 21.75 2.25 20.5538 2.25 19.0781V8.67188C2.25 7.19624 3.44624 6 4.92188 6Z" stroke="#CCCCCC" stroke-width="1.5" stroke-linejoin="round"/>
<path d="M6.02344 6L6 4.875C6.00198 4.17942 6.27918 3.51289 6.77103 3.02103C7.26289 2.52918 7.92942 2.25198 8.625 2.25H18.75C19.5449 2.25235 20.3066 2.56917 20.8687 3.13128C21.4308 3.69338 21.7477 4.45507 21.75 5.25V15.375C21.748 16.0706 21.4708 16.7371 20.979 17.229C20.4871 17.7208 19.8206 17.998 19.125 18H18" stroke="#CCCCCC" stroke-width="1.5" stroke-linecap="round" stroke-linejoin="round"/>
</svg>
