<svg width="24" height="24" viewBox="0 0 24 24" fill="none" xmlns="http://www.w3.org/2000/svg">
<path d="M21.0664 2.28906H20.4219V1.64453C20.4219 1.28858 20.1333 1 19.7773 1C19.4214 1 19.1328 1.28858 19.1328 1.64453V2.28906H16.5117V1.64453C16.5117 1.28858 16.2231 1 15.8672 1C15.5112 1 15.2227 1.28858 15.2227 1.64453V2.28906H12.6445V1.64453C12.6445 1.28858 12.356 1 12 1C11.644 1 11.3555 1.28858 11.3555 1.64453V2.28906H8.77734V1.64453C8.77734 1.28858 8.48877 1 8.13281 1C7.77686 1 7.48828 1.28858 7.48828 1.64453V2.28906H4.86719V1.64453C4.86719 1.28858 4.57861 1 4.22266 1C3.8667 1 3.57812 1.28858 3.57812 1.64453V2.28906H2.93359C1.86741 2.28906 1 3.15647 1 4.22266C1 5.01225 1 20.1796 1 21.0664C1 22.1326 1.86741 23 2.93359 23H21.0664C22.1326 23 23 22.1326 23 21.0664C23 20.1793 23 5.01186 23 4.22266C23 3.15647 22.1326 2.28906 21.0664 2.28906ZM21.7109 21.0664C21.7109 21.4218 21.4218 21.7109 21.0664 21.7109H2.93359C2.5782 21.7109 2.28906 21.4218 2.28906 21.0664V7.44531H21.7109V21.0664ZM21.7109 6.15625H2.28906V4.22266C2.28906 3.86726 2.5782 3.57812 2.93359 3.57812H3.57812V4.22266C3.57812 4.57861 3.8667 4.86719 4.22266 4.86719C4.57861 4.86719 4.86719 4.57861 4.86719 4.22266V3.57812H7.48828V4.22266C7.48828 4.57861 7.77686 4.86719 8.13281 4.86719C8.48877 4.86719 8.77734 4.57861 8.77734 4.22266V3.57812H11.3555V4.22266C11.3555 4.57861 11.644 4.86719 12 4.86719C12.356 4.86719 12.6445 4.57861 12.6445 4.22266V3.57812H15.2227V4.22266C15.2227 4.57861 15.5112 4.86719 15.8672 4.86719C16.2231 4.86719 16.5117 4.57861 16.5117 4.22266V3.57812H19.1328V4.22266C19.1328 4.57861 19.4214 4.86719 19.7773 4.86719C20.1333 4.86719 20.4219 4.57861 20.4219 4.22266V3.57812H21.0664C21.4218 3.57812 21.7109 3.86726 21.7109 4.22266V6.15625Z" fill="#666666" stroke="#666666" stroke-width="0.4"/>
<path d="M17.1562 19.1328H16.5117V17.1992C16.5117 16.133 15.6443 15.2656 14.5781 15.2656H12.6445V13.8227C13.3947 13.5567 13.9336 12.8403 13.9336 12C13.9336 11.6725 13.8401 11.3387 13.744 11.1708L12.5594 9.10163C12.4445 8.90105 12.2311 8.77734 12 8.77734C11.7689 8.77734 11.5555 8.90105 11.4406 9.10163L10.256 11.1708C10.1615 11.336 10.0664 11.6681 10.0664 12C10.0664 12.8403 10.6053 13.5567 11.3555 13.8227V15.2656H9.42188C8.35569 15.2656 7.48828 16.133 7.48828 17.1992V19.1328H6.84375C6.4878 19.1328 6.19922 19.4214 6.19922 19.7773C6.19922 20.1333 6.4878 20.4219 6.84375 20.4219C7.18733 20.4219 16.6201 20.4219 17.1562 20.4219C17.5122 20.4219 17.8008 20.1333 17.8008 19.7773C17.8008 19.4214 17.5122 19.1328 17.1562 19.1328ZM11.396 11.7739L12 10.7191L12.604 11.7739C12.6309 11.8458 12.6445 11.9217 12.6445 12C12.6445 12.3554 12.3554 12.6445 12 12.6445C11.6446 12.6445 11.3555 12.3554 11.3555 12C11.3555 11.9217 11.3691 11.8458 11.396 11.7739ZM15.2227 19.1328H8.77734V17.1992C8.77734 16.8438 9.06648 16.5547 9.42188 16.5547H14.5781C14.9335 16.5547 15.2227 16.8438 15.2227 17.1992V19.1328Z" fill="#666666" stroke="#666666" stroke-width="0.2"/>
</svg>
