<svg width="17" height="17" viewBox="0 0 17 17" fill="none" xmlns="http://www.w3.org/2000/svg">
<circle cx="8.5" cy="8.5" r="8.5" fill="white"/>
<path fill-rule="evenodd" clip-rule="evenodd" d="M8.5 0C3.80568 0 0 3.80568 0 8.5C0 13.1943 3.80568 17 8.5 17C13.1943 17 17 13.1943 17 8.5C17 3.80568 13.1943 0 8.5 0ZM11.3645 6.72814C11.5053 6.5824 11.5831 6.38721 11.5814 6.1846C11.5796 5.98199 11.4984 5.78818 11.3551 5.64491C11.2118 5.50164 11.018 5.42038 10.8154 5.41862C10.6128 5.41685 10.4176 5.49474 10.2719 5.6355L8.5 7.40736L6.72814 5.6355C6.65685 5.5617 6.57159 5.50283 6.47731 5.46233C6.38304 5.42183 6.28164 5.40052 6.17904 5.39962C6.07643 5.39873 5.97468 5.41828 5.87972 5.45714C5.78475 5.49599 5.69848 5.55337 5.62592 5.62592C5.55337 5.69848 5.49599 5.78475 5.45714 5.87972C5.41828 5.97468 5.39873 6.07643 5.39962 6.17904C5.40052 6.28164 5.42183 6.38304 5.46233 6.47731C5.50283 6.57159 5.5617 6.65685 5.6355 6.72814L7.40736 8.5L5.6355 10.2719C5.5617 10.3431 5.50283 10.4284 5.46233 10.5227C5.42183 10.617 5.40052 10.7184 5.39962 10.821C5.39873 10.9236 5.41828 11.0253 5.45714 11.1203C5.49599 11.2152 5.55337 11.3015 5.62592 11.3741C5.69848 11.4466 5.78475 11.504 5.87972 11.5429C5.97468 11.5817 6.07643 11.6013 6.17904 11.6004C6.28164 11.5995 6.38304 11.5782 6.47731 11.5377C6.57159 11.4972 6.65685 11.4383 6.72814 11.3645L8.5 9.59264L10.2719 11.3645C10.4176 11.5053 10.6128 11.5831 10.8154 11.5814C11.018 11.5796 11.2118 11.4984 11.3551 11.3551C11.4984 11.2118 11.5796 11.018 11.5814 10.8154C11.5831 10.6128 11.5053 10.4176 11.3645 10.2719L9.59264 8.5L11.3645 6.72814Z" fill="#FF3333"/>
</svg>
