<svg width="24" height="24" viewBox="0 0 24 24" fill="none" xmlns="http://www.w3.org/2000/svg">
<path d="M21.0588 20H2.94118C1.84118 20 1 19.15 1 18.0385V4.96154C1 3.85 1.84118 3 2.94118 3H21.0588C22.1588 3 23 3.85 23 4.96154V18.0385C23 19.15 22.1588 20 21.0588 20ZM2.94118 4.30769C2.55294 4.30769 2.29412 4.56923 2.29412 4.96154V18.0385C2.29412 18.4308 2.55294 18.6923 2.94118 18.6923H21.0588C21.4471 18.6923 21.7059 18.4308 21.7059 18.0385V4.96154C21.7059 4.56923 21.4471 4.30769 21.0588 4.30769H2.94118Z" fill="#474747"/>
<path d="M15.2367 10.846C13.8131 10.846 12.6484 9.66908 12.6484 8.23062C12.6484 6.79216 13.8131 5.61523 15.2367 5.61523C16.6602 5.61523 17.8249 6.79216 17.8249 8.23062C17.8249 9.66908 16.6602 10.846 15.2367 10.846ZM15.2367 6.92293C14.5249 6.92293 13.9426 7.51139 13.9426 8.23062C13.9426 8.94985 14.5249 9.53831 15.2367 9.53831C15.9484 9.53831 16.5308 8.94985 16.5308 8.23062C16.5308 7.51139 15.9484 6.92293 15.2367 6.92293Z" fill="#474747"/>
<path d="M18.6659 19.8039L8.11884 9.80001L2.10119 15.4231L1.19531 14.5077L8.11884 7.96924L19.5718 18.8885L18.6659 19.8039Z" fill="#474747"/>
<path d="M21.9658 16.5344L18.4717 13.6575L15.5599 16.0768L14.7188 15.0306L18.4717 11.9575L22.7423 15.4883L21.9658 16.5344Z" fill="#474747"/>
</svg>
