<svg width="20" height="20" viewBox="0 0 20 20" fill="none" xmlns="http://www.w3.org/2000/svg">
<path d="M18.3333 9.08366V3.41699C18.3333 2.16699 17.8 1.66699 16.475 1.66699H13.1083C11.7833 1.66699 11.25 2.16699 11.25 3.41699V9.08366C11.25 10.3337 11.7833 10.8337 13.1083 10.8337H16.475C17.8 10.8337 18.3333 10.3337 18.3333 9.08366Z" fill="url(#paint0_linear_230_12028)" stroke="url(#paint1_linear_230_12028)" stroke-width="1.5" stroke-linecap="round" stroke-linejoin="round"/>
<path d="M18.3333 16.584V15.084C18.3333 13.834 17.8 13.334 16.475 13.334H13.1083C11.7833 13.334 11.25 13.834 11.25 15.084V16.584C11.25 17.834 11.7833 18.334 13.1083 18.334H16.475C17.8 18.334 18.3333 17.834 18.3333 16.584Z" fill="url(#paint2_linear_230_12028)" stroke="url(#paint3_linear_230_12028)" stroke-width="1.5" stroke-linecap="round" stroke-linejoin="round"/>
<path d="M8.74996 10.917V16.5837C8.74996 17.8337 8.21663 18.3337 6.89163 18.3337H3.52496C2.19996 18.3337 1.66663 17.8337 1.66663 16.5837V10.917C1.66663 9.66699 2.19996 9.16699 3.52496 9.16699H6.89163C8.21663 9.16699 8.74996 9.66699 8.74996 10.917Z" fill="url(#paint4_linear_230_12028)" stroke="url(#paint5_linear_230_12028)" stroke-width="1.5" stroke-linecap="round" stroke-linejoin="round"/>
<path d="M8.74996 3.41699V4.91699C8.74996 6.16699 8.21663 6.66699 6.89163 6.66699H3.52496C2.19996 6.66699 1.66663 6.16699 1.66663 4.91699V3.41699C1.66663 2.16699 2.19996 1.66699 3.52496 1.66699H6.89163C8.21663 1.66699 8.74996 2.16699 8.74996 3.41699Z" fill="url(#paint6_linear_230_12028)" stroke="url(#paint7_linear_230_12028)" stroke-width="1.5" stroke-linecap="round" stroke-linejoin="round"/>
<defs>
<linearGradient id="paint0_linear_230_12028" x1="11.25" y1="6.82946" x2="18.3334" y2="6.82525" gradientUnits="userSpaceOnUse">
<stop stop-color="#0086DA"/>
<stop offset="1" stop-color="#00A9E9"/>
<stop offset="1" stop-color="#00A9E9"/>
</linearGradient>
<linearGradient id="paint1_linear_230_12028" x1="11.25" y1="6.82946" x2="18.3334" y2="6.82525" gradientUnits="userSpaceOnUse">
<stop stop-color="#0086DA"/>
<stop offset="1" stop-color="#00A9E9"/>
<stop offset="1" stop-color="#00A9E9"/>
</linearGradient>
<linearGradient id="paint2_linear_230_12028" x1="11.25" y1="16.1499" x2="18.3334" y2="16.1422" gradientUnits="userSpaceOnUse">
<stop stop-color="#0086DA"/>
<stop offset="1" stop-color="#00A9E9"/>
<stop offset="1" stop-color="#00A9E9"/>
</linearGradient>
<linearGradient id="paint3_linear_230_12028" x1="11.25" y1="16.1499" x2="18.3334" y2="16.1422" gradientUnits="userSpaceOnUse">
<stop stop-color="#0086DA"/>
<stop offset="1" stop-color="#00A9E9"/>
<stop offset="1" stop-color="#00A9E9"/>
</linearGradient>
<linearGradient id="paint4_linear_230_12028" x1="1.66663" y1="14.3295" x2="8.75" y2="14.3253" gradientUnits="userSpaceOnUse">
<stop stop-color="#0086DA"/>
<stop offset="1" stop-color="#00A9E9"/>
<stop offset="1" stop-color="#00A9E9"/>
</linearGradient>
<linearGradient id="paint5_linear_230_12028" x1="1.66663" y1="14.3295" x2="8.75" y2="14.3253" gradientUnits="userSpaceOnUse">
<stop stop-color="#0086DA"/>
<stop offset="1" stop-color="#00A9E9"/>
<stop offset="1" stop-color="#00A9E9"/>
</linearGradient>
<linearGradient id="paint6_linear_230_12028" x1="1.66663" y1="4.48288" x2="8.74999" y2="4.47517" gradientUnits="userSpaceOnUse">
<stop stop-color="#0086DA"/>
<stop offset="1" stop-color="#00A9E9"/>
<stop offset="1" stop-color="#00A9E9"/>
</linearGradient>
<linearGradient id="paint7_linear_230_12028" x1="1.66663" y1="4.48288" x2="8.74999" y2="4.47517" gradientUnits="userSpaceOnUse">
<stop stop-color="#0086DA"/>
<stop offset="1" stop-color="#00A9E9"/>
<stop offset="1" stop-color="#00A9E9"/>
</linearGradient>
</defs>
</svg>
