<svg width="20" height="20" viewBox="0 0 20 20" fill="none" xmlns="http://www.w3.org/2000/svg">
<path d="M18.3333 9.08366V3.41699C18.3333 2.16699 17.8 1.66699 16.475 1.66699H13.1083C11.7833 1.66699 11.25 2.16699 11.25 3.41699V9.08366C11.25 10.3337 11.7833 10.8337 13.1083 10.8337H16.475C17.8 10.8337 18.3333 10.3337 18.3333 9.08366Z" stroke="#666666" stroke-width="1.5" stroke-linecap="round" stroke-linejoin="round"/>
<path d="M18.3333 16.584V15.084C18.3333 13.834 17.8 13.334 16.475 13.334H13.1083C11.7833 13.334 11.25 13.834 11.25 15.084V16.584C11.25 17.834 11.7833 18.334 13.1083 18.334H16.475C17.8 18.334 18.3333 17.834 18.3333 16.584Z" stroke="#666666" stroke-width="1.5" stroke-linecap="round" stroke-linejoin="round"/>
<path d="M8.75002 10.917V16.5837C8.75002 17.8337 8.21669 18.3337 6.89169 18.3337H3.52502C2.20002 18.3337 1.66669 17.8337 1.66669 16.5837V10.917C1.66669 9.66699 2.20002 9.16699 3.52502 9.16699H6.89169C8.21669 9.16699 8.75002 9.66699 8.75002 10.917Z" stroke="#666666" stroke-width="1.5" stroke-linecap="round" stroke-linejoin="round"/>
<path d="M8.75002 3.41699V4.91699C8.75002 6.16699 8.21669 6.66699 6.89169 6.66699H3.52502C2.20002 6.66699 1.66669 6.16699 1.66669 4.91699V3.41699C1.66669 2.16699 2.20002 1.66699 3.52502 1.66699H6.89169C8.21669 1.66699 8.75002 2.16699 8.75002 3.41699Z" stroke="#666666" stroke-width="1.5" stroke-linecap="round" stroke-linejoin="round"/>
</svg>
