<svg width="24" height="24" viewBox="0 0 24 24" fill="none" xmlns="http://www.w3.org/2000/svg">
<path d="M5.28421 5H19.5158C20.3868 5 21.2222 5.32028 21.8381 5.8904C22.454 6.46051 22.8 7.23374 22.8 8.04V17.16C22.8 17.9663 22.454 18.7395 21.8381 19.3096C21.2222 19.8797 20.3868 20.2 19.5158 20.2H5.28421C4.41318 20.2 3.57783 19.8797 2.96192 19.3096C2.34601 18.7395 2 17.9663 2 17.16V8.04C2 7.23374 2.34601 6.46051 2.96192 5.8904C3.57783 5.32028 4.41318 5 5.28421 5ZM5.28421 6.01333C4.74998 6.01333 4.25954 6.19067 3.87966 6.48555L12.4 11.6069L20.9203 6.48555C20.5268 6.17994 20.0294 6.01271 19.5158 6.01333H5.28421ZM12.4 12.8148L3.24143 7.3104C3.14431 7.54314 3.09458 7.7905 3.09474 8.04V17.16C3.09474 17.6975 3.32541 18.213 3.73602 18.5931C4.14662 18.9731 4.70353 19.1867 5.28421 19.1867H19.5158C20.0965 19.1867 20.6534 18.9731 21.064 18.5931C21.4746 18.213 21.7053 17.6975 21.7053 17.16V8.04C21.7053 7.78261 21.6538 7.53637 21.5586 7.3104L12.4 12.8138V12.8148Z" fill="#666666" stroke="#666666" stroke-width="0.5"/>
</svg>
