<svg width="406" height="512" viewBox="0 0 406 512" fill="none" xmlns="http://www.w3.org/2000/svg">
<path d="M263.815 0H60.0566C26.9726 0 0.0566406 26.916 0.0566406 60V452C0.0566406 485.084 26.9726 512 60.0566 512H345.946C379.03 512 405.946 485.084 405.946 452V142.856L263.815 0ZM274.944 67.9L337.834 131.111H294.944C283.916 131.111 274.944 122.139 274.944 111.111V67.9ZM365.946 452C365.945 463.028 356.973 472 345.945 472H60.0566C49.0286 472 40.0566 463.028 40.0566 452V60C40.0566 48.972 49.0286 40 60.0566 40H234.946V111.111C234.946 144.195 261.862 171.111 294.946 171.111H365.946V452Z" fill="black"/>
</svg>
