<svg width="16" height="16" viewBox="0 0 16 16" fill="none" xmlns="http://www.w3.org/2000/svg">
<path d="M0.813759 12.2862L10.1431 2.9569C10.3472 2.7621 10.6185 2.65341 10.9006 2.65341C11.1828 2.65341 11.4541 2.7621 11.6582 2.9569L13.0436 4.34231C13.2442 4.54339 13.3569 4.81582 13.3569 5.09985C13.3569 5.38388 13.2442 5.65631 13.0436 5.85738L3.71478 15.1867C3.51371 15.3873 3.24128 15.5 2.95725 15.5C2.67322 15.5 2.40078 15.3873 2.19971 15.1867L0.813759 13.8013C0.612888 13.6004 0.500045 13.3279 0.500045 13.0438C0.500045 12.7597 0.612888 12.4872 0.813759 12.2862ZM12.2861 5.09985L10.9006 3.71443L8.22195 6.39312L9.6079 7.77908L12.2866 5.10038L12.2861 5.09985ZM2.95725 14.4292L8.85037 8.53661L7.46441 7.15065L1.57129 13.0438L2.95725 14.4292ZM15.5005 8.00034L14.429 6.92886L13.3575 8.00034L14.429 9.07181L15.5005 8.00034ZM9.07163 1.57148L8.00015 0.5L6.92868 1.57148L8.00015 2.64295L9.07163 1.57148ZM15.5005 1.57148L14.429 0.5L13.3575 1.57148L14.429 2.64295L15.5005 1.57148Z" fill="url(#paint0_linear_5401_118508)"/>
<defs>
<linearGradient id="paint0_linear_5401_118508" x1="15.5005" y1="8.94768" x2="0.499972" y2="8.93615" gradientUnits="userSpaceOnUse">
<stop stop-color="#0086DA"/>
<stop offset="1" stop-color="#00A9E9"/>
<stop offset="1" stop-color="#00A9E9"/>
</linearGradient>
</defs>
</svg>
