<svg width="20" height="20" viewBox="0 0 20 20" fill="none" xmlns="http://www.w3.org/2000/svg">
<path d="M19 4.375H8.875M12.25 15.625H2.125" stroke="#474747" stroke-width="2" stroke-linecap="round" stroke-linejoin="round"/>
<path d="M15.625 19C17.489 19 19 17.489 19 15.625C19 13.761 17.489 12.25 15.625 12.25C13.761 12.25 12.25 13.761 12.25 15.625C12.25 17.489 13.761 19 15.625 19Z" stroke="#474747" stroke-width="2" stroke-linecap="round" stroke-linejoin="round"/>
<path d="M4.375 7.75C6.23896 7.75 7.75 6.23896 7.75 4.375C7.75 2.51104 6.23896 1 4.375 1C2.51104 1 1 2.51104 1 4.375C1 6.23896 2.51104 7.75 4.375 7.75Z" stroke="#474747" stroke-width="2" stroke-linecap="round" stroke-linejoin="round"/>
</svg>
