<svg width="26" height="26" viewBox="0 0 26 26" fill="none" xmlns="http://www.w3.org/2000/svg">
<path d="M12.9993 24.5546C18.9824 24.5546 23.8327 19.7044 23.8327 13.7213C23.8327 7.73819 18.9824 2.88794 12.9993 2.88794C7.01626 2.88794 2.16602 7.73819 2.16602 13.7213C2.16602 19.7044 7.01626 24.5546 12.9993 24.5546Z" stroke="white" stroke-width="1.5" stroke-linecap="round" stroke-linejoin="round"/>
<path d="M9.40364 13.6246L11.1911 14.0688L10.162 18.2289C9.92365 19.2039 10.4003 19.5288 11.2236 18.9546L16.8353 15.0655C17.5178 14.5888 17.4203 14.0363 16.6078 13.8305L14.8203 13.3863L15.8495 9.22629C16.0878 8.25129 15.6111 7.92631 14.7878 8.50048L9.17615 12.3897C8.49365 12.8663 8.59114 13.4188 9.40364 13.6246Z" stroke="white" stroke-width="1.5" stroke-miterlimit="10" stroke-linecap="round" stroke-linejoin="round"/>
</svg>
