<svg width="24" height="24" viewBox="0 0 24 24" fill="none" xmlns="http://www.w3.org/2000/svg">
<path d="M14.9699 9.61682C15.264 9.61689 15.5479 9.72497 15.7675 9.92053C15.9872 10.1161 16.1274 10.3855 16.1615 10.6776L16.1699 10.8168V10.914C15.7547 10.9932 15.3539 11.1096 14.9699 11.262V10.818H9.00593V16.0584C9.00593 17.3436 9.82193 18.4392 10.9619 18.858C11.0675 19.326 11.2223 19.776 11.4215 20.202C10.459 20.0702 9.57245 19.6075 8.914 18.8932C8.25554 18.1789 7.86631 17.2576 7.81313 16.2876L7.80713 16.0584V10.8168C7.80717 10.5229 7.91508 10.2392 8.11039 10.0196C8.3057 9.79993 8.57483 9.65961 8.86673 9.62522L9.00713 9.61682H14.9699Z" fill="#474747"/>
<path d="M17.3999 10.8C17.5607 10.8 17.7215 10.806 17.8799 10.8168H20.3879V11.514C20.8187 11.7324 21.2207 11.9964 21.5879 12.3V10.8168L21.5807 10.6776C21.5466 10.3855 21.4064 10.1161 21.1867 9.92053C20.9671 9.72497 20.6832 9.61689 20.3891 9.61682H17.0483C17.2235 9.92042 17.3363 10.2684 17.3627 10.638L17.3687 10.8H17.3999Z" fill="#474747"/>
<path d="M6.92881 9.61682C6.75424 9.91812 6.64775 10.254 6.61681 10.6008L6.60721 10.8168H3.61921V15.3048C3.61908 15.6769 3.71216 16.043 3.88995 16.3699C4.06774 16.6967 4.32456 16.9738 4.63698 17.1758C4.9494 17.3778 5.30746 17.4984 5.67845 17.5264C6.04945 17.5545 6.42156 17.4892 6.76081 17.3364C6.85681 17.7312 6.99601 18.1092 7.17361 18.4644C6.66831 18.6766 6.11949 18.7646 5.57318 18.7209C5.02687 18.6772 4.49901 18.5031 4.03389 18.2132C3.56876 17.9233 3.17994 17.5261 2.90003 17.055C2.62012 16.5838 2.45729 16.0523 2.42521 15.5052L2.42041 15.3036V10.8168C2.42045 10.5229 2.52836 10.2392 2.72367 10.0196C2.91898 9.79993 3.18811 9.65961 3.48001 9.62522L3.62041 9.61682H6.92881Z" fill="#474747"/>
<path d="M11.9855 3.58799C12.6943 3.58799 13.374 3.86955 13.8752 4.37072C14.3763 4.87189 14.6579 5.55163 14.6579 6.26039C14.6579 6.96916 14.3763 7.64889 13.8752 8.15006C13.374 8.65124 12.6943 8.93279 11.9855 8.93279C11.2766 8.93279 10.5967 8.65117 10.0954 8.14989C9.59412 7.6486 9.3125 6.96871 9.3125 6.25979C9.3125 5.55087 9.59412 4.87098 10.0954 4.3697C10.5967 3.86841 11.2766 3.58679 11.9855 3.58679V3.58799ZM11.9855 4.78799C11.595 4.78799 11.2205 4.94312 10.9444 5.21925C10.6682 5.49538 10.5131 5.86989 10.5131 6.26039C10.5131 6.6509 10.6682 7.02541 10.9444 7.30154C11.2205 7.57766 11.595 7.73279 11.9855 7.73279C12.3762 7.73279 12.7508 7.5776 13.0271 7.30136C13.3033 7.02512 13.4585 6.65045 13.4585 6.25979C13.4585 5.86913 13.3033 5.49446 13.0271 5.21822C12.7508 4.94198 12.3762 4.78679 11.9855 4.78679V4.78799Z" fill="#474747"/>
<path d="M17.971 4.34045C18.58 4.34045 19.164 4.58237 19.5947 5.013C20.0253 5.44362 20.2672 6.02766 20.2672 6.63665C20.2672 7.24564 20.0253 7.82969 19.5947 8.26031C19.164 8.69093 18.58 8.93285 17.971 8.93285C17.362 8.93285 16.778 8.69093 16.3473 8.26031C15.9167 7.82969 15.6748 7.24564 15.6748 6.63665C15.6748 6.02766 15.9167 5.44362 16.3473 5.013C16.778 4.58237 17.362 4.34045 17.971 4.34045ZM17.971 5.54045C17.6803 5.54045 17.4015 5.65595 17.1959 5.86152C16.9903 6.0671 16.8748 6.34592 16.8748 6.63665C16.8748 6.92738 16.9903 7.20621 17.1959 7.41178C17.4015 7.61736 17.6803 7.73285 17.971 7.73285C18.2617 7.73285 18.5406 7.61736 18.7461 7.41178C18.9517 7.20621 19.0672 6.92738 19.0672 6.63665C19.0672 6.34592 18.9517 6.0671 18.7461 5.86152C18.5406 5.65595 18.2617 5.54045 17.971 5.54045Z" fill="#474747"/>
<path d="M6.02032 4.34045C6.62931 4.34045 7.21336 4.58237 7.64398 5.013C8.0746 5.44362 8.31652 6.02766 8.31652 6.63665C8.31652 7.24564 8.0746 7.82969 7.64398 8.26031C7.21336 8.69093 6.62931 8.93285 6.02032 8.93285C5.41133 8.93285 4.82728 8.69093 4.39666 8.26031C3.96604 7.82969 3.72412 7.24564 3.72412 6.63665C3.72412 6.02766 3.96604 5.44362 4.39666 5.013C4.82728 4.58237 5.41133 4.34045 6.02032 4.34045ZM6.02032 5.54045C5.72959 5.54045 5.45077 5.65595 5.24519 5.86152C5.03961 6.0671 4.92412 6.34592 4.92412 6.63665C4.92412 6.92738 5.03961 7.20621 5.24519 7.41178C5.45077 7.61736 5.72959 7.73285 6.02032 7.73285C6.31105 7.73285 6.58987 7.61736 6.79545 7.41178C7.00103 7.20621 7.11652 6.92738 7.11652 6.63665C7.11652 6.34592 7.00103 6.0671 6.79545 5.86152C6.58987 5.65595 6.31105 5.54045 6.02032 5.54045Z" fill="#474747"/>
<path d="M22.8 17.4C22.8 18.8322 22.2311 20.2057 21.2184 21.2184C20.2057 22.2311 18.8322 22.8 17.4 22.8C15.9678 22.8 14.5943 22.2311 13.5816 21.2184C12.5689 20.2057 12 18.8322 12 17.4C12 15.9678 12.5689 14.5943 13.5816 13.5816C14.5943 12.5689 15.9678 12 17.4 12C18.8322 12 20.2057 12.5689 21.2184 13.5816C22.2311 14.5943 22.8 15.9678 22.8 17.4ZM18 15C18 14.8409 17.9368 14.6883 17.8243 14.5757C17.7117 14.4632 17.5591 14.4 17.4 14.4C17.2409 14.4 17.0883 14.4632 16.9757 14.5757C16.8632 14.6883 16.8 14.8409 16.8 15V16.8H15C14.8409 16.8 14.6883 16.8632 14.5757 16.9757C14.4632 17.0883 14.4 17.2409 14.4 17.4C14.4 17.5591 14.4632 17.7117 14.5757 17.8243C14.6883 17.9368 14.8409 18 15 18H16.8V19.8C16.8 19.9591 16.8632 20.1117 16.9757 20.2243C17.0883 20.3368 17.2409 20.4 17.4 20.4C17.5591 20.4 17.7117 20.3368 17.8243 20.2243C17.9368 20.1117 18 19.9591 18 19.8V18H19.8C19.9591 18 20.1117 17.9368 20.2243 17.8243C20.3368 17.7117 20.4 17.5591 20.4 17.4C20.4 17.2409 20.3368 17.0883 20.2243 16.9757C20.1117 16.8632 19.9591 16.8 19.8 16.8H18V15Z" fill="#474747"/>
</svg>
