<svg width="24" height="24" viewBox="0 0 24 24" fill="none" xmlns="http://www.w3.org/2000/svg">
<path d="M12.5294 11.4706C12.6395 11.4706 12.7465 11.4791 12.8524 11.4949C12.4394 11.7903 12.0656 12.1387 11.7427 12.5294H5.11765C4.83683 12.5294 4.56751 12.641 4.36895 12.8395C4.17038 13.0381 4.05882 13.3074 4.05882 13.5882V15.1765C4.05882 16.6662 5.73071 17.8235 8.82353 17.8235C9.41616 17.8275 10.0079 17.7782 10.5918 17.6763C10.6796 18.0247 10.8004 18.3593 10.9475 18.6791C10.2483 18.8188 9.5366 18.8869 8.82353 18.8823C5.21082 18.8823 3 17.3513 3 15.1765V13.5882C3 13.0266 3.22311 12.488 3.62024 12.0908C4.01738 11.6937 4.55601 11.4706 5.11765 11.4706H12.5294Z" fill="#474747"/>
<path d="M18.8825 7.76473C18.8825 8.46678 18.6036 9.14007 18.1072 9.63649C17.6108 10.1329 16.9375 10.4118 16.2354 10.4118C15.5334 10.4118 14.8601 10.1329 14.3637 9.63649C13.8673 9.14007 13.5884 8.46678 13.5884 7.76473C13.5884 7.06269 13.8673 6.3894 14.3637 5.89298C14.8601 5.39656 15.5334 5.11768 16.2354 5.11768C16.9375 5.11768 17.6108 5.39656 18.1072 5.89298C18.6036 6.3894 18.8825 7.06269 18.8825 7.76473ZM16.2354 6.1765C15.8142 6.1765 15.4102 6.34383 15.1124 6.64168C14.8145 6.93953 14.6472 7.34351 14.6472 7.76473C14.6472 8.18596 14.8145 8.58993 15.1124 8.88779C15.4102 9.18564 15.8142 9.35297 16.2354 9.35297C16.6567 9.35297 17.0606 9.18564 17.3585 8.88779C17.6563 8.58993 17.8237 8.18596 17.8237 7.76473C17.8237 7.34351 17.6563 6.93953 17.3585 6.64168C17.0606 6.34383 16.6567 6.1765 16.2354 6.1765Z" fill="#474747"/>
<path d="M8.82307 3C9.30973 3 9.79163 3.09586 10.2412 3.28209C10.6909 3.46833 11.0994 3.7413 11.4435 4.08543C11.7876 4.42955 12.0606 4.83808 12.2469 5.2877C12.4331 5.73732 12.529 6.21922 12.529 6.70588C12.529 7.19255 12.4331 7.67444 12.2469 8.12406C12.0606 8.57368 11.7876 8.98221 11.4435 9.32634C11.0994 9.67046 10.6909 9.94343 10.2412 10.1297C9.79163 10.3159 9.30973 10.4118 8.82307 10.4118C7.84021 10.4118 6.8976 10.0213 6.20262 9.32634C5.50763 8.63135 5.11719 7.68874 5.11719 6.70588C5.11719 5.72302 5.50763 4.78042 6.20262 4.08543C6.8976 3.39044 7.84021 3 8.82307 3ZM8.82307 4.05882C8.12103 4.05882 7.44774 4.33771 6.95132 4.83413C6.4549 5.33055 6.17601 6.00384 6.17601 6.70588C6.17601 7.40793 6.4549 8.08122 6.95132 8.57764C7.44774 9.07406 8.12103 9.35294 8.82307 9.35294C9.52511 9.35294 10.1984 9.07406 10.6948 8.57764C11.1912 8.08122 11.4701 7.40793 11.4701 6.70588C11.4701 6.00384 11.1912 5.33055 10.6948 4.83413C10.1984 4.33771 9.52511 4.05882 8.82307 4.05882Z" fill="#474747"/>
<path d="M21.0006 16.2353C21.0006 17.499 20.4986 18.7109 19.6051 19.6044C18.7115 20.498 17.4996 21 16.2359 21C14.9722 21 13.7603 20.498 12.8667 19.6044C11.9732 18.7109 11.4712 17.499 11.4712 16.2353C11.4712 14.9716 11.9732 13.7597 12.8667 12.8661C13.7603 11.9726 14.9722 11.4706 16.2359 11.4706C17.4996 11.4706 18.7115 11.9726 19.6051 12.8661C20.4986 13.7597 21.0006 14.9716 21.0006 16.2353ZM16.7653 14.1176C16.7653 13.9772 16.7095 13.8426 16.6102 13.7433C16.511 13.644 16.3763 13.5882 16.2359 13.5882C16.0955 13.5882 15.9608 13.644 15.8615 13.7433C15.7623 13.8426 15.7065 13.9772 15.7065 14.1176V15.7059H14.1183C13.9778 15.7059 13.8432 15.7617 13.7439 15.8609C13.6446 15.9602 13.5888 16.0949 13.5888 16.2353C13.5888 16.3757 13.6446 16.5104 13.7439 16.6096C13.8432 16.7089 13.9778 16.7647 14.1183 16.7647H15.7065V18.3529C15.7065 18.4933 15.7623 18.628 15.8615 18.7273C15.9608 18.8266 16.0955 18.8823 16.2359 18.8823C16.3763 18.8823 16.511 18.8266 16.6102 18.7273C16.7095 18.628 16.7653 18.4933 16.7653 18.3529V16.7647H18.3535C18.494 16.7647 18.6286 16.7089 18.7279 16.6096C18.8272 16.5104 18.883 16.3757 18.883 16.2353C18.883 16.0949 18.8272 15.9602 18.7279 15.8609C18.6286 15.7617 18.494 15.7059 18.3535 15.7059H16.7653V14.1176Z" fill="#474747"/>
</svg>
