<svg width="20" height="20" viewBox="0 0 20 20" fill="none" xmlns="http://www.w3.org/2000/svg">
<path d="M7.6664 12.3166L9.8164 14.2C9.9164 14.2916 10.0747 14.2916 10.1747 14.2L12.3247 12.3166C12.8831 11.825 12.9581 10.9916 12.4914 10.4083C12.0247 9.82498 11.1747 9.71665 10.5831 10.1666L9.99973 10.6166L9.40806 10.175C8.80806 9.72498 7.9664 9.83331 7.49973 10.4166C7.03306 10.9916 7.10806 11.8333 7.6664 12.3166Z" stroke="#666666" stroke-width="1.5" stroke-linecap="round" stroke-linejoin="round"/>
<path d="M18.3332 9.16663V14.1666C18.3332 17.5 17.4998 18.3333 14.1665 18.3333H5.83317C2.49984 18.3333 1.6665 17.5 1.6665 14.1666V5.83329C1.6665 2.49996 2.49984 1.66663 5.83317 1.66663H7.08317C8.33317 1.66663 8.60817 2.03329 9.08317 2.66663L10.3332 4.33329C10.6498 4.74996 10.8332 4.99996 11.6665 4.99996H14.1665C17.4998 4.99996 18.3332 5.83329 18.3332 9.16663Z" stroke="#666666" stroke-width="1.5" stroke-miterlimit="10"/>
</svg>
