<svg width="24" height="24" viewBox="0 0 24 24" fill="none" xmlns="http://www.w3.org/2000/svg">
<g clip-path="url(#clip0)">
<path d="M0.4843 21.9989C0.444667 21.9989 0.404067 21.9939 0.364433 21.9829C0.1508 21.9259 0.00193333 21.7279 0.000966667 21.4999L0 21.0709C0 21.0709 0 21.0709 0 21.0699C0 13.3349 6.06487 7.03888 13.5333 6.99988V2.49988C13.5333 2.29988 13.6484 2.11987 13.8253 2.04087C14.0051 1.95987 14.2081 1.99888 14.3492 2.13688L23.0492 10.6369C23.1449 10.7309 23.2 10.8619 23.2 10.9999C23.2 11.1379 23.1449 11.2689 23.0492 11.3629L14.3492 19.8629C14.2081 20.0009 14.006 20.0399 13.8253 19.9589C13.6484 19.8799 13.5333 19.6999 13.5333 19.4999V14.9999H11.9606C7.36697 14.9999 3.13103 17.5829 0.906733 21.7409C0.8207 21.9019 0.657333 21.9989 0.4843 21.9989ZM13.601 7.99988C7.08567 7.99988 1.70617 13.1289 1.03627 19.6879C3.58053 16.1409 7.62217 13.9999 11.9606 13.9999H14.0167C14.2835 13.9999 14.5 14.2239 14.5 14.4999V18.3399L22.012 10.9999L14.5 3.65988V7.49988C14.5 7.77588 14.2835 7.99988 14.0167 7.99988H13.601Z" fill="#474747" stroke="#474747" stroke-width="0.5"/>
</g>
<defs>
<clipPath id="clip0">
<rect width="24" height="24" fill="white"/>
</clipPath>
</defs>
</svg>
