<svg width="24" height="24" viewBox="0 0 24 24" fill="none" xmlns="http://www.w3.org/2000/svg">
<path fill-rule="evenodd" clip-rule="evenodd" d="M7.96827 6.67923C7.07154 6.32911 6.08432 6.28476 5.15981 6.55307C4.23529 6.82131 3.42513 7.38728 2.85517 8.16302C2.28516 8.93883 1.98715 9.88102 2.00738 10.8435C2.02761 11.8059 2.36493 12.7348 2.96702 13.486C3.56909 14.2371 4.4023 14.7685 5.33724 14.9977C6.27225 15.2269 7.25672 15.1411 8.13796 14.7537C9.01919 14.3662 9.74791 13.6986 10.211 12.8547C10.674 12.0107 10.8457 11.0375 10.6991 10.0861C10.6466 9.74518 10.8804 9.42623 11.2213 9.3737C11.5622 9.32124 11.8811 9.55501 11.9336 9.89589C12.1221 11.1192 11.9015 12.3705 11.3061 13.4555C10.7106 14.5406 9.77376 15.3989 8.64078 15.8971C7.50773 16.3953 6.24196 16.5056 5.03983 16.2109C3.83771 15.9162 2.76651 15.2329 1.99239 14.2672C1.21828 13.3014 0.784572 12.1072 0.758566 10.8697C0.73256 9.63233 1.11571 8.4209 1.84857 7.42344C2.58143 6.42604 3.62299 5.69838 4.81169 5.35344C6.00032 5.0085 7.26965 5.06553 8.42256 5.5157C8.74389 5.64111 8.90265 6.00328 8.77718 6.32461C8.65177 6.64588 8.28959 6.8047 7.96827 6.67923Z" fill="#757575"/>
<path fill-rule="evenodd" clip-rule="evenodd" d="M5.75366 21.369V16.3726C5.75366 16.0277 6.03327 15.748 6.37821 15.748C6.72314 15.748 7.00275 16.0277 7.00275 16.3726V21.369C7.00275 21.7139 6.72314 21.9935 6.37821 21.9935C6.03327 21.9935 5.75366 21.7139 5.75366 21.369Z" fill="#757575"/>
<path fill-rule="evenodd" clip-rule="evenodd" d="M3.88 18.2462C3.88 17.9013 4.15961 17.6216 4.50455 17.6216H8.25183C8.59676 17.6216 8.87637 17.9013 8.87637 18.2462C8.87637 18.5911 8.59676 18.8707 8.25183 18.8707H4.50455C4.15961 18.8707 3.88 18.5911 3.88 18.2462ZM15.0604 6.5442C14.1339 6.2827 13.147 6.33429 12.2529 6.69097C11.3588 7.04765 10.6074 7.68949 10.1152 8.51689C9.62314 9.34429 9.41791 10.311 9.53139 11.2669C9.57205 11.6095 9.32735 11.92 8.98479 11.9607C8.64229 12.0014 8.33164 11.7567 8.29098 11.4142C8.14515 10.1851 8.40902 8.94221 9.04169 7.87842C9.67435 6.81463 10.6405 5.98942 11.7901 5.53081C12.9397 5.07221 14.2086 5.00588 15.3997 5.34214C16.5909 5.67833 17.6377 6.39831 18.3779 7.39033C19.118 8.38236 19.5101 9.59098 19.4931 10.8286C19.4762 12.0661 19.0512 13.2636 18.2842 14.2349C17.5172 15.2063 16.451 15.8974 15.2511 16.2009C14.0512 16.5045 12.7847 16.4034 11.648 15.9135C11.3312 15.777 11.1851 15.4096 11.3217 15.0928C11.4582 14.776 11.8256 14.6299 12.1424 14.7665C13.0264 15.1474 14.0115 15.226 14.9448 14.99C15.8781 14.7539 16.7073 14.2164 17.3039 13.4609C17.9004 12.7053 18.231 11.774 18.2441 10.8115C18.2573 9.84892 17.9524 8.90885 17.3768 8.13729C16.8011 7.36573 15.9868 6.80576 15.0604 6.5442Z" fill="#757575"/>
<path fill-rule="evenodd" clip-rule="evenodd" d="M17.4907 7.75831C17.2468 7.51443 17.2468 7.11896 17.4907 6.87508L22.1747 2.19098C22.4186 1.94708 22.8141 1.94708 23.058 2.19098C23.3019 2.43488 23.3019 2.83032 23.058 3.07422L18.3739 7.75831C18.13 8.0022 17.7345 8.0022 17.4907 7.75831Z" fill="#757575"/>
<path fill-rule="evenodd" clip-rule="evenodd" d="M22.5692 6.37978C22.2243 6.37547 21.9482 6.0923 21.9526 5.74742L21.9839 3.2651L19.5015 3.29639C19.1567 3.3007 18.8735 3.02466 18.8692 2.67976C18.8648 2.33486 19.1409 2.05174 19.4858 2.0474L23.2489 2L23.2015 5.76316C23.1972 6.10804 22.9141 6.38415 22.5692 6.37978Z" fill="#757575"/>
</svg>
