<svg width="24" height="24" viewBox="0 0 24 24" fill="none" xmlns="http://www.w3.org/2000/svg">
<path d="M21.0397 22.4346H3.7597C3.51418 22.4346 3.27872 22.3371 3.10512 22.1635C2.93151 21.9898 2.83398 21.7544 2.83398 21.5089V9.47459C2.83398 9.39275 2.86649 9.31426 2.92436 9.25639C2.98223 9.19853 3.06072 9.16602 3.14256 9.16602C3.22439 9.16602 3.30288 9.19853 3.36075 9.25639C3.41862 9.31426 3.45113 9.39275 3.45113 9.47459V21.5089C3.45113 21.5907 3.48364 21.6692 3.54151 21.7271C3.59937 21.7849 3.67786 21.8174 3.7597 21.8174H21.0397C21.1215 21.8174 21.2 21.7849 21.2579 21.7271C21.3158 21.6692 21.3483 21.5907 21.3483 21.5089V9.47459C21.3483 9.39275 21.3808 9.31426 21.4386 9.25639C21.4965 9.19853 21.575 9.16602 21.6568 9.16602C21.7387 9.16602 21.8172 9.19853 21.875 9.25639C21.9329 9.31426 21.9654 9.39275 21.9654 9.47459V21.5089C21.9654 21.7544 21.8679 21.9898 21.6943 22.1635C21.5207 22.3371 21.2852 22.4346 21.0397 22.4346Z" fill="#474747" stroke="#474747" stroke-width="0.7"/>
<path d="M22.5825 9.78289H17.1238C17.042 9.78289 16.9635 9.75038 16.9056 9.69251C16.8478 9.63464 16.8153 9.55616 16.8153 9.47432C16.8153 9.39248 16.8478 9.31399 16.9056 9.25613C16.9635 9.19826 17.042 9.16575 17.1238 9.16575H22.5825V6.08003H2.21675V9.16575H7.67538C7.75722 9.16575 7.8357 9.19826 7.89357 9.25613C7.95144 9.31399 7.98395 9.39248 7.98395 9.47432C7.98395 9.55616 7.95144 9.63464 7.89357 9.69251C7.8357 9.75038 7.75722 9.78289 7.67538 9.78289H2.21675C2.05308 9.78289 1.8961 9.71787 1.78037 9.60213C1.66463 9.4864 1.59961 9.32942 1.59961 9.16575V6.08003C1.59961 5.91636 1.66463 5.75938 1.78037 5.64365C1.8961 5.52791 2.05308 5.46289 2.21675 5.46289H22.5825C22.7461 5.46289 22.9031 5.52791 23.0189 5.64365C23.1346 5.75938 23.1996 5.91636 23.1996 6.08003V9.16575C23.1996 9.32942 23.1346 9.4864 23.0189 9.60213C22.9031 9.71787 22.7461 9.78289 22.5825 9.78289Z" fill="#474747" stroke="#474747" stroke-width="0.7"/>
<path d="M12.4001 6.0805C12.3457 6.08046 12.2923 6.06603 12.2452 6.03867C12.1982 6.01131 12.1592 5.972 12.1323 5.92472C12.1053 5.87744 12.0914 5.82388 12.0918 5.76946C12.0922 5.71505 12.1071 5.66171 12.1348 5.61487C12.8115 4.46945 14.4855 1.746 15.4102 1.19428C15.6957 1.01292 16.0147 0.890647 16.3483 0.834682C16.6818 0.778717 17.0233 0.790198 17.3523 0.868445C17.6814 0.946692 17.9914 1.09012 18.2641 1.29024C18.5367 1.49037 18.7665 1.74313 18.9398 2.03358C19.1131 2.32404 19.2265 2.6463 19.2731 2.9813C19.3197 3.3163 19.2987 3.65725 19.2113 3.98399C19.1239 4.31073 18.9718 4.61664 18.7642 4.88361C18.5565 5.15059 18.2974 5.37322 18.0022 5.53835C17.6252 5.7636 16.8605 5.94535 15.7284 6.07834C15.6877 6.08392 15.6464 6.08133 15.6067 6.07073C15.5671 6.06013 15.53 6.04173 15.4976 6.01661C15.4651 5.9915 15.438 5.96016 15.4178 5.92444C15.3976 5.88872 15.3848 5.84934 15.38 5.80859C15.3752 5.76784 15.3786 5.72655 15.39 5.68713C15.4014 5.64771 15.4205 5.61095 15.4462 5.579C15.472 5.54706 15.5038 5.52057 15.5399 5.50108C15.576 5.4816 15.6157 5.46951 15.6565 5.46552C17.0262 5.30445 17.5156 5.11036 17.6857 5.00884C17.9027 4.87987 18.092 4.70908 18.2426 4.50636C18.3931 4.30364 18.5019 4.07303 18.5626 3.82793C18.6544 3.46131 18.6354 3.07572 18.5081 2.71988C18.3807 2.36405 18.1508 2.05395 17.8472 1.82878C17.5437 1.60362 17.1802 1.47349 16.8028 1.45486C16.4253 1.43623 16.0508 1.52992 15.7265 1.72409C15.0705 2.11567 13.7156 4.15286 12.6661 5.92869C12.6388 5.97496 12.5999 6.0133 12.5533 6.03993C12.5066 6.06655 12.4538 6.08054 12.4001 6.0805Z" fill="#474747" stroke="#474747" stroke-width="0.7"/>
<path d="M12.4001 6.0805C12.3464 6.08057 12.2936 6.06663 12.247 6.04006C12.2003 6.01349 12.1614 5.97521 12.1341 5.929C11.085 4.15286 9.72971 2.11567 9.074 1.7244C8.85811 1.58541 8.61645 1.49131 8.36342 1.44768C8.11039 1.40406 7.85117 1.41182 7.60121 1.47049C7.35124 1.52917 7.11564 1.63756 6.90845 1.78921C6.70125 1.94085 6.52671 2.13266 6.3952 2.35319C6.2637 2.57372 6.17794 2.81846 6.14302 3.07284C6.1081 3.32721 6.12474 3.58601 6.19196 3.83382C6.25917 4.08163 6.37557 4.31337 6.53424 4.51524C6.69291 4.71711 6.89058 4.88498 7.11549 5.00884C7.28521 5.11036 7.7746 5.30445 9.14466 5.46552C9.18549 5.46951 9.22512 5.4816 9.26123 5.50108C9.29733 5.52057 9.32919 5.54706 9.35494 5.579C9.38068 5.61095 9.3998 5.64771 9.41116 5.68713C9.42253 5.72655 9.42593 5.76784 9.42115 5.80859C9.41637 5.84934 9.40351 5.88872 9.38332 5.92444C9.36314 5.96016 9.33603 5.9915 9.30359 6.01661C9.27115 6.04173 9.23403 6.06013 9.1944 6.07073C9.15476 6.08133 9.11341 6.08392 9.07276 6.07834C7.94123 5.94535 7.17597 5.7636 6.7989 5.53835C6.50371 5.37322 6.24463 5.15059 6.03697 4.88361C5.8293 4.61664 5.67727 4.31073 5.58986 3.98399C5.50245 3.65725 5.48144 3.3163 5.52806 2.9813C5.57469 2.6463 5.688 2.32404 5.86131 2.03358C6.03462 1.74313 6.2644 1.49037 6.53708 1.29024C6.80975 1.09012 7.11978 0.946692 7.44883 0.868445C7.77789 0.790198 8.1193 0.778717 8.45287 0.834682C8.78644 0.890647 9.1054 1.01292 9.3909 1.19428C10.3166 1.746 11.9891 4.46945 12.6661 5.61487C12.6938 5.66176 12.7086 5.71515 12.709 5.76962C12.7094 5.82409 12.6954 5.87769 12.6684 5.92499C12.6414 5.97229 12.6023 6.01159 12.5552 6.0389C12.5081 6.06622 12.4546 6.08057 12.4001 6.0805Z" fill="#474747" stroke="#474747" stroke-width="0.7"/>
<path d="M13.9431 22.4356H10.8574C10.7756 22.4356 10.6971 22.4031 10.6392 22.3452C10.5813 22.2874 10.5488 22.2089 10.5488 22.127V9.20408C10.5488 9.12224 10.5813 9.04375 10.6392 8.98589C10.6971 8.92802 10.7756 8.89551 10.8574 8.89551C10.9392 8.89551 11.0177 8.92802 11.0756 8.98589C11.1335 9.04375 11.166 9.12224 11.166 9.20408V21.8185H13.6345V9.20408C13.6345 9.12224 13.667 9.04375 13.7249 8.98589C13.7828 8.92802 13.8613 8.89551 13.9431 8.89551C14.0249 8.89551 14.1034 8.92802 14.1613 8.98589C14.2192 9.04375 14.2517 9.12224 14.2517 9.20408V22.127C14.2517 22.2089 14.2192 22.2874 14.1613 22.3452C14.1034 22.4031 14.0249 22.4356 13.9431 22.4356Z" fill="#474747" stroke="#474747" stroke-width="0.7"/>
<path d="M13.9237 9.47554H10.875C10.7931 9.47554 10.7147 9.44303 10.6568 9.38516C10.5989 9.32729 10.5664 9.24881 10.5664 9.16697C10.5664 9.08513 10.5989 9.00664 10.6568 8.94878C10.7147 8.89091 10.7931 8.8584 10.875 8.8584H13.9237C14.0055 8.8584 14.084 8.89091 14.1419 8.94878C14.1997 9.00664 14.2322 9.08513 14.2322 9.16697C14.2322 9.24881 14.1997 9.32729 14.1419 9.38516C14.084 9.44303 14.0055 9.47554 13.9237 9.47554Z" fill="#474747" stroke="#474747" stroke-width="0.7"/>
<path d="M15.3895 12.7345C15.33 12.7345 15.2718 12.7173 15.2219 12.685C15.1719 12.6527 15.1324 12.6067 15.108 12.5525L12.1174 5.89874C12.085 5.82429 12.0833 5.7401 12.1126 5.6644C12.1419 5.5887 12.1998 5.52758 12.2738 5.4943C12.3479 5.46102 12.432 5.45825 12.5081 5.48659C12.5842 5.51493 12.646 5.5721 12.6802 5.64571L15.3379 11.5585L15.736 10.2891C15.749 10.2474 15.7707 10.209 15.7997 10.1764C15.8287 10.1438 15.8642 10.1177 15.904 10.0998C15.9439 10.0819 15.987 10.0727 16.0306 10.0727C16.0743 10.0727 16.1174 10.082 16.1572 10.0999L17.3205 10.6245L15.1102 5.90337C15.093 5.86665 15.0832 5.82692 15.0814 5.78642C15.0796 5.74593 15.0858 5.70547 15.0996 5.66736C15.1134 5.62925 15.1346 5.59424 15.1619 5.56432C15.1892 5.53439 15.2222 5.51015 15.2589 5.49297C15.2956 5.47579 15.3354 5.466 15.3759 5.46418C15.4164 5.46236 15.4568 5.46853 15.4949 5.48234C15.533 5.49615 15.5681 5.51733 15.598 5.54467C15.6279 5.57202 15.6521 5.60499 15.6693 5.6417L18.2326 11.1167C18.2592 11.1737 18.2678 11.2376 18.2571 11.2996C18.2464 11.3616 18.2169 11.4189 18.1727 11.4638C18.1285 11.5086 18.0717 11.5388 18.0098 11.5504C17.9479 11.562 17.884 11.5544 17.8265 11.5286L16.222 10.8053L15.6851 12.5179C15.6664 12.5777 15.63 12.6303 15.5806 12.6689C15.5313 12.7075 15.4714 12.7302 15.4089 12.7339L15.3895 12.7345Z" fill="#474747" stroke="#474747" stroke-width="0.7"/>
<path d="M9.40928 12.7348H9.39076C9.32825 12.7311 9.26835 12.7085 9.21902 12.6699C9.16969 12.6313 9.13327 12.5786 9.11459 12.5188L8.57768 10.8063L6.97311 11.5296C6.91568 11.5554 6.85173 11.563 6.78984 11.5514C6.72796 11.5398 6.6711 11.5095 6.62691 11.4647C6.58271 11.4199 6.55328 11.3626 6.54258 11.3005C6.53187 11.2385 6.54041 11.1747 6.56703 11.1176L9.12909 5.6417C9.16379 5.56755 9.22653 5.51023 9.30349 5.48234C9.38046 5.45444 9.46535 5.45827 9.53949 5.49297C9.61364 5.52767 9.67096 5.5904 9.69886 5.66736C9.72675 5.74433 9.72292 5.82922 9.68823 5.90337L7.47793 10.6245L8.64124 10.0999C8.68103 10.082 8.72416 10.0727 8.7678 10.0727C8.81143 10.0727 8.85457 10.0819 8.89438 10.0998C8.93418 10.1177 8.96974 10.1438 8.99871 10.1764C9.02768 10.2091 9.04941 10.2475 9.06244 10.2891L9.4605 11.5586L12.1185 5.64602C12.1527 5.57241 12.2146 5.51524 12.2906 5.4869C12.3667 5.45856 12.4509 5.46133 12.5249 5.49461C12.5989 5.52789 12.6569 5.58901 12.6862 5.66471C12.7154 5.74041 12.7137 5.8246 12.6814 5.89905L9.69069 12.5528C9.66631 12.607 9.62678 12.6531 9.57686 12.6854C9.52693 12.7176 9.46874 12.7348 9.40928 12.7348Z" fill="#474747" stroke="#474747" stroke-width="0.7"/>
</svg>
