<svg width="24" height="24" viewBox="0 0 24 24" fill="none" xmlns="http://www.w3.org/2000/svg">
<path d="M21.1667 1H2.83333C1.82124 1.00125 1.00125 1.82124 1 2.83333V21.1667C1.00125 22.1788 1.82124 22.9987 2.83333 23H21.1667C22.1788 22.9987 22.9987 22.1788 23 21.1667V2.83333C22.9987 1.82124 22.1788 1.00125 21.1667 1ZM22.2667 21.1667C22.2667 21.7741 21.7741 22.2667 21.1667 22.2667H2.83333C2.22586 22.2667 1.73333 21.7741 1.73333 21.1667V2.83333C1.73333 2.22586 2.22586 1.73333 2.83333 1.73333H21.1667C21.7741 1.73333 22.2667 2.22586 22.2667 2.83333V21.1667Z" fill="white" stroke="white" stroke-width="0.5"/>
<path d="M7.23353 9.06641H3.56686C3.36437 9.06641 3.2002 9.23058 3.2002 9.43307V20.4331C3.2002 20.6356 3.36437 20.7997 3.56686 20.7997H7.23353C7.43602 20.7997 7.6002 20.6356 7.6002 20.4331V9.43307C7.6002 9.23058 7.43602 9.06641 7.23353 9.06641ZM6.86686 20.0664H3.93353V9.79974H6.86686V20.0664Z" fill="white" stroke="white" stroke-width="0.5"/>
<path d="M13.8331 3.19922H10.1665C9.96398 3.19922 9.7998 3.3634 9.7998 3.56589V20.4326C9.7998 20.635 9.96398 20.7992 10.1665 20.7992H13.8331C14.0356 20.7992 14.1998 20.635 14.1998 20.4326V3.56589C14.1998 3.3634 14.0356 3.19922 13.8331 3.19922ZM13.4665 20.0659H10.5331V3.93255H13.4665V20.0659Z" fill="white" stroke="white" stroke-width="0.5"/>
<path d="M20.4337 12.7324H16.7671C16.5646 12.7324 16.4004 12.8966 16.4004 13.0991V20.4324C16.4004 20.6349 16.5646 20.7991 16.7671 20.7991H20.4337C20.6362 20.7991 20.8004 20.6349 20.8004 20.4324V13.0991C20.8004 12.8966 20.6362 12.7324 20.4337 12.7324ZM20.0671 20.0658H17.1337V13.4658H20.0671V20.0658Z" fill="white" stroke="white" stroke-width="0.5"/>
</svg>
