<svg width="24" height="24" viewBox="0 0 24 24" fill="none" xmlns="http://www.w3.org/2000/svg">
<path d="M5.25 2C4.65326 2 4.08097 2.23705 3.65901 2.65901C3.23705 3.08097 3 3.65326 3 4.25V7.25C3 7.84674 3.23705 8.41903 3.65901 8.84099C4.08097 9.26295 4.65326 9.5 5.25 9.5H8.25C8.84674 9.5 9.41903 9.26295 9.84099 8.84099C10.2629 8.41903 10.5 7.84674 10.5 7.25V4.25C10.5 3.65326 10.2629 3.08097 9.84099 2.65901C9.41903 2.23705 8.84674 2 8.25 2H5.25ZM4.5 4.25C4.5 4.05109 4.57902 3.86032 4.71967 3.71967C4.86032 3.57902 5.05109 3.5 5.25 3.5H8.25C8.44891 3.5 8.63968 3.57902 8.78033 3.71967C8.92098 3.86032 9 4.05109 9 4.25V7.25C9 7.44891 8.92098 7.63968 8.78033 7.78033C8.63968 7.92098 8.44891 8 8.25 8H5.25C5.05109 8 4.86032 7.92098 4.71967 7.78033C4.57902 7.63968 4.5 7.44891 4.5 7.25V4.25ZM15.75 2C15.1533 2 14.581 2.23705 14.159 2.65901C13.7371 3.08097 13.5 3.65326 13.5 4.25V7.25C13.5 7.84674 13.7371 8.41903 14.159 8.84099C14.581 9.26295 15.1533 9.5 15.75 9.5H18.75C19.3467 9.5 19.919 9.26295 20.341 8.84099C20.7629 8.41903 21 7.84674 21 7.25V4.25C21 3.65326 20.7629 3.08097 20.341 2.65901C19.919 2.23705 19.3467 2 18.75 2H15.75ZM15 4.25C15 4.05109 15.079 3.86032 15.2197 3.71967C15.3603 3.57902 15.5511 3.5 15.75 3.5H18.75C18.9489 3.5 19.1397 3.57902 19.2803 3.71967C19.421 3.86032 19.5 4.05109 19.5 4.25V7.25C19.5 7.44891 19.421 7.63968 19.2803 7.78033C19.1397 7.92098 18.9489 8 18.75 8H15.75C15.5511 8 15.3603 7.92098 15.2197 7.78033C15.079 7.63968 15 7.44891 15 7.25V4.25ZM3 14.75C3 14.1533 3.23705 13.581 3.65901 13.159C4.08097 12.7371 4.65326 12.5 5.25 12.5H8.25C8.84674 12.5 9.41903 12.7371 9.84099 13.159C10.2629 13.581 10.5 14.1533 10.5 14.75V17.75C10.5 18.3467 10.2629 18.919 9.84099 19.341C9.41903 19.7629 8.84674 20 8.25 20H5.25C4.65326 20 4.08097 19.7629 3.65901 19.341C3.23705 18.919 3 18.3467 3 17.75V14.75ZM5.25 14C5.05109 14 4.86032 14.079 4.71967 14.2197C4.57902 14.3603 4.5 14.5511 4.5 14.75V17.75C4.5 17.9489 4.57902 18.1397 4.71967 18.2803C4.86032 18.421 5.05109 18.5 5.25 18.5H8.25C8.44891 18.5 8.63968 18.421 8.78033 18.2803C8.92098 18.1397 9 17.9489 9 17.75V14.75C9 14.5511 8.92098 14.3603 8.78033 14.2197C8.63968 14.079 8.44891 14 8.25 14H5.25ZM15.75 12.5C15.1533 12.5 14.581 12.7371 14.159 13.159C13.7371 13.581 13.5 14.1533 13.5 14.75V17.75C13.5 18.3467 13.7371 18.919 14.159 19.341C14.581 19.7629 15.1533 20 15.75 20H18.75C19.3467 20 19.919 19.7629 20.341 19.341C20.7629 18.919 21 18.3467 21 17.75V14.75C21 14.1533 20.7629 13.581 20.341 13.159C19.919 12.7371 19.3467 12.5 18.75 12.5H15.75ZM15 14.75C15 14.5511 15.079 14.3603 15.2197 14.2197C15.3603 14.079 15.5511 14 15.75 14H18.75C18.9489 14 19.1397 14.079 19.2803 14.2197C19.421 14.3603 19.5 14.5511 19.5 14.75V17.75C19.5 17.9489 19.421 18.1397 19.2803 18.2803C19.1397 18.421 18.9489 18.5 18.75 18.5H15.75C15.5511 18.5 15.3603 18.421 15.2197 18.2803C15.079 18.1397 15 17.9489 15 17.75V14.75Z" fill="#474747"/>
</svg>
