<svg width="26" height="26" viewBox="0 0 26 26" fill="none" xmlns="http://www.w3.org/2000/svg">
<g clip-path="url(#clip0_5401_117311)">
<path d="M13 25.1875C19.731 25.1875 25.1875 19.731 25.1875 13C25.1875 6.26903 19.731 0.8125 13 0.8125C6.26903 0.8125 0.8125 6.26903 0.8125 13C0.8125 19.731 6.26903 25.1875 13 25.1875Z" fill="#FFDD67"/>
<path d="M10.3594 10.9289C9.5875 8.85703 8.45 7.80078 7.3125 7.80078C6.175 7.80078 5.0375 8.85703 4.26562 10.9289C4.18437 11.132 4.59062 11.4977 4.79375 11.2945C5.525 10.5227 6.41875 10.1977 7.3125 10.1977C8.20625 10.1977 9.1 10.5227 9.83125 11.2945C10.075 11.4977 10.4406 11.132 10.3594 10.9289ZM19.2563 10.9289C18.4844 8.85703 17.3469 7.80078 16.2094 7.80078C15.0719 7.80078 13.9344 8.85703 13.1625 10.9289C13.0813 11.132 13.4875 11.4977 13.6906 11.2945C14.4219 10.5227 15.3156 10.1977 16.2094 10.1977C17.1031 10.1977 17.9969 10.5227 18.7281 11.2945C18.9312 11.4977 19.3375 11.132 19.2563 10.9289ZM18.6875 15.4383C18.6875 15.1133 18.4844 14.707 17.9562 14.5852C16.5344 14.3008 14.4625 14.057 11.7812 14.057C9.1 14.057 7.02812 14.3414 5.60625 14.5852C5.07812 14.707 4.875 15.1133 4.875 15.4383C4.875 18.4039 7.15 21.3695 11.7812 21.3695C16.4125 21.3695 18.6875 18.4039 18.6875 15.4383Z" fill="#664E27"/>
<path d="M16.9406 15.5586C16.0469 15.3961 14.1781 15.1523 11.7812 15.1523C9.38437 15.1523 7.51562 15.3961 6.62187 15.5586C6.09375 15.6398 6.05312 15.843 6.09375 16.168C6.13437 16.3305 6.13437 16.5742 6.21562 16.818C6.25625 17.0617 6.3375 17.1836 6.74375 17.143C7.51562 17.0617 16.0875 17.0617 16.8594 17.143C17.2656 17.1836 17.3062 17.0617 17.3875 16.818C17.4281 16.5742 17.4687 16.3711 17.5094 16.168C17.5094 15.843 17.4687 15.6398 16.9406 15.5586Z" fill="white"/>
<path d="M24.375 12.268C24.375 15.193 20.4344 15.193 20.4344 12.268C20.4344 10.1555 22.425 8.04297 22.425 8.04297C22.425 8.04297 24.375 10.1555 24.375 12.268Z" fill="#65B1EF"/>
</g>
<defs>
<clipPath id="clip0_5401_117311">
<rect width="26" height="26" fill="white"/>
</clipPath>
</defs>
</svg>
