<svg width="26" height="26" viewBox="0 0 26 26" fill="none" xmlns="http://www.w3.org/2000/svg">
<path d="M3.65253 3.42086C2.69957 3.42086 1.96319 4.20056 1.96319 5.15352V17.8886H5.34188V5.15352C5.34188 4.20056 4.6055 3.42086 3.65253 3.42086ZM12.749 17.8886H16.3443V3.37754C16.3443 2.42458 15.5213 1.60156 14.5683 1.60156C13.572 1.60156 12.7923 2.42458 12.7923 3.42086C12.749 3.42086 12.749 17.8886 12.749 17.8886Z" fill="#FFDD67"/>
<path d="M14.5675 1.60156C14.4375 1.60156 14.3509 1.60156 14.2642 1.64488C15.0873 1.77483 15.737 2.51121 15.737 3.37754V17.8886H16.3867V3.37754C16.3434 2.38126 15.5204 1.60156 14.5675 1.60156Z" fill="#EBA352"/>
<path d="M5.34114 17.8878H9.02304V3.07355C9.02304 2.03395 8.20003 1.21094 7.16043 1.21094C6.12084 1.21094 5.29782 2.03395 5.29782 3.07355L5.34114 17.8878Z" fill="#FFDD67"/>
<path d="M7.20321 1.21094C7.07326 1.21094 6.98663 1.21094 6.89999 1.25425C7.76632 1.42752 8.41607 2.1639 8.41607 3.11687V12.3433L9.06582 13.2529V3.07355C9.06582 2.03395 8.24281 1.21094 7.20321 1.21094Z" fill="#EBA352"/>
<path d="M9.06651 16.6769H12.7484V1.86261C12.7484 0.823015 11.9254 0 10.8858 0C9.84621 0 9.02319 0.823015 9.02319 1.86261L9.06651 16.6769Z" fill="#FFDD67"/>
<path d="M10.8855 0C10.7555 0 10.6689 -4.19553e-08 10.5823 0.0433165C11.4486 0.216583 12.0983 0.952964 12.0983 1.90593V12.3452L12.7481 13.2549V1.86261C12.7481 0.823015 11.9251 0 10.8855 0ZM3.6516 3.42201C3.52165 3.42201 3.43502 3.42201 3.34839 3.46532C4.12809 3.63859 4.73452 4.33166 4.73452 5.15467V12.7351L5.38427 13.6447V5.15467C5.34095 4.20171 4.60457 3.42201 3.6516 3.42201Z" fill="#EBA352"/>
<path d="M24.1837 11.8253C23.4907 10.4824 21.3249 10.5691 19.1157 12.9948C17.5563 14.6842 17.2531 15.2473 15.6937 15.2039V13.428C15.6937 13.428 1.96235 13.4713 1.96235 14.5542C1.96235 14.5542 1.31261 19.3623 2.65542 22.3945C4.64798 26.8994 14.0044 27.5925 17.9462 20.272C20.2419 15.9403 24.9201 13.2547 24.1837 11.8253Z" fill="#FFDD67"/>
<path d="M24.1828 11.8252C24.0528 11.5653 23.8796 11.392 23.663 11.2188C23.7063 11.2621 23.7496 11.3054 23.7496 11.392C24.486 12.8648 22.2769 14.3809 20.7175 15.9403C19.4613 17.1964 18.2484 18.4959 17.642 20.012C14.8697 26.6394 6.81286 26.6394 3.43417 23.6073C6.50964 27.0726 15.1296 27.3758 18.0752 20.4452C18.7249 18.9291 19.8511 17.6729 21.1506 16.3734C22.71 14.7707 24.9192 13.2546 24.1828 11.8252ZM16.1259 15.2039C13.5702 14.2942 8.28562 16.0702 8.97868 21.1382C8.97868 16.4167 13.267 15.2472 15.6061 15.2472C15.9093 15.2039 16.1259 15.2039 16.1259 15.2039Z" fill="#EBA352"/>
</svg>
