<svg width="22" height="22" viewBox="0 0 22 22" fill="none" xmlns="http://www.w3.org/2000/svg">
<path d="M1.21998 1.22001C1.09296 1.347 1.01573 1.51535 1.00233 1.69446C0.988938 1.87357 1.04026 2.05154 1.14698 2.19601L1.21998 2.28001L5.25398 6.31501C3.28701 7.69364 1.88286 9.73506 1.29898 12.065C1.25396 12.2568 1.28621 12.4586 1.38878 12.6268C1.49135 12.7951 1.65599 12.9162 1.84711 12.964C2.03824 13.0118 2.24051 12.9825 2.4102 12.8824C2.57989 12.7823 2.70338 12.6194 2.75398 12.429C3.27288 10.361 4.55088 8.56396 6.33398 7.39501L8.14398 9.20501C7.42097 9.9605 7.02257 10.9691 7.0341 12.0147C7.04563 13.0604 7.46619 14.0599 8.20568 14.7993C8.94517 15.5387 9.9448 15.959 10.9904 15.9704C12.0361 15.9817 13.0446 15.5831 13.8 14.86L19.719 20.78C19.8528 20.9142 20.0325 20.9928 20.2219 20.9999C20.4112 21.007 20.5963 20.9422 20.7398 20.8184C20.8833 20.6946 20.9747 20.5211 20.9955 20.3328C21.0163 20.1444 20.965 19.9551 20.852 19.803L20.779 19.719L14.666 13.605L14.667 13.603L13.467 12.405L10.597 9.53501H10.599L7.71898 6.65801L7.71998 6.65601L6.58698 5.52601L2.27998 1.22001C2.13935 1.07956 1.94873 1.00067 1.74998 1.00067C1.55123 1.00067 1.3606 1.07956 1.21998 1.22001ZM9.20398 10.265L12.739 13.801C12.2675 14.2564 11.636 14.5084 10.9805 14.5027C10.325 14.497 9.69795 14.2341 9.23443 13.7706C8.77091 13.307 8.50799 12.68 8.50229 12.0245C8.4966 11.369 8.74858 10.7375 9.20398 10.266V10.265ZM11 4.50001C9.99998 4.50001 9.02998 4.64801 8.11098 4.92501L9.34798 6.16101C11.4875 5.73737 13.7081 6.15209 15.5505 7.31944C17.3929 8.48679 18.7162 10.3175 19.247 12.433C19.2988 12.6219 19.4225 12.7831 19.5916 12.882C19.7607 12.9809 19.9617 13.0098 20.1518 12.9624C20.3419 12.9149 20.5059 12.795 20.6087 12.6283C20.7115 12.4615 20.745 12.2611 20.702 12.07C20.1597 9.90747 18.9105 7.98807 17.1528 6.61658C15.395 5.2451 13.2295 4.50015 11 4.50001ZM11.195 8.01001L14.996 11.81C14.9468 10.8179 14.5305 9.87953 13.8281 9.17724C13.1256 8.47495 12.1871 8.05892 11.195 8.01001Z" fill="#757575" stroke="#666666" stroke-width="0.5"/>
</svg>
