<svg width="24" height="24" viewBox="0 0 24 24" fill="none" xmlns="http://www.w3.org/2000/svg">
<path d="M17.6866 23.102C17.4725 23.1014 17.259 23.0774 17.0499 23.0304C13.0682 22.1881 9.40007 20.2132 6.46758 17.3329C3.59766 14.4464 1.60722 10.7712 0.737084 6.75194C0.634483 6.25102 0.659665 5.73154 0.810208 5.24345C0.96075 4.75537 1.23159 4.31512 1.59666 3.96506L4.14355 1.45818C4.27363 1.33237 4.4282 1.23603 4.59716 1.17544C4.76612 1.11486 4.94567 1.09139 5.1241 1.10656C5.30911 1.1263 5.48764 1.18725 5.64714 1.28512C5.80665 1.38299 5.94325 1.5154 6.04734 1.67305L9.23095 6.48497C9.35034 6.67168 9.40797 6.89265 9.39536 7.11536C9.38275 7.33807 9.30057 7.55076 9.16091 7.72213L7.56274 9.67555C8.19924 11.1162 9.10064 12.4182 10.2179 13.5108C11.3279 14.643 12.6399 15.547 14.0828 16.1739L16.063 14.5656C16.2293 14.4312 16.4317 14.3517 16.6432 14.3378C16.8548 14.3238 17.0655 14.376 17.2473 14.4875L22.0545 17.665C22.2195 17.7658 22.36 17.9034 22.4656 18.0675C22.5712 18.2317 22.6391 18.4181 22.6642 18.6129C22.6893 18.8077 22.671 19.0058 22.6106 19.1924C22.5503 19.3789 22.4494 19.5491 22.3156 19.6901L19.8324 22.2035C19.5503 22.4905 19.2155 22.7177 18.8472 22.8719C18.479 23.0261 18.0845 23.1043 17.6866 23.102V23.102ZM5.02222 2.39582L2.47533 4.9027C2.26996 5.0984 2.11793 5.3454 2.0342 5.6194C1.95047 5.8934 1.93793 6.18497 1.99779 6.46544C2.80689 10.2369 4.66675 13.6881 7.35262 16.4018C10.1123 19.1116 13.5642 20.9692 17.311 21.7607C17.5945 21.8213 17.8884 21.809 18.1662 21.7249C18.4441 21.6408 18.6971 21.4876 18.9028 21.2788L21.386 18.7654L16.7443 15.6986L14.6176 17.4306C14.5362 17.4965 14.4403 17.541 14.3382 17.5603C14.2361 17.5796 14.1309 17.5731 14.0318 17.5413C12.266 16.876 10.6658 15.8198 9.34556 14.4484C7.98002 13.1443 6.92005 11.5417 6.24473 9.7602C6.21616 9.65235 6.21521 9.53879 6.24197 9.43046C6.26873 9.32212 6.32231 9.22265 6.39754 9.14162L8.11669 7.03844L5.02222 2.39582Z" fill="#474747"/>
</svg>
