<svg width="20" height="20" viewBox="0 0 20 20" fill="none" xmlns="http://www.w3.org/2000/svg">
<path d="M18.3334 6.19206V11.1921C18.3334 12.4421 17.9167 13.4837 17.1834 14.2171C16.4584 14.9421 15.4167 15.3587 14.1667 15.3587V17.1337C14.1667 17.8004 13.4251 18.2004 12.8751 17.8338L9.16675 15.3587H7.40009C7.46675 15.1087 7.50008 14.8504 7.50008 14.5837C7.50008 13.7337 7.17508 12.9504 6.64175 12.3587C6.04175 11.6754 5.15008 11.2504 4.16675 11.2504C3.23341 11.2504 2.38342 11.6337 1.77509 12.2587C1.70009 11.9254 1.66675 11.5671 1.66675 11.1921V6.19206C1.66675 3.69206 3.33341 2.02539 5.83341 2.02539H14.1667C16.6667 2.02539 18.3334 3.69206 18.3334 6.19206Z" stroke="#474747" stroke-miterlimit="10" stroke-linecap="round" stroke-linejoin="round"/>
<path d="M7.49992 14.5833C7.49992 15.2083 7.32493 15.8 7.0166 16.3C6.8416 16.6 6.61659 16.8667 6.35826 17.0833C5.77492 17.6083 5.00825 17.9167 4.16659 17.9167C2.94992 17.9167 1.89157 17.2667 1.31657 16.3C1.00824 15.8 0.833252 15.2083 0.833252 14.5833C0.833252 13.5333 1.31659 12.5917 2.08325 11.9833C2.65825 11.525 3.38325 11.25 4.16659 11.25C6.00825 11.25 7.49992 12.7417 7.49992 14.5833Z" stroke="#474747" stroke-miterlimit="10" stroke-linecap="round" stroke-linejoin="round"/>
<path d="M2.8667 14.5833L3.69169 15.4082L5.4667 13.7666" stroke="#474747" stroke-linecap="round" stroke-linejoin="round"/>
<path d="M7.08325 8.75H12.9166" stroke="#474747" stroke-miterlimit="10" stroke-linecap="round" stroke-linejoin="round"/>
</svg>
