<svg width="20" height="20" viewBox="0 0 20 20" fill="none" xmlns="http://www.w3.org/2000/svg">
<path d="M18.7438 11.2479H17.3809C16.8524 14.3797 14.3817 16.8422 11.2458 17.3707V18.7458C11.2458 19.4354 10.6868 19.9965 9.99721 19.9965C9.30557 19.9965 8.74654 19.4374 8.74654 18.7458V17.3707C5.61068 16.8402 3.13994 14.3797 2.61152 11.2479H1.25067C0.559028 11.2479 0 10.6868 0 9.99721C0 9.30761 0.559028 8.74654 1.25067 8.74654H2.61152C3.13994 5.61476 5.61068 3.15422 8.74654 2.6258V1.25067C8.74654 0.561068 9.30557 0 9.99721 0C10.6868 0 11.2458 0.559028 11.2458 1.25067V2.62784C14.3817 3.15626 16.8524 5.6168 17.3809 8.74858H18.7438C19.4334 8.74858 19.9944 9.30761 19.9944 9.99925C19.9944 10.6868 19.4354 11.2479 18.7438 11.2479ZM9.99721 4.99861C7.23676 4.99861 4.99861 7.23676 4.99861 9.99721C4.99861 12.7577 7.23676 14.9958 9.99721 14.9958C12.7577 14.9958 14.9958 12.7577 14.9958 9.99721C14.9958 7.23676 12.7577 4.99861 9.99721 4.99861ZM9.99721 12.4965C8.61597 12.4965 7.49587 11.3785 7.49587 9.99721C7.49587 8.61801 8.61597 7.49791 9.99721 7.49791C11.3764 7.49791 12.4965 8.61597 12.4965 9.99721C12.4965 11.3785 11.3764 12.4965 9.99721 12.4965Z" fill="#4C5BD4"/>
</svg>
