<svg width="24" height="23" viewBox="0 0 24 23" fill="none" xmlns="http://www.w3.org/2000/svg">
<path d="M7.09473 0.0275793C4.49 0.253325 2.15264 1.80707 0.889624 4.14442C0.506964 4.84524 0.198189 5.77181 0.055233 6.63388C-0.018411 7.08103 -0.018411 8.39965 0.055233 8.84681C0.488674 11.4559 2.079 13.5858 4.45318 14.7246C5.48588 15.218 6.62447 15.4805 7.75392 15.4854H8.0858V15.1258V14.7617L7.40808 14.734C5.56867 14.6555 4.05198 13.9918 2.75648 12.7008C1.74255 11.6819 1.14786 10.5847 0.838844 9.15101C0.751241 8.7592 0.737523 8.54236 0.737523 7.74022C0.737523 6.93808 0.751241 6.72148 0.838844 6.32943C1.14762 4.89578 1.74255 3.79858 2.75672 2.7796C4.04765 1.49348 5.56891 0.824907 7.39918 0.746449C9.44605 0.66342 11.2578 1.38253 12.664 2.84867L12.9822 3.17598L13.2587 2.9317L13.5352 2.692L13.0005 2.17577C11.4007 0.631412 9.22463 -0.161585 7.09473 0.0275793Z" fill="white"/>
<path d="M7.34839 1.83931V2.20801H7.71733H8.08603V1.83931V1.47061H7.71733H7.34839V1.83931Z" fill="white"/>
<path d="M3.29126 3.68306V4.05176H3.6602H4.0289V3.68306V3.31436H3.6602H3.2915V3.68306H3.29126Z" fill="white"/>
<path d="M11.0364 3.68306V4.05176H11.4051H11.774V3.68306V3.31436H11.4051H11.0364V3.68306Z" fill="white"/>
<path d="M7.34839 5.62931V7.57943L6.30197 8.62585L5.25098 9.67684L5.51836 9.93965L5.78117 10.207L6.93348 9.05448L8.08603 7.90193V5.79513V3.68376H7.71733H7.34839V5.62931Z" fill="white"/>
<path d="M14.3651 3.72964C13.5031 3.85406 12.8853 4.1354 12.3736 4.65163C11.9541 5.06654 11.7281 5.47687 11.5575 6.11753C11.4514 6.52329 11.4377 6.67082 11.4191 7.69414C11.396 8.72226 11.4052 8.87436 11.493 9.3492C11.6174 10.0038 11.848 10.7001 12.0968 11.2026C12.2997 11.6083 12.6179 12.0786 12.7837 12.2307C12.8713 12.3092 12.8804 12.3691 12.8804 12.7977C12.8804 13.2309 12.8713 13.2771 12.802 13.2634C12.7421 13.2497 12.6085 13.4064 12.2995 13.872L11.8802 14.4987L11.3777 14.7339C11.1012 14.8629 10.5111 15.1074 10.0685 15.2778C8.57492 15.8494 8.09527 16.1167 7.57904 16.67C7.06738 17.2048 6.76775 17.9056 6.65705 18.8045C6.63394 19.0165 6.61084 19.8509 6.61084 20.6579V22.124H6.97497H7.3391L7.35763 20.3583C7.37616 18.8738 7.38988 18.5557 7.45895 18.3205C7.69865 17.4816 8.08589 17.0067 8.86974 16.5779C9.0358 16.4857 9.67645 16.2137 10.2988 15.9692C10.9166 15.7249 11.5712 15.4484 11.7464 15.3606L12.0646 15.1991L12.7837 15.9182C13.1801 16.3146 13.5305 16.6373 13.5627 16.6373C13.595 16.6373 13.95 16.4712 14.3557 16.2686L15.0934 15.8999L15.831 16.2686C16.2368 16.4715 16.5918 16.6373 16.624 16.6373C16.6563 16.6373 17.0067 16.3146 17.4031 15.9182L18.1222 15.1991L18.4403 15.3606C18.6155 15.4482 19.2656 15.7201 19.8879 15.9692C21.1512 16.4717 21.271 16.5271 21.6583 16.7899C22.0455 17.0527 22.3129 17.3478 22.4972 17.721C22.7969 18.3388 22.806 18.4125 22.8291 20.3626L22.8477 22.1238H23.2164H23.5853L23.5622 20.4088C23.5437 18.8644 23.5299 18.6476 23.4423 18.2743C23.2994 17.6657 22.9952 17.0756 22.6171 16.6792C22.0869 16.1122 21.7274 15.9093 20.2152 15.3146C19.6668 15.1026 19.0167 14.8306 18.7631 14.7108L18.3068 14.4987L17.8873 13.8718C17.5785 13.4061 17.4447 13.2494 17.3893 13.2632C17.3157 13.2769 17.3063 13.2309 17.3063 12.7975C17.3063 12.3686 17.3155 12.3087 17.4031 12.2305C17.5691 12.0784 17.887 11.6081 18.0899 11.2023C18.3388 10.6998 18.5693 10.0038 18.6938 9.34896C18.7814 8.87412 18.7905 8.72202 18.7676 7.69389C18.7491 6.74422 18.7308 6.49995 18.6478 6.17264C18.3296 4.9142 17.5369 4.12577 16.2921 3.82157C15.845 3.7111 14.826 3.6649 14.3651 3.72964ZM16.3381 4.55945C17.191 4.80373 17.6659 5.27399 17.8964 6.10838C17.9472 6.29273 18.0026 6.59718 18.0208 6.7861L18.0531 7.13651L17.4769 7.42242L16.9054 7.70833L15.1028 6.98922C14.1117 6.58803 13.2679 6.26554 13.2265 6.26554C13.1897 6.26554 12.95 6.36686 12.6963 6.4961C12.4427 6.62052 12.2215 6.72666 12.2078 6.72666C12.157 6.72666 12.2217 6.30717 12.3276 5.97987C12.5859 5.15005 13.2174 4.65211 14.2501 4.46776C14.3699 4.44465 14.8125 4.43551 15.232 4.44465C15.8356 4.45789 16.0616 4.481 16.3381 4.55945ZM15.1073 7.76345C16.0893 8.15525 16.9236 8.47799 16.9607 8.47799C16.9978 8.47799 17.2603 8.36271 17.5369 8.22432L18.044 7.97066V8.46403C18.044 9.48734 17.6105 10.8197 17.0529 11.5296C16.8132 11.8338 16.6933 11.9077 16.2093 12.0322C15.264 12.2767 13.7842 12.1383 13.3416 11.7696C13.1202 11.5807 12.756 10.986 12.5625 10.4835C12.2675 9.72729 12.143 9.07267 12.143 8.2751V7.60196L12.687 7.33001C12.982 7.17791 13.2494 7.05348 13.2725 7.05348C13.3002 7.04891 14.1254 7.37164 15.1073 7.76345ZM14.0561 12.7929C14.3004 12.8437 14.6508 12.8714 15.0934 12.8714C15.536 12.8714 15.8864 12.8437 16.1307 12.7929C16.3335 12.7515 16.5133 12.7193 16.5364 12.7193C16.5549 12.7193 16.5687 12.8714 16.5687 13.0557V13.397L15.831 13.5168L15.0934 13.6412L14.3557 13.5168L13.6181 13.397V13.0557C13.6181 12.8714 13.6318 12.7193 13.6549 12.7193C13.6737 12.7193 13.8535 12.7515 14.0561 12.7929ZM14.13 14.2176L15.0936 14.3791L16.0572 14.2176C16.5874 14.13 17.0483 14.0562 17.0854 14.0562C17.1453 14.0562 17.5371 14.5955 17.5371 14.6785C17.5371 14.7062 17.302 14.9596 17.0161 15.2455L16.4904 15.7711L15.7944 15.4207L15.0936 15.0703L14.3928 15.4207L13.6968 15.7711L13.1712 15.2455C12.8853 14.9596 12.6501 14.7062 12.6501 14.6831C12.6501 14.5909 13.0328 14.0562 13.0973 14.0562C13.1341 14.0562 13.5998 14.13 14.13 14.2176Z" fill="white"/>
<path d="M1.44727 7.74068V8.10938H1.81597H2.18491V7.74068V7.37198H1.81597H1.44727V7.74068Z" fill="white"/>
<path d="M3.29126 11.7971V12.166H3.6602H4.0289V11.7971V11.4284H3.6602H3.2915V11.7971H3.29126Z" fill="white"/>
<path d="M7.34839 13.6408V14.0098H7.71733H8.08603V13.6411V13.2721H7.71733H7.34839V13.6408Z" fill="white"/>
<path d="M14.7246 17.3295V17.6982H15.0933H15.462V17.3295V16.9608H15.0933H14.7246V17.3295Z" fill="white"/>
<path d="M14.7246 18.8042V19.1729H15.0933H15.462V18.8042V18.4354H15.0933H14.7246V18.8042Z" fill="white"/>
<path d="M9.56128 21.0177V22.124H9.92998H10.2989V21.0177V19.9113H9.92998H9.56128V21.0177Z" fill="white"/>
<path d="M19.8877 21.0177V22.124H20.2566H20.6253V21.0177V19.9113H20.2566H19.8877V21.0177Z" fill="white"/>
</svg>
