<svg width="40" height="40" viewBox="0 0 40 40" fill="none" xmlns="http://www.w3.org/2000/svg">
<circle cx="20" cy="20" r="20" fill="white"/>
<circle cx="20" cy="20" r="16" fill="#FF3333"/>
<g clip-path="url(#clip0_3_3336)">
<path d="M22.9708 19.5702C22.9321 19.5315 22.9321 19.4685 22.9708 19.4299L27.693 14.7054C28.0967 14.3014 28.0967 13.6441 27.693 13.2402L26.7568 12.3036C26.5612 12.1078 26.301 12 26.0243 12C25.7475 12 25.4874 12.1078 25.2917 12.3036L20.5695 17.0281C20.5456 17.052 20.5184 17.057 20.4997 17.057C20.4811 17.057 20.4539 17.052 20.43 17.0281L15.7078 12.3036C15.5121 12.1078 15.2519 12 14.9752 12C14.6984 12 14.4383 12.1078 14.2426 12.3036L13.3065 13.2402C12.9027 13.6441 12.9027 14.3014 13.3065 14.7054L18.0287 19.4299C18.0673 19.4685 18.0673 19.5315 18.0287 19.5702L13.3065 24.2947C12.9027 24.6986 12.9027 25.3559 13.3065 25.7598L14.2426 26.6964C14.4383 26.8922 14.6985 27 14.9752 27C15.2519 27 15.5121 26.8922 15.7078 26.6964L20.4299 21.972C20.4538 21.9481 20.4811 21.943 20.4997 21.943C20.5184 21.943 20.5456 21.9481 20.5695 21.972L25.2917 26.6965C25.4873 26.8922 25.7475 27 26.0242 27C26.301 27 26.5611 26.8922 26.7568 26.6965L27.6929 25.7599C28.0967 25.3559 28.0967 24.6986 27.6929 24.2947L22.9708 19.5702Z" fill="white"/>
</g>
<defs>
<clipPath id="clip0_3_3336">
<rect width="15" height="15" fill="white" transform="translate(13 12)"/>
</clipPath>
</defs>
</svg>
