<svg width="26" height="26" viewBox="0 0 26 26" fill="none" xmlns="http://www.w3.org/2000/svg">
<path d="M13.0001 4.33333V13H21.6667V6.5C21.6667 5.92536 21.4385 5.37426 21.0321 4.96794C20.6258 4.56161 20.0747 4.33333 19.5001 4.33333H13.0001ZM21.6667 14.0833H13.0001V22.75H19.5001C20.0747 22.75 20.6258 22.5217 21.0321 22.1154C21.4385 21.7091 21.6667 21.158 21.6667 20.5833V14.0833ZM11.9167 22.75V14.0833H3.25008V20.5833C3.25008 21.158 3.47835 21.7091 3.88468 22.1154C4.29101 22.5217 4.84211 22.75 5.41675 22.75H11.9167ZM3.25008 13H11.9167V4.33333H5.41675C4.84211 4.33333 4.29101 4.56161 3.88468 4.96794C3.47835 5.37426 3.25008 5.92536 3.25008 6.5V13ZM5.41675 3.25H19.5001C20.362 3.25 21.1887 3.59241 21.7982 4.2019C22.4077 4.8114 22.7501 5.63805 22.7501 6.5V20.5833C22.7501 21.4453 22.4077 22.2719 21.7982 22.8814C21.1887 23.4909 20.362 23.8333 19.5001 23.8333H5.41675C4.55479 23.8333 3.72814 23.4909 3.11865 22.8814C2.50916 22.2719 2.16675 21.4453 2.16675 20.5833V6.5C2.16675 5.63805 2.50916 4.8114 3.11865 4.2019C3.72814 3.59241 4.55479 3.25 5.41675 3.25Z" fill="white" stroke="white"/>
</svg>
