<svg width="32" height="33" viewBox="0 0 32 33" fill="none" xmlns="http://www.w3.org/2000/svg">
<path d="M26.6666 9.83366V23.167C26.6666 28.5003 25.3333 29.8337 19.9999 29.8337H11.9999C6.66659 29.8337 5.33325 28.5003 5.33325 23.167V9.83366C5.33325 4.50033 6.66659 3.16699 11.9999 3.16699H19.9999C25.3333 3.16699 26.6666 4.50033 26.6666 9.83366Z" stroke="#474747" stroke-width="1.5" stroke-linecap="round" stroke-linejoin="round"/>
<path d="M18.6666 7.83398H13.3333" stroke="#474747" stroke-width="1.5" stroke-linecap="round" stroke-linejoin="round"/>
<path fill-rule="evenodd" clip-rule="evenodd" d="M17.8888 13.6113C17.9999 14.2224 17.7221 14.8336 17.3888 15.278C17.0554 15.7224 16.4443 16.1113 15.8332 16.0558C15.7221 15.4447 15.9999 14.8891 16.3332 14.4447C16.7221 14.0002 17.3332 13.6669 17.8888 13.6113ZM19.6665 23.278C19.9443 22.8336 20.111 22.5558 20.3332 22.0558C18.611 21.3891 18.3332 18.9447 20.0554 18.0558C19.5554 17.3891 18.8332 17.0558 18.111 17.0558C17.611 17.0558 17.2776 17.1669 16.9443 17.278C16.6665 17.3891 16.4443 17.4447 16.1665 17.4447C15.8332 17.4447 15.611 17.3336 15.2776 17.2224C14.9443 17.1113 14.611 17.0002 14.2221 17.0002C13.4443 17.0002 12.611 17.4447 12.111 18.278C11.3888 19.3891 11.4999 21.5558 12.6665 23.3336C13.1665 24.0002 13.7221 24.7224 14.4443 24.7224C14.7776 24.7224 14.9443 24.6113 15.1665 24.5558C15.4443 24.4447 15.7221 24.3336 16.1665 24.3336C16.6665 24.3336 16.8888 24.4447 17.1665 24.5558C17.3888 24.6669 17.5554 24.7224 17.8888 24.7224C18.6665 24.7224 19.2221 23.8891 19.6665 23.278Z" fill="#474747" stroke="#474747" stroke-width="0.5" stroke-miterlimit="10" stroke-linecap="round" stroke-linejoin="round"/>
</svg>
