<svg width="16" height="16" viewBox="0 0 16 16" fill="none" xmlns="http://www.w3.org/2000/svg">
<path d="M11.7488 1.12134C9.01001 1.12134 8.00376 3.92009 8.00376 3.92009C8.00376 3.92009 7.01126 1.12134 4.25376 1.12134C2.18126 1.12134 -0.181239 2.76384 0.691261 6.49759C1.56376 10.2313 8.01126 14.8826 8.01126 14.8826C8.01126 14.8826 14.435 10.2313 15.3088 6.49759C16.1813 2.76384 13.9888 1.12134 11.7488 1.12134Z" fill="#F44336"/>
<path d="M3.83124 1.40009C5.98124 1.40009 7.04874 3.71134 7.39374 4.64759C7.44249 4.78134 7.62874 4.78509 7.68499 4.65509L7.99999 3.91884C7.55624 2.50134 6.33624 1.12134 4.25374 1.12134C3.39124 1.12134 2.47999 1.40634 1.77124 2.00759C2.39749 1.59634 3.13124 1.40009 3.83124 1.40009ZM11.7487 1.12134C11.0875 1.12134 10.485 1.26509 10.015 1.55509C10.345 1.42759 10.7537 1.40009 11.1587 1.40009C13.185 1.40009 14.9987 2.93634 14.18 6.48759C13.4775 9.53634 9.37249 13.2351 8.11874 14.6463C8.03874 14.7363 8.01124 14.8813 8.01124 14.8813C8.01124 14.8813 14.435 10.2301 15.3087 6.49634C16.1812 2.76384 13.9925 1.12134 11.7487 1.12134Z" fill="#CC3333"/>
<path d="M2.12995 3.10245C2.5987 2.51745 3.4362 2.0337 4.1462 2.5912C4.52995 2.89245 4.36245 3.50995 4.0187 3.76995C3.5187 4.14995 3.0837 4.3787 2.7787 4.9737C2.5962 5.3312 2.4862 5.72245 2.42995 6.1212C2.40745 6.2787 2.2012 6.31745 2.1237 6.1787C1.5962 5.2437 1.4462 3.9562 2.12995 3.10245ZM9.64495 4.33245C9.42495 4.33245 9.26995 4.11995 9.34995 3.91495C9.4987 3.53745 9.6912 3.17245 9.92245 2.84745C10.265 2.36745 10.9162 2.08745 11.3287 2.3787C11.7512 2.6762 11.6962 3.2712 11.4 3.5587C10.7637 4.17495 9.9612 4.33245 9.64495 4.33245Z" fill="#FF8A80"/>
</svg>
