<svg width="32" height="33" viewBox="0 0 32 33" fill="none" xmlns="http://www.w3.org/2000/svg">
<path d="M26.6666 9.83366V23.167C26.6666 28.5003 25.3333 29.8337 19.9999 29.8337H11.9999C6.66659 29.8337 5.33325 28.5003 5.33325 23.167V9.83366C5.33325 4.50033 6.66659 3.16699 11.9999 3.16699H19.9999C25.3333 3.16699 26.6666 4.50033 26.6666 9.83366Z" stroke="#474747" stroke-width="1.5" stroke-linecap="round" stroke-linejoin="round"/>
<path d="M18.6666 7.83398H13.3333" stroke="#474747" stroke-width="1.5" stroke-linecap="round" stroke-linejoin="round"/>
<path d="M15.4444 22.5V24.1667C15.4444 24.4444 15.2221 24.7222 14.8888 24.7222C14.5555 24.7222 14.3333 24.4444 14.3333 24.1667V22.5H15.4444Z" fill="#474747" stroke="#474747" stroke-width="0.5" stroke-miterlimit="10" stroke-linecap="round" stroke-linejoin="round"/>
<path d="M17.6665 22.5V24.1667C17.6665 24.4444 17.4443 24.7222 17.111 24.7222C16.7776 24.7222 16.5554 24.4444 16.5554 24.1667V22.5H17.6665Z" fill="#474747" stroke="#474747" stroke-width="0.5" stroke-miterlimit="10" stroke-linecap="round" stroke-linejoin="round"/>
<path d="M18.7777 18.6111V21.3889C18.7777 22 18.2777 22.5 17.6666 22.5H14.3333C13.7222 22.5 13.2222 22 13.2222 21.3889V18.6111C13.2222 18 13.7222 17.5 14.3333 17.5H17.6666C18.2777 17.5 18.7777 18 18.7777 18.6111Z" fill="#474747" stroke="#474747" stroke-width="0.5" stroke-miterlimit="10" stroke-linecap="round" stroke-linejoin="round"/>
<path d="M12.1111 18.6112V20.8334C12.1111 21.1668 11.8889 21.389 11.5556 21.389C11.2222 21.389 11 21.1668 11 20.8334V18.6112C11 18.2779 11.2222 18.0557 11.5556 18.0557C11.8889 18.0557 12.1111 18.2779 12.1111 18.6112Z" fill="#474747" stroke="#474747" stroke-width="0.5" stroke-miterlimit="10" stroke-linecap="round" stroke-linejoin="round"/>
<path d="M21 18.6112V20.8334C21 21.1668 20.7778 21.389 20.4445 21.389C20.1111 21.389 19.8889 21.1668 19.8889 20.8334V18.6112C19.8889 18.2779 20.1111 18.0557 20.4445 18.0557C20.7778 18.0557 21 18.2779 21 18.6112Z" fill="#474747" stroke="#474747" stroke-width="0.5" stroke-miterlimit="10" stroke-linecap="round" stroke-linejoin="round"/>
<path d="M16.5554 22.5H15.4443" stroke="#474747" stroke-width="0.5" stroke-miterlimit="10" stroke-linecap="round" stroke-linejoin="round"/>
<path d="M14.6665 16.389H17.3331C17.8331 16.389 18.222 15.9723 18.222 15.4366C18.222 14.1271 17.222 13.0557 15.9998 13.0557C14.7776 13.0557 13.7776 14.1271 13.7776 15.4366C13.7776 15.9723 14.1665 16.389 14.6665 16.389Z" fill="#474747" stroke="#474747" stroke-width="0.5" stroke-miterlimit="10" stroke-linecap="round" stroke-linejoin="round"/>
</svg>
