<svg width="32" height="33" viewBox="0 0 32 33" fill="none" xmlns="http://www.w3.org/2000/svg">
<path d="M9.67997 3.16699H22.3066C23.1733 3.16699 23.9466 3.19369 24.64 3.28703C28.3333 3.70036 29.3333 5.43367 29.3333 10.1803V18.607C29.3333 23.3537 28.3333 25.087 24.64 25.5003C23.9466 25.5937 23.1866 25.6204 22.3066 25.6204H9.67997C8.81331 25.6204 8.03997 25.5937 7.34664 25.5003C3.65331 25.087 2.65332 23.3537 2.65332 18.607V10.1803C2.65332 5.43367 3.65331 3.70036 7.34664 3.28703C8.03997 3.19369 8.81331 3.16699 9.67997 3.16699Z" stroke="#474747" stroke-width="1.5" stroke-linecap="round" stroke-linejoin="round"/>
<path d="M9.33325 29.833H22.6666" stroke="#474747" stroke-width="1.5" stroke-linecap="round" stroke-linejoin="round"/>
<path fill-rule="evenodd" clip-rule="evenodd" d="M20.9167 9.58301L15.5 10.6663V14.458H20.9167V9.58301Z" fill="#474747" stroke="#474747" stroke-width="0.5" stroke-miterlimit="10" stroke-linecap="round" stroke-linejoin="round"/>
<path fill-rule="evenodd" clip-rule="evenodd" d="M20.9167 20.417L15.5 19.3337V15.542H20.9167V20.417Z" fill="#474747" stroke="#474747" stroke-width="0.5" stroke-miterlimit="10" stroke-linecap="round" stroke-linejoin="round"/>
<path fill-rule="evenodd" clip-rule="evenodd" d="M14.4166 10.8291L10.0833 11.7499V14.4583H14.4166V10.8291Z" fill="#474747" stroke="#474747" stroke-width="0.5" stroke-miterlimit="10" stroke-linecap="round" stroke-linejoin="round"/>
<path fill-rule="evenodd" clip-rule="evenodd" d="M14.4166 19.1712L10.0833 18.2503V15.542H14.4166V19.1712Z" fill="#474747" stroke="#474747" stroke-width="0.5" stroke-miterlimit="10" stroke-linecap="round" stroke-linejoin="round"/>
</svg>
