<svg width="30" height="30" viewBox="0 0 30 30" fill="none" xmlns="http://www.w3.org/2000/svg">
<path d="M29.9254 17.0496L29.6273 18.5557C29.3517 19.9638 27.9888 20.911 26.4458 20.7659L23.3768 20.4791C22.0382 20.3539 21.0465 19.4085 20.6266 18.0657C20.0566 16.2421 19.6892 14.8902 19.6892 14.8902C18.2089 14.2762 16.6127 13.9672 15.0023 13.9829C13.1012 13.9829 11.7439 14.373 10.3153 14.8902C10.3153 14.8902 9.93288 16.2439 9.37795 18.0657C9.00675 19.2815 8.43307 20.3467 7.12261 20.4737L4.07049 20.7713C3.32725 20.8404 2.58209 20.6599 1.9601 20.26C1.33812 19.8602 0.877175 19.2655 0.654661 18.5756L0.189719 17.0713C-0.0407153 16.3521 -0.0616556 15.5854 0.129203 14.8554C0.320062 14.1254 0.71532 13.4606 1.27146 12.9341C3.943 10.4227 8.75178 9.00729 14.9873 9.00003C21.234 8.99277 25.4747 10.4009 28.4143 12.9123C29.6517 13.9684 30.2179 15.558 29.9235 17.0496H29.9254Z" fill="white"/>
</svg>
