<svg width="32" height="33" viewBox="0 0 32 33" fill="none" xmlns="http://www.w3.org/2000/svg">
<path d="M9.67997 3.16699H22.3066C23.1733 3.16699 23.9466 3.19369 24.64 3.28703C28.3333 3.70036 29.3333 5.43367 29.3333 10.1803V18.607C29.3333 23.3537 28.3333 25.087 24.64 25.5003C23.9466 25.5937 23.1866 25.6204 22.3066 25.6204H9.67997C8.81331 25.6204 8.03997 25.5937 7.34664 25.5003C3.65331 25.087 2.65332 23.3537 2.65332 18.607V10.1803C2.65332 5.43367 3.65331 3.70036 7.34664 3.28703C8.03997 3.19369 8.81331 3.16699 9.67997 3.16699Z" stroke="#474747" stroke-width="1.5" stroke-linecap="round" stroke-linejoin="round"/>
<path d="M9.33325 29.833H22.6666" stroke="#474747" stroke-width="1.5" stroke-linecap="round" stroke-linejoin="round"/>
<path fill-rule="evenodd" clip-rule="evenodd" d="M17.8888 8.27832C17.9999 8.88943 17.7221 9.50054 17.3888 9.94499C17.0554 10.3894 16.4443 10.7783 15.8332 10.7228C15.7221 10.1117 15.9999 9.5561 16.3332 9.11165C16.7221 8.66721 17.3332 8.33388 17.8888 8.27832ZM19.6665 17.945C19.9443 17.5005 20.111 17.2228 20.3332 16.7228C18.611 16.0561 18.3332 13.6117 20.0554 12.7228C19.5554 12.0561 18.8332 11.7228 18.111 11.7228C17.611 11.7228 17.2776 11.8339 16.9443 11.945C16.6665 12.0561 16.4443 12.1117 16.1665 12.1117C15.8332 12.1117 15.611 12.0005 15.2776 11.8894C14.9443 11.7783 14.611 11.6672 14.2221 11.6672C13.4443 11.6672 12.611 12.1117 12.111 12.945C11.3888 14.0561 11.4999 16.2228 12.6665 18.0005C13.1665 18.6672 13.7221 19.3894 14.4443 19.3894C14.7776 19.3894 14.9443 19.2783 15.1665 19.2228C15.4443 19.1117 15.7221 19.0005 16.1665 19.0005C16.6665 19.0005 16.8888 19.1117 17.1665 19.2228C17.3888 19.3339 17.5554 19.3894 17.8888 19.3894C18.6665 19.3894 19.2221 18.5561 19.6665 17.945Z" fill="#474747" stroke="#474747" stroke-width="0.5" stroke-miterlimit="10" stroke-linecap="round" stroke-linejoin="round"/>
</svg>
