<svg width="21" height="20" viewBox="0 0 21 20" fill="none" xmlns="http://www.w3.org/2000/svg">
<path d="M18.5 11.0256V9.2748C18.5 4.71874 15.021 0.904235 10.745 0.771922C8.541 0.719612 6.494 1.52682 4.929 3.08585C4.15744 3.84826 3.54444 4.76307 3.12697 5.7751C2.7095 6.78713 2.49623 7.8754 2.5 8.97428V11.0256C1.397 11.0256 0.5 11.9457 0.5 13.077V17.1797C0.5 18.311 1.397 19.2311 2.5 19.2311H4.5V8.97428C4.49705 8.15014 4.65688 7.33392 4.96985 6.57486C5.28282 5.81579 5.74245 5.12961 6.321 4.5577C6.89712 3.98248 7.58047 3.53239 8.33014 3.23437C9.07982 2.93635 9.88041 2.79653 10.684 2.82328C13.892 2.92175 16.5 5.81621 16.5 9.2748V19.2311H18.5C19.603 19.2311 20.5 18.311 20.5 17.1797V13.077C20.5 11.9457 19.603 11.0256 18.5 11.0256Z" fill="#CCCCCC"/>
<path d="M13.8846 14.3684L10.5193 11.003L7.15387 14.3684M10.5193 11.003L10.5193 18.6953L10.5193 11.003Z" stroke="#76B51B" stroke-width="1.5" stroke-linecap="round" stroke-linejoin="round"/>
</svg>
