<svg width="22" height="22" viewBox="0 0 22 22" fill="none" xmlns="http://www.w3.org/2000/svg">
<path d="M11 22C4.92531 22 0 17.0747 0 11C0 4.92531 4.92531 0 11 0C17.0747 0 22 4.92531 22 11C22 17.0747 17.0747 22 11 22ZM11 2.0002C6.0298 2.0002 2.0002 6.0298 2.0002 11C2.0002 15.9702 6.0298 19.9998 11 19.9998C15.9702 19.9998 19.9998 15.9702 19.9998 11C19.9998 6.0298 15.9702 2.0002 11 2.0002ZM10.001 17.0006C9.00204 17.0006 9.00204 16.0016 9.00204 16.0016L10.001 11C10.001 11 10.001 10.001 9.00204 10.001C9.00204 10.001 8.00306 10.001 8.00306 9.00204H11C11 9.00204 11.999 9.00204 11.999 10.001C11.999 11 11 13.9992 11 15.0004C11 16.0016 11.999 15.9994 11.999 15.9994H12.998C13.0002 15.9994 13.0002 17.0006 10.001 17.0006ZM11.999 6.99959C11.4467 6.99959 11 6.55286 11 6.00061C11 5.44837 11.4467 5.00163 11.999 5.00163C12.5512 5.00163 12.998 5.44837 12.998 6.00061C13.0002 6.55286 12.5535 6.99959 11.999 6.99959Z" fill="white"/>
</svg>
