<svg width="21" height="20" viewBox="0 0 21 20" fill="none" xmlns="http://www.w3.org/2000/svg">
<path d="M10.093 16.6563C10.0868 16.6563 10.0786 16.6563 10.0724 16.6563C9.93183 16.6501 9.80578 16.5758 9.73138 16.458C9.69212 16.398 9.57432 16.2596 9.40487 16.0508C8.30753 14.7138 5.39371 11.1614 4.23851 7.54495C3.88927 6.45175 3.82934 4.03596 5.16432 2.20707C5.89588 1.20066 7.35279 0 10.1282 0C12.9428 0 14.4142 1.24406 15.1519 2.28766C16.4084 4.06489 16.4249 6.44762 15.9103 7.90866C14.8853 10.8101 12.5584 13.7776 10.5063 16.396L10.434 16.489C10.3493 16.5964 10.2253 16.6563 10.093 16.6563ZM10.1282 0.861749C8.19181 0.861749 6.75556 1.48585 5.85661 2.71544C4.77168 4.20128 4.73655 6.28023 5.05686 7.28043C6.16246 10.7398 9.10315 14.3253 10.0703 15.5011C10.0765 15.5094 10.0848 15.5197 10.093 15.528C12.0376 13.0461 14.1641 10.2687 15.0982 7.62141C15.5425 6.36289 15.5301 4.31081 14.4493 2.7857C13.5462 1.50858 12.0914 0.861749 10.1282 0.861749Z" fill="#4C5BD4"/>
<path d="M10.126 7.77395C8.8592 7.77395 7.82593 6.74275 7.82593 5.47389C7.82593 4.20503 8.85713 3.17383 10.126 3.17383C11.3928 3.17383 12.424 4.20503 12.424 5.47389C12.424 6.74068 11.3928 7.77395 10.126 7.77395ZM10.126 4.03558C9.3345 4.03558 8.68974 4.68034 8.68974 5.47182C8.68974 6.26537 9.3345 6.90807 10.126 6.90807C10.9175 6.90807 11.5622 6.26331 11.5622 5.47182C11.5622 4.68034 10.9175 4.03558 10.126 4.03558Z" fill="#4C5BD4"/>
<path d="M10.2852 18.3489C6.63774 18.3489 2.94482 17.4995 2.94482 15.8732C2.94482 14.1331 6.88572 13.6165 8.09259 13.5008C8.32611 13.478 8.53896 13.6516 8.56376 13.8893C8.58649 14.1269 8.4129 14.3377 8.17525 14.3605C5.08783 14.658 3.80657 15.4929 3.80657 15.8732C3.80657 16.4208 6.09217 17.4871 10.2852 17.4871C14.4782 17.4871 16.7659 16.4208 16.7659 15.8732C16.7659 15.4537 15.342 14.5671 11.9136 14.3171C11.676 14.3005 11.4983 14.0939 11.5148 13.8562C11.5313 13.6186 11.7421 13.4388 11.9756 13.4574C14.7076 13.6578 17.6276 14.3956 17.6276 15.8732C17.6276 17.4995 13.9347 18.3489 10.2852 18.3489Z" fill="#4C5BD4"/>
<path d="M10.1261 20.0003C5.21802 20.0003 0 18.6509 0 16.1504C0 14.3442 2.91383 12.8852 7.42303 12.4306C7.66688 12.3975 7.87147 12.5794 7.8942 12.815C7.919 13.0526 7.74541 13.2634 7.50982 13.2861C3.19281 13.7201 0.863815 15.0861 0.863815 16.1483C0.863815 17.5618 4.66832 19.1365 10.1281 19.1365C15.5879 19.1365 19.3925 17.5618 19.3925 16.1483C19.3925 15.0778 17.0469 13.7077 12.6968 13.282C12.4592 13.2593 12.2877 13.0485 12.3104 12.8108C12.3331 12.5732 12.5439 12.3934 12.7816 12.4244C17.3176 12.8728 20.2521 14.3339 20.2521 16.1504C20.2521 18.6509 15.0341 20.0003 10.1261 20.0003Z" fill="#4C5BD4"/>
</svg>
