<svg width="27" height="28" viewBox="0 0 27 28" fill="none" xmlns="http://www.w3.org/2000/svg">
<path d="M8.44216 9.21376C8.45851 8.2054 8.78682 7.22684 9.38197 6.41252C9.97713 5.5982 10.8099 4.98808 11.766 4.66598C13.8309 3.96137 16.1057 4.861 17.2873 6.63632C18.1081 7.86341 18.0529 9.23952 18.0455 10.6377L18.0289 13.9382C18.0289 14.7531 19.2878 14.7587 19.2933 13.9382C19.3099 10.7812 19.8933 7.22135 17.394 4.80212C15.6934 3.15558 12.9917 2.71221 10.8384 3.66518C9.76285 4.14268 8.84637 4.91775 8.1971 5.89893C7.54784 6.88011 7.19288 8.02646 7.17411 9.20272C7.15203 10.0177 8.4164 10.0232 8.43849 9.20272L8.44216 9.21376Z" fill="white"/>
<path d="M7.51418 12.2289C8.5393 12.1792 9.36381 11.7138 9.82944 10.7829C10.1828 10.0801 10.1276 9.36999 10.2748 8.62858C10.5914 7.05011 12.2772 5.85245 13.8544 6.14497C15.2495 6.40437 16.212 7.70505 16.2065 9.08851C16.1979 10.667 16.1881 12.2455 16.1771 13.8239C16.1642 15.5349 17.1102 16.6737 18.9046 16.7454C19.7199 16.7785 19.7236 15.5146 18.9046 15.4834C16.9629 15.4042 17.4322 13.4358 17.4488 12.0652C17.4598 10.5621 17.7654 8.67273 17.0807 7.28191C15.7611 4.57569 12.4612 4.14336 10.319 6.11737C9.45489 6.94734 8.95521 8.0859 8.92947 9.28352C8.88898 10.1445 8.43808 10.9227 7.50866 10.9687C6.69703 11.011 6.68783 12.2749 7.50866 12.2326L7.51418 12.2289Z" fill="white"/>
<path d="M7.71636 14.3172C8.4672 14.3731 9.21776 14.2051 9.873 13.8344C10.5283 13.4636 11.0587 12.9069 11.3972 12.2346C11.6729 11.6248 11.8291 10.9678 11.8573 10.2992C11.8684 10.1281 11.872 9.95519 11.8684 9.78225C11.8684 10.0288 11.8573 9.86872 11.8684 9.79329C11.9128 9.56877 11.9743 9.34798 12.0524 9.13284C12.507 7.79904 14.3216 7.42742 14.4247 9.12179C14.5038 10.4372 14.4247 11.7599 14.0014 13.0128C13.1088 15.616 10.5433 16.5211 7.98874 16.534C7.17527 16.534 7.16791 17.8016 7.98874 17.7979C10.869 17.7832 13.683 16.7677 14.9584 14.0136C15.6615 12.4922 15.7056 10.9026 15.6946 9.26529C15.6946 7.74385 14.791 6.61058 13.1898 6.68969C11.8021 6.75408 10.9978 8.0658 10.6942 9.27633C10.3905 10.4869 10.6721 11.8041 9.47212 12.6191C8.95628 12.9553 8.3428 13.1094 7.72924 13.0569C6.91577 12.987 6.91577 14.2509 7.72924 14.3208L7.71636 14.3172Z" fill="white"/>
<path d="M12.6723 9.63695C12.737 10.4981 12.6113 11.363 12.3042 12.1702C11.5772 14.1553 9.58774 14.8617 7.62401 14.8765C6.8087 14.8765 6.80134 16.1477 7.62401 16.1403C9.98344 16.122 12.2398 15.2536 13.3091 13.0312C13.8165 11.9774 14.0373 10.8087 13.9496 9.64247C13.8759 8.83852 12.6116 8.82564 12.6852 9.64247L12.6723 9.63695Z" fill="white"/>
<path d="M8.77014 19.4654C10.2661 19.5646 11.758 19.2196 13.0583 18.4738C13.5308 18.192 13.9592 17.8424 14.3301 17.4362C14.5362 17.2173 14.7386 17.0039 14.9632 16.8015C15.3221 16.474 15.3791 16.7904 15.5724 17.0848C16.1889 18.0286 17.0686 18.8362 18.2557 18.7921C19.0692 18.7608 19.0784 17.5043 18.2557 17.5282C16.9177 17.5778 16.7613 16.0233 15.8098 15.4585C14.8583 14.8937 13.8166 16.1318 13.2553 16.7242C12.1694 17.8759 10.3106 18.3284 8.7683 18.196C7.95484 18.1279 7.95484 19.3936 8.7683 19.4599L8.77014 19.4654Z" fill="white"/>
<path d="M17.2588 18.8876C16.241 18.6705 15.8085 17.39 14.6086 17.9677C13.4086 18.5454 12.0964 20.1459 10.5817 19.6069C9.81059 19.3328 9.47748 20.5525 10.2394 20.823C11.5277 21.2829 13.0847 20.536 14.1043 19.8038C14.5589 19.4781 15.0429 18.8545 15.5527 19.2905C15.9447 19.6253 16.3956 19.9896 16.9128 20.1018C17.7079 20.2729 18.052 19.055 17.2551 18.8839L17.2588 18.8876Z" fill="white"/>
<path d="M13.5539 21.7132C14.4267 21.6664 15.2761 21.4142 16.033 20.9773C16.7213 20.545 16.0937 19.4467 15.4017 19.8827C15.0187 20.1087 14.5998 20.2674 14.1631 20.3518C13.9652 20.3999 13.7641 20.4337 13.5613 20.453C12.7552 20.5211 12.7405 21.785 13.5613 21.7169L13.5539 21.7132Z" fill="white"/>
<path d="M1.63047 4.45481H0.603516L0.612716 2.72731C0.614403 2.38893 0.682782 2.05419 0.813945 1.74222C0.945107 1.43026 1.13649 1.14719 1.37714 0.909198C1.61779 0.671202 1.903 0.482944 2.21647 0.355181C2.52994 0.227418 2.86552 0.162655 3.20404 0.164593H4.81809V1.19115L3.20404 1.18196C2.79302 1.18048 2.39818 1.34191 2.10599 1.63088C1.81381 1.91984 1.64812 2.31279 1.6452 2.72363L1.63047 4.45481Z" fill="white"/>
<path d="M24.9403 4.48052H25.9673L25.9765 2.75303C25.9782 2.41479 25.9132 2.07954 25.7853 1.7664C25.6574 1.45327 25.469 1.16839 25.2309 0.928023C24.9929 0.68766 24.7098 0.496522 24.3978 0.365525C24.0859 0.234528 23.7511 0.166238 23.4128 0.164551H21.7969V1.19111L23.4109 1.20031C23.819 1.20659 24.2083 1.3732 24.4945 1.66411C24.7807 1.95502 24.9409 2.34685 24.9403 2.75487V4.48052Z" fill="white"/>
<path d="M24.8341 22.5513H25.8592L25.85 24.2769C25.8483 24.6152 25.78 24.9497 25.649 25.2616C25.5179 25.5734 25.3267 25.8564 25.0863 26.0944C24.8458 26.3324 24.5608 26.5207 24.2475 26.6485C23.9343 26.7764 23.5989 26.8413 23.2605 26.8396H21.6465V25.8131H23.2624C23.6734 25.8146 24.0682 25.6531 24.3604 25.3642C24.6526 25.0752 24.8183 24.6823 24.8212 24.2714L24.8341 22.5513Z" fill="white"/>
<path d="M1.52699 22.4319H0.500032V24.1594C0.498336 24.4976 0.563303 24.8329 0.691225 25.146C0.819146 25.4591 1.00752 25.744 1.24558 25.9844C1.48365 26.2248 1.76674 26.4159 2.0787 26.5469C2.39066 26.6779 2.72539 26.7462 3.06375 26.7479H4.6778V25.7213H3.06375C2.65274 25.7184 2.25964 25.5527 1.97056 25.2607C1.68149 24.9686 1.52 24.5739 1.52147 24.1631L1.52699 22.4319Z" fill="white"/>
<path d="M13.3045 25.369H12.8076V26.6365H12.4266V25.369H11.9297V25.0452H13.3045V25.369Z" fill="white"/>
<path d="M13.7733 25.3757H13.5635L13.1328 25.0225H13.5285L13.7733 25.3757ZM13.7365 26.6377H13.3684V25.4548H13.7365V26.6377Z" fill="white"/>
<path d="M15.5863 26.6376H15.2348V25.9311C15.2407 25.8799 15.2297 25.8282 15.2035 25.7839C15.1631 25.7597 15.1159 25.7494 15.0691 25.7545H14.9329V26.6357H14.5777V25.7545H14.2851V26.6357H13.9336V25.4528H15.0931C15.2243 25.4427 15.3549 25.4799 15.4611 25.5576C15.5043 25.6014 15.5374 25.654 15.558 25.7118C15.5787 25.7697 15.5865 25.8313 15.5808 25.8925L15.5863 26.6376Z" fill="white"/>
<path d="M17.5763 25.4541L17.0555 26.637H16.7021L16.207 25.4541H16.599L16.8898 26.2047L17.199 25.4541H17.5763Z" fill="white"/>
<path d="M17.9989 25.3789H17.6309V25.0422H17.9989V25.3789ZM17.9989 26.6354H17.6309V25.4525H17.9989V26.6354Z" fill="white"/>
<path d="M19.1822 26.6377H18.724C18.644 26.6473 18.5629 26.6385 18.4868 26.6121C18.4108 26.5857 18.3417 26.5422 18.2849 26.4851C18.2282 26.428 18.1852 26.3587 18.1592 26.2825C18.1332 26.2063 18.1249 26.1252 18.135 26.0453C18.1252 25.9657 18.1337 25.8848 18.1598 25.8089C18.1859 25.733 18.229 25.6641 18.2858 25.6073C18.3425 25.5505 18.4115 25.5075 18.4874 25.4814C18.5634 25.4553 18.6443 25.4468 18.724 25.4566H19.1822V25.7436H18.7645C18.6958 25.7366 18.6267 25.7501 18.5657 25.7823C18.5488 25.797 18.5357 25.8155 18.5274 25.8363C18.5191 25.8571 18.5158 25.8796 18.5178 25.9018H19.1822V26.1925H18.5178C18.5163 26.2139 18.519 26.2353 18.526 26.2555C18.533 26.2758 18.544 26.2944 18.5583 26.3103C18.6207 26.3441 18.6922 26.3576 18.7626 26.3489H19.1822V26.6377ZM19.1325 25.3757H18.9246L18.7516 25.223L18.5767 25.3757H18.3706L18.6135 25.0225H18.8896L19.1325 25.3757ZM18.9043 27.0756H18.5951V26.7463H18.9043V27.0756Z" fill="white"/>
<path d="M20.2939 26.6375H19.865C19.8178 26.6405 19.7705 26.6405 19.7233 26.6375C19.6808 26.6273 19.639 26.6144 19.5982 26.5988C19.5297 26.5745 19.4671 26.5363 19.4141 26.4866C19.3877 26.4602 19.3648 26.4306 19.346 26.3983C19.3239 26.3629 19.3042 26.326 19.2871 26.2879C19.2722 26.2505 19.2611 26.2117 19.254 26.172C19.2336 26.0485 19.245 25.9219 19.2871 25.8041C19.3165 25.7282 19.3595 25.6583 19.4141 25.598C19.4674 25.5509 19.5301 25.5157 19.5982 25.495C19.6822 25.4694 19.7699 25.4576 19.8577 25.46H20.2865V25.7562H19.946C19.8887 25.7547 19.8313 25.7591 19.7749 25.7691C19.7377 25.7771 19.7034 25.7949 19.6755 25.8206C19.6484 25.8524 19.6281 25.8893 19.6157 25.9291C19.6034 25.969 19.5993 26.0109 19.6037 26.0524C19.6026 26.1062 19.6132 26.1596 19.635 26.2088C19.6543 26.2512 19.6848 26.2875 19.7233 26.3137L19.7933 26.3376H19.8503H19.946H20.2865L20.2939 26.6375Z" fill="white"/>
<path d="M7.28233 26.1993C7.28529 26.259 7.27513 26.3185 7.25255 26.3739C7.22997 26.4292 7.19553 26.4788 7.15165 26.5194C7.0469 26.601 6.91622 26.6422 6.78357 26.6353H5.99219V26.3152H6.64738C6.7056 26.3195 6.7638 26.3067 6.81486 26.2784C6.8329 26.2636 6.84715 26.2446 6.85643 26.2232C6.86571 26.2018 6.86976 26.1784 6.86823 26.1551C6.86954 26.1323 6.86557 26.1095 6.85663 26.0884C6.8477 26.0674 6.83404 26.0486 6.8167 26.0337C6.76632 26.0018 6.70675 25.9876 6.64738 25.9932H6.11366V25.6768H6.63818C6.69783 25.6816 6.75754 25.6681 6.80934 25.6382C6.8269 25.6239 6.84064 25.6055 6.84932 25.5847C6.85799 25.5638 6.86133 25.5411 6.85903 25.5186C6.86055 25.4965 6.85685 25.4743 6.84822 25.4538C6.83959 25.4334 6.82627 25.4152 6.80934 25.4009C6.78929 25.3854 6.76601 25.3747 6.74124 25.3696C6.70696 25.3664 6.67246 25.3664 6.63818 25.3696H5.99219V25.0495H6.75044C6.89119 25.0394 7.03123 25.0769 7.14798 25.1562C7.19503 25.1968 7.23175 25.248 7.25511 25.3055C7.27847 25.3631 7.2878 25.4254 7.28233 25.4873C7.28357 25.5574 7.26643 25.6265 7.23263 25.6878C7.19691 25.7466 7.15076 25.7984 7.09644 25.8405C7.15177 25.8736 7.19747 25.9205 7.22896 25.9767C7.2661 26.0449 7.28451 26.1217 7.28233 26.1993Z" fill="white"/>
<path d="M8.86207 26.1463C8.86623 26.2202 8.85153 26.2939 8.81933 26.3605C8.78713 26.4271 8.7385 26.4845 8.67802 26.5271C8.52 26.6215 8.33729 26.6664 8.1535 26.6559C8.04611 26.665 7.93798 26.6524 7.83555 26.6189C7.73311 26.5854 7.63846 26.5317 7.5572 26.4609C7.48816 26.3771 7.43636 26.2805 7.40478 26.1766C7.37319 26.0727 7.36245 25.9637 7.37316 25.8556C7.36354 25.7446 7.37688 25.6327 7.41234 25.527C7.4478 25.4213 7.50463 25.324 7.57929 25.2412C7.756 25.0943 7.98344 25.023 8.2124 25.0425H8.78477V25.3626H8.20503C8.09429 25.353 7.98367 25.3823 7.89216 25.4454C7.86081 25.472 7.83674 25.5062 7.82223 25.5447C7.80474 25.5918 7.796 25.6417 7.79646 25.6919H8.31362C8.46152 25.6815 8.60862 25.721 8.7314 25.8041C8.77787 25.8474 8.81381 25.9007 8.83646 25.96C8.85911 26.0194 8.86787 26.0831 8.86207 26.1463ZM8.44981 26.1647C8.45138 26.1434 8.4486 26.1219 8.44164 26.1017C8.43468 26.0814 8.42369 26.0628 8.40932 26.047C8.37518 26.0209 8.33253 26.0084 8.2897 26.012H7.79278C7.78977 26.0573 7.79641 26.1027 7.81228 26.1452C7.82814 26.1877 7.85286 26.2263 7.8848 26.2585C7.96652 26.3217 8.06898 26.3519 8.17191 26.3432C8.24583 26.3491 8.31991 26.3338 8.3854 26.299C8.40671 26.284 8.42382 26.2637 8.4351 26.2402C8.44637 26.2167 8.45144 26.1907 8.44981 26.1647Z" fill="white"/>
<path d="M10.3185 26.1528C10.3237 26.2213 10.3131 26.29 10.2875 26.3538C10.262 26.4176 10.2223 26.4746 10.1713 26.5207C10.0515 26.6095 9.9042 26.6531 9.75536 26.644H8.91797V26.3239H9.68359C9.73892 26.3289 9.7944 26.316 9.84186 26.2871C9.85784 26.2707 9.87007 26.251 9.8777 26.2294C9.88532 26.2078 9.88817 26.1848 9.88603 26.162C9.88847 26.1386 9.88578 26.115 9.87815 26.0927C9.87052 26.0705 9.85813 26.0502 9.84186 26.0332C9.79506 26.0026 9.73921 25.989 9.68359 25.9946H8.91797V25.0508H10.2394V25.3709H9.30998V25.6763H9.82714C9.96152 25.6679 10.0938 25.7129 10.1952 25.8014C10.2379 25.845 10.2711 25.897 10.2928 25.9541C10.3126 26.0184 10.3213 26.0856 10.3185 26.1528Z" fill="white"/>
<path fill-rule="evenodd" clip-rule="evenodd" d="M11.7258 26.8002L11.0872 26.6162L10.502 27.1516C10.502 27.1516 11.2289 27.3484 11.3338 27.3834C11.7019 27.4827 11.805 27.3834 11.9099 27.2804C12.1455 26.9676 11.7258 26.8002 11.7258 26.8002Z" fill="white"/>
<path fill-rule="evenodd" clip-rule="evenodd" d="M11.3847 25.2569C11.2264 24.8595 10.7535 24.7344 10.2915 24.7234C10.2716 24.7244 10.2526 24.7323 10.238 24.7459C10.2234 24.7595 10.214 24.7778 10.2116 24.7976C10.2092 24.8175 10.2138 24.8375 10.2247 24.8542C10.2357 24.8709 10.2521 24.8832 10.2713 24.889C10.4995 24.9442 10.8234 25.0932 10.851 25.3599C10.8952 25.7831 10.5436 26.1492 10.2565 26.4104L10.2381 26.427C9.82323 26.7867 9.33447 27.0511 8.80628 27.2015C8.62285 27.259 8.43423 27.2984 8.24311 27.3192C8.10086 27.3343 7.95722 27.33 7.81613 27.3063C7.70887 27.2885 7.60512 27.2537 7.50878 27.2033C7.43258 27.1634 7.36305 27.1119 7.30265 27.0506C7.25442 27.0025 7.21294 26.948 7.17934 26.8887C7.16463 26.8652 7.15171 26.8406 7.14069 26.8151L7.12413 26.7728C7.11929 26.7632 7.11376 26.754 7.10757 26.7452C7.08773 26.7165 7.0581 26.696 7.02423 26.6875C6.99035 26.6791 6.95455 26.6832 6.92352 26.6992C6.903 26.7175 6.88787 26.7411 6.87976 26.7673C6.87165 26.7936 6.87087 26.8216 6.87751 26.8483C6.9084 27.0178 6.97082 27.18 7.06155 27.3266C7.21815 27.5584 7.45692 27.7221 7.72963 27.7847C8.00305 27.8447 8.28548 27.8516 8.5615 27.8049C8.80609 27.7686 9.04736 27.7126 9.28295 27.6375C9.61504 27.5333 9.93281 27.388 10.2289 27.2052C10.5955 26.9948 10.9125 26.7081 11.1583 26.3644C11.3011 26.1552 11.389 25.9136 11.4142 25.6616C11.4312 25.5261 11.4212 25.3885 11.3847 25.2569Z" fill="white"/>
<path fill-rule="evenodd" clip-rule="evenodd" d="M7.29492 26.7374C7.60963 27.707 9.34516 26.8681 9.50343 26.6841C8.10655 27.4715 7.29492 26.7374 7.29492 26.7374Z" fill="white"/>
<path opacity="0.1" d="M26.5014 12.3464H1.10352V21.1771H26.5014V12.3464Z" fill="white"/>
</svg>
