<svg width="20" height="20" viewBox="0 0 20 20" fill="none" xmlns="http://www.w3.org/2000/svg">
<path d="M8.33341 14.1251H5.17508C2.36675 14.1251 1.66675 13.4251 1.66675 10.6167V5.61673C1.66675 2.8084 2.36675 2.1084 5.17508 2.1084H13.9501C16.7584 2.1084 17.4584 2.8084 17.4584 5.61673" stroke="#474747" stroke-linecap="round" stroke-linejoin="round"/>
<path d="M8.33325 17.8917V14.125" stroke="#474747" stroke-linecap="round" stroke-linejoin="round"/>
<path d="M1.66675 10.792H8.33341" stroke="#474747" stroke-linecap="round" stroke-linejoin="round"/>
<path d="M5.6167 17.8916H8.33337" stroke="#474747" stroke-linecap="round" stroke-linejoin="round"/>
<path d="M18.3333 10.6669V15.4252C18.3333 17.4002 17.8417 17.8919 15.8667 17.8919H12.9083C10.9333 17.8919 10.4417 17.4002 10.4417 15.4252V10.6669C10.4417 8.69186 10.9333 8.2002 12.9083 8.2002H15.8667C17.8417 8.2002 18.3333 8.69186 18.3333 10.6669Z" stroke="#474747" stroke-linecap="round" stroke-linejoin="round"/>
<path d="M14.3703 15.2087H14.3778" stroke="#474747" stroke-width="2" stroke-linecap="round" stroke-linejoin="round"/>
</svg>
