<svg width="20" height="20" viewBox="0 0 20 20" fill="none" xmlns="http://www.w3.org/2000/svg">
<path d="M15.3917 14.0253L15.7167 16.6587C15.8 17.3503 15.0584 17.8336 14.4667 17.4753L10.975 15.4003C10.5917 15.4003 10.2167 15.3753 9.85004 15.3253C10.4667 14.6003 10.8334 13.6836 10.8334 12.692C10.8334 10.3253 8.78337 8.40868 6.25004 8.40868C5.28337 8.40868 4.39171 8.68366 3.65004 9.16699C3.62504 8.95866 3.6167 8.75032 3.6167 8.53365C3.6167 4.74198 6.90837 1.66699 10.975 1.66699C15.0417 1.66699 18.3334 4.74198 18.3334 8.53365C18.3334 10.7837 17.175 12.7753 15.3917 14.0253Z" stroke="#474747" stroke-linecap="round" stroke-linejoin="round"/>
<path d="M10.8334 12.6915C10.8334 13.6832 10.4668 14.5999 9.85009 15.3249C9.02509 16.3249 7.71675 16.9665 6.25008 16.9665L4.07508 18.2582C3.70841 18.4832 3.24175 18.1748 3.29175 17.7498L3.50008 16.1082C2.38341 15.3332 1.66675 14.0915 1.66675 12.6915C1.66675 11.2248 2.45009 9.93318 3.65009 9.16651C4.39175 8.68318 5.28341 8.4082 6.25008 8.4082C8.78342 8.4082 10.8334 10.3248 10.8334 12.6915Z" stroke="#474747" stroke-linecap="round" stroke-linejoin="round"/>
</svg>
