<svg width="30" height="30" viewBox="0 0 30 30" fill="none" xmlns="http://www.w3.org/2000/svg">
<path d="M21.9695 15.248C21.9695 16.0413 21.8373 16.805 21.5954 17.5167L20.4505 16.3718C20.5254 16.0019 20.5631 15.6254 20.563 15.248V13.8415C20.563 13.655 20.6371 13.4762 20.769 13.3443C20.9009 13.2124 21.0797 13.1383 21.2663 13.1383C21.4528 13.1383 21.6316 13.2124 21.7635 13.3443C21.8954 13.4762 21.9695 13.655 21.9695 13.8415V15.248ZM14.937 20.874C16.0875 20.874 17.1565 20.5294 18.0482 19.9359L19.0581 20.9472C18.054 21.6752 16.8745 22.1233 15.6403 22.2453V25.0935H19.8598C20.0463 25.0935 20.2251 25.1676 20.357 25.2995C20.4889 25.4314 20.563 25.6102 20.563 25.7968C20.563 25.9833 20.4889 26.1621 20.357 26.294C20.2251 26.4259 20.0463 26.5 19.8598 26.5H10.0143C9.82777 26.5 9.6489 26.4259 9.51701 26.294C9.38513 26.1621 9.31104 25.9833 9.31104 25.7968C9.31104 25.6102 9.38513 25.4314 9.51701 25.2995C9.6489 25.1676 9.82777 25.0935 10.0143 25.0935H14.2338V22.2453C12.4991 22.071 10.8911 21.2586 9.72156 19.9656C8.55207 18.6727 7.90452 16.9914 7.90454 15.248V13.8415C7.90454 13.655 7.97863 13.4762 8.11052 13.3443C8.2424 13.2124 8.42128 13.1383 8.60779 13.1383C8.7943 13.1383 8.97318 13.2124 9.10506 13.3443C9.23694 13.4762 9.31104 13.655 9.31104 13.8415V15.248C9.31104 16.7401 9.90377 18.1711 10.9588 19.2262C12.0139 20.2813 13.4449 20.874 14.937 20.874ZM19.1565 8.21555V15.0778L10.9398 6.8611C11.2618 5.91487 11.9091 5.11361 12.7666 4.59997C13.624 4.08633 14.6359 3.89364 15.6221 4.05621C16.6083 4.21878 17.5049 4.72605 18.1521 5.48772C18.7993 6.2494 19.1552 7.21603 19.1565 8.21555Z" fill="#333333"/>
<path d="M17.0269 18.9148L10.7174 12.6038V15.248C10.7172 15.9869 10.911 16.7128 11.2794 17.3533C11.6478 17.9937 12.1779 18.5262 12.8168 18.8975C13.4556 19.2687 14.1807 19.4657 14.9195 19.4687C15.6584 19.4718 16.3851 19.2807 17.0269 18.9148ZM6.4979 5.40255C6.22292 5.67753 6.22292 6.12336 6.4979 6.39835L22.38 22.2805C22.655 22.5555 23.1009 22.5555 23.3758 22.2805C23.6508 22.0055 23.6508 21.5597 23.3758 21.2847L7.4937 5.40255C7.21872 5.12757 6.77288 5.12757 6.4979 5.40255Z" fill="#333333"/>
</svg>
