<svg width="30" height="30" viewBox="0 0 30 30" fill="none" xmlns="http://www.w3.org/2000/svg">
<path d="M10.8125 8.21875C10.8125 7.09987 11.257 6.02681 12.0481 5.23564C12.8393 4.44447 13.9124 4 15.0312 4C16.1501 4 17.2232 4.44447 18.0144 5.23564C18.8055 6.02681 19.25 7.09987 19.25 8.21875V15.25C19.25 16.3689 18.8055 17.4419 18.0144 18.2331C17.2232 19.0243 16.1501 19.4688 15.0312 19.4688C13.9124 19.4688 12.8393 19.0243 12.0481 18.2331C11.257 17.4419 10.8125 16.3689 10.8125 15.25V8.21875Z" fill="white"/>
<path d="M8.70312 13.1406C8.88961 13.1406 9.06845 13.2147 9.20031 13.3466C9.33217 13.4784 9.40625 13.6573 9.40625 13.8438V15.25C9.40625 16.7418 9.99888 18.1726 11.0538 19.2275C12.1087 20.2824 13.5394 20.875 15.0312 20.875C16.5231 20.875 17.9538 20.2824 19.0087 19.2275C20.0636 18.1726 20.6562 16.7418 20.6562 15.25V13.8438C20.6562 13.6573 20.7303 13.4784 20.8622 13.3466C20.9941 13.2147 21.1729 13.1406 21.3594 13.1406C21.5459 13.1406 21.7247 13.2147 21.8566 13.3466C21.9884 13.4784 22.0625 13.6573 22.0625 13.8438V15.25C22.0625 16.9931 21.4151 18.674 20.2458 19.9668C19.0765 21.2595 17.4687 22.0718 15.7344 22.2461V25.0938H19.9531C20.1396 25.0938 20.3184 25.1678 20.4503 25.2997C20.5822 25.4316 20.6562 25.6104 20.6562 25.7969C20.6562 25.9834 20.5822 26.1622 20.4503 26.2941C20.3184 26.4259 20.1396 26.5 19.9531 26.5H10.1094C9.92289 26.5 9.74405 26.4259 9.61219 26.2941C9.48033 26.1622 9.40625 25.9834 9.40625 25.7969C9.40625 25.6104 9.48033 25.4316 9.61219 25.2997C9.74405 25.1678 9.92289 25.0938 10.1094 25.0938H14.3281V22.2461C12.5938 22.0718 10.986 21.2595 9.81671 19.9668C8.64742 18.674 7.99998 16.9931 8 15.25V13.8438C8 13.6573 8.07408 13.4784 8.20594 13.3466C8.3378 13.2147 8.51664 13.1406 8.70312 13.1406Z" fill="white"/>
</svg>
