<svg width="24" height="24" viewBox="0 0 24 24" fill="none" xmlns="http://www.w3.org/2000/svg">
<path d="M11.826 0.52002C9.23716 0.52002 7.13038 2.52776 7.13038 4.99511V11.52C7.13038 13.9878 9.23716 15.9951 11.826 15.9951C14.4149 15.9951 16.5217 13.9878 16.5217 11.52V4.99511C16.5217 2.52776 14.4149 0.52002 11.826 0.52002ZM11.826 15.0386C9.98116 15.0386 8.45508 13.7124 8.21142 11.9983H15.4401C15.197 13.7128 13.6709 15.0386 11.826 15.0386ZM15.4782 11.0418H8.17386V4.99511C8.17386 3.0548 9.81212 1.47654 11.826 1.47654C13.8399 1.47654 15.4782 3.0548 15.4782 4.99511V11.0418Z" fill="#474747"/>
<path d="M19.1304 9.12872C18.8424 9.12872 18.6086 9.34298 18.6086 9.60698V11.52C18.6086 14.9482 15.5659 17.7374 11.826 17.7374C8.0862 17.7374 5.04342 14.9482 5.04342 11.52V9.60698C5.04342 9.34298 4.80968 9.12872 4.52168 9.12872C4.23368 9.12872 3.99994 9.34298 3.99994 9.60698V11.52C3.99994 15.3141 7.23211 18.4218 11.3043 18.6695V21.5635H8.69559C8.40759 21.5635 8.17385 21.7778 8.17385 22.0418C8.17385 22.3058 8.40759 22.52 8.69559 22.52H14.9565C15.2445 22.52 15.4782 22.3058 15.4782 22.0418C15.4782 21.7778 15.2445 21.5635 14.9565 21.5635H12.3478V18.6695C16.4199 18.4218 19.6521 15.3141 19.6521 11.52V9.60698C19.6521 9.34298 19.4184 9.12872 19.1304 9.12872Z" fill="#474747"/>
<path d="M11.826 0.52002C9.23716 0.52002 7.13038 2.52776 7.13038 4.99511V11.52C7.13038 13.9878 9.23716 15.9951 11.826 15.9951C14.4149 15.9951 16.5217 13.9878 16.5217 11.52V4.99511C16.5217 2.52776 14.4149 0.52002 11.826 0.52002ZM11.826 15.0386C9.98116 15.0386 8.45508 13.7124 8.21142 11.9983H15.4401C15.197 13.7128 13.6709 15.0386 11.826 15.0386ZM15.4782 11.0418H8.17386V4.99511C8.17386 3.0548 9.81212 1.47654 11.826 1.47654C13.8399 1.47654 15.4782 3.0548 15.4782 4.99511V11.0418Z" stroke="#474747" stroke-width="0.5"/>
<path d="M19.1304 9.12872C18.8424 9.12872 18.6086 9.34298 18.6086 9.60698V11.52C18.6086 14.9482 15.5659 17.7374 11.826 17.7374C8.0862 17.7374 5.04342 14.9482 5.04342 11.52V9.60698C5.04342 9.34298 4.80968 9.12872 4.52168 9.12872C4.23368 9.12872 3.99994 9.34298 3.99994 9.60698V11.52C3.99994 15.3141 7.23211 18.4218 11.3043 18.6695V21.5635H8.69559C8.40759 21.5635 8.17385 21.7778 8.17385 22.0418C8.17385 22.3058 8.40759 22.52 8.69559 22.52H14.9565C15.2445 22.52 15.4782 22.3058 15.4782 22.0418C15.4782 21.7778 15.2445 21.5635 14.9565 21.5635H12.3478V18.6695C16.4199 18.4218 19.6521 15.3141 19.6521 11.52V9.60698C19.6521 9.34298 19.4184 9.12872 19.1304 9.12872Z" stroke="#474747" stroke-width="0.5"/>
</svg>
