<svg width="15" height="13" viewBox="0 0 15 13" fill="none" xmlns="http://www.w3.org/2000/svg">
<g clip-path="url(#clip0_1171_19988)">
<path d="M2.8125 6.5H5.625V7.4375H2.8125V6.5ZM2.8125 4.625H7.5V5.5625H2.8125V4.625ZM2.8125 2.75H7.5V3.6875H2.8125V2.75Z" fill="white"/>
<path d="M6.5625 11.1875H1.875V1.8125H13.125V6.5H14.0625V1.8125C14.0625 1.56386 13.9637 1.3254 13.7879 1.14959C13.6121 0.973772 13.3736 0.875 13.125 0.875H1.875C1.62636 0.875 1.3879 0.973772 1.21209 1.14959C1.03627 1.3254 0.9375 1.56386 0.9375 1.8125V11.1875C0.9375 11.4361 1.03627 11.6746 1.21209 11.8504C1.3879 12.0262 1.62636 12.125 1.875 12.125H6.5625V11.1875Z" fill="white"/>
<path d="M10.3125 10.9953L9.09844 9.78125L8.4375 10.4422L10.3125 12.3172L14.0625 8.56719L13.4016 7.90625L10.3125 10.9953Z" fill="white"/>
</g>
<defs>
<clipPath id="clip0_1171_19988">
<rect width="15" height="13" fill="white"/>
</clipPath>
</defs>
</svg>
