<svg width="15" height="15" viewBox="0 0 15 15" fill="none" xmlns="http://www.w3.org/2000/svg">
<g clip-path="url(#clip0_1171_19970)">
<path d="M10.3709 10.8333H13.6459C13.3709 7.20413 11.8084 4.94996 9.80419 3.61663L10.7167 1.62496C10.7443 1.56176 10.7557 1.4927 10.7501 1.42398C10.7444 1.35526 10.7217 1.28902 10.6842 1.23121C10.6466 1.17339 10.5952 1.1258 10.5347 1.09272C10.4742 1.05963 10.4065 1.04207 10.3375 1.04163H4.62502C4.55607 1.04207 4.4883 1.05963 4.4278 1.09272C4.3673 1.1258 4.31596 1.17339 4.27838 1.23121C4.2408 1.28902 4.21816 1.35526 4.21248 1.42398C4.2068 1.4927 4.21827 1.56176 4.24585 1.62496L4.74585 2.70829H8.96252L8.58752 3.54163H7.81669C8.0521 4.17465 8.22515 4.82914 8.33335 5.49579C8.40345 5.90932 8.44797 6.32678 8.46669 6.74579L7.80835 7.20829C7.81014 6.66935 7.76553 6.13125 7.67502 5.59996C7.55989 4.89287 7.36128 4.20193 7.08335 3.54163H6.66669C6.28216 4.02749 5.93664 4.54298 5.63335 5.08329C5.38881 5.54677 5.18123 6.02882 5.01252 6.52496L4.44169 6.14579C4.60831 5.66627 4.81313 5.20089 5.05419 4.75413C5.29775 4.33518 5.56485 3.93037 5.85419 3.54163H5.12502L5.15835 3.61246C2.95002 5.08329 1.27085 7.66663 1.27085 11.9791C1.26522 12.0698 1.27761 12.1606 1.3073 12.2465C1.33699 12.3323 1.3834 12.4114 1.44384 12.4792C1.50427 12.547 1.57755 12.6022 1.65942 12.6415C1.7413 12.6808 1.83015 12.7035 1.92085 12.7083H5.25419C5.11106 12.5593 5.01223 12.3735 4.96878 12.1715C4.92533 11.9695 4.93898 11.7595 5.00818 11.5648C5.07739 11.3702 5.19943 11.1986 5.36063 11.0694C5.52182 10.9402 5.71581 10.8585 5.92085 10.8333C5.82107 10.6641 5.76787 10.4714 5.76669 10.275C5.76669 9.97659 5.88521 9.69044 6.09619 9.47946C6.30717 9.26849 6.59332 9.14996 6.89169 9.14996H9.39169C9.69005 9.14996 9.9762 9.26849 10.1872 9.47946C10.3982 9.69044 10.5167 9.97659 10.5167 10.275C10.5188 10.4708 10.4685 10.6636 10.3709 10.8333Z" fill="white"/>
<path d="M9.00033 11.875C9.00033 11.7645 8.95643 11.6586 8.87829 11.5804C8.80015 11.5023 8.69417 11.4584 8.58366 11.4584H6.08366C5.97315 11.4584 5.86717 11.5023 5.78903 11.5804C5.71089 11.6586 5.66699 11.7645 5.66699 11.875C5.66699 11.9855 5.71089 12.0915 5.78903 12.1697C5.86717 12.2478 5.97315 12.2917 6.08366 12.2917H8.58366C8.69417 12.2917 8.80015 12.2478 8.87829 12.1697C8.95643 12.0915 9.00033 11.9855 9.00033 11.875Z" fill="white"/>
<path d="M9.39128 9.79163H6.89128C6.78077 9.79163 6.67479 9.83552 6.59665 9.91366C6.51851 9.9918 6.47461 10.0978 6.47461 10.2083C6.47461 10.3188 6.51851 10.4248 6.59665 10.5029C6.67479 10.5811 6.78077 10.625 6.89128 10.625H9.39128C9.50178 10.625 9.60776 10.5811 9.6859 10.5029C9.76404 10.4248 9.80794 10.3188 9.80794 10.2083C9.80794 10.0978 9.76404 9.9918 9.6859 9.91366C9.60776 9.83552 9.50178 9.79163 9.39128 9.79163Z" fill="white"/>
<path d="M9.16667 13.125H6.66667C6.55616 13.125 6.45018 13.1689 6.37204 13.247C6.2939 13.3252 6.25 13.4312 6.25 13.5417C6.25 13.6522 6.2939 13.7582 6.37204 13.8363C6.45018 13.9144 6.55616 13.9583 6.66667 13.9583H9.16667C9.27717 13.9583 9.38315 13.9144 9.46129 13.8363C9.53943 13.7582 9.58333 13.6522 9.58333 13.5417C9.58333 13.4312 9.53943 13.3252 9.46129 13.247C9.38315 13.1689 9.27717 13.125 9.16667 13.125Z" fill="white"/>
<path d="M13.6253 13.125H10.7087C10.5982 13.125 10.4922 13.1689 10.414 13.247C10.3359 13.3252 10.292 13.4312 10.292 13.5417C10.292 13.6522 10.3359 13.7582 10.414 13.8363C10.4922 13.9144 10.5982 13.9583 10.7087 13.9583H13.6253C13.7358 13.9583 13.8418 13.9144 13.92 13.8363C13.9981 13.7582 14.042 13.6522 14.042 13.5417C14.042 13.4312 13.9981 13.3252 13.92 13.247C13.8418 13.1689 13.7358 13.125 13.6253 13.125Z" fill="white"/>
<path d="M14.0413 11.4584H11.1247C11.0142 11.4584 10.9082 11.5023 10.83 11.5804C10.7519 11.6586 10.708 11.7645 10.708 11.875C10.708 11.9855 10.7519 12.0915 10.83 12.1697C10.9082 12.2478 11.0142 12.2917 11.1247 12.2917H14.0413C14.1518 12.2917 14.2578 12.2478 14.336 12.1697C14.4141 12.0915 14.458 11.9855 14.458 11.875C14.458 11.7645 14.4141 11.6586 14.336 11.5804C14.2578 11.5023 14.1518 11.4584 14.0413 11.4584Z" fill="white"/>
</g>
<defs>
<clipPath id="clip0_1171_19970">
<rect width="15" height="15" fill="white"/>
</clipPath>
</defs>
</svg>
