<svg width="23" height="22" viewBox="0 0 23 22" fill="none" xmlns="http://www.w3.org/2000/svg">
<path d="M3.11509 0.411836C1.58491 2.06238 0.639495 4.09957 0.308444 6.46333C0.239633 6.96181 0.239633 8.53929 0.308444 9.06355C0.579202 11.0965 1.38722 13.0176 2.61639 14.5477C2.99899 15.0247 3.39863 15.4546 3.50173 15.5147C3.60909 15.5705 3.75523 15.4932 3.75523 15.3771C3.75523 15.3298 3.61335 15.1321 3.43292 14.9386C1.88144 13.2368 0.940287 11.2081 0.682305 8.99474C0.321444 5.92181 1.35718 2.81011 3.48896 0.549456C3.7512 0.265697 3.80275 0.145559 3.7039 0.0467148C3.59632 -0.0608721 3.49321 0.00368118 3.11509 0.411836Z" fill="#4C5BD4"/>
<path d="M18.7633 0.046751C18.6602 0.149855 18.7203 0.265958 19.0771 0.652819C20.5813 2.28611 21.5312 4.36185 21.7889 6.59672C21.8793 7.37896 21.8492 8.68546 21.7244 9.43341C21.3678 11.5522 20.5255 13.2713 19.0256 14.9346C18.699 15.3 18.6474 15.4289 18.8021 15.5105C18.9225 15.5793 19.0213 15.5062 19.3866 15.0936C20.1431 14.2297 20.6243 13.5248 21.093 12.5837C23.1044 8.53933 22.3825 3.60964 19.3008 0.356284C18.9653 -0.000318527 18.8664 -0.0563526 18.7633 0.046751Z" fill="#4C5BD4"/>
<path d="M4.91137 2.00193C4.3053 2.63803 3.73801 3.48908 3.38567 4.29261C2.3627 6.62207 2.40574 9.20078 3.50155 11.4702C3.88392 12.2652 4.40415 13.0174 4.99721 13.6277C5.19064 13.8339 5.32378 13.8812 5.42263 13.7824C5.51295 13.692 5.47844 13.6147 5.23771 13.3525C4.04284 12.063 3.34241 10.5933 3.08443 8.84843C2.98132 8.12649 3.01987 6.8758 3.17027 6.16237C3.48406 4.6667 4.18023 3.32143 5.2032 2.22113C5.35359 2.06222 5.47395 1.90308 5.47395 1.86879C5.47395 1.79146 5.35785 1.6711 5.28478 1.6711C5.25071 1.6711 5.08328 1.8215 4.91137 2.00193Z" fill="#4C5BD4"/>
<path d="M17.0615 1.73967C16.9499 1.84703 16.9799 1.9201 17.2207 2.17808C18.3983 3.43302 19.1375 4.96321 19.3782 6.66083C19.4513 7.18509 19.4598 8.20379 19.3955 8.71953C19.1848 10.4387 18.4498 12.0247 17.2765 13.3054C16.9885 13.6149 16.9542 13.6923 17.0445 13.7824C17.1563 13.8942 17.2852 13.8339 17.5517 13.5416C19.6147 11.3068 20.3324 8.1565 19.447 5.27252C19.0559 4.00032 18.3983 2.87425 17.5002 1.93736C17.2292 1.65808 17.1689 1.62805 17.0615 1.73967Z" fill="#4C5BD4"/>
<path d="M15.3941 3.3947C15.2522 3.47203 15.3082 3.61817 15.6003 3.94922C16.318 4.76149 16.7864 5.74142 16.9671 6.78142C17.0529 7.29716 17.0574 8.2428 16.9713 8.73702C16.7909 9.7815 16.2707 10.8515 15.5788 11.608C15.278 11.9346 15.2349 12.0937 15.4326 12.141C15.5357 12.1668 15.5788 12.1367 15.8323 11.8702C16.5457 11.1095 17.0699 10.0565 17.3194 8.8919C17.4312 8.38468 17.4312 7.18128 17.3194 6.63551C17.0959 5.50092 16.5544 4.43066 15.798 3.61413C15.5402 3.33441 15.5144 3.32163 15.3941 3.3947Z" fill="#4C5BD4"/>
<path d="M6.57042 3.72151C5.86125 4.55104 5.3928 5.48368 5.16933 6.52794C5.03171 7.16404 5.02746 8.37169 5.16508 8.98628C5.41006 10.1038 5.90854 11.088 6.61771 11.853C6.8497 12.1065 6.92703 12.158 7.01735 12.1495C7.1032 12.141 7.13346 12.111 7.14197 12.0164C7.15497 11.9218 7.10768 11.8445 6.91425 11.6338C6.32118 10.9934 5.8227 10.0738 5.59475 9.20974C5.42283 8.53509 5.3798 7.51638 5.4959 6.82447C5.67633 5.7457 6.14927 4.75299 6.87121 3.94923C7.09042 3.70851 7.15049 3.60541 7.14197 3.52382C7.13346 3.43349 7.10342 3.40772 6.99584 3.3992C6.8757 3.3862 6.83266 3.42072 6.57042 3.72151Z" fill="#4C5BD4"/>
<path d="M10.7266 3.82006C9.13634 4.04353 7.8341 5.15659 7.38717 6.67804C7.22377 7.22807 7.19374 7.98028 7.3141 8.54757C7.65792 10.2154 8.93439 11.41 10.6878 11.7066L10.847 11.7323V16.7393V21.7506L10.9716 21.8752C11.1435 22.0429 11.3239 22.0429 11.4958 21.8752L11.6205 21.7506V16.7393V11.7323L11.7839 11.7066C12.4242 11.5947 12.9272 11.4058 13.4384 11.0705C14.3238 10.4947 14.9384 9.59205 15.1533 8.54757C15.2737 7.98028 15.2436 7.22807 15.0802 6.67804C14.6719 5.28973 13.5761 4.24121 12.175 3.9059C11.7538 3.80728 11.1005 3.76851 10.7266 3.82006ZM11.8527 4.65385C13.46 4.96339 14.6291 6.5449 14.4141 8.1179C14.3067 8.91291 14.0488 9.42865 13.49 9.99169C13.1634 10.3225 13.0388 10.4128 12.695 10.5805C12.1362 10.8555 11.8354 10.9286 11.2338 10.9286C10.6365 10.9328 10.34 10.8598 9.77244 10.5805C9.03749 10.2239 8.39287 9.45869 8.16515 8.68519C8.04479 8.26829 8.00175 7.81262 8.0533 7.40873C8.28103 5.56071 10.0132 4.30577 11.8527 4.65385Z" fill="#4C5BD4"/>
<path d="M11.1133 5.24723C11.036 5.32455 11.053 5.48795 11.1433 5.5395C11.1906 5.56102 11.3152 5.58254 11.4183 5.58254C11.6934 5.58254 12.1233 5.72867 12.4198 5.91785C12.9786 6.28319 13.3394 6.84622 13.4298 7.4951C13.477 7.86044 13.5201 7.94629 13.6404 7.94629C13.7823 7.94629 13.8254 7.83444 13.7996 7.52088C13.7308 6.6956 13.2065 5.90484 12.4758 5.51798C11.9901 5.26448 11.2467 5.11409 11.1133 5.24723Z" fill="#4C5BD4"/>
</svg>
