<svg width="15" height="16" viewBox="0 0 15 16" fill="none" xmlns="http://www.w3.org/2000/svg">
<g clip-path="url(#clip0_1171_19933)">
<path d="M13.3954 3.53816L9.64544 13.2257C9.60835 13.3216 9.54814 13.4069 9.47017 13.474C9.3922 13.5411 9.29887 13.5879 9.19847 13.6103C9.09806 13.6327 8.99369 13.63 8.8946 13.6023C8.79551 13.5747 8.70477 13.523 8.63044 13.4519L6.51669 11.43L5.22044 12.7257C5.1767 12.7693 5.12102 12.7989 5.06044 12.8109C4.99985 12.8229 4.93707 12.8167 4.88003 12.793C4.82299 12.7693 4.77424 12.7293 4.73994 12.6779C4.70564 12.6265 4.68733 12.5662 4.68732 12.5044V9.68004L1.44294 6.57691C1.36244 6.4999 1.30399 6.40277 1.27364 6.29558C1.24329 6.18839 1.24214 6.07503 1.27032 5.96725C1.29849 5.85947 1.35496 5.76117 1.43388 5.68254C1.5128 5.60392 1.6113 5.54781 1.71919 5.52004L12.6567 2.70754C12.7679 2.67905 12.8848 2.68174 12.9946 2.71531C13.1043 2.74887 13.2027 2.81202 13.279 2.89783C13.3552 2.98363 13.4064 3.08878 13.4268 3.20173C13.4472 3.31468 13.4362 3.43108 13.3948 3.53816H13.3954ZM11.8748 4.25066L5.01982 8.72004L6.10419 9.75754L11.8748 4.25004V4.25066Z" fill="white"/>
</g>
<defs>
<clipPath id="clip0_1171_19933">
<rect width="15" height="15" fill="white" transform="translate(0 0.5)"/>
</clipPath>
</defs>
</svg>
