<svg width="12" height="13" viewBox="0 0 12 13" fill="none" xmlns="http://www.w3.org/2000/svg">
<path d="M11.0195 6.30713C11.0026 6.69645 10.9434 7.08789 10.8418 7.48145C10.7402 7.87077 10.5879 8.22835 10.3848 8.5542C10.1816 8.88005 9.91715 9.14242 9.59131 9.34131C9.26969 9.53597 8.88037 9.6333 8.42334 9.6333C8.13135 9.6333 7.87533 9.58252 7.65527 9.48096C7.43945 9.37516 7.26172 9.22493 7.12207 9.03027C6.98665 8.83561 6.89144 8.60075 6.83643 8.32568C6.78564 8.05062 6.77718 7.74382 6.81104 7.40527L7.13477 3.88867H8.06787L7.74414 7.40527C7.71875 7.71419 7.7251 7.96598 7.76318 8.16064C7.8055 8.35531 7.86898 8.50553 7.95361 8.61133C8.03825 8.71289 8.13346 8.78271 8.23926 8.8208C8.34928 8.85889 8.45508 8.87793 8.55664 8.87793C8.81055 8.87793 9.03695 8.81234 9.23584 8.68115C9.43473 8.54574 9.60189 8.36165 9.7373 8.12891C9.87695 7.89193 9.98486 7.61898 10.061 7.31006C10.1372 6.99691 10.1838 6.6626 10.2007 6.30713C10.2303 5.6766 10.2007 5.09684 10.1118 4.56787C10.0272 4.0389 9.88118 3.56917 9.67383 3.15869C9.4707 2.74821 9.2041 2.4012 8.87402 2.11768C8.54395 1.83415 8.15039 1.61833 7.69336 1.47021C7.23633 1.3221 6.7137 1.24805 6.12549 1.24805C5.59229 1.24805 5.09928 1.33057 4.64648 1.49561C4.19792 1.65641 3.79378 1.88916 3.43408 2.19385C3.07861 2.49854 2.77181 2.86458 2.51367 3.29199C2.25977 3.7194 2.05876 4.20182 1.91064 4.73926C1.76676 5.27246 1.68213 5.84798 1.65674 6.46582C1.62712 7.10059 1.66097 7.68457 1.7583 8.21777C1.85563 8.74674 2.01221 9.21859 2.22803 9.6333C2.44808 10.0522 2.72526 10.4056 3.05957 10.6934C3.39388 10.9854 3.78109 11.2054 4.22119 11.3535C4.6613 11.5059 5.15218 11.582 5.69385 11.582C6.06624 11.582 6.44287 11.5376 6.82373 11.4487C7.20882 11.3599 7.53044 11.2393 7.78857 11.0869L8.02979 11.8105C7.73356 12.001 7.36328 12.1427 6.91895 12.2358C6.47884 12.3289 6.06201 12.3755 5.66846 12.3755C5.02523 12.3755 4.43701 12.2866 3.90381 12.1089C3.37484 11.9354 2.90511 11.6794 2.49463 11.3408C2.08838 11.0065 1.74984 10.5981 1.479 10.1157C1.20817 9.63753 1.00928 9.09163 0.882324 8.47803C0.755371 7.86442 0.706706 7.19368 0.736328 6.46582C0.765951 5.77181 0.869629 5.118 1.04736 4.50439C1.22933 3.89079 1.47689 3.33431 1.79004 2.83496C2.10319 2.33561 2.47559 1.90609 2.90723 1.54639C3.3431 1.18245 3.83187 0.903158 4.37354 0.708496C4.91943 0.513835 5.51188 0.416504 6.15088 0.416504C6.80257 0.416504 7.3929 0.505371 7.92188 0.683105C8.45085 0.86084 8.91423 1.11686 9.31201 1.45117C9.71403 1.78548 10.0462 2.19385 10.3086 2.67627C10.571 3.15869 10.7614 3.70459 10.8799 4.31396C11.0026 4.92334 11.0492 5.58773 11.0195 6.30713ZM4.50049 6.84668C4.47087 7.1429 4.47087 7.40739 4.50049 7.64014C4.53011 7.87288 4.58724 8.06966 4.67188 8.23047C4.75651 8.39128 4.86654 8.514 5.00195 8.59863C5.1416 8.67904 5.30452 8.71924 5.49072 8.71924C5.61344 8.71924 5.74251 8.68962 5.87793 8.63037C6.01335 8.56689 6.14665 8.46956 6.27783 8.33838C6.40902 8.20719 6.53174 8.03581 6.646 7.82422C6.76025 7.61263 6.85547 7.35872 6.93164 7.0625L7.35059 7.51953C7.25326 7.86654 7.1263 8.17122 6.96973 8.43359C6.81738 8.69596 6.646 8.91602 6.45557 9.09375C6.26514 9.27148 6.06201 9.4069 5.84619 9.5C5.6346 9.58887 5.41878 9.6333 5.19873 9.6333C4.88981 9.6333 4.61898 9.56771 4.38623 9.43652C4.15348 9.30111 3.96517 9.11068 3.82129 8.86523C3.67741 8.61979 3.57585 8.3278 3.5166 7.98926C3.46159 7.64648 3.45312 7.26562 3.49121 6.84668C3.5293 6.40234 3.60758 5.99186 3.72607 5.61523C3.84456 5.23861 3.99056 4.90218 4.16406 4.60596C4.3418 4.30973 4.54069 4.05794 4.76074 3.85059C4.98503 3.64323 5.22201 3.48665 5.47168 3.38086C5.72135 3.27083 5.97738 3.21582 6.23975 3.21582C6.69678 3.21582 7.05648 3.28353 7.31885 3.41895C7.58122 3.55013 7.83089 3.70671 8.06787 3.88867L7.52832 4.51709C7.4056 4.3986 7.24479 4.28857 7.0459 4.18701C6.84701 4.08545 6.61214 4.03467 6.34131 4.03467C6.10856 4.03467 5.89062 4.09391 5.6875 4.2124C5.48438 4.33089 5.30029 4.50863 5.13525 4.74561C4.97445 4.98258 4.83903 5.27669 4.729 5.62793C4.61898 5.97493 4.54281 6.38118 4.50049 6.84668Z" fill="white"/>
</svg>
