<svg width="15" height="15" viewBox="0 0 15 15" fill="none" xmlns="http://www.w3.org/2000/svg">
<g clip-path="url(#clip0_1171_20002)">
<path d="M2.8125 7.5H5.625V8.4375H2.8125V7.5ZM2.8125 5.625H7.5V6.5625H2.8125V5.625ZM2.8125 3.75H7.5V4.6875H2.8125V3.75Z" fill="white"/>
<path d="M7.5 12.1875H1.875V2.8125H13.125V7.5H14.0625V2.8125C14.0625 2.56386 13.9637 2.3254 13.7879 2.14959C13.6121 1.97377 13.3736 1.875 13.125 1.875H1.875C1.62636 1.875 1.3879 1.97377 1.21209 2.14959C1.03627 2.3254 0.9375 2.56386 0.9375 2.8125V12.1875C0.9375 12.4361 1.03627 12.6746 1.21209 12.8504C1.3879 13.0262 1.62636 13.125 1.875 13.125H7.5V12.1875Z" fill="white"/>
<g clip-path="url(#clip1_1171_20002)">
<path d="M9.10707 12.1056L10.6064 10.6062M10.6064 10.6062L12.1058 9.1068M10.6064 10.6062L12.1058 12.1056M10.6064 10.6062L9.10707 9.1068" stroke="white" stroke-width="1.5" stroke-linecap="round"/>
</g>
</g>
<defs>
<clipPath id="clip0_1171_20002">
<rect width="15" height="15" fill="white"/>
</clipPath>
<clipPath id="clip1_1171_20002">
<rect width="6.36132" height="6.36132" fill="white" transform="translate(10.6064 6.10803) rotate(45)"/>
</clipPath>
</defs>
</svg>
