<svg width="15" height="16" viewBox="0 0 15 16" fill="none" xmlns="http://www.w3.org/2000/svg">
<path d="M7.5 8C9.22589 8 10.625 6.60089 10.625 4.875C10.625 3.14911 9.22589 1.75 7.5 1.75C5.77411 1.75 4.375 3.14911 4.375 4.875C4.375 6.60089 5.77411 8 7.5 8Z" stroke="white"/>
<path d="M10.625 9.25H10.845C11.302 9.25013 11.7431 9.4171 12.0856 9.71955C12.4281 10.022 12.6484 10.4391 12.705 10.8925L12.9494 12.845C12.9714 13.0209 12.9557 13.1994 12.9034 13.3688C12.8511 13.5382 12.7634 13.6945 12.6461 13.8274C12.5287 13.9602 12.3845 14.0666 12.2229 14.1395C12.0613 14.2124 11.886 14.25 11.7088 14.25H3.29129C3.11403 14.25 2.93878 14.2124 2.77719 14.1395C2.6156 14.0666 2.47135 13.9602 2.35402 13.8274C2.23669 13.6945 2.14897 13.5382 2.09667 13.3688C2.04436 13.1994 2.02868 13.0209 2.05066 12.845L2.29441 10.8925C2.3511 10.4389 2.57155 10.0216 2.91431 9.71914C3.25707 9.41666 3.69852 9.24982 4.15566 9.25H4.37504" stroke="white" stroke-linecap="round" stroke-linejoin="round"/>
</svg>
