<svg width="28" height="24" viewBox="0 0 28 24" fill="none" xmlns="http://www.w3.org/2000/svg">
<g clip-path="url(#clip0)">
<path d="M1.64602 8.57467C1.79786 8.42369 1.96577 8.28973 2.14689 8.17508C5.55795 5.95523 9.54822 4.75792 13.6584 4.72097C17.7289 4.73275 21.7351 5.92407 25.1924 8.1508C25.6192 8.43245 25.9687 8.81759 26.2074 9.26917C26.446 9.72074 26.5658 10.2236 26.5552 10.7292L26.5269 14.3028C26.5239 14.4837 26.4827 14.6611 26.4061 14.8235C26.3295 14.9858 26.2191 15.1293 26.0822 15.2448C25.9374 15.3616 25.7681 15.4448 25.5861 15.4884C25.4041 15.5319 25.2139 15.5349 25.0288 15.497L19.3751 14.3456C19.1587 14.298 18.9617 14.1825 18.8131 14.0161C18.6645 13.8498 18.5723 13.6412 18.5498 13.4213L18.2986 10.91C16.8299 10.3414 15.2718 10.0581 13.7093 10.0755C12.1238 10.0598 10.5568 10.3483 9.09324 10.9253L8.83027 13.4627C8.80772 13.6754 8.7208 13.8747 8.58109 14.0341C8.44137 14.1936 8.25547 14.3057 8.04809 14.3554L2.40198 15.5078C2.2141 15.5532 2.01743 15.5553 1.82669 15.5139C1.63595 15.4725 1.45609 15.3886 1.30059 15.2686C1.14508 15.1486 1.01796 14.9956 0.928756 14.821C0.839547 14.6464 0.790561 14.4548 0.785466 14.2605L0.764125 10.7273C0.760611 10.3249 0.836719 9.92754 0.98807 9.55809C1.13942 9.18865 1.36303 8.85443 1.64602 8.57467ZM25.2426 14.2611L25.2709 10.6875C25.2777 10.4039 25.2106 10.1218 25.076 9.86883C24.9415 9.61587 24.7442 9.40083 24.5035 9.24484C21.2646 7.15012 17.5091 6.02491 13.691 6.0052C9.82356 6.04051 6.06916 7.16788 2.86013 9.2575C2.61672 9.41517 2.4176 9.63165 2.28062 9.88756C2.14364 10.1435 2.07308 10.4308 2.07527 10.7238L2.09661 14.2569L7.54739 13.1434L7.82642 10.4149C7.8374 10.3107 7.87375 10.2114 7.9323 10.1255C7.99085 10.0397 8.06984 9.96994 8.16237 9.92237C9.88145 9.14421 11.7598 8.75948 13.6631 8.79569C15.5508 8.75224 17.4335 9.13593 19.1708 9.91813C19.2672 9.97419 19.3482 10.0538 19.4059 10.1493C19.4635 10.2449 19.496 10.3531 19.5001 10.4636L19.7717 13.1664L25.2426 14.2611Z" fill="white"/>
</g>
<defs>
<clipPath id="clip0">
<rect width="27.2" height="24" fill="white" transform="translate(0.400024)"/>
</clipPath>
</defs>
</svg>
