<svg width="41" height="40" viewBox="0 0 41 40" fill="none" xmlns="http://www.w3.org/2000/svg">
<rect x="0.5" width="40" height="40" rx="20" fill="#4C5BD4"/>
<path d="M12.4917 11.9917H15.5V11H11.5V15H12.4917V11.9917Z" fill="white"/>
<path d="M15.5 28.0083H12.4917V25H11.5V29H15.5V28.0083Z" fill="white"/>
<path d="M25.5 11.9917H28.5083V15H29.5V11H25.5V11.9917Z" fill="white"/>
<path d="M28.5083 28.0083H25.5V29H29.5V25H28.5083V28.0083Z" fill="white"/>
<path d="M19.5 13H21.5V14H19.5V13Z" fill="white"/>
<path d="M16.5132 20.1429V19H13.5V27H18.5V21.2857H14.4934V20.1429H16.5132ZM15.5199 23.5714H16.5132V24.7143H15.5199V23.5714Z" fill="white"/>
<path d="M27.5 13H22.1071V16.2991H21.0357V15.2115H18.8929V13H13.5V18.4743H17.8214V20.6495H18.8929V19.5619H19.9643V25H22.1071V23.9124H21.0357V18.4743H18.8929C18.8929 18.3626 18.8929 16.1813 18.8929 16.2991H19.9643V17.3867H22.1071V18.4743H27.5V13ZM16.75 16.2991H15.6786V15.2115H16.75V16.2991ZM25.3214 16.2991H24.25V15.2115H25.3214V16.2991Z" fill="white"/>
<path d="M27.5 19H26.5066V20.3333H25.4801V19H22.5V20.3333H24.4868V23H25.4801V21.6667H27.5V19Z" fill="white"/>
<path d="M22.5 22H23.5V23H22.5V22Z" fill="white"/>
<path d="M23.25 26H19.5V27H24.5V25H23.25V26Z" fill="white"/>
<path d="M27.5 27V23H26.511V24H24.5V25H26.511V27H27.5Z" fill="white"/>
</svg>
