<svg width="18" height="18" viewBox="0 0 18 18" fill="none" xmlns="http://www.w3.org/2000/svg">
<path d="M2 4V8H6" stroke="white" stroke-linecap="round" stroke-linejoin="round"/>
<path d="M16 14V10H12" stroke="white" stroke-linecap="round" stroke-linejoin="round"/>
<path d="M14.4027 6.99947C14.08 6.04375 13.5315 5.18927 12.8083 4.51577C12.0852 3.84227 11.2111 3.3717 10.2675 3.14797C9.32384 2.92424 8.34152 2.95464 7.41215 3.23633C6.48278 3.51803 5.63666 4.04184 4.95273 4.75889L2 7.66632M16 10.3337L13.0473 13.2411C12.3633 13.9582 11.5172 14.482 10.5878 14.7637C9.65848 15.0454 8.67616 15.0758 7.73255 14.852C6.78893 14.6283 5.91478 14.1577 5.19166 13.4842C4.46854 12.8107 3.92002 11.9563 3.59727 11.0005" stroke="white" stroke-linecap="round" stroke-linejoin="round"/>
</svg>
