<svg width="13" height="20" viewBox="0 0 13 20" fill="none" xmlns="http://www.w3.org/2000/svg">
<path d="M10.282 2.78603C10.852 2.25174 11.7856 2.65603 11.7856 3.43746V16.5589C11.7856 17.3403 10.8528 17.7446 10.282 17.2103L6.75561 13.906C6.52405 13.6891 6.21865 13.5683 5.90132 13.5682H3.7499C3.13421 13.5682 2.54375 13.3236 2.1084 12.8882C1.67305 12.4529 1.42847 11.8624 1.42847 11.2467V8.75246C1.42847 8.13678 1.67305 7.54631 2.1084 7.11096C2.54375 6.67561 3.13421 6.43103 3.7499 6.43103H5.90061C6.21847 6.43103 6.52418 6.3096 6.75561 6.09317L10.282 2.78603Z" fill="#474747"/>
</svg>
