<svg width="20" height="20" viewBox="0 0 20 20" fill="none" xmlns="http://www.w3.org/2000/svg">
<g clip-path="url(#clip0_2_6137)">
<path d="M15.0375 12.0001C15.039 12.2051 14.9766 12.4056 14.859 12.5736C14.7414 12.7416 14.5744 12.8688 14.3813 12.9376L10.3875 14.3876L8.9375 18.3813C8.86647 18.5727 8.73856 18.7377 8.57097 18.8543C8.40338 18.9709 8.20414 19.0333 8 19.0333C7.79587 19.0333 7.59662 18.9709 7.42903 18.8543C7.26144 18.7377 7.13354 18.5727 7.0625 18.3813L5.6125 14.3876L1.61875 12.9376C1.42737 12.8665 1.26232 12.7386 1.14577 12.571C1.02921 12.4034 0.966736 12.2042 0.966736 12.0001C0.966736 11.7959 1.02921 11.5967 1.14577 11.4291C1.26232 11.2615 1.42737 11.1336 1.61875 11.0626L5.6125 9.61256L7.0625 5.61881C7.13354 5.42743 7.26144 5.26238 7.42903 5.14583C7.59662 5.02927 7.79587 4.9668 8 4.9668C8.20414 4.9668 8.40338 5.02927 8.57097 5.14583C8.73856 5.26238 8.86647 5.42743 8.9375 5.61881L10.3875 9.61256L14.3813 11.0626C14.5744 11.1313 14.7414 11.2586 14.859 11.4266C14.9766 11.5946 15.039 11.795 15.0375 12.0001Z" fill="white"/>
</g>
<g clip-path="url(#clip1_2_6137)">
<path d="M19.3583 5.33337C19.3593 5.47008 19.3177 5.60371 19.2393 5.71571C19.1609 5.82771 19.0496 5.91252 18.9208 5.95837L16.2583 6.92504L15.2916 9.58754C15.2443 9.71513 15.159 9.82516 15.0473 9.90286C14.9355 9.98057 14.8027 10.0222 14.6666 10.0222C14.5305 10.0222 14.3977 9.98057 14.286 9.90286C14.1743 9.82516 14.089 9.71513 14.0416 9.58754L13.075 6.92504L10.4125 5.95837C10.2849 5.91102 10.1748 5.82575 10.0971 5.71402C10.0194 5.60229 9.97778 5.46946 9.97778 5.33337C9.97778 5.19728 10.0194 5.06445 10.0971 4.95273C10.1748 4.841 10.2849 4.75573 10.4125 4.70837L13.075 3.74171L14.0416 1.07921C14.089 0.951623 14.1743 0.841588 14.286 0.763884C14.3977 0.686181 14.5305 0.644531 14.6666 0.644531C14.8027 0.644531 14.9355 0.686181 15.0473 0.763884C15.159 0.841588 15.2443 0.951623 15.2916 1.07921L16.2583 3.74171L18.9208 4.70837C19.0496 4.75423 19.1609 4.83904 19.2393 4.95104C19.3177 5.06304 19.3593 5.19667 19.3583 5.33337Z" fill="white"/>
</g>
<defs>
<clipPath id="clip0_2_6137">
<rect width="16" height="16" fill="white" transform="translate(0 4)"/>
</clipPath>
<clipPath id="clip1_2_6137">
<rect width="10.6667" height="10.6667" fill="white" transform="translate(9.33331)"/>
</clipPath>
</defs>
</svg>
