<svg width="30" height="30" viewBox="0 0 30 30" fill="none" xmlns="http://www.w3.org/2000/svg">
<path d="M16.875 4.6875C16.875 4.50311 16.8206 4.32282 16.7186 4.16918C16.6167 4.01555 16.4717 3.89539 16.3018 3.82375C16.1319 3.75211 15.9446 3.73216 15.7634 3.7664C15.5822 3.80064 15.4152 3.88755 15.2831 4.01625L9.795 9.36H6.5625C5.81658 9.36 5.10121 9.65632 4.57376 10.1838C4.04632 10.7112 3.75 11.4266 3.75 12.1725V17.7788C3.75 18.5247 4.04632 19.24 4.57376 19.7675C5.10121 20.2949 5.81658 20.5913 6.5625 20.5913H9.79313L15.2812 25.9819C15.4131 26.1111 15.5801 26.1985 15.7615 26.2332C15.9428 26.2679 16.1303 26.2482 16.3005 26.1767C16.4707 26.1052 16.616 25.9851 16.7182 25.8313C16.8204 25.6776 16.875 25.4971 16.875 25.3125V4.6875ZM18.9581 9.72938C19.0348 9.63291 19.1297 9.55251 19.2374 9.49276C19.3452 9.433 19.4637 9.39508 19.5861 9.38115C19.7085 9.36722 19.8325 9.37755 19.9509 9.41157C20.0693 9.44558 20.1799 9.5026 20.2763 9.57938L20.28 9.58125L20.2838 9.585L20.2931 9.5925L20.3213 9.61688L20.4075 9.69188C20.475 9.75563 20.5669 9.84188 20.6737 9.95813C20.8856 10.1888 21.1612 10.5244 21.4331 10.9706C21.9788 11.8706 22.5075 13.2075 22.5075 14.9981C22.5075 16.7869 21.9788 18.1256 21.4331 19.0256C21.2144 19.3882 20.96 19.728 20.6737 20.04C20.5545 20.1695 20.4281 20.2922 20.295 20.4075L20.28 20.4206H20.2781C20.2781 20.4206 19.44 20.8762 18.96 20.2744C18.8057 20.0813 18.7338 19.835 18.7602 19.5892C18.7865 19.3434 18.9089 19.1179 19.1006 18.9619L19.1044 18.9581L19.1025 18.96L19.1062 18.9581H19.1044L19.1381 18.9281C19.1719 18.8963 19.2281 18.8438 19.2975 18.7688C19.4983 18.5482 19.6767 18.3083 19.83 18.0525C20.2238 17.4056 20.6325 16.3988 20.6325 14.9963C20.6325 13.5956 20.2238 12.5906 19.83 11.9456C19.6372 11.6274 19.4054 11.3345 19.14 11.0738C19.0375 10.9992 18.9511 10.9045 18.8862 10.7956C18.8213 10.6867 18.7792 10.5657 18.7623 10.4401C18.7455 10.3144 18.7544 10.1866 18.7883 10.0645C18.8223 9.94231 18.8807 9.82832 18.96 9.72938H18.9581ZM22.1494 5.82938C22.0534 5.74994 21.9425 5.69044 21.8233 5.65434C21.7041 5.61824 21.5788 5.60627 21.4549 5.61912C21.331 5.63198 21.2109 5.6694 21.1016 5.72921C20.9923 5.78902 20.896 5.87001 20.8184 5.96745C20.7408 6.0649 20.6833 6.17683 20.6495 6.29672C20.6156 6.41661 20.606 6.54205 20.6211 6.66571C20.6363 6.78937 20.6759 6.90877 20.7378 7.01692C20.7996 7.12508 20.8824 7.21982 20.9812 7.29563L21.0019 7.31438L21.0994 7.39875C21.1875 7.4775 21.3169 7.59938 21.4763 7.76437C21.795 8.09625 22.2262 8.595 22.6575 9.25313C23.52 10.5675 24.3825 12.5025 24.3825 15.0075C24.3873 17.0514 23.7871 19.051 22.6575 20.7544C22.2262 21.4106 21.795 21.9056 21.4763 22.2356C21.3255 22.3925 21.1678 22.5427 21.0037 22.6856L20.9831 22.7044H20.9812C20.792 22.861 20.6718 23.0856 20.6465 23.3299C20.6211 23.5742 20.6927 23.8187 20.8457 24.0108C20.9988 24.2029 21.2211 24.3273 21.4649 24.3571C21.7087 24.387 21.9545 24.3201 22.1494 24.1706L22.2113 24.12L22.3519 23.9981C22.47 23.8913 22.6331 23.7394 22.8263 23.5387C23.346 22.9984 23.8142 22.4109 24.225 21.7838C25.5547 19.7744 26.2611 17.417 26.2556 15.0075C26.2604 12.5958 25.554 10.2362 24.225 8.22375C23.8144 7.59586 23.3468 7.00712 22.8281 6.465C22.6321 6.26133 22.4269 6.06676 22.2131 5.88188L22.17 5.84625L22.1569 5.835L22.1531 5.83125L22.1494 5.82938ZM19.1062 11.0438L19.1025 11.0419L19.1062 11.0438Z" fill="white"/>
</svg>
