<svg width="30" height="30" viewBox="0 0 30 30" fill="none" xmlns="http://www.w3.org/2000/svg">
<path d="M19.0406 5.625H3.74998C3.2527 5.625 2.77579 5.82254 2.42416 6.17417C2.07253 6.52581 1.87498 7.00272 1.87498 7.5V22.5C1.87037 22.5906 1.87037 22.6813 1.87498 22.7719L19.0406 5.625ZM27.6187 7.60312C27.4697 7.53194 27.3045 7.50139 27.1399 7.51456C26.9753 7.52773 26.817 7.58416 26.6812 7.67812L21.5625 11.3063V9.7875L27.45 3.9C27.8228 3.52721 27.8228 2.92279 27.45 2.55C27.0772 2.17721 26.4728 2.17721 26.1 2.55L2.54998 26.1C2.17719 26.4728 2.17719 27.0772 2.54998 27.45C2.92277 27.8228 3.52719 27.8228 3.89998 27.45L6.97498 24.375H19.6875C20.1848 24.375 20.6617 24.1775 21.0133 23.8258C21.3649 23.4742 21.5625 22.9973 21.5625 22.5V18.6938L26.6437 22.3219C26.7837 22.4215 26.9483 22.4808 27.1196 22.4932C27.2909 22.5057 27.4623 22.4708 27.6152 22.3924C27.768 22.3141 27.8964 22.1952 27.9863 22.0489C28.0762 21.9025 28.1242 21.7343 28.125 21.5625V8.4375C28.1253 8.26535 28.0783 8.09642 27.989 7.94924C27.8997 7.80206 27.7716 7.68231 27.6187 7.60312Z" fill="#474747"/>
</svg>
