<svg width="22" height="18" viewBox="0 0 22 18" fill="none" xmlns="http://www.w3.org/2000/svg">
<path d="M20.5733 7.0634C18.4855 3.90722 15.012 1.85079 10.8298 1.85079C6.78846 1.85079 3.40876 3.77311 1.30092 6.75046L0 5.39813C2.45431 2.11008 6.29223 0 10.8298 0C15.5194 0 19.4646 2.2509 21.9055 5.73119L20.5733 7.0634ZM10.8454 4.62474C14.2542 4.62474 17.1243 6.25871 18.9013 8.78678L17.9312 9.75464C16.4112 7.46351 13.8876 5.96812 10.8454 5.96812C7.90609 5.96812 5.44731 7.36292 3.91616 9.52664L2.96842 8.54313C4.75438 6.15812 7.54398 4.62474 10.8454 4.62474ZM10.9974 8.32631C13.2439 8.32631 15.1304 9.42159 16.2995 11.107L15.3428 12.0726C14.404 10.5549 12.7856 9.56017 10.8276 9.56017C9.02595 9.56017 7.51268 10.4073 6.55376 11.7261L5.80719 10.9438C6.98516 9.35006 8.82254 8.32631 10.9974 8.32631ZM10.9863 11.7172C12.5174 11.7172 13.7602 12.96 13.7602 14.4911C13.7602 16.0223 12.5174 17.2696 10.9863 17.2696C9.45512 17.2696 8.21232 16.0245 8.21232 14.4934C8.21232 12.9622 9.45288 11.7172 10.9863 11.7172Z" fill="white"/>
</svg>
