<svg width="40" height="16" viewBox="0 0 40 16" fill="none" xmlns="http://www.w3.org/2000/svg">
<path d="M9.84769 3.71429H2.85861C2.63131 3.71429 2.41332 3.80459 2.2526 3.96534C2.09188 4.12608 2.00158 4.3441 2.00158 4.57143V11.4286C1.99947 11.47 1.99947 11.5115 2.00158 11.5529L9.84769 3.71429ZM13.7686 4.61857C13.7005 4.58603 13.625 4.57206 13.5497 4.57808C13.4745 4.58411 13.4022 4.6099 13.3401 4.65286L11.0004 6.31143V5.61714L13.6915 2.92567C13.8619 2.75527 13.8619 2.47902 13.6915 2.30861V2.30861C13.5211 2.13818 13.2448 2.13818 13.0744 2.30861L2.31007 13.0743C2.13969 13.2447 2.13969 13.521 2.31007 13.6914V13.6914C2.48048 13.8618 2.7568 13.8618 2.92721 13.6914L4.3327 12.2857H10.1434C10.3707 12.2857 10.5887 12.1954 10.7494 12.0347C10.9101 11.8739 11.0004 11.6559 11.0004 11.4286V9.68857L13.3229 11.3471C13.3869 11.3927 13.4621 11.4198 13.5404 11.4255C13.6188 11.4312 13.6971 11.4152 13.767 11.3794C13.8368 11.3436 13.8955 11.2892 13.9366 11.2223C13.9777 11.1554 13.9996 11.0785 14 11V5C14.0002 4.9213 13.9787 4.84408 13.9378 4.7768C13.897 4.70951 13.8385 4.65477 13.7686 4.61857Z" fill="white"/>
<path d="M35.717 8.13225C35.717 8.55533 35.6465 8.96265 35.5175 9.34221L34.9069 8.73161C34.9468 8.53433 34.9669 8.33354 34.9669 8.13225V7.38212C34.9669 7.28265 35.0064 7.18725 35.0767 7.11691C35.1471 7.04657 35.2425 7.00706 35.3419 7.00706C35.4414 7.00706 35.5368 7.04657 35.6072 7.11691C35.6775 7.18725 35.717 7.28265 35.717 7.38212V8.13225ZM31.9664 11.1328C32.58 11.1328 33.1501 10.949 33.6256 10.6324L34.1642 11.1718C33.6288 11.5601 32.9997 11.7991 32.3414 11.8642V13.3832H34.5918C34.6913 13.3832 34.7867 13.4227 34.857 13.493C34.9274 13.5634 34.9669 13.6588 34.9669 13.7582C34.9669 13.8577 34.9274 13.9531 34.857 14.0234C34.7867 14.0938 34.6913 14.1333 34.5918 14.1333H29.3409C29.2414 14.1333 29.146 14.0938 29.0757 14.0234C29.0053 13.9531 28.9658 13.8577 28.9658 13.7582C28.9658 13.6588 29.0053 13.5634 29.0757 13.493C29.146 13.4227 29.2414 13.3832 29.3409 13.3832H31.5913V11.8642C30.6661 11.7712 29.8085 11.3379 29.1848 10.6483C28.561 9.95873 28.2157 9.06206 28.2157 8.13225V7.38212C28.2157 7.28265 28.2552 7.18725 28.3256 7.11691C28.3959 7.04657 28.4913 7.00706 28.5908 7.00706C28.6902 7.00706 28.7856 7.04657 28.856 7.11691C28.9263 7.18725 28.9658 7.28265 28.9658 7.38212V8.13225C28.9658 8.92804 29.282 9.69124 29.8447 10.2539C30.4074 10.8167 31.1706 11.1328 31.9664 11.1328ZM34.2167 4.3816V8.04149L29.8345 3.65922C30.0062 3.15456 30.3515 2.72723 30.8088 2.45329C31.2661 2.17934 31.8058 2.07658 32.3317 2.16328C32.8577 2.24998 33.3359 2.52053 33.6811 2.92675C34.0262 3.33298 34.2161 3.84852 34.2167 4.3816V4.3816Z" fill="white"/>
<path d="M33.081 10.0878L29.716 6.72194V8.13219C29.7158 8.52624 29.8192 8.91342 30.0157 9.25499C30.2122 9.59657 30.4949 9.88055 30.8356 10.0786C31.1763 10.2765 31.563 10.3816 31.9571 10.3832C32.3512 10.3848 32.7387 10.283 33.081 10.0878ZM27.4656 2.88127C27.3189 3.02793 27.3189 3.2657 27.4656 3.41236L35.936 11.8828C36.0827 12.0295 36.3205 12.0295 36.4671 11.8828V11.8828C36.6138 11.7362 36.6138 11.4984 36.4671 11.3517L27.9967 2.88127C27.85 2.73461 27.6122 2.73461 27.4656 2.88127V2.88127Z" fill="white"/>
</svg>
