<svg width="25" height="22" viewBox="0 0 25 22" fill="none" xmlns="http://www.w3.org/2000/svg">
<path d="M21.9572 3.75098H7.50589C5.91213 3.75098 4.59961 5.04052 4.59961 6.62586V18.1263C4.59961 19.7116 5.91213 21.0012 7.50589 21.0012H21.9436C23.5373 21.0012 24.8499 19.774 24.8499 18.1887V6.62586C24.8499 5.04052 23.5523 3.75098 21.9572 3.75098ZM18.3407 6.62632C18.7666 6.62892 19.1822 6.75758 19.5351 6.99609C19.8879 7.23459 20.1623 7.57225 20.3235 7.96648C20.4847 8.36071 20.5255 8.79385 20.4408 9.21126C20.3561 9.62867 20.1498 10.0116 19.8477 10.3119C19.5456 10.6121 19.1614 10.8162 18.7435 10.8984C18.3255 10.9805 17.8927 10.937 17.4994 10.7735C17.1062 10.6099 16.7702 10.3335 16.5338 9.97919C16.2975 9.62488 16.1713 9.20851 16.1713 8.7826C16.1735 8.20909 16.4032 7.6599 16.8099 7.25555C17.2167 6.8512 17.7672 6.62473 18.3407 6.62586V6.62632ZM7.48668 19.564C6.68979 19.564 6.08697 18.9194 6.08697 18.1268V15.0878L10.3273 11.3008C10.7419 10.9361 11.2793 10.7422 11.8311 10.7581C12.383 10.774 12.9083 10.9986 13.3011 11.3865L16.2374 14.298L10.9405 19.5635L7.48668 19.564ZM23.3498 18.1263C23.3498 18.3152 23.3125 18.5023 23.2401 18.6768C23.1677 18.8513 23.0616 19.0098 22.9279 19.1433C22.7942 19.2767 22.6355 19.3826 22.4609 19.4547C22.2863 19.5268 22.0992 19.5638 21.9103 19.5635H12.9903L18.4785 14.1105C18.868 13.7819 19.3608 13.6011 19.8703 13.5997C20.3798 13.5983 20.8736 13.7765 21.2648 14.103L23.3498 15.8725V18.1263Z" fill="#474747"/>
<path d="M18.8498 0H3.84965C3.05399 0 2.29092 0.316075 1.7283 0.878691C1.16568 1.44131 0.849609 2.20438 0.849609 3.00004L0.849609 15.0002C0.850158 15.6653 1.07135 16.3115 1.47852 16.8374C1.8857 17.3633 2.45585 17.7393 3.09964 17.9065V5.62507C3.09964 4.72995 3.45522 3.8715 4.08816 3.23855C4.72111 2.60561 5.57956 2.25003 6.47468 2.25003H21.7561C21.589 1.60624 21.213 1.03609 20.6871 0.628915C20.1611 0.22174 19.515 0.000548687 18.8498 0Z" fill="#474747"/>
</svg>
