<?xml version="1.0" encoding="UTF-8"?>
<svg xmlns="http://www.w3.org/2000/svg" width="512" height="512" viewBox="0 0 128 128"><g><path d="M104.355,36.106H23.644A6.4,6.4,0,0,0,17.25,42.5v43a6.4,6.4,0,0,0,6.394,6.4h80.711a6.4,6.4,0,0,0,6.395-6.4v-43A6.4,6.4,0,0,0,104.355,36.106ZM107.25,85.5a2.9,2.9,0,0,1-2.895,2.9H23.644a2.9,2.9,0,0,1-2.894-2.9v-43a2.9,2.9,0,0,1,2.894-2.895h80.711A2.9,2.9,0,0,1,107.25,42.5Z"/><path d="M35.922,49.8a5.483,5.483,0,1,0-5.483,5.482A5.488,5.488,0,0,0,35.922,49.8Zm-7.466,0a1.983,1.983,0,1,1,1.983,1.982A1.985,1.985,0,0,1,28.456,49.8Z"/><path d="M47.22,55.278A5.482,5.482,0,1,0,41.737,49.8,5.488,5.488,0,0,0,47.22,55.278Zm0-7.464A1.982,1.982,0,1,1,45.237,49.8,1.984,1.984,0,0,1,47.22,47.814Z"/><path d="M64,55.278A5.482,5.482,0,1,0,58.518,49.8,5.488,5.488,0,0,0,64,55.278Zm0-7.464A1.982,1.982,0,1,1,62.018,49.8,1.984,1.984,0,0,1,64,47.814Z"/><path d="M80.78,55.278A5.482,5.482,0,1,0,75.3,49.8,5.489,5.489,0,0,0,80.78,55.278Zm0-7.464A1.982,1.982,0,1,1,78.8,49.8,1.985,1.985,0,0,1,80.78,47.814Z"/><path d="M97.56,44.314a5.482,5.482,0,1,0,5.483,5.482A5.488,5.488,0,0,0,97.56,44.314Zm0,7.464A1.982,1.982,0,1,1,99.543,49.8,1.984,1.984,0,0,1,97.56,51.778Z"/><path d="M32.678,62.979A5.483,5.483,0,1,0,38.161,57.5,5.489,5.489,0,0,0,32.678,62.979ZM38.161,61a1.983,1.983,0,1,1-1.983,1.982A1.986,1.986,0,0,1,38.161,61Z"/><path d="M49.458,62.979A5.483,5.483,0,1,0,54.941,57.5,5.489,5.489,0,0,0,49.458,62.979ZM54.941,61a1.983,1.983,0,1,1-1.983,1.982A1.985,1.985,0,0,1,54.941,61Z"/><path d="M66.239,62.979A5.483,5.483,0,1,0,71.722,57.5,5.488,5.488,0,0,0,66.239,62.979ZM71.722,61a1.983,1.983,0,1,1-1.983,1.982A1.985,1.985,0,0,1,71.722,61Z"/><path d="M83.019,62.979A5.483,5.483,0,1,0,88.5,57.5,5.488,5.488,0,0,0,83.019,62.979ZM88.5,61a1.983,1.983,0,1,1-1.983,1.982A1.985,1.985,0,0,1,88.5,61Z"/><path d="M96.514,73H31.486A4.311,4.311,0,0,0,27.18,77.3v2.078a4.31,4.31,0,0,0,4.306,4.305H96.514a4.31,4.31,0,0,0,4.306-4.305V77.3A4.311,4.311,0,0,0,96.514,73Zm.806,6.384a.807.807,0,0,1-.806.805H31.486a.806.806,0,0,1-.806-.805V77.3a.806.806,0,0,1,.806-.806H96.514a.807.807,0,0,1,.806.806Z"/></g></svg>
