<svg width="25" height="26" viewBox="0 0 25 26" fill="none" xmlns="http://www.w3.org/2000/svg">
<path d="M11.8671 8.40266L12.4998 9.39697L13.1326 8.40266C14.088 6.90135 15.7758 5.9375 17.7082 5.9375C20.7315 5.9375 23.2082 8.41421 23.2082 11.4375C23.2082 12.7743 22.5914 14.1814 21.563 15.5838C20.5403 16.9784 19.1603 18.3002 17.7541 19.4508C16.3515 20.5983 14.9453 21.5574 13.8875 22.2305C13.3594 22.5666 12.92 22.8302 12.6138 23.0092C12.574 23.0325 12.5364 23.0543 12.5013 23.0746C12.4658 23.054 12.428 23.0319 12.3879 23.0083C12.0816 22.8279 11.6421 22.5624 11.1138 22.2243C10.0559 21.5471 8.64927 20.5829 7.24639 19.4319C5.83979 18.2778 4.45937 16.9541 3.43632 15.5614C2.40712 14.1603 1.7915 12.7601 1.7915 11.4375C1.7915 8.41421 4.26822 5.9375 7.2915 5.9375C9.2239 5.9375 10.9117 6.90135 11.8671 8.40266Z" fill="url(#paint0_linear_551_32294)" stroke="url(#paint1_linear_551_32294)" stroke-width="1.5"/>
<defs>
<linearGradient id="paint0_linear_551_32294" x1="1.0415" y1="14.5625" x2="23.9582" y2="14.5625" gradientUnits="userSpaceOnUse">
<stop stop-color="#7D79D9"/>
<stop offset="0.490584" stop-color="#AA82C1"/>
<stop offset="1" stop-color="#DD8CA2"/>
</linearGradient>
<linearGradient id="paint1_linear_551_32294" x1="1.0415" y1="14.5625" x2="23.9582" y2="14.5625" gradientUnits="userSpaceOnUse">
<stop stop-color="#7D79D9"/>
<stop offset="0.490584" stop-color="#AA82C1"/>
<stop offset="1" stop-color="#DD8CA2"/>
</linearGradient>
</defs>
</svg>
