<svg width="19" height="21" viewBox="0 0 19 21" fill="none" xmlns="http://www.w3.org/2000/svg">
<path d="M14.953 11.8378L12.9662 11.4584C12.7809 12.0469 12.4204 12.5703 11.9293 12.9639L14.6034 16.7649C15.4067 16.4478 16.3272 16.5959 16.9796 17.1471C17.9284 17.9486 18.0223 19.3386 17.1892 20.2516C16.3562 21.1645 14.9116 21.2548 13.9627 20.4532C13.0139 19.6516 12.9201 18.2617 13.7532 17.3487L11.0289 13.4764C10.2201 13.7814 9.31811 13.7623 8.52405 13.4234L6.24515 16.5247C6.92356 17.3474 7.01942 18.4824 6.48797 19.3996C5.76315 20.6506 4.12156 21.0993 2.82144 20.4019C1.52131 19.7044 1.05497 18.1249 1.7798 16.8739C2.50463 15.6229 4.14621 15.1742 5.44634 15.8717L7.64865 12.8748C6.59767 11.9579 6.28493 10.4916 6.87553 9.25038L3.19896 6.50316C2.6044 6.90611 1.83122 6.97222 1.17218 6.67642C0.156334 6.22048 -0.283116 5.05852 0.19074 4.08102C0.664596 3.10357 1.87221 2.68074 2.88811 3.13668C3.90395 3.59262 4.3434 4.75459 3.86955 5.73208L7.45829 8.41374C8.48114 7.35482 10.1244 7.1073 11.4347 7.81483L14.1733 4.09232C13.4919 3.38329 13.3099 2.354 13.7092 1.46798C14.2658 0.233177 15.7574 -0.333689 17.0407 0.201829C18.324 0.737348 18.9132 2.1726 18.3566 3.4074C17.8001 4.64221 16.3085 5.20913 15.0251 4.67356L12.2536 8.44067C12.779 8.99417 13.0804 9.71084 13.1027 10.4602L15.1587 10.8528C15.48 10.2272 16.1243 9.81463 16.8481 9.77108C17.9645 9.70391 18.9262 10.5202 18.996 11.5945C19.0658 12.6688 18.2174 13.5941 17.1009 13.6612C15.9845 13.7284 15.0228 12.912 14.953 11.8378Z" fill="#474747"/>
</svg>
