<svg width="22" height="24" viewBox="0 0 22 24" fill="none" xmlns="http://www.w3.org/2000/svg">
<path d="M16.3438 17.1562C16.8615 17.1562 17.2812 16.7365 17.2812 16.2188C17.2812 15.701 16.8615 15.2812 16.3438 15.2812C15.826 15.2812 15.4062 15.701 15.4062 16.2188C15.4062 16.7365 15.826 17.1562 16.3438 17.1562Z" fill="#666666"/>
<path d="M20.5625 16.9688C21.0803 16.9688 21.5 16.549 21.5 16.0312V12.5625C21.5 10.4948 19.8177 8.8125 17.75 8.8125H16.6233V5.50622C16.6233 2.47008 14.0999 0 10.9983 0C7.89664 0 5.37327 2.47008 5.37327 5.50622V8.8125H4.25C2.18225 8.8125 0.5 10.4948 0.5 12.5625V20.25C0.5 22.3177 2.18225 24 4.25 24H17.75C19.8177 24 21.5 22.3177 21.5 20.25C21.5 19.7322 21.0803 19.3125 20.5625 19.3125C20.0447 19.3125 19.625 19.7322 19.625 20.25C19.625 21.2839 18.7839 22.125 17.75 22.125H4.25C3.21613 22.125 2.375 21.2839 2.375 20.25V12.5625C2.375 11.5286 3.21613 10.6875 4.25 10.6875H17.75C18.7839 10.6875 19.625 11.5286 19.625 12.5625V16.0312C19.625 16.549 20.0447 16.9688 20.5625 16.9688ZM14.7483 8.8125H7.24827V5.50622C7.24827 3.50395 8.93052 1.875 10.9983 1.875C13.066 1.875 14.7483 3.50395 14.7483 5.50622V8.8125Z" fill="#666666"/>
<path d="M9.26562 17.1562C9.78339 17.1562 10.2031 16.7365 10.2031 16.2188C10.2031 15.701 9.78339 15.2812 9.26562 15.2812C8.74786 15.2812 8.32812 15.701 8.32812 16.2188C8.32812 16.7365 8.74786 17.1562 9.26562 17.1562Z" fill="#666666"/>
<path d="M5.75 17.1562C6.26777 17.1562 6.6875 16.7365 6.6875 16.2188C6.6875 15.701 6.26777 15.2812 5.75 15.2812C5.23223 15.2812 4.8125 15.701 4.8125 16.2188C4.8125 16.7365 5.23223 17.1562 5.75 17.1562Z" fill="#666666"/>
<path d="M12.7812 17.1562C13.299 17.1562 13.7188 16.7365 13.7188 16.2188C13.7188 15.701 13.299 15.2812 12.7812 15.2812C12.2635 15.2812 11.8438 15.701 11.8438 16.2188C11.8438 16.7365 12.2635 17.1562 12.7812 17.1562Z" fill="#666666"/>
</svg>
