<svg width="20" height="20" viewBox="0 0 20 20" fill="none" xmlns="http://www.w3.org/2000/svg">
<path d="M5 8.33334V6.66667C5 3.90834 5.83333 1.66667 10 1.66667C14.1667 1.66667 15 3.90834 15 6.66667V8.33334" stroke="#474747" stroke-width="1.5" stroke-linecap="round" stroke-linejoin="round"/>
<path d="M9.99984 15.4167C11.1504 15.4167 12.0832 14.4839 12.0832 13.3333C12.0832 12.1827 11.1504 11.25 9.99984 11.25C8.84924 11.25 7.9165 12.1827 7.9165 13.3333C7.9165 14.4839 8.84924 15.4167 9.99984 15.4167Z" stroke="#474747" stroke-width="1.5" stroke-linecap="round" stroke-linejoin="round"/>
<path d="M14.1665 18.3333H5.83317C2.49984 18.3333 1.6665 17.5 1.6665 14.1667V12.5C1.6665 9.16666 2.49984 8.33333 5.83317 8.33333H14.1665C17.4998 8.33333 18.3332 9.16666 18.3332 12.5V14.1667C18.3332 17.5 17.4998 18.3333 14.1665 18.3333Z" stroke="#474747" stroke-width="1.5" stroke-linecap="round" stroke-linejoin="round"/>
</svg>
