<svg width="20" height="20" viewBox="0 0 20 20" fill="none" xmlns="http://www.w3.org/2000/svg">
<path d="M3.33611 19.8145H16.6639C18.4011 19.8145 19.8145 18.4011 19.8145 16.6639V15.9065C19.8145 15.4211 19.421 15.0276 18.9355 15.0276C18.4501 15.0276 18.0566 15.4211 18.0566 15.9065V16.6639C18.0566 17.4318 17.4318 18.0566 16.6639 18.0566H3.33611C2.56821 18.0566 1.94336 17.4318 1.94336 16.6639V3.33611C1.94336 2.56821 2.56821 1.94336 3.33611 1.94336H16.6639C17.4318 1.94336 18.0566 2.56821 18.0566 3.33611V4.09348C18.0566 4.57893 18.4501 4.97238 18.9355 4.97238C19.421 4.97238 19.8145 4.57893 19.8145 4.09348V3.33611C19.8145 1.59889 18.4011 0.185547 16.6639 0.185547H3.33611C1.59889 0.185547 0.185547 1.59889 0.185547 3.33611V16.6639C0.185547 18.4011 1.59889 19.8145 3.33611 19.8145Z" fill="white"/>
<path d="M15.6795 14.817C15.9072 14.817 16.1349 14.7291 16.3071 14.5538L19.117 11.6893C20.0468 10.756 20.0456 9.24008 19.1136 8.30807L16.3027 5.48092C15.9605 5.13668 15.4041 5.13508 15.0599 5.47726C14.7156 5.81944 14.714 6.37608 15.0562 6.72032L17.8687 9.54907C18.1184 9.79878 18.1184 10.2021 17.8706 10.4499C17.8685 10.4518 17.8667 10.4538 17.8646 10.4559L15.0521 13.3226C14.7122 13.6692 14.7175 14.2256 15.064 14.5655C15.2352 14.7332 15.4575 14.817 15.6795 14.817Z" fill="white"/>
<path d="M7.08454 10.8789H15.1494C15.6346 10.8789 16.0283 10.4855 16.0283 10C16.0283 9.51454 15.6346 9.12109 15.1494 9.12109H7.08454C6.59931 9.12109 6.20563 9.51454 6.20563 10C6.20563 10.4855 6.59931 10.8789 7.08454 10.8789Z" fill="white"/>
</svg>
