<svg width="26" height="26" viewBox="0 0 26 26" fill="none" xmlns="http://www.w3.org/2000/svg">
<path d="M23.8327 8.04924V14.5492C23.8327 16.1742 23.291 17.5284 22.3377 18.4817C21.3952 19.4242 20.041 19.9659 18.416 19.9659V22.2734C18.416 23.1401 17.4519 23.6601 16.7369 23.1834L11.916 19.9659H9.61935C9.70602 19.6409 9.74935 19.3051 9.74935 18.9584C9.74935 17.8534 9.32685 16.8351 8.63352 16.0659C7.85352 15.1776 6.69435 14.6251 5.41602 14.6251C4.20268 14.6251 3.09769 15.1234 2.30685 15.9359C2.20935 15.5026 2.16602 15.0367 2.16602 14.5492V8.04924C2.16602 4.79924 4.33268 2.63257 7.58268 2.63257H18.416C21.666 2.63257 23.8327 4.79924 23.8327 8.04924Z" stroke="white" stroke-width="1.5" stroke-miterlimit="10" stroke-linecap="round" stroke-linejoin="round"/>
<path d="M9.75065 18.9583C9.75065 19.7708 9.52317 20.54 9.12233 21.19C8.89483 21.58 8.60232 21.9267 8.26649 22.2083C7.50816 22.8908 6.51148 23.2917 5.41732 23.2917C3.83565 23.2917 2.4598 22.4467 1.7123 21.19C1.31147 20.54 1.08398 19.7708 1.08398 18.9583C1.08398 17.5933 1.71232 16.3692 2.70898 15.5783C3.45648 14.9825 4.39898 14.625 5.41732 14.625C7.81148 14.625 9.75065 16.5642 9.75065 18.9583Z" stroke="white" stroke-width="1.5" stroke-miterlimit="10" stroke-linecap="round" stroke-linejoin="round"/>
<path d="M3.72656 18.9584L4.79905 20.0309L7.10656 17.8967" stroke="white" stroke-width="1.5" stroke-linecap="round" stroke-linejoin="round"/>
<path d="M9.20898 11.375H16.7923" stroke="white" stroke-width="1.5" stroke-miterlimit="10" stroke-linecap="round" stroke-linejoin="round"/>
</svg>
