<svg width="24" height="24" viewBox="0 0 24 24" fill="none" xmlns="http://www.w3.org/2000/svg">
<path d="M17.5416 11.9983C17.5416 12.7034 17.4295 13.3822 17.2244 14.0149L16.2536 12.9972C16.3171 12.6684 16.3491 12.3337 16.349 11.9983V10.748C16.349 10.5822 16.4118 10.4232 16.5236 10.306C16.6355 10.1888 16.7871 10.1229 16.9453 10.1229C17.1034 10.1229 17.2551 10.1888 17.3669 10.306C17.4788 10.4232 17.5416 10.5822 17.5416 10.748V11.9983ZM11.5785 16.9991C12.5541 16.9991 13.4605 16.6928 14.2166 16.1652L15.0729 17.0641C14.2215 17.7113 13.2214 18.1096 12.1748 18.2181V20.7498H15.7527C15.9108 20.7498 16.0625 20.8156 16.1743 20.9329C16.2862 21.0501 16.349 21.2091 16.349 21.3749C16.349 21.5407 16.2862 21.6997 16.1743 21.8169C16.0625 21.9341 15.9108 22 15.7527 22H7.40439C7.24624 22 7.09457 21.9341 6.98274 21.8169C6.87091 21.6997 6.80809 21.5407 6.80809 21.3749C6.80809 21.2091 6.87091 21.0501 6.98274 20.9329C7.09457 20.8156 7.24624 20.7498 7.40439 20.7498H10.9822V18.2181C9.51136 18.0631 8.14784 17.3409 7.15619 16.1917C6.16454 15.0424 5.61546 13.5479 5.61548 11.9983V10.748C5.61548 10.5822 5.6783 10.4232 5.79013 10.306C5.90196 10.1888 6.05363 10.1229 6.21178 10.1229C6.36993 10.1229 6.52161 10.1888 6.63344 10.306C6.74526 10.4232 6.80809 10.5822 6.80809 10.748V11.9983C6.80809 13.3246 7.31069 14.5966 8.20532 15.5344C9.09995 16.4722 10.3133 16.9991 11.5785 16.9991ZM15.1564 5.74716V11.847L8.18913 4.5432C8.46217 3.7021 9.01108 2.98988 9.73814 2.53331C10.4652 2.07674 11.3232 1.90546 12.1595 2.04997C12.9957 2.19447 13.7559 2.64538 14.3047 3.32242C14.8535 3.99946 15.1553 4.8587 15.1564 5.74716Z" fill="#FF3333"/>
<path d="M13.3501 15.2598L8.00002 9.65009V12.0005C7.99983 12.6573 8.16416 13.3026 8.47656 13.8719C8.78895 14.4411 9.23847 14.9145 9.78015 15.2444C10.3218 15.5744 10.9367 15.7495 11.5631 15.7522C12.1896 15.7549 12.8058 15.5851 13.3501 15.2598ZM4 3.69155L18.3113 18.6942L19.1557 17.809L4.84437 2.8064L4 3.69155Z" fill="#FF3333"/>
</svg>
