<svg width="20" height="20" viewBox="0 0 20 20" fill="none" xmlns="http://www.w3.org/2000/svg">
<g clip-path="url(#clip0)">
<path d="M0.887245 5.7794C1.00228 5.66502 1.12948 5.56354 1.2667 5.47668C3.85083 3.79497 6.87376 2.88793 9.98756 2.85993C13.0712 2.86885 16.1063 3.77137 18.7254 5.45829C19.0487 5.67166 19.3135 5.96343 19.4943 6.30553C19.6751 6.64764 19.7659 7.02856 19.7578 7.41164L19.7364 10.1189C19.7341 10.256 19.7029 10.3904 19.6449 10.5133C19.5868 10.6363 19.5032 10.7451 19.3995 10.8325C19.2898 10.921 19.1615 10.984 19.0237 11.017C18.8858 11.0501 18.7417 11.0523 18.6015 11.0236L14.3184 10.1514C14.1544 10.1153 14.0052 10.0278 13.8926 9.90173C13.7801 9.77568 13.7102 9.61772 13.6932 9.4511L13.5029 7.54856C12.3902 7.11781 11.2098 6.9032 10.0261 6.91641C8.82496 6.90452 7.63786 7.12305 6.52908 7.56017L6.32986 9.48249C6.31277 9.64359 6.24693 9.79457 6.14109 9.91537C6.03524 10.0362 5.89441 10.1211 5.7373 10.1588L1.45994 11.0318C1.31761 11.0662 1.16862 11.0678 1.02412 11.0364C0.879618 11.005 0.74336 10.9415 0.625555 10.8506C0.507748 10.7597 0.411447 10.6438 0.343865 10.5115C0.276282 10.3792 0.239171 10.234 0.235312 10.0868L0.219145 7.4102C0.216483 7.10533 0.27414 6.8043 0.388801 6.52442C0.503459 6.24454 0.672857 5.99134 0.887245 5.7794ZM18.7634 10.0873L18.7849 7.38006C18.7901 7.16521 18.7392 6.95146 18.6373 6.75982C18.5353 6.56819 18.3859 6.40528 18.2035 6.28711C15.7498 4.7002 12.9048 3.84777 10.0122 3.83283C7.08235 3.85958 4.23811 4.71365 1.80702 6.2967C1.62262 6.41614 1.47178 6.58015 1.368 6.77402C1.26423 6.96789 1.21078 7.18556 1.21243 7.40753L1.2286 10.0841L5.35798 9.24053L5.56937 7.17348C5.57769 7.09457 5.60522 7.01932 5.64958 6.95429C5.69394 6.88926 5.75377 6.83643 5.82387 6.80039C7.12621 6.21087 8.5492 5.91941 9.99108 5.94684C11.4212 5.91393 12.8475 6.2046 14.1636 6.79717C14.2366 6.83964 14.298 6.89997 14.3417 6.97234C14.3854 7.04471 14.41 7.12669 14.4131 7.2104L14.6188 9.25797L18.7634 10.0873Z" fill="#666666"/>
<path d="M10.0073 11.0868V14.1665M11.8292 15.2156L10.0176 14.1696M14.1663 14.1667C14.1663 16.4679 12.3009 18.3333 9.99967 18.3333C7.69849 18.3333 5.83301 16.4679 5.83301 14.1667C5.83301 11.8655 7.69849 10 9.99967 10C12.3009 10 14.1663 11.8655 14.1663 14.1667Z" stroke="#666666" stroke-miterlimit="10" stroke-linecap="round" stroke-linejoin="round"/>
</g>
<defs>
<clipPath id="clip0">
<rect width="20" height="20" fill="white"/>
</clipPath>
</defs>
</svg>
