<svg width="21" height="20" viewBox="0 0 21 20" fill="none" xmlns="http://www.w3.org/2000/svg">
<path d="M16.3335 6.66711C17.7142 6.66711 18.8335 5.54783 18.8335 4.16711C18.8335 2.7864 17.7142 1.66711 16.3335 1.66711C14.9528 1.66711 13.8335 2.7864 13.8335 4.16711C13.8335 5.54783 14.9528 6.66711 16.3335 6.66711Z" fill="url(#paint0_linear_999_6370)"/>
<path d="M16.9998 7.85049C16.9832 7.85049 16.9665 7.85882 16.9498 7.85882C16.8665 7.87549 16.7832 7.88382 16.6915 7.90049C16.3415 7.93382 15.9665 7.91715 15.5832 7.84215C15.4832 7.81715 15.3998 7.80049 15.3082 7.76715C15.0332 7.70049 14.7748 7.59215 14.5332 7.45049C14.4332 7.40049 14.3332 7.33382 14.2415 7.27549C13.8415 7.00049 13.4998 6.65882 13.2248 6.25882C13.1665 6.16716 13.0998 6.06715 13.0498 5.96715C12.9082 5.72549 12.7998 5.46715 12.7332 5.19215C12.6998 5.10049 12.6832 5.01715 12.6582 4.91716C12.5832 4.53382 12.5665 4.15882 12.5998 3.80882C12.6165 3.71716 12.6248 3.63382 12.6415 3.55049C12.6415 3.53382 12.6498 3.51715 12.6498 3.50049C12.7498 2.98382 12.3665 2.50049 11.8332 2.50049H6.7665C6.64984 2.50049 6.53317 2.50882 6.42484 2.51715C6.32484 2.52549 6.23317 2.53382 6.13317 2.55049C6.03317 2.55882 5.93317 2.57549 5.8415 2.59215C3.83317 2.88382 2.54984 4.15882 2.25817 6.17549C2.2415 6.26715 2.22484 6.36716 2.2165 6.46715C2.19984 6.56715 2.1915 6.65882 2.18317 6.75882C2.17484 6.86715 2.1665 6.98382 2.1665 7.10049V13.7338C2.1665 13.8505 2.17484 13.9672 2.18317 14.0755C2.1915 14.1755 2.19984 14.2672 2.2165 14.3672C2.22484 14.4672 2.2415 14.5672 2.25817 14.6588C2.54984 16.6755 3.83317 17.9505 5.8415 18.2422C5.93317 18.2588 6.03317 18.2755 6.13317 18.2838C6.23317 18.3005 6.32484 18.3088 6.42484 18.3172C6.53317 18.3255 6.64984 18.3338 6.7665 18.3338H13.3998C13.5165 18.3338 13.6332 18.3255 13.7415 18.3172C13.8415 18.3088 13.9332 18.3005 14.0332 18.2838C14.1332 18.2755 14.2332 18.2588 14.3248 18.2422C16.3332 17.9505 17.6165 16.6755 17.9082 14.6588C17.9248 14.5672 17.9415 14.4672 17.9498 14.3672C17.9665 14.2672 17.9748 14.1755 17.9832 14.0755C17.9915 13.9672 17.9998 13.8505 17.9998 13.7338V8.66715C17.9998 8.13382 17.5165 7.75049 16.9998 7.85049ZM6.12484 10.4172H10.2915C10.6332 10.4172 10.9165 10.7005 10.9165 11.0422C10.9165 11.3838 10.6332 11.6672 10.2915 11.6672H6.12484C5.78317 11.6672 5.49984 11.3838 5.49984 11.0422C5.49984 10.7005 5.78317 10.4172 6.12484 10.4172ZM13.6248 15.0005H6.12484C5.78317 15.0005 5.49984 14.7172 5.49984 14.3755C5.49984 14.0338 5.78317 13.7505 6.12484 13.7505H13.6248C13.9665 13.7505 14.2498 14.0338 14.2498 14.3755C14.2498 14.7172 13.9665 15.0005 13.6248 15.0005Z" fill="url(#paint1_linear_999_6370)"/>
<defs>
<linearGradient id="paint0_linear_999_6370" x1="13.8335" y1="4.48301" x2="18.8335" y2="4.47916" gradientUnits="userSpaceOnUse">
<stop stop-color="#4C5BD4"/>
<stop offset="1" stop-color="#737FDD"/>
</linearGradient>
<linearGradient id="paint1_linear_999_6370" x1="2.1665" y1="11.4175" x2="17.9999" y2="11.4053" gradientUnits="userSpaceOnUse">
<stop stop-color="#4C5BD4"/>
<stop offset="1" stop-color="#737FDD"/>
</linearGradient>
</defs>
</svg>
