<svg width="23" height="22" viewBox="0 0 23 22" fill="none" xmlns="http://www.w3.org/2000/svg">
<mask id="path-1-inside-1_488_19188" fill="white">
<path d="M22.8737 11.0001C22.8737 16.9832 18.0234 21.8334 12.0404 21.8334C6.05728 21.8334 1.20703 16.9832 1.20703 11.0001C1.20703 5.017 6.05728 0.166748 12.0404 0.166748C18.0234 0.166748 22.8737 5.017 22.8737 11.0001ZM2.83203 11.0001C2.83203 16.0857 6.95474 20.2084 12.0404 20.2084C17.126 20.2084 21.2487 16.0857 21.2487 11.0001C21.2487 5.91446 17.126 1.79175 12.0404 1.79175C6.95474 1.79175 2.83203 5.91446 2.83203 11.0001Z"/>
</mask>
<path d="M22.8737 11.0001C22.8737 16.9832 18.0234 21.8334 12.0404 21.8334C6.05728 21.8334 1.20703 16.9832 1.20703 11.0001C1.20703 5.017 6.05728 0.166748 12.0404 0.166748C18.0234 0.166748 22.8737 5.017 22.8737 11.0001ZM2.83203 11.0001C2.83203 16.0857 6.95474 20.2084 12.0404 20.2084C17.126 20.2084 21.2487 16.0857 21.2487 11.0001C21.2487 5.91446 17.126 1.79175 12.0404 1.79175C6.95474 1.79175 2.83203 5.91446 2.83203 11.0001Z" fill="white" stroke="white" stroke-width="2" mask="url(#path-1-inside-1_488_19188)"/>
<mask id="path-2-inside-2_488_19188" fill="white">
<path d="M18.541 11C18.541 14.5899 15.6309 17.5 12.041 17.5C8.45116 17.5 5.54102 14.5899 5.54102 11C5.54102 7.41015 8.45116 4.5 12.041 4.5C15.6309 4.5 18.541 7.41015 18.541 11ZM7.1821 11C7.1821 13.6835 9.35751 15.8589 12.041 15.8589C14.7245 15.8589 16.8999 13.6835 16.8999 11C16.8999 8.3165 14.7245 6.14109 12.041 6.14109C9.35751 6.14109 7.1821 8.3165 7.1821 11Z"/>
</mask>
<path d="M18.541 11C18.541 14.5899 15.6309 17.5 12.041 17.5C8.45116 17.5 5.54102 14.5899 5.54102 11C5.54102 7.41015 8.45116 4.5 12.041 4.5C15.6309 4.5 18.541 7.41015 18.541 11ZM7.1821 11C7.1821 13.6835 9.35751 15.8589 12.041 15.8589C14.7245 15.8589 16.8999 13.6835 16.8999 11C16.8999 8.3165 14.7245 6.14109 12.041 6.14109C9.35751 6.14109 7.1821 8.3165 7.1821 11Z" fill="white" stroke="white" stroke-width="2" mask="url(#path-2-inside-2_488_19188)"/>
<circle cx="19.6237" cy="4.49992" r="2.16667" fill="white"/>
<circle cx="14.2077" cy="16.4167" r="2.16667" fill="white"/>
<circle cx="2.29167" cy="9.91667" r="2.16667" fill="white"/>
<circle cx="12.0417" cy="10.9999" r="2.16667" fill="white"/>
</svg>
