<svg width="20" height="20" viewBox="0 0 20 20" fill="none" xmlns="http://www.w3.org/2000/svg">
<path d="M5.83326 11.8167V2.50002C5.83326 2.27901 5.74546 2.06705 5.58918 1.91077C5.4329 1.75449 5.22094 1.66669 4.99993 1.66669C4.77891 1.66669 4.56695 1.75449 4.41067 1.91077C4.25439 2.06705 4.1666 2.27901 4.1666 2.50002V11.8167C3.68397 11.9919 3.26698 12.3114 2.9723 12.7318C2.67761 13.1523 2.51953 13.6533 2.51953 14.1667C2.51953 14.6801 2.67761 15.1811 2.9723 15.6016C3.26698 16.022 3.68397 16.3415 4.1666 16.5167V17.5C4.1666 17.721 4.25439 17.933 4.41067 18.0893C4.56695 18.2456 4.77891 18.3334 4.99993 18.3334C5.22094 18.3334 5.4329 18.2456 5.58918 18.0893C5.74546 17.933 5.83326 17.721 5.83326 17.5V16.5167C6.31589 16.3415 6.73288 16.022 7.02756 15.6016C7.32224 15.1811 7.48033 14.6801 7.48033 14.1667C7.48033 13.6533 7.32224 13.1523 7.02756 12.7318C6.73288 12.3114 6.31589 11.9919 5.83326 11.8167ZM17.4999 10.8334C17.4985 10.3176 17.3375 9.81485 17.0391 9.39413C16.7408 8.97341 16.3196 8.65528 15.8333 8.48335V2.50002C15.8333 2.27901 15.7455 2.06705 15.5892 1.91077C15.4329 1.75449 15.2209 1.66669 14.9999 1.66669C14.7789 1.66669 14.567 1.75449 14.4107 1.91077C14.2544 2.06705 14.1666 2.27901 14.1666 2.50002V8.48335C13.684 8.65852 13.267 8.97804 12.9723 9.39849C12.6776 9.81894 12.5195 10.3199 12.5195 10.8334C12.5195 11.3468 12.6776 11.8478 12.9723 12.2682C13.267 12.6887 13.684 13.0082 14.1666 13.1834V17.5C14.1666 17.721 14.2544 17.933 14.4107 18.0893C14.567 18.2456 14.7789 18.3334 14.9999 18.3334C15.2209 18.3334 15.4329 18.2456 15.5892 18.0893C15.7455 17.933 15.8333 17.721 15.8333 17.5V13.1834C16.3196 13.0114 16.7408 12.6933 17.0391 12.2726C17.3375 11.8519 17.4985 11.3491 17.4999 10.8334ZM12.4999 4.16669C12.5012 3.70806 12.3763 3.25792 12.1389 2.86552C11.9015 2.47313 11.5607 2.1536 11.1539 1.94191C10.747 1.73022 10.2898 1.63453 9.83218 1.6653C9.37458 1.69608 8.93427 1.85214 8.55943 2.1164C8.18459 2.38066 7.88967 2.74294 7.70694 3.1636C7.52421 3.58425 7.46071 4.04706 7.5234 4.50139C7.58609 4.95571 7.77255 5.38403 8.06237 5.73948C8.35219 6.09493 8.7342 6.36381 9.16659 6.51669V17.5C9.16659 17.721 9.25439 17.933 9.41067 18.0893C9.56695 18.2456 9.77891 18.3334 9.99993 18.3334C10.2209 18.3334 10.4329 18.2456 10.5892 18.0893C10.7455 17.933 10.8333 17.721 10.8333 17.5V6.51669C11.3196 6.34476 11.7408 6.02663 12.0391 5.60591C12.3375 5.18519 12.4985 4.68247 12.4999 4.16669Z" fill="url(#paint0_linear_387_18237)"/>
<defs>
<linearGradient id="paint0_linear_387_18237" x1="2.51953" y1="9.99651" x2="17.4999" y2="9.99651" gradientUnits="userSpaceOnUse">
<stop stop-color="#70CFA3"/>
<stop offset="1" stop-color="#B6E8C3"/>
</linearGradient>
</defs>
</svg>
