<svg width="15" height="15" viewBox="0 0 15 15" fill="none" xmlns="http://www.w3.org/2000/svg">
<path d="M6.24805 6.28125V12H5.52539V7.18359L4.06836 7.71484V7.0625L6.13477 6.28125H6.24805Z" fill="#474747"/>
<path fill-rule="evenodd" clip-rule="evenodd" d="M5.19231 -4.28708e-07C4.73328 -4.48773e-07 4.29305 0.182348 3.96847 0.50693C3.64389 0.831512 3.46154 1.27174 3.46154 1.73077L3.46154 3.46154L4.61539 3.46154L4.61539 1.73077C4.61539 1.57776 4.67617 1.43102 4.78436 1.32282C4.89256 1.21463 5.0393 1.15385 5.19231 1.15385L13.2692 1.15385C13.4222 1.15385 13.569 1.21463 13.6772 1.32282C13.7854 1.43102 13.8462 1.57776 13.8462 1.73077L13.8462 9.80769C13.8462 9.9607 13.7854 10.1074 13.6772 10.2156C13.569 10.3238 13.4222 10.3846 13.2692 10.3846L11.5385 10.3846L11.5385 5.19231C11.5385 4.73328 11.3561 4.29305 11.0315 3.96847C10.7069 3.64389 10.2667 3.46154 9.80769 3.46154L1.73077 3.46154C1.27174 3.46154 0.831514 3.64389 0.506932 3.96847C0.18235 4.29305 1.70045e-06 4.73328 1.68039e-06 5.19231L1.32733e-06 13.2692C1.30727e-06 13.7283 0.18235 14.1685 0.506932 14.4931C0.831514 14.8176 1.27174 15 1.73077 15L9.80769 15C10.2667 15 10.7069 14.8176 11.0315 14.4931C11.3561 14.1685 11.5385 13.7283 11.5385 13.2692L11.5385 11.5385L13.2692 11.5385C13.7283 11.5385 14.1685 11.3561 14.4931 11.0315C14.8177 10.7069 15 10.2667 15 9.80769L15 1.73077C15 1.27174 14.8177 0.831513 14.4931 0.506931C14.1685 0.182348 13.7283 -5.55895e-08 13.2692 -7.56543e-08L5.19231 -4.28708e-07ZM9.80769 4.61538C9.9607 4.61538 10.1074 4.67617 10.2156 4.78436C10.3238 4.89256 10.3846 5.0393 10.3846 5.19231L10.3846 13.2692C10.3846 13.4222 10.3238 13.569 10.2156 13.6772C10.1074 13.7854 9.9607 13.8462 9.80769 13.8462L1.73077 13.8462C1.57776 13.8462 1.43102 13.7854 1.32282 13.6772C1.21463 13.569 1.15385 13.4222 1.15385 13.2692L1.15385 5.19231C1.15385 5.0393 1.21463 4.89255 1.32282 4.78436C1.43102 4.67617 1.57776 4.61538 1.73077 4.61538L9.80769 4.61538Z" fill="#474747"/>
</svg>
