<svg width="24" height="24" viewBox="0 0 24 24" fill="none" xmlns="http://www.w3.org/2000/svg">
<path d="M17.3438 17.1562C17.8615 17.1562 18.2812 16.7365 18.2812 16.2188C18.2812 15.701 17.8615 15.2812 17.3438 15.2812C16.826 15.2812 16.4062 15.701 16.4062 16.2188C16.4062 16.7365 16.826 17.1562 17.3438 17.1562Z" fill="#474747"/>
<path d="M21.6621 16.9688C22.1799 16.9688 22.5996 16.549 22.5996 16.0312V12.5625C22.5996 10.4948 20.9174 8.8125 18.8496 8.8125H17.7229V5.50622C17.7229 2.47008 15.1995 0 12.0979 0C8.99625 0 6.47288 2.47008 6.47288 5.50622V8.8125H5.34961C3.28186 8.8125 1.59961 10.4948 1.59961 12.5625V20.25C1.59961 22.3178 3.28186 24 5.34961 24H18.8496C20.9174 24 22.5996 22.3178 22.5996 20.25C22.5996 19.7322 22.1799 19.3125 21.6621 19.3125C21.1443 19.3125 20.7996 19.8822 20.7996 20.4C20.7996 21.4339 19.8835 22.4 18.8496 22.4H5.34961C4.31573 22.4 3.19961 21.2839 3.19961 20.25V12.5625C3.19961 11.5286 4.16573 10.4 5.19961 10.4H18.7996C19.8335 10.4 20.7996 11.5286 20.7996 12.5625V16.0312C20.7996 16.549 21.1443 16.9688 21.6621 16.9688ZM15.9996 8.8125H8.05616V5.50622C8.05616 3.50395 9.93186 1.6 11.9996 1.6C14.0674 1.6 15.9996 3.50395 15.9996 5.50622V8.8125Z" fill="#474747"/>
<path d="M10.2656 17.1562C10.7834 17.1562 11.2031 16.7365 11.2031 16.2188C11.2031 15.701 10.7834 15.2812 10.2656 15.2812C9.74786 15.2812 9.32812 15.701 9.32812 16.2188C9.32812 16.7365 9.74786 17.1562 10.2656 17.1562Z" fill="#474747"/>
<path d="M6.75 17.1562C7.26777 17.1562 7.6875 16.7365 7.6875 16.2188C7.6875 15.701 7.26777 15.2812 6.75 15.2812C6.23223 15.2812 5.8125 15.701 5.8125 16.2188C5.8125 16.7365 6.23223 17.1562 6.75 17.1562Z" fill="#474747"/>
<path d="M13.7812 17.1562C14.299 17.1562 14.7188 16.7365 14.7188 16.2188C14.7188 15.701 14.299 15.2812 13.7812 15.2812C13.2635 15.2812 12.8438 15.701 12.8438 16.2188C12.8438 16.7365 13.2635 17.1562 13.7812 17.1562Z" fill="#474747"/>
</svg>
