<svg width="60" height="60" viewBox="0 0 60 60" fill="none" xmlns="http://www.w3.org/2000/svg">
<rect width="60" height="60" rx="30" fill="#474747"/>
<path d="M29.8 1C13.9187 1 1 13.9199 1 29.8C1 45.6801 13.9187 58.6 29.8 58.6C45.6813 58.6 58.6 45.6801 58.6 29.8C58.6 13.9199 45.6813 1 29.8 1ZM29.8 56.2C15.243 56.2 3.39996 44.3571 3.39996 29.8C3.39996 15.243 15.243 3.39996 29.8 3.39996C44.3571 3.39996 56.2 15.243 56.2 29.8C56.2 44.3571 44.3571 56.2 29.8 56.2Z" fill="white" stroke="white"/>
<path d="M26 22V38H22V22H26ZM26 20H22C21.4696 20 20.9609 20.2107 20.5858 20.5858C20.2107 20.9609 20 21.4696 20 22V38C20 38.5304 20.2107 39.0391 20.5858 39.4142C20.9609 39.7893 21.4696 40 22 40H26C26.5304 40 27.0391 39.7893 27.4142 39.4142C27.7893 39.0391 28 38.5304 28 38V22C28 21.4696 27.7893 20.9609 27.4142 20.5858C27.0391 20.2107 26.5304 20 26 20Z" fill="white"/>
<path d="M38 22V38H34V22H38ZM38 20H34C33.4696 20 32.9609 20.2107 32.5858 20.5858C32.2107 20.9609 32 21.4696 32 22V38C32 38.5304 32.2107 39.0391 32.5858 39.4142C32.9609 39.7893 33.4696 40 34 40H38C38.5304 40 39.0391 39.7893 39.4142 39.4142C39.7893 39.0391 40 38.5304 40 38V22C40 21.4696 39.7893 20.9609 39.4142 20.5858C39.0391 20.2107 38.5304 20 38 20Z" fill="white"/>
</svg>
