<svg width="24" height="24" viewBox="0 0 24 24" fill="none" xmlns="http://www.w3.org/2000/svg">
<path d="M1.39021 22.6056L1.39429 22.6097C1.50243 22.7186 1.63104 22.8051 1.77272 22.8642C1.9144 22.9232 2.06635 22.9537 2.21985 22.9538C2.34901 22.9538 2.47728 22.9325 2.59954 22.8908L9.25607 20.6327L22.0295 7.8593C22.8104 7.07836 23.249 6.0192 23.249 4.91483C23.2489 3.81046 22.8102 2.75134 22.0293 1.97047C21.2483 1.18959 20.1891 0.750928 19.0848 0.750977C17.9804 0.751025 16.9213 1.18978 16.1404 1.97072L3.36698 14.7442L1.1091 21.4005C1.03798 21.6075 1.02663 21.8303 1.07634 22.0435C1.12606 22.2566 1.23484 22.4515 1.39021 22.6056ZM17.2011 3.03136C17.7014 2.53492 18.378 2.25695 19.0828 2.2583C19.7875 2.25965 20.4631 2.54023 20.9614 3.03859C21.4598 3.53694 21.7403 4.21247 21.7417 4.91724C21.743 5.62202 21.465 6.2986 20.9685 6.79885L19.2888 8.47857L15.5213 4.71108L17.2011 3.03136ZM4.67526 15.5572L14.4607 5.77172L18.2282 9.53921L8.44269 19.3246L2.7411 21.2588L4.67526 15.5572Z" fill="#474747"/>
</svg>
