<svg width="27" height="26" viewBox="0 0 27 26" fill="none" xmlns="http://www.w3.org/2000/svg">
<path d="M19.9999 7.75675C19.9349 7.74592 19.8591 7.74592 19.7941 7.75675C18.2991 7.70259 17.1074 6.47842 17.1074 4.96175C17.1074 3.41258 18.3533 2.16675 19.9024 2.16675C21.4516 2.16675 22.6974 3.42342 22.6974 4.96175C22.6866 6.47842 21.4949 7.70259 19.9999 7.75675Z" stroke="white" stroke-width="1.5" stroke-linecap="round" stroke-linejoin="round"/>
<path d="M18.8841 15.6433C20.3682 15.8925 22.0041 15.6325 23.1524 14.8633C24.6799 13.845 24.6799 12.1767 23.1524 11.1583C21.9932 10.3892 20.3357 10.1292 18.8516 10.3892" stroke="white" stroke-width="1.5" stroke-linecap="round" stroke-linejoin="round"/>
<path d="M6.96899 7.75675C7.03399 7.74592 7.10982 7.74592 7.17482 7.75675C8.66982 7.70259 9.86148 6.47842 9.86148 4.96175C9.86148 3.41258 8.61565 2.16675 7.06649 2.16675C5.51732 2.16675 4.27148 3.42342 4.27148 4.96175C4.28232 6.47842 5.47399 7.70259 6.96899 7.75675Z" stroke="white" stroke-width="1.5" stroke-linecap="round" stroke-linejoin="round"/>
<path d="M8.08388 15.6433C6.59971 15.8925 4.96388 15.6325 3.81555 14.8633C2.28805 13.845 2.28805 12.1767 3.81555 11.1583C4.97471 10.3892 6.63221 10.1292 8.11638 10.3892" stroke="white" stroke-width="1.5" stroke-linecap="round" stroke-linejoin="round"/>
<path d="M13.4999 15.8493C13.4349 15.8384 13.3591 15.8384 13.2941 15.8493C11.7991 15.7951 10.6074 14.5709 10.6074 13.0543C10.6074 11.5051 11.8533 10.2593 13.4024 10.2593C14.9516 10.2593 16.1974 11.5159 16.1974 13.0543C16.1866 14.5709 14.9949 15.8059 13.4999 15.8493Z" stroke="white" stroke-width="1.5" stroke-linecap="round" stroke-linejoin="round"/>
<path d="M10.3468 19.2619C8.8193 20.2802 8.8193 21.9485 10.3468 22.9669C12.0801 24.126 14.9185 24.126 16.6518 22.9669C18.1793 21.9485 18.1793 20.2802 16.6518 19.2619C14.9293 18.1136 12.0801 18.1136 10.3468 19.2619Z" stroke="white" stroke-width="1.5" stroke-linecap="round" stroke-linejoin="round"/>
</svg>
