<svg width="24" height="24" viewBox="0 0 24 24" fill="none" xmlns="http://www.w3.org/2000/svg">
<path d="M18.301 6.95C18.301 7.28152 18.1693 7.59946 17.9349 7.83388C17.7005 8.0683 17.3825 8.2 17.051 8.2C16.7195 8.2 16.4015 8.0683 16.1671 7.83388C15.9327 7.59946 15.801 7.28152 15.801 6.95C15.801 6.61848 15.9327 6.30054 16.1671 6.06612C16.4015 5.8317 16.7195 5.7 17.051 5.7C17.3825 5.7 17.7005 5.8317 17.9349 6.06612C18.1693 6.30054 18.301 6.61848 18.301 6.95ZM15.551 2C13.8142 2.00106 12.1488 2.69149 10.9206 3.91962C9.69249 5.14775 9.00206 6.81316 9.001 8.55C9.001 8.937 9.051 9.31 9.111 9.654C9.11979 9.6973 9.11802 9.74209 9.10584 9.78456C9.09365 9.82703 9.07141 9.86594 9.041 9.898L2.806 16.134C2.29021 16.6495 2.00029 17.3488 2 18.078V20.25C2 21.216 2.784 22 3.75 22H6.25C6.71413 22 7.15925 21.8156 7.48744 21.4874C7.81563 21.1593 8 20.7141 8 20.25V19H9.751C10.441 19 11.001 18.44 11.001 17.75V16H12.751C13.0747 16.0002 13.3859 15.8749 13.619 15.6503C13.8522 15.4257 13.9891 15.1195 14.001 14.796C14.497 14.924 15.021 15 15.551 15C17.2878 14.9989 18.9532 14.3085 20.1814 13.0804C21.4095 11.8522 22.0999 10.1868 22.101 8.45C22.101 4.819 19.148 2 15.551 2ZM10.501 8.55C10.5021 7.21098 11.0345 5.92711 11.9813 4.98028C12.9281 4.03345 14.212 3.50106 15.551 3.5C18.353 3.5 20.601 5.681 20.601 8.45C20.5999 9.78902 20.0675 11.0729 19.1207 12.0197C18.1739 12.9665 16.89 13.4989 15.551 13.5C14.871 13.5 14.171 13.329 13.546 13.06C13.4318 13.011 13.3073 12.9911 13.1836 13.0021C13.0598 13.0131 12.9407 13.0547 12.837 13.1231C12.7333 13.1915 12.6482 13.2846 12.5894 13.394C12.5306 13.5034 12.4999 13.6258 12.5 13.75V14.5H10.751C10.061 14.5 9.501 15.06 9.501 15.75V17.5H7.751C7.061 17.5 6.501 18.06 6.501 18.75V20.25C6.501 20.3163 6.47466 20.3799 6.42778 20.4268C6.38089 20.4737 6.3173 20.5 6.251 20.5H3.751C3.6847 20.5 3.62111 20.4737 3.57422 20.4268C3.52734 20.3799 3.501 20.3163 3.501 20.25V18.078C3.501 17.747 3.633 17.428 3.867 17.194L10.103 10.959C10.3037 10.7565 10.4527 10.5087 10.5373 10.2364C10.6219 9.96419 10.6396 9.67556 10.589 9.395C10.5353 9.1164 10.5059 8.83368 10.501 8.55Z" fill="#757575"/>
</svg>
