<svg width="20" height="20" viewBox="0 0 20 20" fill="none" xmlns="http://www.w3.org/2000/svg">
<path d="M8.33333 9.16667C8.9926 9.16667 9.63707 8.97117 10.1852 8.6049C10.7334 8.23863 11.1606 7.71803 11.4129 7.10895C11.6652 6.49986 11.7312 5.82964 11.6026 5.18303C11.474 4.53643 11.1565 3.94249 10.6904 3.47631C10.2242 3.01014 9.63024 2.69267 8.98363 2.56405C8.33703 2.43543 7.66681 2.50144 7.05772 2.75374C6.44863 3.00603 5.92804 3.43327 5.56177 3.98143C5.1955 4.5296 5 5.17406 5 5.83334C5 6.71739 5.35119 7.56524 5.97631 8.19036C6.60143 8.81548 7.44928 9.16667 8.33333 9.16667ZM13.3333 17.5C13.5543 17.5 13.7663 17.4122 13.9226 17.2559C14.0789 17.0996 14.1667 16.8877 14.1667 16.6667C14.1667 15.1196 13.5521 13.6358 12.4581 12.5419C11.3642 11.4479 9.88043 10.8333 8.33333 10.8333C6.78624 10.8333 5.30251 11.4479 4.20854 12.5419C3.11458 13.6358 2.5 15.1196 2.5 16.6667C2.5 16.8877 2.5878 17.0996 2.74408 17.2559C2.90036 17.4122 3.11232 17.5 3.33333 17.5" fill="url(#paint0_linear_387_18231)"/>
<path d="M15.4541 5.82715H14.209C14.2122 5.53418 14.235 5.2819 14.2773 5.07031C14.3229 4.85547 14.3994 4.66178 14.5068 4.48926C14.6175 4.31673 14.764 4.14583 14.9463 3.97656C15.0993 3.83984 15.2327 3.70964 15.3467 3.58594C15.4606 3.46224 15.5501 3.33529 15.6152 3.20508C15.6803 3.07161 15.7129 2.9235 15.7129 2.76074C15.7129 2.57194 15.6836 2.41569 15.625 2.29199C15.5697 2.16504 15.485 2.06901 15.3711 2.00391C15.2604 1.9388 15.1204 1.90625 14.9512 1.90625C14.8112 1.90625 14.681 1.93717 14.5605 1.99902C14.4401 2.05762 14.3408 2.14876 14.2627 2.27246C14.1878 2.39616 14.1488 2.55892 14.1455 2.76074H12.7295C12.7393 2.31478 12.8418 1.94694 13.0371 1.65723C13.2357 1.36426 13.501 1.14779 13.833 1.00781C14.165 0.864583 14.5378 0.792969 14.9512 0.792969C15.4069 0.792969 15.7975 0.867839 16.123 1.01758C16.4486 1.16406 16.6976 1.38053 16.8701 1.66699C17.0426 1.9502 17.1289 2.29525 17.1289 2.70215C17.1289 2.98535 17.0736 3.23763 16.9629 3.45898C16.8522 3.67708 16.7074 3.88053 16.5283 4.06934C16.3493 4.25814 16.1523 4.45345 15.9375 4.65527C15.752 4.82129 15.625 4.99544 15.5566 5.17773C15.4915 5.36003 15.4574 5.5765 15.4541 5.82715ZM14.0625 7.33594C14.0625 7.1276 14.1341 6.95508 14.2773 6.81836C14.4206 6.67839 14.6126 6.6084 14.8535 6.6084C15.0911 6.6084 15.2816 6.67839 15.4248 6.81836C15.5713 6.95508 15.6445 7.1276 15.6445 7.33594C15.6445 7.53776 15.5713 7.70866 15.4248 7.84863C15.2816 7.98861 15.0911 8.05859 14.8535 8.05859C14.6126 8.05859 14.4206 7.98861 14.2773 7.84863C14.1341 7.70866 14.0625 7.53776 14.0625 7.33594Z" fill="url(#paint1_linear_387_18231)"/>
<defs>
<linearGradient id="paint0_linear_387_18231" x1="2.5" y1="10" x2="18.3275" y2="10" gradientUnits="userSpaceOnUse">
<stop stop-color="#7D79D9"/>
<stop offset="0.490584" stop-color="#AA82C1"/>
<stop offset="1" stop-color="#DD8CA2"/>
</linearGradient>
<linearGradient id="paint1_linear_387_18231" x1="13" y1="4" x2="17" y2="4" gradientUnits="userSpaceOnUse">
<stop stop-color="#7D79D9"/>
<stop offset="0.490584" stop-color="#AA82C1"/>
<stop offset="1" stop-color="#DD8CA2"/>
</linearGradient>
</defs>
</svg>
