<svg width="25" height="25" viewBox="0 0 25 25" fill="none" xmlns="http://www.w3.org/2000/svg">
<path d="M13.0208 10.4167C13.4996 10.4167 13.9737 10.3224 14.416 10.1391C14.8584 9.95592 15.2603 9.68737 15.5988 9.34883C15.9374 9.01028 16.2059 8.60837 16.3891 8.16603C16.5724 7.7237 16.6667 7.24961 16.6667 6.77083C16.6667 6.29206 16.5724 5.81797 16.3891 5.37563C16.2059 4.9333 15.9374 4.53139 15.5988 4.19284C15.2603 3.85429 14.8584 3.58574 14.416 3.40252C13.9737 3.2193 13.4996 3.125 13.0208 3.125C12.0539 3.125 11.1266 3.50911 10.4428 4.19284C9.75911 4.87657 9.375 5.8039 9.375 6.77083C9.375 7.73777 9.75911 8.6651 10.4428 9.34883C11.1266 10.0326 12.0539 10.4167 13.0208 10.4167V10.4167Z" stroke="#474747" stroke-width="1.5" stroke-linecap="round" stroke-linejoin="round"/>
<path d="M5.20801 21.2497V21.8747H20.833V21.2497C20.833 18.9163 20.833 17.7497 20.3788 16.858C19.9794 16.074 19.342 15.4366 18.558 15.0372C17.6663 14.583 16.4997 14.583 14.1663 14.583H11.8747C9.54134 14.583 8.37467 14.583 7.48301 15.0372C6.69903 15.4366 6.06164 16.074 5.66217 16.858C5.20801 17.7497 5.20801 18.9163 5.20801 21.2497Z" stroke="#474747" stroke-width="1.5" stroke-linecap="round" stroke-linejoin="round"/>
</svg>
