<svg width="16" height="16" viewBox="0 0 16 16" fill="none" xmlns="http://www.w3.org/2000/svg">
<g clip-path="url(#clip0_11_33407)">
<path fill-rule="evenodd" clip-rule="evenodd" d="M15.8546 5.14689C15.9012 5.19334 15.9381 5.24851 15.9633 5.30926C15.9886 5.37001 16.0015 5.43513 16.0015 5.50089C16.0015 5.56666 15.9886 5.63178 15.9633 5.69253C15.9381 5.75327 15.9012 5.80845 15.8546 5.85489L12.8546 8.85489C12.8082 8.90146 12.753 8.9384 12.6923 8.96361C12.6315 8.98881 12.5664 9.00179 12.5006 9.00179C12.4349 9.00179 12.3697 8.98881 12.309 8.96361C12.2483 8.9384 12.1931 8.90146 12.1466 8.85489L10.6466 7.35489C10.5527 7.26101 10.5 7.13367 10.5 7.00089C10.5 6.86812 10.5527 6.74078 10.6466 6.64689C10.7405 6.55301 10.8679 6.50026 11.0006 6.50026C11.1334 6.50026 11.2607 6.55301 11.3546 6.64689L12.5006 7.79389L15.1466 5.14689C15.1931 5.10033 15.2483 5.06339 15.309 5.03818C15.3697 5.01297 15.4349 5 15.5006 5C15.5664 5 15.6315 5.01297 15.6923 5.03818C15.753 5.06339 15.8082 5.10033 15.8546 5.14689Z" fill="#474747"/>
<path d="M1 14C1 14 0 14 0 13C0 12 1 9 6 9C11 9 12 12 12 13C12 14 11 14 11 14H1ZM6 8C6.79565 8 7.55871 7.68393 8.12132 7.12132C8.68393 6.55871 9 5.79565 9 5C9 4.20435 8.68393 3.44129 8.12132 2.87868C7.55871 2.31607 6.79565 2 6 2C5.20435 2 4.44129 2.31607 3.87868 2.87868C3.31607 3.44129 3 4.20435 3 5C3 5.79565 3.31607 6.55871 3.87868 7.12132C4.44129 7.68393 5.20435 8 6 8Z" fill="#474747"/>
</g>
<defs>
<clipPath id="clip0_11_33407">
<rect width="16" height="16" fill="white"/>
</clipPath>
</defs>
</svg>
