<svg width="18" height="18" viewBox="0 0 18 18" fill="none" xmlns="http://www.w3.org/2000/svg">
<g clip-path="url(#clip0_863_19011)">
<path d="M2.75 4H5.75L7.25 7.75L5.375 8.875C6.17822 10.5036 7.49635 11.8218 9.125 12.625L10.25 10.75L14 12.25V15.25C14 15.6478 13.842 16.0294 13.5607 16.3107C13.2794 16.592 12.8978 16.75 12.5 16.75C9.57445 16.5722 6.81512 15.3299 4.74262 13.2574C2.67013 11.1849 1.42779 8.42555 1.25 5.5C1.25 5.10218 1.40804 4.72064 1.68934 4.43934C1.97064 4.15804 2.35218 4 2.75 4" stroke="#474747" stroke-width="1.5" stroke-linecap="round" stroke-linejoin="round"/>
<path d="M12.0121 2.00047L11.2342 7.24642L14.637 8.30623" stroke="#FF3333" stroke-width="1.5" stroke-linecap="round" stroke-linejoin="round"/>
<path d="M13.7993 4.41016L12.0121 2.00064L9.60256 3.78789" stroke="#FF3333" stroke-width="1.5" stroke-linecap="round" stroke-linejoin="round"/>
</g>
<defs>
<clipPath id="clip0_863_19011">
<rect width="18" height="18" fill="white"/>
</clipPath>
</defs>
</svg>
