<svg width="17" height="20" viewBox="0 0 17 20" fill="none" xmlns="http://www.w3.org/2000/svg">
<path d="M2.75 0C2.08696 0 1.45107 0.263392 0.982233 0.732233C0.513392 1.20107 0.25 1.83696 0.25 2.5V17.5C0.25 18.163 0.513392 18.7989 0.982233 19.2678C1.45107 19.7366 2.08696 20 2.75 20H16C16.1989 20 16.3897 19.921 16.5303 19.7803C16.671 19.6397 16.75 19.4489 16.75 19.25C16.75 19.0511 16.671 18.8603 16.5303 18.7197C16.3897 18.579 16.1989 18.5 16 18.5H2.75C2.48478 18.5 2.23043 18.3946 2.04289 18.2071C1.85536 18.0196 1.75 17.7652 1.75 17.5H16C16.1989 17.5 16.3897 17.421 16.5303 17.2803C16.671 17.1397 16.75 16.9489 16.75 16.75V2.5C16.75 2.1717 16.6853 1.84661 16.5597 1.54329C16.4341 1.23998 16.2499 0.964379 16.0178 0.732233C15.7856 0.500087 15.51 0.315938 15.2067 0.190301C14.9034 0.0646644 14.5783 0 14.25 0H2.75ZM11.75 10.25V10.75C11.75 11.75 10.367 12.5 8.5 12.5C6.633 12.5 5.25 11.75 5.25 10.75V10.25C5.25 10.0511 5.32902 9.86032 5.46967 9.71967C5.61032 9.57902 5.80109 9.5 6 9.5H11C11.1989 9.5 11.3897 9.57902 11.5303 9.71967C11.671 9.86032 11.75 10.0511 11.75 10.25ZM10.25 6.745C10.25 7.20913 10.0656 7.65425 9.73744 7.98244C9.40925 8.31063 8.96413 8.495 8.5 8.495C8.03587 8.495 7.59075 8.31063 7.26256 7.98244C6.93437 7.65425 6.75 7.20913 6.75 6.745C6.75 5.78 7.533 5 8.5 5C9.467 5 10.25 5.779 10.25 6.745Z" fill="url(#paint0_linear_5328_118454)"/>
<!-- <defs> -->
<!-- <linearGradient id="paint0_linear_5328_118454" x1="0.25" y1="11.2636" x2="16.7501" y2="11.2531" gradientUnits="userSpaceOnUse"> -->
<!-- <stop stop-color="#0086DA"/>
<stop offset="1" stop-color="#00A9E9"/>
<stop offset="1" stop-color="#00A9E9"/>
</linearGradient> -->
<!-- </defs> -->
</svg>
