<svg width="24" height="24" viewBox="0 0 24 24" fill="none" xmlns="http://www.w3.org/2000/svg">
<path d="M17.465 22C17.2703 21.9994 17.0763 21.9776 16.8861 21.9348C13.2665 21.1691 9.93176 19.3737 7.26585 16.7553C4.65684 14.1312 2.84735 10.7901 2.05631 7.13623C1.96304 6.68086 1.98593 6.20859 2.12279 5.76488C2.25965 5.32117 2.50586 4.92095 2.83774 4.60271L5.1531 2.32372C5.27136 2.20935 5.41187 2.12177 5.56547 2.06669C5.71907 2.01161 5.8823 1.99028 6.04451 2.00407C6.2127 2.02202 6.375 2.07742 6.52 2.1664C6.66501 2.25537 6.78919 2.37575 6.88382 2.51907L9.77801 6.89354C9.88654 7.06327 9.93894 7.26415 9.92747 7.46662C9.91601 7.66908 9.8413 7.86244 9.71434 8.01823L8.26146 9.79406C8.84009 11.1037 9.65955 12.2874 10.6752 13.2806C11.6843 14.3099 12.877 15.1317 14.1888 15.7017L15.9889 14.2396C16.1401 14.1174 16.3241 14.0451 16.5164 14.0324C16.7087 14.0197 16.9003 14.0672 17.0656 14.1685L21.4358 17.0572C21.5858 17.1488 21.7135 17.2739 21.8095 17.4231C21.9055 17.5724 21.9672 17.7419 21.9901 17.919C22.0129 18.0961 21.9962 18.2761 21.9414 18.4457C21.8865 18.6153 21.7948 18.77 21.6731 18.8982L19.4157 21.1831C19.1592 21.444 18.8549 21.6505 18.5201 21.7907C18.1853 21.9309 17.8267 22.002 17.465 22ZM5.95189 3.17612L3.63654 5.45511C3.44984 5.63302 3.31163 5.85756 3.23551 6.10665C3.15939 6.35575 3.14799 6.62081 3.20241 6.87578C3.93795 10.3044 5.62874 13.4418 8.07044 15.9088C10.5792 18.3723 13.7174 20.061 17.1235 20.7806C17.3813 20.8357 17.6484 20.8245 17.901 20.7481C18.1536 20.6716 18.3836 20.5323 18.5706 20.3425L20.828 18.0576L16.6083 15.2695L14.675 16.8441C14.601 16.904 14.5138 16.9445 14.4209 16.9621C14.3281 16.9796 14.2325 16.9737 14.1424 16.9448C12.5372 16.3399 11.0824 15.3798 9.8822 14.133C8.6408 12.9475 7.67719 11.4906 7.06326 9.87102C7.03729 9.77297 7.03643 9.66974 7.06076 9.57125C7.08508 9.47276 7.13379 9.38234 7.20218 9.30867L8.76504 7.39669L5.95189 3.17612Z" fill="#4C5BD4"/>
<path d="M17 5V8M14 5H17H14ZM20 5H17H20ZM17 5V2V5Z" stroke="#4C5BD4" stroke-linecap="round" stroke-linejoin="round"/>
</svg>
