<svg width="60" height="60" viewBox="0 0 60 60" fill="none" xmlns="http://www.w3.org/2000/svg">
<rect width="60" height="60" rx="30" fill="#474747"/>
<path d="M30 1.2002C14.1187 1.2002 1.19995 14.1201 1.19995 30.0002C1.19995 45.8802 14.1187 58.8002 30 58.8002C45.8812 58.8002 58.8 45.8802 58.8 30.0002C58.8 14.1201 45.8812 1.2002 30 1.2002ZM30 56.4002C15.4429 56.4002 3.59991 44.5572 3.59991 30.0002C3.59991 15.4431 15.4429 3.60016 30 3.60016C44.557 3.60016 56.4 15.4431 56.4 30.0002C56.4 44.5572 44.557 56.4002 30 56.4002Z" fill="white" stroke="white"/>
<path d="M41.4493 28.9913L24.6493 18.1913C24.2813 17.9511 23.8056 17.9381 23.4259 18.1467C23.0391 18.3576 22.8 18.7608 22.8 19.2003V40.8003C22.8 41.2397 23.0391 41.6429 23.4259 41.8538C23.604 41.9511 23.8032 42.0003 24.0001 42.0003C24.2251 42.0003 24.4524 41.937 24.6493 41.8093L41.4493 31.0093C41.7915 30.789 42.0001 30.4081 42.0001 30.0003C42.0001 29.5925 41.7915 29.2116 41.4493 28.9913ZM25.2 38.6018V21.3987L38.5805 30.0003L25.2 38.6018Z" fill="white" stroke="white"/>
</svg>
