<svg width="24" height="24" viewBox="0 0 24 24" fill="none" xmlns="http://www.w3.org/2000/svg">
<path d="M21.1667 1H2.83333C1.82124 1.00125 1.00125 1.82124 1 2.83333V21.1667C1.00125 22.1788 1.82124 22.9987 2.83333 23H21.1667C22.1788 22.9987 22.9987 22.1788 23 21.1667V2.83333C22.9987 1.82124 22.1788 1.00125 21.1667 1ZM22.2667 21.1667C22.2667 21.7741 21.7741 22.2667 21.1667 22.2667H2.83333C2.22586 22.2667 1.73333 21.7741 1.73333 21.1667V2.83333C1.73333 2.22586 2.22586 1.73333 2.83333 1.73333H21.1667C21.7741 1.73333 22.2667 2.22586 22.2667 2.83333V21.1667Z" fill="#474747" stroke="#474747" stroke-width="0.5"/>
<path d="M7.23341 9.06689H3.56674C3.36425 9.06689 3.20007 9.23107 3.20007 9.43356V20.4336C3.20007 20.6361 3.36425 20.8002 3.56674 20.8002H7.23341C7.4359 20.8002 7.60007 20.6361 7.60007 20.4336V9.43356C7.60007 9.23107 7.4359 9.06689 7.23341 9.06689ZM6.86674 20.0669H3.93341V9.80023H6.86674V20.0669Z" fill="#474747" stroke="#474747" stroke-width="0.5"/>
<path d="M13.8333 3.19971H10.1666C9.9641 3.19971 9.79993 3.36388 9.79993 3.56637V20.433C9.79993 20.6355 9.9641 20.7997 10.1666 20.7997H13.8333C14.0358 20.7997 14.1999 20.6355 14.1999 20.433V3.56637C14.1999 3.36388 14.0358 3.19971 13.8333 3.19971ZM13.4666 20.0664H10.5333V3.93304H13.4666V20.0664Z" fill="#474747" stroke="#474747" stroke-width="0.5"/>
<path d="M20.4334 12.7334H16.7667C16.5642 12.7334 16.4 12.8976 16.4 13.1001V20.4334C16.4 20.6359 16.5642 20.8001 16.7667 20.8001H20.4334C20.6358 20.8001 20.8 20.6359 20.8 20.4334V13.1001C20.8 12.8976 20.6358 12.7334 20.4334 12.7334ZM20.0667 20.0667H17.1334V13.4667H20.0667V20.0667Z" fill="#474747" stroke="#474747" stroke-width="0.5"/>
</svg>
