<svg width="25" height="24" viewBox="0 0 25 24" fill="none" xmlns="http://www.w3.org/2000/svg">
<g clip-path="url(#clip0)">
<path d="M5.47108 21.6732C4.06321 21.6716 2.71344 21.1117 1.71793 20.1162C0.722417 19.1206 0.162459 17.7709 0.160913 16.363C0.160913 16.3543 0.160913 16.3452 0.160913 16.3364C0.160913 16.3189 0.158643 16.2926 0.156697 16.2579C0.0477241 14.3295 0.362967 9.1228 5.63097 2.45112C5.67841 2.3912 5.74549 2.34996 5.82037 2.33468C5.89526 2.31939 5.97313 2.33104 6.04027 2.36758C6.1074 2.40411 6.15947 2.46318 6.1873 2.53436C6.21513 2.60554 6.21693 2.68426 6.19237 2.75664C6.17745 2.80075 4.73778 7.11329 5.72145 11.0593C7.10695 11.1244 8.41202 11.7289 9.35757 12.7437C10.3031 13.7584 10.8141 15.1029 10.7812 16.4895C10.7483 17.8762 10.1742 19.1949 9.18163 20.1637C8.18905 21.1325 6.8568 21.6745 5.46978 21.6738L5.47108 21.6732ZM0.809562 16.3815C0.813151 17.3027 1.08959 18.2021 1.60398 18.9663C2.11837 19.7305 2.84765 20.3252 3.69974 20.6752C4.55183 21.0252 5.48853 21.115 6.39157 20.9331C7.29462 20.7511 8.12352 20.3058 8.77363 19.6531C9.42374 19.0005 9.86591 18.1698 10.0443 17.2661C10.2227 16.3624 10.1293 15.426 9.77599 14.5753C9.42264 13.7246 8.82516 12.9976 8.05898 12.4862C7.29279 11.9748 6.39226 11.7018 5.47108 11.7018C5.40005 11.7018 5.33099 11.6785 5.27451 11.6354C5.21803 11.5923 5.17725 11.5319 5.15843 11.4634C4.41248 8.74885 4.77832 5.90129 5.14902 4.17329C0.970427 10.0267 0.708049 14.4946 0.80567 16.2216C0.810075 16.2748 0.811374 16.3282 0.809562 16.3815Z" fill="#474747" stroke="#474747"/>
<path d="M17.5314 21.6732C16.1235 21.6716 14.7737 21.1117 13.7782 20.1162C12.7827 19.1206 12.2228 17.7709 12.2212 16.363C12.2212 16.3543 12.2212 16.3452 12.2212 16.3364C12.2212 16.3189 12.2189 16.2926 12.217 16.2579C12.108 14.3295 12.4233 9.1228 17.6913 2.45112C17.7387 2.3912 17.8058 2.34996 17.8807 2.33468C17.9556 2.31939 18.0334 2.33104 18.1006 2.36758C18.1677 2.40411 18.2198 2.46318 18.2476 2.53436C18.2754 2.60554 18.2772 2.68426 18.2527 2.75664C18.2378 2.80075 16.7981 7.11329 17.7818 11.0593C19.1673 11.1244 20.4723 11.7289 21.4179 12.7437C22.3634 13.7584 22.8744 15.1029 22.8415 16.4895C22.8086 17.8762 22.2345 19.1949 21.2419 20.1637C20.2494 21.1325 18.9171 21.6745 17.5301 21.6738L17.5314 21.6732ZM12.8699 16.3815C12.8735 17.3027 13.1499 18.2021 13.6643 18.9663C14.1787 19.7305 14.908 20.3252 15.76 20.6752C16.6121 21.0252 17.5488 21.115 18.4519 20.9331C19.3549 20.7511 20.1838 20.3058 20.8339 19.6531C21.484 19.0005 21.9262 18.1698 22.1046 17.2661C22.283 16.3624 22.1896 15.426 21.8363 14.5753C21.4829 13.7246 20.8855 12.9976 20.1193 12.4862C19.3531 11.9748 18.4526 11.7018 17.5314 11.7018C17.4604 11.7018 17.3913 11.6785 17.3348 11.6354C17.2783 11.5923 17.2375 11.5319 17.2187 11.4634C16.4728 8.74885 16.8386 5.90129 17.2093 4.17329C13.0307 10.0267 12.768 14.4946 12.8656 16.2216C12.8702 16.2748 12.8716 16.3282 12.8699 16.3815Z" fill="#474747" stroke="#474747"/>
</g>
<defs>
<clipPath id="clip0">
<rect width="24.3707" height="24" fill="white"/>
</clipPath>
</defs>
</svg>
