<svg width="24" height="24" viewBox="0 0 24 24" fill="none" xmlns="http://www.w3.org/2000/svg">
<path d="M12 18.4286C13.7049 18.4286 15.3401 17.7513 16.5456 16.5458C17.7512 15.3402 18.4285 13.705 18.4285 12.0001C18.4285 10.2951 17.7512 8.65997 16.5456 7.45438C15.3401 6.24879 13.7049 5.5715 12 5.5715C10.295 5.5715 8.65986 6.24879 7.45427 7.45438C6.24868 8.65997 5.57139 10.2951 5.57139 12.0001C5.57139 13.705 6.24868 15.3402 7.45427 16.5458C8.65986 17.7513 10.295 18.4286 12 18.4286ZM12 1.71436C6.31967 1.71436 1.71424 6.31978 1.71424 12.0001C1.71424 17.6804 6.31967 22.2858 12 22.2858C17.6802 22.2858 22.2857 17.6804 22.2857 12.0001C22.2857 6.31978 17.6802 1.71436 12 1.71436ZM2.99996 12.0001C2.99996 7.0295 7.02939 3.00007 12 3.00007C16.9705 3.00007 21 7.0295 21 12.0001C21 16.9706 16.9705 21.0001 12 21.0001C7.02939 21.0001 2.99996 16.9706 2.99996 12.0001Z" fill="#474747"/>
</svg>
