<svg width="20" height="20" viewBox="0 0 20 20" fill="none" xmlns="http://www.w3.org/2000/svg">
<path d="M0.833496 16.7307V11.3467C0.835518 9.51137 1.56042 7.75183 2.84917 6.45409C4.13792 5.15634 5.88526 4.42637 7.70782 4.42434H11.397V3.20447C11.3971 2.90027 11.4867 2.60292 11.6546 2.35001C11.8225 2.0971 12.061 1.89998 12.3401 1.78358C12.6192 1.66718 12.9263 1.63672 13.2226 1.69604C13.5189 1.75537 13.7911 1.90183 14.0047 2.1169L18.4959 6.63871C18.9255 7.07142 19.1668 7.65822 19.1668 8.27007C19.1668 8.88192 18.9255 9.46872 18.4959 9.90143L14.0047 14.4232C13.7911 14.6383 13.5189 14.7848 13.2226 14.8441C12.9263 14.9034 12.6192 14.873 12.3401 14.7566C12.061 14.6402 11.8225 14.443 11.6546 14.1901C11.4867 13.9372 11.3971 13.6399 11.397 13.3357V12.1158H6.94401C5.72892 12.117 4.56395 12.6036 3.70476 13.4688C2.84556 14.334 2.36234 15.5071 2.36112 16.7307C2.36112 16.9347 2.28065 17.1303 2.13741 17.2746C1.99417 17.4188 1.79989 17.4998 1.59731 17.4998C1.39473 17.4998 1.20045 17.4188 1.05721 17.2746C0.913969 17.1303 0.833496 16.9347 0.833496 16.7307ZM12.9247 5.19348C12.9247 5.39747 12.8442 5.59311 12.701 5.73735C12.5577 5.8816 12.3634 5.96263 12.1609 5.96263H7.70782C6.29029 5.96426 4.93127 6.53203 3.92892 7.54138C2.92657 8.55072 2.36274 9.91923 2.36112 11.3467V12.665C2.93365 12.0089 3.63859 11.4833 4.42888 11.1233C5.21917 10.7633 6.07663 10.5773 6.94401 10.5775H12.1609C12.3634 10.5775 12.5577 10.6585 12.701 10.8028C12.8442 10.947 12.9247 11.1427 12.9247 11.3467V13.3357L17.4151 8.81386C17.5583 8.66962 17.6388 8.47402 17.6388 8.27007C17.6388 8.06612 17.5583 7.87052 17.4151 7.72629L12.9247 3.20447V5.19348Z" fill="#474747"/>
</svg>
