<svg width="24" height="24" viewBox="0 0 24 24" fill="none" xmlns="http://www.w3.org/2000/svg">
<path d="M12 0C5.38321 0 0 5.38315 0 12C0 18.6169 5.38315 24 12 24C18.6168 24 23.9999 18.6169 23.9999 12C24 5.38315 18.6168 0 12 0ZM20.4688 12.9757C20.0512 13.2543 19.5003 13.1738 19.1757 12.8093C18.7696 16.5102 15.6248 19.3994 11.8175 19.3994C7.7354 19.3994 4.4144 16.0784 4.4144 11.9963C4.4144 7.91421 7.7354 4.5932 11.8175 4.5932C12.3668 4.5932 12.812 5.03846 12.812 5.58767C12.812 6.13689 12.3667 6.58215 11.8175 6.58215C8.83211 6.58215 6.40334 9.01091 6.40334 11.9963C6.40334 14.9816 8.83211 17.4104 11.8175 17.4104C14.4834 17.4104 16.7037 15.4732 17.1489 12.933C16.9731 13.069 16.7587 13.1422 16.5405 13.1422C16.351 13.1422 16.1592 13.0881 15.9897 12.9749C15.5327 12.6702 15.4093 12.0528 15.7141 11.5958L17.218 9.3436C17.4504 8.9952 17.8284 8.79027 18.2291 8.79027C18.2291 8.79027 18.2292 8.79027 18.2293 8.79027C18.63 8.79027 19.0079 8.995 19.2404 9.34333L20.7445 11.5973C21.0492 12.0543 20.9258 12.671 20.4688 12.9757Z" fill="#4C5BD4"/>
</svg>
