<svg width="24" height="24" viewBox="0 0 24 24" fill="none" xmlns="http://www.w3.org/2000/svg">
<circle cx="11.5" cy="11.5" r="11.5" fill="white"/>
<path fill-rule="evenodd" clip-rule="evenodd" d="M11.5 0C5.14886 0 0 5.14886 0 11.5C0 17.8511 5.14886 23 11.5 23C17.8511 23 23 17.8511 23 11.5C23 5.14886 17.8511 0 11.5 0ZM15.3755 9.10277C15.5659 8.9056 15.6713 8.64151 15.6689 8.3674C15.6665 8.09328 15.5566 7.83107 15.3628 7.63723C15.1689 7.4434 14.9067 7.33345 14.6326 7.33107C14.3585 7.32869 14.0944 7.43406 13.8972 7.6245L11.5 10.0217L9.10277 7.6245C9.00633 7.52465 8.89097 7.445 8.76342 7.39021C8.63587 7.33542 8.49869 7.30658 8.35987 7.30537C8.22106 7.30417 8.08339 7.33062 7.95491 7.38319C7.82643 7.43575 7.7097 7.51338 7.61154 7.61154C7.51338 7.7097 7.43575 7.82643 7.38319 7.95491C7.33062 8.08339 7.30417 8.22106 7.30537 8.35987C7.30658 8.49869 7.33542 8.63587 7.39021 8.76342C7.445 8.89097 7.52465 9.00633 7.6245 9.10277L10.0217 11.5L7.6245 13.8972C7.52465 13.9937 7.445 14.109 7.39021 14.2366C7.33542 14.3641 7.30658 14.5013 7.30537 14.6401C7.30417 14.7789 7.33062 14.9166 7.38319 15.0451C7.43575 15.1736 7.51338 15.2903 7.61154 15.3885C7.7097 15.4866 7.82643 15.5642 7.95491 15.6168C8.08339 15.6694 8.22106 15.6958 8.35987 15.6946C8.49869 15.6934 8.63587 15.6646 8.76342 15.6098C8.89097 15.555 9.00633 15.4754 9.10277 15.3755L11.5 12.9783L13.8972 15.3755C14.0944 15.5659 14.3585 15.6713 14.6326 15.6689C14.9067 15.6665 15.1689 15.5566 15.3628 15.3628C15.5566 15.1689 15.6665 14.9067 15.6689 14.6326C15.6713 14.3585 15.5659 14.0944 15.3755 13.8972L12.9783 11.5L15.3755 9.10277Z" fill="#FF3333"/>
</svg>
