<svg width="26" height="26" viewBox="0 0 26 26" fill="none" xmlns="http://www.w3.org/2000/svg">
<g clip-path="url(#clip0_5401_117341)">
<path d="M13 25.1875C19.731 25.1875 25.1875 19.731 25.1875 13C25.1875 6.26903 19.731 0.8125 13 0.8125C6.26903 0.8125 0.8125 6.26903 0.8125 13C0.8125 19.731 6.26903 25.1875 13 25.1875Z" fill="#FFDD67"/>
<path d="M8.32812 12.0234C9.44995 12.0234 10.3594 11.114 10.3594 9.99219C10.3594 8.87036 9.44995 7.96094 8.32812 7.96094C7.2063 7.96094 6.29688 8.87036 6.29688 9.99219C6.29688 11.114 7.2063 12.0234 8.32812 12.0234Z" fill="#664E27"/>
<path d="M17.6719 12.0234C18.7937 12.0234 19.7031 11.114 19.7031 9.99219C19.7031 8.87036 18.7937 7.96094 17.6719 7.96094C16.55 7.96094 15.6406 8.87036 15.6406 9.99219C15.6406 11.114 16.55 12.0234 17.6719 12.0234Z" fill="#664E27"/>
<path d="M7.88125 18.6062C11.1719 16.2906 14.8281 16.3312 18.1187 18.6062C18.525 18.8906 18.85 18.4031 18.6062 17.9563C17.5906 16.3313 15.6 14.8281 13 14.8281C10.4 14.8281 8.40937 16.2906 7.39375 17.9563C7.15 18.4031 7.475 18.8906 7.88125 18.6062Z" fill="#664E27"/>
</g>
<defs>
<clipPath id="clip0_5401_117341">
<rect width="26" height="26" fill="white"/>
</clipPath>
</defs>
</svg>
