<svg width="16" height="16" viewBox="0 0 16 16" fill="none" xmlns="http://www.w3.org/2000/svg">
<path d="M15.3192 3.80626L12.1942 0.68126C12.1358 0.623334 12.0666 0.577506 11.9904 0.546403C11.9143 0.515301 11.8327 0.499535 11.7505 0.50001H1.75049C1.41897 0.50001 1.10102 0.631706 0.866605 0.866127C0.632184 1.10055 0.500488 1.41849 0.500488 1.75001V14.25C0.500488 14.5815 0.632184 14.8995 0.866605 15.1339C1.10102 15.3683 1.41897 15.5 1.75049 15.5H14.2505C14.582 15.5 14.8999 15.3683 15.1344 15.1339C15.3688 14.8995 15.5005 14.5815 15.5005 14.25V4.25001C15.501 4.16775 15.4852 4.08622 15.4541 4.01007C15.423 3.93392 15.3772 3.86466 15.3192 3.80626ZM5.50048 1.75001H10.5005V4.25001H5.50048V1.75001ZM10.5005 14.25H5.50048V9.25H10.5005V14.25ZM11.7505 14.25V9.25C11.7505 8.91848 11.6188 8.60054 11.3844 8.36612C11.1499 8.1317 10.832 8.00001 10.5005 8.00001H5.50048C5.16896 8.00001 4.85102 8.1317 4.6166 8.36612C4.38218 8.60054 4.25049 8.91848 4.25049 9.25V14.25H1.75049V1.75001H4.25049V4.25001C4.25049 4.58153 4.38218 4.89947 4.6166 5.13389C4.85102 5.36831 5.16896 5.50001 5.50048 5.50001H10.5005C10.832 5.50001 11.1499 5.36831 11.3844 5.13389C11.6188 4.89947 11.7505 4.58153 11.7505 4.25001V2.00626L14.2505 4.50626V14.25H11.7505Z" fill="white"/>
</svg>
