<svg width="24" height="24" viewBox="0 0 24 24" fill="none" xmlns="http://www.w3.org/2000/svg">
<path d="M18.7753 17.64L15.8091 14.6978C16.9605 13.2621 17.5181 11.4399 17.3672 9.60583C17.2164 7.77172 16.3685 6.06512 14.998 4.83694C13.6275 3.60876 11.8385 2.95236 9.9989 3.0027C8.15928 3.05303 6.40887 3.80629 5.10758 5.10758C3.80629 6.40887 3.05303 8.15928 3.0027 9.9989C2.95236 11.8385 3.60876 13.6275 4.83694 14.998C6.06512 16.3685 7.77172 17.2164 9.60583 17.3672C11.4399 17.5181 13.2621 16.9605 14.6978 15.8091L17.64 18.7514C17.7143 18.8263 17.8028 18.8858 17.9002 18.9264C17.9976 18.967 18.1021 18.9879 18.2077 18.9879C18.3132 18.9879 18.4177 18.967 18.5152 18.9264C18.6126 18.8858 18.701 18.8263 18.7753 18.7514C18.9194 18.6023 19 18.403 19 18.1957C19 17.9883 18.9194 17.7891 18.7753 17.64ZM10.2124 15.8091C9.10552 15.8091 8.02346 15.4809 7.10309 14.8659C6.18272 14.2509 5.46538 13.3768 5.04178 12.3542C4.61818 11.3315 4.50735 10.2062 4.7233 9.12058C4.93925 8.03493 5.47228 7.0377 6.25499 6.25499C7.0377 5.47228 8.03493 4.93925 9.12058 4.7233C10.2062 4.50735 11.3315 4.61818 12.3542 5.04178C13.3768 5.46538 14.2509 6.18272 14.8659 7.10309C15.4809 8.02346 15.8091 9.10552 15.8091 10.2124C15.8091 11.6968 15.2195 13.1203 14.1699 14.1699C13.1203 15.2195 11.6968 15.8091 10.2124 15.8091Z" fill="#757575"/>
</svg>
