<svg width="24" height="24" viewBox="0 0 24 24" fill="none" xmlns="http://www.w3.org/2000/svg">
<path d="M3.2484 2.37563L21.3084 11.0139C21.4907 11.1012 21.6446 11.2382 21.7524 11.4092C21.8601 11.5802 21.9173 11.7782 21.9173 11.9803C21.9173 12.1825 21.8601 12.3804 21.7524 12.5515C21.6446 12.7225 21.4907 12.8595 21.3084 12.9468L3.2484 21.5851C3.06319 21.6738 2.85635 21.7075 2.65254 21.6821C2.44873 21.6566 2.25653 21.5731 2.09883 21.4415C1.94113 21.3099 1.82458 21.1358 1.76306 20.9398C1.70154 20.7438 1.69764 20.5343 1.75183 20.3362L4.03183 11.9808L1.75183 3.62363C1.69808 3.42562 1.7023 3.21635 1.76401 3.02068C1.82572 2.82501 1.94231 2.65117 2.09992 2.51982C2.25754 2.38847 2.44955 2.30514 2.65314 2.27973C2.85673 2.25432 3.06334 2.2879 3.2484 2.37648V2.37563ZM3.11555 3.73848L5.1924 11.3559H14.5713C14.7269 11.356 14.8772 11.4125 14.9943 11.5149C15.1114 11.6174 15.1874 11.7588 15.2081 11.9131L15.2141 11.9988C15.2143 12.1543 15.1582 12.3046 15.056 12.4218C14.9539 12.5391 14.8127 12.6153 14.6587 12.6365L14.5713 12.6425L5.18212 12.6416L3.1164 20.2231L20.3501 11.9799L3.11555 3.73763V3.73848Z" fill="white" stroke="white" stroke-width="0.5"/>
</svg>
