<svg width="25" height="25" viewBox="0 0 25 25" fill="none" xmlns="http://www.w3.org/2000/svg">
<path d="M13.4171 24.115H11.5746C11.1601 24.1149 10.7626 23.9504 10.4693 23.6576C10.1759 23.3648 10.0106 22.9676 10.0096 22.5532V20.53C9.44922 20.3556 8.90842 20.1235 8.39586 19.8375L7.11023 21.115C6.50961 21.7044 5.49211 21.6988 4.90023 21.1082L3.59773 19.7975C3.30638 19.5033 3.14362 19.1056 3.14514 18.6915C3.14667 18.2774 3.31235 17.8809 3.60586 17.5888L4.96523 16.2388C4.7653 15.8353 4.59748 15.4167 4.46336 14.9869H2.44336C2.02881 14.9849 1.63187 14.8191 1.33915 14.5255C1.04642 14.232 0.88168 13.8346 0.880859 13.42V11.5769C0.88119 11.1625 1.04588 10.7651 1.33879 10.472C1.63171 10.1788 2.02895 10.0138 2.44336 10.0132H4.46648C4.64068 9.45367 4.87277 8.91387 5.15898 8.40254L3.65273 6.88129C3.5075 6.7356 3.39266 6.56251 3.31487 6.37206C3.23708 6.18162 3.1979 5.97762 3.19961 5.77191C3.20028 5.56676 3.24167 5.36377 3.32139 5.17473C3.4011 4.98569 3.51755 4.81436 3.66398 4.67066L4.97086 3.37004C5.56961 2.78254 6.59398 2.78879 7.18148 3.37754L8.75898 4.96941C9.15898 4.76941 9.57961 4.60066 10.0146 4.46754V2.44629C10.0146 1.58441 10.7159 0.883789 11.5771 0.883789H13.4221C13.8362 0.884451 14.2332 1.0493 14.526 1.3422C14.8188 1.6351 14.9835 2.03215 14.984 2.44629V4.47004C15.4353 4.60988 15.874 4.78781 16.2952 5.00191L17.8877 3.42441C18.4884 2.83441 19.5084 2.84316 20.0977 3.43191L21.3977 4.74191C21.6896 5.03379 21.8509 5.42691 21.8509 5.84816C21.8508 6.05357 21.81 6.25692 21.7307 6.4464C21.6514 6.63588 21.5353 6.80772 21.389 6.95191L19.8734 8.45816C20.1452 8.95441 20.3665 9.47691 20.5327 10.0169H22.5577C22.9719 10.0176 23.3689 10.1824 23.6616 10.4753C23.9544 10.7682 24.1191 11.1653 24.1196 11.5794V13.4194C24.1194 13.8338 23.9549 14.2313 23.6621 14.5245C23.3693 14.8178 22.9721 14.983 22.5577 14.9838H20.5327C20.3936 15.436 20.2152 15.8751 19.9996 16.2963L21.349 17.655C21.6402 17.9432 21.8015 18.3369 21.8015 18.7613C21.8015 19.1775 21.6371 19.5688 21.3396 19.8638L20.0327 21.165C19.4321 21.7544 18.4059 21.7432 17.8234 21.1563L16.5477 19.8707C16.0496 20.1444 15.529 20.3663 14.9934 20.5319V22.5563C14.9863 22.9705 14.8175 23.3656 14.5229 23.6569C14.2283 23.9482 13.8314 24.1126 13.4171 24.115ZM8.30148 19.0938L8.49961 19.2107C9.09065 19.562 9.72523 19.8344 10.3871 20.0207L10.604 20.0813V22.5519C10.604 23.0857 11.0396 23.52 11.5746 23.52H13.4171C13.6746 23.5186 13.9214 23.4167 14.1048 23.236C14.2882 23.0552 14.3938 22.81 14.399 22.5525V20.085L14.6159 20.0244C15.2577 19.8446 15.8735 19.5822 16.4477 19.2438L16.6459 19.1269L18.244 20.7369C18.6046 21.1007 19.2415 21.1069 19.6146 20.7413L20.9202 19.4407C21.1046 19.2582 21.2065 19.0163 21.2065 18.76C21.2065 18.4957 21.1077 18.2525 20.9284 18.075L19.2677 16.4019L19.3734 16.2082C19.6546 15.6907 19.8727 15.1513 20.0227 14.6063L20.0834 14.3882H22.5577C23.0915 14.3882 23.5259 13.9532 23.5259 13.4182V11.5782C23.5259 11.0444 23.0915 10.6094 22.5577 10.6094H20.084L20.0234 10.3919C19.8446 9.74892 19.5835 9.13173 19.2465 8.55566L19.1302 8.35691L20.9696 6.52879C21.1546 6.34504 21.2565 6.10254 21.2565 5.84629C21.2565 5.58379 21.1571 5.34004 20.9765 5.16004L19.6765 3.85004C19.4926 3.67202 19.2469 3.57217 18.991 3.57148C18.7351 3.57078 18.4888 3.66928 18.304 3.84629L16.4021 5.73066L16.2084 5.62629C15.7003 5.35064 15.163 5.13283 14.6065 4.97691L14.389 4.91629V2.44629C14.389 1.91254 13.9546 1.47754 13.4209 1.47754H11.5759C11.0421 1.47754 10.6077 1.91191 10.6077 2.44629V4.91566L10.3902 4.97629C9.84648 5.12691 9.32586 5.33566 8.84148 5.59566L8.64586 5.70066L6.75898 3.79691C6.39586 3.43441 5.75773 3.42879 5.38711 3.79316L4.08148 5.09254C3.99056 5.18148 3.91826 5.28764 3.86879 5.40482C3.81932 5.52199 3.79368 5.64785 3.79336 5.77504C3.79228 5.90266 3.81659 6.02921 3.86487 6.14735C3.91315 6.26549 3.98445 6.37284 4.07461 6.46316L5.90148 8.30879L5.78461 8.50566C5.43333 9.09587 5.161 9.72961 4.97461 10.3907L4.91398 10.6075H2.44336C1.90961 10.6075 1.47523 11.0425 1.47523 11.5769V13.42C1.47523 13.9544 1.90961 14.3907 2.44461 14.3925H4.91273L4.97336 14.61C5.11836 15.1325 5.32648 15.6525 5.59336 16.1569L5.69648 16.3513L4.02523 18.0094C3.84339 18.1903 3.74068 18.4359 3.73962 18.6923C3.73857 18.9488 3.83926 19.1952 4.01961 19.3775L5.32148 20.6875C5.68898 21.0532 6.32086 21.0569 6.69336 20.6913L8.30148 19.0938Z" fill="#474747" stroke="#474747" stroke-width="0.5"/>
<path d="M12.5003 17.0633C9.9834 17.0633 7.93652 15.0158 7.93652 12.4996C7.93652 9.98207 9.98402 7.93457 12.5003 7.93457C15.0171 7.93457 17.0653 9.9827 17.0653 12.4996C17.0646 15.0164 15.0171 17.0633 12.5003 17.0633ZM12.5003 8.52895C11.4477 8.53027 10.4386 8.94905 9.6943 9.69341C8.95005 10.4378 8.53143 11.447 8.53027 12.4996C8.5316 13.5521 8.95029 14.5611 9.69452 15.3053C10.4388 16.0496 11.4478 16.4682 12.5003 16.4696C13.5529 16.4684 14.5621 16.0498 15.3064 15.3055C16.0508 14.5613 16.4696 13.5522 16.4709 12.4996C16.4694 11.447 16.0506 10.4379 15.3063 9.69356C14.562 8.94924 13.5529 8.53043 12.5003 8.52895Z" fill="#474747" stroke="#474747" stroke-width="0.5"/>
</svg>
