<svg width="24" height="24" viewBox="0 0 24 24" fill="none" xmlns="http://www.w3.org/2000/svg">
<path d="M16.281 3.21888C16.1761 3.11372 16.0423 3.04207 15.8967 3.01302C15.751 2.98397 15.6 2.99882 15.4628 3.0557C15.3256 3.11258 15.2084 3.20891 15.126 3.3325C15.0436 3.45608 14.9997 3.60135 15 3.74988V6.02088C12.6 6.15288 10.77 6.93588 9.471 8.29338C8.055 9.77388 7.362 11.8349 7.128 14.1749C7.112 14.3292 7.14425 14.4847 7.22031 14.6199C7.29636 14.7551 7.41248 14.8634 7.55266 14.9299C7.69284 14.9964 7.85019 15.0177 8.00302 14.991C8.15585 14.9644 8.29664 14.8909 8.406 14.7809C9.822 13.3634 11.118 12.6839 12.3 12.3449C13.233 12.0779 14.1195 12.0164 15 12.0029V14.2499C14.9997 14.3984 15.0436 14.5437 15.126 14.6673C15.2084 14.7908 15.3256 14.8872 15.4628 14.9441C15.6 15.0009 15.751 15.0158 15.8967 14.9867C16.0423 14.9577 16.1761 14.886 16.281 14.7809L21.531 9.53088C21.6008 9.46121 21.6563 9.37845 21.6941 9.28733C21.7319 9.19621 21.7513 9.09853 21.7513 8.99988C21.7513 8.90123 21.7319 8.80354 21.6941 8.71243C21.6563 8.62131 21.6008 8.53855 21.531 8.46888L16.281 3.21888ZM16.5 6.74988V5.56038L19.9395 8.99988L16.5 12.4394V11.2499C16.5 11.051 16.421 10.8602 16.2803 10.7195C16.1397 10.5789 15.9489 10.4999 15.75 10.4999H15.72C14.61 10.4999 13.302 10.4999 11.8875 10.9049C10.841 11.208 9.85494 11.6902 8.973 12.3299C9.303 11.1014 9.822 10.0949 10.554 9.32988C11.634 8.20338 13.275 7.49988 15.75 7.49988C15.9489 7.49988 16.1397 7.42086 16.2803 7.28021C16.421 7.13956 16.5 6.94879 16.5 6.74988ZM4.5 8.24988C4.5 7.65314 4.73705 7.08084 5.15901 6.65889C5.58097 6.23693 6.15326 5.99988 6.75 5.99988H8.25C8.44891 5.99988 8.63968 5.92086 8.78033 5.78021C8.92098 5.63956 9 5.44879 9 5.24988C9 5.05097 8.92098 4.8602 8.78033 4.71955C8.63968 4.5789 8.44891 4.49988 8.25 4.49988H6.75C5.75544 4.49988 4.80161 4.89497 4.09835 5.59823C3.39509 6.30149 3 7.25532 3 8.24988V17.2499C3 18.2444 3.39509 19.1983 4.09835 19.9015C4.80161 20.6048 5.75544 20.9999 6.75 20.9999H15.75C16.7446 20.9999 17.6984 20.6048 18.4017 19.9015C19.1049 19.1983 19.5 18.2444 19.5 17.2499V15.7499C19.5 15.551 19.421 15.3602 19.2803 15.2195C19.1397 15.0789 18.9489 14.9999 18.75 14.9999C18.5511 14.9999 18.3603 15.0789 18.2197 15.2195C18.079 15.3602 18 15.551 18 15.7499V17.2499C18 17.8466 17.7629 18.4189 17.341 18.8409C16.919 19.2628 16.3467 19.4999 15.75 19.4999H6.75C6.15326 19.4999 5.58097 19.2628 5.15901 18.8409C4.73705 18.4189 4.5 17.8466 4.5 17.2499V8.24988Z" fill="#474747"/>
</svg>
