<svg width="16" height="16" viewBox="0 0 16 16" fill="none" xmlns="http://www.w3.org/2000/svg">
<path d="M4.26678 15.4668H11.7334M0.533447 2.66676V11.2001C0.533447 11.483 0.645828 11.7543 0.845867 11.9543C1.04591 12.1544 1.31722 12.2668 1.60011 12.2668H14.4001C14.683 12.2668 14.9543 12.1544 15.1544 11.9543C15.3544 11.7543 15.4668 11.483 15.4668 11.2001V2.66676C15.4668 2.38387 15.3544 2.11256 15.1544 1.91252C14.9543 1.71248 14.683 1.6001 14.4001 1.6001H1.60011C1.31722 1.6001 1.04591 1.71248 0.845867 1.91252C0.645828 2.11256 0.533447 2.38387 0.533447 2.66676Z" stroke="#474747" stroke-linecap="round"/>
<path d="M7.99997 9.06672V4.80005M6.1333 6.66672L7.99997 4.80005L9.86663 6.66672" stroke="#474747" stroke-linecap="round" stroke-linejoin="round"/>
</svg>
