<svg width="370" height="371" viewBox="0 0 370 371" fill="none" xmlns="http://www.w3.org/2000/svg">
<g clip-path="url(#clip0)">
<path d="M64.8165 169.753L55.1077 169.953L50.1793 170.042C48.5291 170.042 46.8715 170.042 45.2213 170.079H44.8957V169.753L44.8513 161.473V161.095H45.2213L55.0189 161.14C58.2897 161.14 61.5531 161.221 64.8165 161.258H65.0237V161.458C65.0237 162.857 64.9571 164.255 64.9275 165.639L64.8165 169.753ZM64.8165 169.753L64.7129 165.565C64.7129 164.189 64.6315 162.827 64.6167 161.473L64.8165 161.673C61.5531 161.71 58.2897 161.791 55.0189 161.791L45.2213 161.843L45.5913 161.473V169.753L45.2583 169.42C46.8715 169.42 48.4847 169.42 50.1053 169.42L54.9745 169.509L64.8165 169.753Z" fill="#EBEBEB"/>
<path d="M53.8868 180.195L44.178 180.395L39.2496 180.483C37.5994 180.483 35.9418 180.483 34.2916 180.52H33.966V180.195L33.9216 171.914V171.559H34.2916L44.0892 171.603C47.3526 171.603 50.6234 171.685 53.8868 171.722H54.094V171.922C54.094 173.32 54.0348 174.719 53.9978 176.103L53.8868 180.195ZM53.8868 180.195L53.7832 175.999C53.7462 174.623 53.7018 173.261 53.687 171.907L53.8868 172.107C50.6234 172.144 47.3526 172.225 44.0892 172.225L34.2916 172.299L34.6616 171.936L34.6246 180.217L34.2916 179.884C35.9048 179.884 37.518 179.884 39.1386 179.921L44.0078 180.01L53.8868 180.195Z" fill="#EBEBEB"/>
<path d="M335.708 180.195L325.992 180.395L321.064 180.483C319.421 180.483 317.763 180.483 316.113 180.52H315.78V180.195L315.743 171.914V171.559H316.113L325.911 171.603C329.174 171.603 332.445 171.685 335.708 171.722H335.908V171.922C335.908 173.32 335.849 174.719 335.812 176.103L335.708 180.195ZM335.708 180.195L335.605 176.006C335.605 174.63 335.516 173.268 335.509 171.914L335.708 172.114C332.445 172.151 329.174 172.232 325.911 172.232L316.113 172.277L316.483 171.914L316.439 180.195L316.113 179.862C317.726 179.862 319.34 179.862 320.953 179.899L325.822 179.988L335.708 180.195Z" fill="#EBEBEB"/>
<path d="M324.778 33.327L315.062 33.5342L310.134 33.6156C308.491 33.6156 306.833 33.6156 305.183 33.66H304.88V33.327V25.0464V24.6764H305.257L315.055 24.7208C318.318 24.7208 321.582 24.8096 324.852 24.8466H325.052V25.039C325.052 26.445 324.986 27.8436 324.956 29.22L324.778 33.327ZM324.778 33.327L324.675 29.146C324.638 27.7622 324.586 26.4006 324.571 25.0464L324.778 25.2462C321.508 25.2462 318.244 25.3646 314.981 25.372L305.183 25.4164L305.553 25.0464L305.509 33.327L305.183 32.994C306.796 32.994 308.402 32.994 310.023 33.0384L314.892 33.1198L324.778 33.327Z" fill="#EBEBEB"/>
<path d="M335.708 43.7684L325.992 43.9756L321.064 44.057C319.421 44.057 317.763 44.057 316.113 44.1014H315.78V43.7684L315.743 35.4878V35.1178H316.113L325.911 35.1622C329.174 35.1622 332.445 35.251 335.708 35.288H335.908V35.4878C335.908 36.8938 335.849 38.2924 335.812 39.6688L335.708 43.7684ZM335.708 43.7684L335.605 39.5874C335.605 38.2036 335.516 36.842 335.509 35.4878L335.708 35.6876C332.445 35.6876 329.174 35.806 325.911 35.8134L316.113 35.8578L316.483 35.4878L316.439 43.7684L316.113 43.4354C317.726 43.4354 319.34 43.4354 320.953 43.4798L325.822 43.5612L335.708 43.7684Z" fill="#EBEBEB"/>
<path d="M64.8165 33.327L55.1077 33.5342L50.1793 33.6156C48.5291 33.6156 46.8715 33.6156 45.2213 33.66H44.8957V33.327L44.8513 25.039V24.669H45.2213L55.0189 24.7134C58.2897 24.7134 61.5531 24.8022 64.8165 24.8392H65.0237V25.039C65.0237 26.445 64.9571 27.8436 64.9275 29.22L64.8165 33.327ZM64.8165 33.327L64.7129 29.146C64.7129 27.7622 64.6315 26.4006 64.6167 25.0464L64.8165 25.2462C61.5531 25.2462 58.2897 25.3646 55.0189 25.372L45.2213 25.4164L45.5913 25.0464V33.327L45.2583 32.994C46.8715 32.994 48.4847 32.994 50.1053 33.0384L54.9745 33.1198L64.8165 33.327Z" fill="#EBEBEB"/>
<path d="M309.054 0.619019H308.314V70.5416H309.054V0.619019Z" fill="#C7C7C7"/>
<path d="M278.055 100.075L280.512 105.492H336.87L339.327 100.075L315.336 83.4694H302.046L278.055 100.075Z" fill="#EBEBEB"/>
<path d="M300.381 67.4706L302.046 83.4694H315.336L317.001 67.4706H300.381Z" fill="#DBDBDB"/>
<path d="M278.055 100.075L280.519 105.492H336.87L339.327 100.075H278.055Z" fill="#DBDBDB"/>
<path d="M243.275 0.619019H242.535V53.0702H243.275V0.619019Z" fill="#C7C7C7"/>
<path d="M212.269 82.5962L214.733 88.013H271.084L273.541 82.5962L249.55 65.9906H236.26L212.269 82.5962Z" fill="#EBEBEB"/>
<path d="M234.595 49.9918L236.26 65.9906H249.55L251.215 49.9918H234.595Z" fill="#DBDBDB"/>
<path d="M212.276 82.6036L214.741 88.0204H271.084L273.541 82.6036H212.276Z" fill="#DBDBDB"/>
<path d="M58.0011 87.4358C60.0909 88.2763 62.302 88.776 64.5501 88.9158C69.9387 89.2675 75.2619 87.5748 79.4576 84.1752C83.6533 80.7757 86.4132 75.9193 87.1866 70.5749C87.96 65.2305 86.6901 59.791 83.6302 55.3414C80.5704 50.8919 75.9455 47.7596 70.6782 46.5692C65.411 45.3789 59.8886 46.2181 55.2127 48.9194C50.5368 51.6207 47.0513 55.9856 45.4513 61.1432C43.8514 66.3008 44.2547 71.8721 46.5809 76.7455C48.907 81.6189 52.9849 85.4361 58.0011 87.4358Z" fill="#EBEBEB"/>
<path d="M58.9928 66.2201C59.2227 67.4902 59.824 68.6638 60.7208 69.5922C61.6176 70.5206 62.7696 71.1623 64.031 71.4361C65.2925 71.7098 66.6068 71.6034 67.8078 71.1302C69.0088 70.6571 70.0425 69.8384 70.7782 68.7778C71.5139 67.7171 71.9186 66.4622 71.9411 65.1715C71.9636 63.8809 71.6029 62.6126 70.9046 61.5269C70.2063 60.4413 69.2017 59.5871 68.018 59.0724C66.8342 58.5576 65.5244 58.4054 64.2542 58.6351C62.5515 58.9448 61.0413 59.9175 60.0549 61.3395C59.0685 62.7615 58.6865 64.5167 58.9928 66.2201Z" fill="white"/>
<path d="M57.5202 84.7866L58.0012 87.4358C60.091 88.2763 62.3021 88.776 64.5502 88.9158C67.3919 89.0948 70.2407 88.7032 72.9287 87.764C75.6166 86.8248 78.0894 85.357 80.2012 83.4472L79.7202 80.8054C79.1874 77.8615 77.5069 75.2499 75.0485 73.545C72.5901 71.8401 69.555 71.1817 66.6111 71.7145C63.6672 72.2474 61.0556 73.9279 59.3507 76.3863C57.6458 78.8447 56.9874 81.8797 57.5202 84.8236V84.7866Z" fill="white"/>
<path d="M258.112 211.452C260.13 213.631 262.785 215.115 265.698 215.692C268.611 216.268 271.632 215.908 274.328 214.662C277.023 213.416 279.255 211.348 280.703 208.756C282.151 206.163 282.741 203.179 282.389 200.231C282.036 197.282 280.759 194.521 278.741 192.343C276.723 190.165 274.067 188.681 271.153 188.106C268.24 187.53 265.22 187.892 262.525 189.139C259.829 190.386 257.598 192.454 256.151 195.047C254.711 197.64 254.126 200.621 254.478 203.567C254.83 206.512 256.102 209.271 258.112 211.452Z" fill="#EBEBEB"/>
<path d="M264.728 199.213C264.498 200.028 264.515 200.892 264.777 201.698C265.039 202.503 265.534 203.212 266.199 203.735C266.865 204.259 267.671 204.573 268.515 204.638C269.359 204.704 270.203 204.517 270.941 204.102C271.679 203.687 272.277 203.062 272.66 202.306C273.042 201.551 273.192 200.699 273.09 199.859C272.988 199.018 272.639 198.227 272.087 197.585C271.535 196.943 270.805 196.479 269.989 196.253C268.899 195.952 267.734 196.094 266.748 196.649C265.763 197.203 265.036 198.125 264.728 199.213Z" fill="white"/>
<path d="M258.586 209.75L258.112 211.452C259.888 213.365 262.161 214.745 264.677 215.439C267.193 216.133 269.852 216.113 272.357 215.382L272.831 213.687C273.237 211.837 272.919 209.901 271.941 208.279C270.963 206.656 269.4 205.471 267.574 204.966C265.748 204.462 263.799 204.676 262.126 205.566C260.454 206.457 259.187 207.954 258.586 209.75Z" fill="white"/>
<path d="M100.551 102.45C99.9606 100.033 100.1 97.495 100.952 95.1569C101.804 92.8189 103.33 90.786 105.337 89.3154C107.345 87.8448 109.743 87.0026 112.229 86.8953C114.715 86.7879 117.177 87.4203 119.304 88.7125C121.431 90.0046 123.126 91.8984 124.176 94.1544C125.227 96.4103 125.584 98.9271 125.204 101.386C124.824 103.845 123.722 106.137 122.04 107.97C120.357 109.803 118.169 111.096 115.751 111.686C112.511 112.476 109.09 111.946 106.239 110.215C103.389 108.483 101.343 105.69 100.551 102.45Z" fill="#EBEBEB"/>
<path d="M119.184 101.044C117.283 104.87 112.769 107.149 112.769 107.149C112.769 107.149 108.247 104.87 106.353 101.044C104.769 97.8476 105.776 94.3844 108.269 93.6444C111.851 92.564 112.769 98.8244 112.769 98.8244C112.769 98.8244 113.686 92.5936 117.268 93.6444C119.762 94.3918 120.768 97.8476 119.184 101.044Z" fill="white"/>
<path d="M300.618 151.512C301.011 149.055 302.124 146.77 303.816 144.945C305.508 143.121 307.703 141.839 310.124 141.262C312.545 140.685 315.082 140.839 317.415 141.705C319.748 142.57 321.772 144.108 323.231 146.124C324.69 148.14 325.518 150.544 325.611 153.03C325.704 155.517 325.057 157.975 323.753 160.094C322.448 162.214 320.544 163.898 318.282 164.935C316.02 165.972 313.501 166.315 311.044 165.92C307.752 165.391 304.804 163.576 302.848 160.875C300.893 158.173 300.091 154.806 300.618 151.512Z" fill="#EBEBEB"/>
<path d="M318.333 157.44C315.099 160.237 310.053 160.577 310.053 160.577C310.053 160.577 306.767 156.729 306.508 152.437C306.293 148.878 308.55 146.088 311.148 146.362C314.848 146.754 313.294 152.852 313.294 152.852C313.294 152.852 316.557 147.465 319.443 149.855C321.449 151.579 321.034 155.109 318.333 157.44Z" fill="white"/>
<path fill-rule="evenodd" clip-rule="evenodd" d="M156.458 151.209C155.881 150.854 155.385 150.328 154.608 150.402C154.312 150.402 154.379 150.188 154.379 150.032C154.379 147.132 154.379 144.231 154.342 141.337C154.342 141.123 154.342 140.953 154.586 140.834C156.806 139.709 157.746 137.512 159.093 135.654C159.786 134.719 160.283 133.654 160.555 132.523C160.827 131.391 160.868 130.216 160.676 129.068C160.587 128.417 160.891 128.128 161.475 127.988C161.771 127.888 162.09 127.885 162.388 127.978C162.686 128.071 162.947 128.256 163.133 128.506C163.774 129.688 164.204 130.972 164.406 132.302C164.539 133.397 164.147 134.47 164.014 135.558C163.917 136.35 163.732 137.142 163.584 137.948C163.777 138.089 164.006 138.015 164.213 138.015H171.562C172.59 138.015 173.093 138.303 173.241 138.992C173.323 139.413 173.263 139.849 173.072 140.233C172.88 140.616 172.568 140.927 172.183 141.115C171.998 141.212 171.673 141.115 171.65 141.411C171.628 141.707 171.969 141.678 172.139 141.796C173.027 142.396 172.879 143.654 171.843 144.379C171.599 144.556 171.103 144.475 171.103 144.838C171.103 145.2 171.547 145.119 171.754 145.326C172.494 146.029 172.117 147.354 171.051 147.886C170.904 147.932 170.76 147.989 170.622 148.057C170.503 148.138 170.385 148.227 170.622 148.397C171.687 149.137 171.673 150.203 170.622 150.972L170.304 151.209C169.916 151.439 169.464 151.538 169.016 151.49L157.494 151.535C157.308 151.555 157.12 151.536 156.942 151.48C156.764 151.424 156.599 151.332 156.458 151.209Z" fill="#EBEBEB"/>
<path fill-rule="evenodd" clip-rule="evenodd" d="M145.529 146.14C145.529 144.297 145.529 142.44 145.529 140.612C145.529 140.235 145.529 140.057 146.024 140.057C148.274 140.057 150.519 140.057 152.758 140.057C153.202 140.057 153.269 140.205 153.269 140.597C153.269 144.302 153.269 148.002 153.269 151.697C153.269 152.171 153.151 152.304 152.677 152.297C150.457 152.297 148.318 152.297 146.143 152.297C145.603 152.297 145.521 152.112 145.529 151.638C145.558 149.818 145.536 147.983 145.529 146.14Z" fill="#EBEBEB"/>
<path d="M30.6729 273.161L69.2565 272.983L107.84 272.917L185 272.798L262.16 272.917L300.743 272.983L339.327 273.161L300.743 273.346L262.16 273.413L185 273.531L107.84 273.413L69.2565 273.346L30.6729 273.161Z" fill="#263238"/>
<path d="M185 340.568C264.968 340.568 329.796 331.453 329.796 320.21C329.796 308.967 264.968 299.853 185 299.853C105.031 299.853 40.2041 308.967 40.2041 320.21C40.2041 331.453 105.031 340.568 185 340.568Z" fill="#C3E5FF"/>
<path d="M197.372 89.2274C200.62 67.7875 185.873 47.7735 164.433 44.525C142.993 41.2766 122.979 56.0237 119.731 77.4636C116.483 98.9036 131.23 118.918 152.67 122.166C174.11 125.414 194.123 110.667 197.372 89.2274Z" fill="#F9C903"/>
<path opacity="0.1" d="M151.9 122.046C145.822 121.067 140.06 118.672 135.08 115.054C130.1 111.436 126.041 106.696 123.232 101.218C120.424 95.7405 118.944 89.6785 118.913 83.5227C118.881 77.3669 120.3 71.2902 123.053 65.7842C125.806 60.2782 129.816 55.4975 134.759 51.829C139.703 48.1605 145.44 45.7071 151.508 44.6674C157.575 43.6276 163.802 44.0307 169.685 45.844C175.568 47.6573 180.941 50.8299 185.37 55.1052C179.261 49.6546 171.393 46.5883 163.207 46.4682C155.021 46.3481 147.066 49.1822 140.8 54.4512C134.534 59.7201 130.377 67.0709 129.09 75.156C127.804 83.2412 129.475 91.5192 133.796 98.4726C138.118 105.426 144.8 110.589 152.619 113.015C160.438 115.442 168.87 114.969 176.369 111.683C183.867 108.397 189.931 102.519 193.447 95.1261C196.964 87.733 197.698 79.3201 195.516 71.4296C197.548 77.8138 197.911 84.6123 196.569 91.1765C195.228 97.7408 192.228 103.852 187.854 108.928C183.481 114.003 177.88 117.874 171.586 120.17C165.292 122.466 158.514 123.112 151.9 122.046Z" fill="black"/>
<path d="M135.42 71.8144C135.432 71.0168 135.604 70.2297 135.924 69.4991C136.244 68.7685 136.707 68.1091 137.285 67.5594C137.884 66.965 138.61 66.5145 139.409 66.2422C140.228 65.9681 141.101 65.8946 141.954 66.0276C142.804 66.1714 143.607 66.5136 144.3 67.0266C144.971 67.5383 145.519 68.193 145.906 68.9432C146.28 69.6474 146.51 70.4191 146.582 71.2132C146.655 72.0073 146.568 72.8079 146.328 73.5682C146.242 72.1195 145.761 70.722 144.936 69.5278C144.565 68.9849 144.089 68.5218 143.537 68.1659C142.984 67.81 142.365 67.5686 141.717 67.4558C141.068 67.3573 140.405 67.3918 139.769 67.5572C139.133 67.7226 138.537 68.0153 138.017 68.4178C136.855 69.289 135.956 70.4644 135.42 71.8144Z" fill="#263238"/>
<path d="M172.42 77.7788C172.431 76.9817 172.602 76.195 172.92 75.4644C173.239 74.7338 173.701 74.0741 174.277 73.5238C174.878 72.931 175.603 72.4808 176.401 72.2066C177.22 71.9276 178.094 71.8533 178.948 71.99C179.802 72.1267 180.609 72.4704 181.3 72.991C181.971 73.5027 182.519 74.1574 182.906 74.9076C183.281 75.6113 183.512 76.383 183.585 77.1774C183.657 77.9718 183.57 78.7726 183.328 79.5326C183.241 78.0842 182.76 76.6871 181.936 75.4922C181.573 74.9427 181.1 74.4745 180.546 74.1175C179.993 73.7604 179.371 73.5221 178.721 73.4178C178.07 73.3134 177.405 73.3453 176.768 73.5113C176.13 73.6773 175.534 73.9739 175.017 74.3822C173.853 75.2509 172.953 76.4271 172.42 77.7788Z" fill="#263238"/>
<path d="M167.795 75.2332C167.678 76.3464 167.336 77.4242 166.79 78.4011C166.243 79.3779 165.504 80.2333 164.616 80.9153C163.729 81.5973 162.712 82.0916 161.627 82.368C160.542 82.6445 159.413 82.6974 158.307 82.5235C157.202 82.3496 156.143 81.9525 155.195 81.3565C154.248 80.7604 153.432 79.9778 152.796 79.0563C152.161 78.1348 151.72 77.0937 151.499 75.9963C151.279 74.8989 151.285 73.7681 151.515 72.6728L167.795 75.2332Z" fill="#263238"/>
<path d="M165.19 80.058C164.277 80.8885 163.189 81.5037 162.006 81.8582C160.824 82.2128 159.577 82.2977 158.357 82.1067C157.137 81.9157 155.976 81.4537 154.958 80.7547C153.941 80.0557 153.093 79.1374 152.477 78.0674C154.485 76.8272 156.87 76.3461 159.202 76.7112C161.533 77.0763 163.658 78.2634 165.19 80.058Z" fill="#C95F50"/>
<path d="M134.784 71.5332C134.784 71.5332 128.864 69.5056 125.008 71.7404C121.153 73.9752 122.337 78.4004 126.259 78.726C130.181 79.0516 134.784 71.5332 134.784 71.5332Z" fill="white"/>
<path d="M184.26 79.5326C184.26 79.5326 190.498 79.984 193.14 83.5434C195.782 87.1028 193.014 90.6918 189.262 89.4634C185.511 88.235 184.26 79.5326 184.26 79.5326Z" fill="white"/>
<path d="M91.0193 126.706C92.6314 110.085 80.4643 95.3036 63.8432 93.6915C47.2221 92.0793 32.4411 104.246 30.829 120.868C29.2168 137.489 41.384 152.27 58.0051 153.882C74.6262 155.494 89.4071 143.327 91.0193 126.706Z" fill="#F9C903"/>
<path opacity="0.1" d="M69.6045 152.741C65.0601 154.096 60.2606 154.363 55.5939 153.521C50.9271 152.679 46.5239 150.751 42.7399 147.892C38.9559 145.034 35.8972 141.326 33.8109 137.068C31.7246 132.809 30.6692 128.119 30.73 123.378C30.7908 118.636 31.9661 113.975 34.1608 109.771C36.3556 105.568 39.5084 101.939 43.3644 99.1788C47.2204 96.4185 51.6717 94.604 56.3585 93.8817C61.0453 93.1594 65.8363 93.5496 70.3445 95.0208C64.2777 93.2924 57.7912 93.808 52.0737 96.4731C46.3561 99.1383 41.7904 103.774 39.2131 109.532C36.6358 115.29 36.2196 121.783 38.0407 127.823C39.8619 133.863 43.7983 139.044 49.1289 142.417C54.4594 145.79 60.827 147.13 67.0648 146.19C73.3026 145.25 78.9929 142.094 83.093 137.3C87.1931 132.506 89.4284 126.395 89.3893 120.087C89.3502 113.779 87.0393 107.696 82.8801 102.954C86.4362 106.7 88.9734 111.295 90.25 116.3C91.5266 121.306 91.4999 126.554 90.1725 131.546C88.8451 136.538 86.2612 141.107 82.6672 144.817C79.0732 148.528 74.5888 151.255 69.6415 152.741H69.6045Z" fill="black"/>
<path d="M41.7879 125.035C41.5069 124.481 41.3434 123.875 41.3077 123.255C41.2721 122.635 41.365 122.014 41.5807 121.431C41.7963 120.805 42.1504 120.236 42.6167 119.766C43.1049 119.294 43.6984 118.944 44.3483 118.745C45.0022 118.553 45.6929 118.523 46.3611 118.656C47.0094 118.794 47.6188 119.074 48.1445 119.478C48.6416 119.85 49.0566 120.321 49.3634 120.861C49.6703 121.4 49.8625 121.998 49.9279 122.615C49.3571 121.665 48.5419 120.886 47.5673 120.358C47.1427 120.113 46.6725 119.956 46.1854 119.897C45.6983 119.839 45.2044 119.88 44.7338 120.019C44.2631 120.157 43.8255 120.39 43.4476 120.703C43.0697 121.015 42.7593 121.402 42.5353 121.838C42.0089 122.82 41.7511 123.922 41.7879 125.035Z" fill="#263238"/>
<path d="M77.1082 112.685C77.3472 113.49 77.3427 114.348 77.0951 115.15C76.8475 115.953 76.3679 116.664 75.7168 117.195C75.0656 117.725 74.2721 118.051 73.436 118.131C72.6 118.212 71.7589 118.043 71.0187 117.646C70.2785 117.249 69.6723 116.642 69.2764 115.901C68.8806 115.16 68.7128 114.319 68.7942 113.483C68.8756 112.647 69.2026 111.854 69.734 111.204C70.2653 110.553 70.9773 110.075 71.7802 109.828C72.3175 109.664 72.882 109.608 73.4411 109.663C74.0003 109.718 74.543 109.883 75.0382 110.148C75.5333 110.414 75.9711 110.775 76.3264 111.21C76.6816 111.645 76.9473 112.146 77.1082 112.685Z" fill="#263238"/>
<path d="M52.9767 121.054C52.9767 121.054 54.9007 123.651 59.5109 123.23C59.5109 123.23 58.8597 131.91 53.3985 129.89C47.9373 127.869 52.9767 121.054 52.9767 121.054Z" fill="#C95F50"/>
<path d="M51.2969 118.494C52.2273 120.089 53.6067 121.376 55.2633 122.194C56.8847 122.867 58.6943 122.936 60.3619 122.386C62.066 121.969 63.557 120.939 64.5503 119.493C65.5129 117.932 66.0464 116.145 66.0969 114.313C66.5823 116.239 66.3536 118.277 65.4531 120.048C64.9699 120.958 64.2929 121.751 63.4699 122.371C62.6422 122.97 61.7153 123.419 60.7319 123.696C59.751 123.974 58.7306 124.086 57.7127 124.029C56.6847 123.953 55.6864 123.649 54.7897 123.141C53.0642 122.106 51.811 120.439 51.2969 118.494Z" fill="#263238"/>
<path d="M54.4565 127.573C54.5034 126.746 54.6756 125.93 54.9671 125.154C55.2265 124.359 55.6085 123.61 56.0993 122.934C56.0586 123.761 55.8888 124.578 55.5961 125.353C55.331 126.147 54.9468 126.895 54.4565 127.573Z" fill="#263238"/>
<path d="M279.528 97.6108H211.137V135.336H279.528V97.6108Z" fill="#455A64"/>
<path d="M197.95 135.343H211.137V123.585L197.95 135.343Z" fill="#455A64"/>
<path d="M250.46 104.582H219.454V105.433H250.46V104.582Z" fill="white"/>
<path d="M271.536 109.17H219.454V110.021H271.536V109.17Z" fill="white"/>
<path d="M271.536 113.758H219.454V114.609H271.536V113.758Z" fill="white"/>
<path d="M261.553 118.346H219.454V119.197H261.553V118.346Z" fill="white"/>
<path d="M271.536 122.934H219.454V123.785H271.536V122.934Z" fill="white"/>
<path d="M238.613 127.522H219.454V128.373H238.613V127.522Z" fill="white"/>
<path d="M308.173 141.952H240.241V169.931H308.173V141.952Z" fill="#F9C903"/>
<path d="M240.263 158.713V169.931H226.625L240.263 158.713Z" fill="#F9C903"/>
<path d="M300.011 148.915H248.507V149.766H300.011V148.915Z" fill="white"/>
<path d="M277.892 153.503H248.507V154.354H277.892V153.503Z" fill="white"/>
<path d="M288.23 158.091H248.507V158.942H288.23V158.091Z" fill="white"/>
<path d="M262.345 162.679H248.507V163.53H262.345V162.679Z" fill="white"/>
<path d="M197.624 159.638L197.21 159.275C197.528 158.905 197.869 158.535 198.209 158.172L198.616 158.55C198.276 158.912 197.943 159.275 197.624 159.638Z" fill="#263238"/>
<path d="M214.037 205.288V204.733C214.985 204.733 215.954 204.652 216.924 204.541L216.99 205.096C215.991 205.199 214.999 205.266 214.037 205.288ZM210.337 205.118C209.357 205.008 208.384 204.845 207.422 204.63L207.548 204.089C208.488 204.3 209.439 204.458 210.397 204.563L210.337 205.118ZM220.586 204.482L220.468 203.941C221.393 203.734 222.333 203.483 223.273 203.201L223.436 203.734C222.51 204.015 221.548 204.274 220.609 204.482H220.586ZM203.892 203.571C202.971 203.221 202.071 202.816 201.199 202.358L201.457 201.862C202.31 202.308 203.187 202.706 204.085 203.053L203.892 203.571ZM226.899 202.484L226.684 201.966C227.572 201.603 228.46 201.226 229.333 200.782L229.577 201.277C228.719 201.714 227.816 202.114 226.921 202.484H226.899ZM198.039 200.389C197.247 199.804 196.493 199.169 195.782 198.488L196.167 198.088C196.867 198.753 197.608 199.373 198.387 199.945L198.039 200.389ZM232.782 199.538L232.493 199.065C233.314 198.569 234.128 198.036 234.92 197.474L235.239 197.933C234.491 198.495 233.662 199.035 232.834 199.538H232.782ZM193.317 195.742C192.717 194.961 192.166 194.143 191.667 193.293L192.148 193.012C192.633 193.841 193.169 194.64 193.754 195.402L193.317 195.742ZM238.139 195.676L237.777 195.254C238.517 194.64 239.22 193.981 239.923 193.308L240.307 193.707C239.649 194.388 238.924 195.054 238.191 195.676H238.139ZM242.853 191.058L242.439 190.688C243.075 189.992 243.711 189.208 244.333 188.468L244.762 188.816C244.2 189.608 243.541 190.355 242.905 191.058H242.853ZM190.054 189.97C189.69 189.052 189.382 188.113 189.129 187.158L189.669 187.018C189.914 187.949 190.213 188.866 190.565 189.763L190.054 189.97ZM247.034 185.937L246.583 185.604C247.16 184.864 247.722 184.035 248.277 183.236L248.736 183.547C248.203 184.361 247.641 185.153 247.064 185.937H247.034ZM188.485 183.532C188.379 182.581 188.325 181.625 188.323 180.668V180.587H188.878V180.676C188.878 181.61 188.929 182.544 189.033 183.473L188.485 183.532ZM250.771 180.506L250.305 180.202C250.83 179.388 251.356 178.574 251.874 177.738L252.34 178.034C251.851 178.87 251.326 179.699 250.801 180.506H250.771ZM189.137 176.983L188.589 176.902C188.726 175.928 188.913 174.962 189.151 174.008L189.692 174.142C189.466 175.079 189.291 176.027 189.166 176.983H189.137ZM254.256 174.919L253.783 174.63C254.286 173.801 254.789 172.972 255.263 172.129L255.736 172.417L254.256 174.919ZM190.765 170.686L190.247 170.493C190.587 169.583 190.987 168.673 191.416 167.785L191.912 168.029C191.527 168.902 191.135 169.798 190.802 170.686H190.765ZM257.653 169.287L257.179 168.999L258.696 166.497L259.17 166.786L257.653 169.287ZM193.673 164.847L193.199 164.551C193.717 163.73 194.272 162.908 194.857 162.117L195.301 162.45C194.768 163.241 194.213 164.048 193.71 164.899L193.673 164.847ZM261.101 163.671L260.628 163.375C261.146 162.553 261.679 161.732 262.211 160.918L262.678 161.221C262.182 162.05 261.649 162.871 261.138 163.685L261.101 163.671ZM264.713 158.195L264.254 157.876C264.809 157.077 265.379 156.285 265.956 155.494L266.4 155.819C265.857 156.613 265.307 157.42 264.75 158.239L264.713 158.195ZM268.605 152.918L268.168 152.571C268.783 151.794 269.404 151.031 270.019 150.299L270.448 150.661C269.87 151.401 269.249 152.156 268.62 152.933L268.605 152.918ZM272.853 147.931L272.446 147.553C273.112 146.813 273.8 146.125 274.481 145.444L274.873 145.837C274.229 146.532 273.556 147.235 272.89 147.946L272.853 147.931ZM277.515 143.343L277.145 142.928C277.885 142.277 278.625 141.633 279.365 141.019L279.712 141.448C279.017 142.07 278.24 142.699 277.552 143.358L277.515 143.343ZM282.598 139.228L282.273 138.784C283.057 138.207 283.871 137.645 284.685 137.112L284.989 137.578C284.219 138.118 283.42 138.681 282.635 139.243L282.598 139.228ZM288.074 135.669L287.801 135.188C288.637 134.707 289.503 134.226 290.368 133.782L290.627 134.27C289.799 134.729 288.94 135.203 288.111 135.684L288.074 135.669ZM293.891 132.709L293.661 132.206C294.549 131.806 295.46 131.421 296.362 131.059L296.57 131.577C295.704 131.925 294.808 132.339 293.928 132.702L293.891 132.709ZM299.974 130.319L299.796 129.793C300.714 129.475 301.653 129.179 302.593 128.898L302.749 129.431C301.853 129.697 300.921 130.001 300.011 130.311L299.974 130.319Z" fill="#263238"/>
<path d="M306.426 128.424L306.293 127.884L307.736 127.544L307.862 128.084L306.426 128.424Z" fill="#263238"/>
<path d="M306.945 122.26L301.298 129.675L309.246 126.671L336.448 125.42L306.945 122.26Z" fill="#F9C903"/>
<path opacity="0.1" d="M306.945 122.26L301.298 129.675L309.246 126.671L336.448 125.42L306.945 122.26Z" fill="black"/>
<path d="M309.461 128.876L301.298 129.675L309.246 126.671L309.461 128.876Z" fill="#263238"/>
<path d="M309.246 126.671L336.448 125.42L310.304 138.74L309.246 126.671Z" fill="#F9C903"/>
<path d="M306.944 122.26L298.827 112.537L336.448 125.42L306.944 122.26Z" fill="#F9C903"/>
<path d="M89.725 319.618L226.625 320.21C259.925 294.081 263.336 255.371 239.597 231.913C225.234 217.72 206.993 220.584 189.618 218.327H189.573C183.52 217.535 177.585 216.107 171.954 213.147C154.068 203.712 143.982 181.453 128.938 162.731C127.058 160.378 125.085 158.101 123.018 155.901C110.645 142.684 86.0176 142.255 73.1343 160.829C40.4115 208.026 55.4039 278.282 89.725 319.618Z" fill="#F9C903"/>
<path opacity="0.2" d="M89.725 319.618L226.625 320.21C259.925 294.081 263.336 255.371 239.597 231.913C225.234 217.72 206.993 220.584 189.618 218.327H189.573C183.52 217.535 177.585 216.107 171.954 213.147C154.068 203.712 143.982 181.453 128.938 162.731C127.058 160.378 125.085 158.101 123.018 155.901C110.645 142.684 86.0176 142.255 73.1343 160.829C40.4115 208.026 55.4039 278.282 89.725 319.618Z" fill="black"/>
<path opacity="0.1" d="M86.6836 211.63C90.28 267.759 155.126 288.753 195.641 271.933C230.858 257.303 219.321 223.914 189.603 218.327H189.558C183.505 217.535 177.57 216.107 171.939 213.147C154.053 203.712 143.967 181.453 128.923 162.731C106.501 151.083 84.0566 170.508 86.6836 211.63Z" fill="black"/>
<path d="M207.459 324.066C205.483 323.326 160.883 287.695 160.04 285.26C159.714 284.342 164.532 277.542 170.577 269.491C171.88 267.752 173.241 265.968 174.633 264.163C183.646 252.419 193.48 240.164 193.48 240.164L223.391 263.926L203.715 287.265L199.4 292.394C199.4 292.394 210.375 313.676 211.011 316.444C211.647 319.211 209.42 324.791 207.459 324.066Z" fill="#C95F50"/>
<path d="M207.459 324.066C205.483 323.326 160.883 287.695 160.04 285.26C159.648 284.135 166.833 274.338 174.633 264.163L203.715 287.265L199.4 292.394C199.4 292.394 210.375 313.676 211.011 316.444C211.647 319.211 209.42 324.791 207.459 324.066Z" fill="white"/>
<path d="M207.459 324.066C205.483 323.326 160.883 287.695 160.04 285.26C159.714 284.342 164.532 277.542 170.577 269.491L199.4 292.431C199.4 292.431 210.375 313.713 211.011 316.481C211.647 319.248 209.42 324.791 207.459 324.066Z" fill="#F9C903"/>
<path d="M208.243 321.779C200.917 315.622 170.77 291.439 163.059 285.941C162.992 285.896 162.963 285.941 163.059 285.985C170.185 292.246 200.525 316.155 208.199 321.897C208.31 322.016 208.399 321.897 208.243 321.779Z" fill="#263238"/>
<path d="M209.42 312.551C208.609 311.865 207.663 311.355 206.644 311.053C205.625 310.751 204.555 310.664 203.5 310.797C201.598 311.024 199.857 311.976 198.638 313.454C198.601 313.498 198.683 313.565 198.727 313.528C200.163 312.249 201.976 311.472 203.892 311.311C205.808 311.151 207.725 311.617 209.353 312.64C209.42 312.684 209.479 312.596 209.42 312.551Z" fill="#263238"/>
<path d="M201.702 295.45C198.742 293.015 194.435 291.306 190.602 292.26C190.454 292.297 190.506 292.512 190.602 292.534C194.317 293.254 197.944 294.37 201.421 295.864C201.448 295.883 201.478 295.896 201.511 295.902C201.543 295.909 201.576 295.909 201.608 295.903C201.641 295.897 201.671 295.884 201.699 295.866C201.726 295.848 201.75 295.825 201.768 295.798C201.787 295.77 201.8 295.74 201.806 295.708C201.813 295.675 201.813 295.642 201.807 295.61C201.801 295.578 201.789 295.547 201.77 295.519C201.752 295.492 201.729 295.468 201.702 295.45Z" fill="#263238"/>
<path d="M203.293 298.195C200.333 295.768 196.019 294.051 192.193 295.013C192.045 295.05 192.097 295.257 192.193 295.28C195.906 295.999 199.53 297.116 203.004 298.61C203.032 298.629 203.062 298.642 203.095 298.649C203.127 298.656 203.16 298.657 203.193 298.651C203.226 298.645 203.257 298.633 203.285 298.615C203.313 298.597 203.337 298.574 203.356 298.547C203.375 298.519 203.388 298.489 203.395 298.456C203.402 298.424 203.403 298.391 203.397 298.358C203.391 298.325 203.379 298.294 203.361 298.266C203.343 298.238 203.32 298.214 203.293 298.195Z" fill="#263238"/>
<path d="M204.884 300.948C201.924 298.513 197.61 296.797 193.784 297.759C193.636 297.759 193.688 298.003 193.784 298.032C197.496 298.75 201.121 299.864 204.595 301.355C204.649 301.393 204.716 301.409 204.781 301.397C204.847 301.386 204.905 301.35 204.943 301.296C204.981 301.242 204.996 301.175 204.985 301.11C204.974 301.044 204.938 300.986 204.884 300.948Z" fill="#263238"/>
<path d="M206.46 303.693C203.5 301.259 199.186 299.542 195.36 300.504C195.212 300.541 195.264 300.748 195.36 300.778C199.072 301.495 202.697 302.609 206.171 304.1C206.198 304.119 206.228 304.133 206.26 304.14C206.292 304.147 206.325 304.148 206.357 304.143C206.39 304.137 206.421 304.126 206.448 304.108C206.476 304.091 206.5 304.068 206.519 304.041C206.538 304.015 206.552 303.984 206.559 303.952C206.566 303.92 206.567 303.887 206.562 303.855C206.556 303.823 206.544 303.792 206.527 303.764C206.509 303.736 206.487 303.712 206.46 303.693Z" fill="#263238"/>
<path d="M170.636 280.339C167.269 277.668 163.111 282.892 166.478 285.571C169.845 288.25 174.003 283.033 170.636 280.339Z" fill="white"/>
<path d="M211.322 290.048C210.811 287.584 207.918 287.288 205.942 287.828C202.566 288.849 199.519 290.74 197.106 293.311C197.094 293.32 197.084 293.332 197.077 293.345C197.07 293.359 197.067 293.374 197.067 293.389C197.067 293.404 197.07 293.419 197.077 293.432C197.084 293.446 197.094 293.458 197.106 293.467C197.073 293.532 197.055 293.605 197.055 293.678C197.054 293.752 197.072 293.824 197.105 293.89C197.138 293.956 197.186 294.013 197.246 294.056C197.305 294.099 197.374 294.128 197.447 294.14C200.754 294.369 204.269 295.028 207.548 294.229C209.494 293.785 211.803 292.386 211.322 290.048ZM202.567 293.474C200.932 293.407 199.319 293.252 197.691 293.237C199.379 292.121 201.123 291.091 202.915 290.151C203.792 289.71 204.697 289.327 205.624 289.004C207.067 288.538 212.002 288.383 209.694 291.876C208.428 293.807 204.506 293.563 202.567 293.474Z" fill="#263238"/>
<path d="M188.789 288.479C191.075 290.958 194.354 292.364 197.232 294.014C197.299 294.045 197.372 294.06 197.446 294.057C197.52 294.054 197.592 294.034 197.656 293.997C197.72 293.961 197.775 293.91 197.816 293.849C197.857 293.788 197.882 293.717 197.891 293.644C197.957 293.644 198.017 293.607 198.002 293.526C197.423 290.049 195.94 286.785 193.702 284.061C192.37 282.5 189.803 281.138 188.004 282.907C186.206 284.675 187.449 287.043 188.789 288.479ZM188.345 285.327C188.345 281.146 192.385 284.017 193.325 285.208C193.917 285.99 194.456 286.811 194.938 287.665C195.906 289.442 196.783 291.268 197.565 293.134C196.204 292.238 194.775 291.469 193.377 290.625C191.719 289.626 188.33 287.65 188.345 285.341V285.327Z" fill="#263238"/>
<path d="M253.591 218.238C251.541 233.778 213.253 278.622 208.828 283.773L207.822 284.942L176.12 260.603L176.483 260.13L204.373 223.611L121.182 223.122L152.773 198.562C152.773 198.562 155.333 200.042 160.661 199.265C179.021 196.578 220.416 190.629 230.177 191.021C242.794 191.539 255.47 203.986 253.591 218.238Z" fill="#37474F"/>
<path d="M214.422 210.039C213.387 211.211 212.425 212.447 211.544 213.739C210.56 215.034 209.561 216.314 208.584 217.609V217.646C208.754 217.269 208.924 216.906 209.109 216.507C209.731 215.226 210.227 213.894 210.959 212.666C211.004 212.585 210.893 212.518 210.848 212.592C210.108 213.813 209.213 214.975 208.569 216.292C208.266 216.899 207.977 217.506 207.711 218.127C207.563 218.468 207.407 218.815 207.281 219.156C207.209 219.319 207.147 219.487 207.096 219.659C206.652 220.258 206.223 220.858 205.794 221.472C204.854 222.834 204.025 224.269 203.078 225.623C203.026 225.69 203.145 225.757 203.197 225.69C204.159 224.425 205.239 223.241 206.216 221.99C207.193 220.739 208.155 219.385 209.087 218.061C210.019 216.736 210.885 215.456 211.795 214.161C212.792 212.881 213.709 211.542 214.541 210.15C214.526 210.039 214.467 209.995 214.422 210.039Z" fill="#263238"/>
<path d="M135.738 176.088C142.628 193.752 164.598 214.346 172.072 215.012C180.775 215.796 203.256 205.814 211.958 193.715C214.015 190.851 195.589 177.198 192.474 179.336C186.08 183.717 174.033 189.696 172.997 189.741C170.94 189.896 157.265 179.188 146.357 171.537C132.771 162.028 132.993 169.05 135.738 176.088Z" fill="#F7A9A0"/>
<path d="M209.302 196.919C209.302 196.919 217.271 188.69 218.115 180.942C218.7 175.577 218.152 161.354 205.254 151.72C202.19 149.433 196.211 148.353 199.852 153.895C202.442 157.839 205.269 159.556 206.356 162.117C206.356 162.117 198.586 161.643 196.418 164.795C194.523 167.552 192.826 170.441 191.342 173.439C191.827 173.841 192.338 174.209 192.874 174.541C192.874 174.541 191.12 177.679 192.333 182.999L209.302 196.919Z" fill="#F7A9A0"/>
<path d="M190.261 146.199L181.381 174.319C181.034 175.141 181.381 175.844 182.232 175.888L196.981 176.739C197.431 176.733 197.871 176.598 198.247 176.35C198.623 176.102 198.921 175.752 199.104 175.34L207.947 147.22C208.303 146.399 207.947 145.696 207.104 145.644L192.4 144.808C191.948 144.813 191.507 144.947 191.129 145.193C190.75 145.44 190.449 145.788 190.261 146.199Z" fill="#A6A6A6"/>
<path d="M192.008 146.288L183.128 174.408C182.78 175.222 183.128 175.932 183.979 175.977L198.69 176.835C199.141 176.827 199.58 176.691 199.958 176.444C200.335 176.196 200.634 175.847 200.821 175.437L209.657 147.317C210.012 146.495 209.657 145.8 208.813 145.748L194.139 144.919C193.691 144.925 193.254 145.056 192.877 145.298C192.5 145.54 192.199 145.883 192.008 146.288Z" fill="#C7C7C7"/>
<path d="M195.967 147.827C195.947 148.074 195.855 148.309 195.701 148.503C195.548 148.697 195.34 148.841 195.105 148.917C194.87 148.993 194.617 148.998 194.379 148.93C194.141 148.863 193.929 148.726 193.768 148.538C193.608 148.35 193.507 148.118 193.478 147.872C193.449 147.627 193.494 147.378 193.607 147.158C193.719 146.938 193.895 146.756 194.111 146.635C194.327 146.515 194.573 146.461 194.82 146.48C194.984 146.493 195.143 146.539 195.29 146.613C195.436 146.688 195.566 146.791 195.672 146.916C195.779 147.041 195.86 147.186 195.91 147.342C195.961 147.499 195.98 147.663 195.967 147.827Z" fill="#263238"/>
<path d="M217.338 173.313C215.717 170.997 212.21 166.142 207.955 163.167C203.234 159.867 193.236 154.776 190.839 158.291C189.077 160.866 192.718 163.145 192.718 163.145C192.718 163.145 188.145 161.909 187.065 164.625C186.08 167.06 189.003 168.651 189.003 168.651C189.003 168.651 186.103 168.384 185.599 170.915C185.007 173.957 191.186 174.023 193.244 177.634C193.702 178.404 217.338 173.313 217.338 173.313Z" fill="#F7A9A0"/>
<path d="M205.298 168.74C201.813 165.632 197.463 163.663 192.829 163.093C192.711 163.093 192.637 163.167 192.748 163.197C197.131 164.547 201.336 166.423 205.269 168.784C205.269 168.784 205.32 168.762 205.298 168.74Z" fill="#263238"/>
<path d="M201.828 173.416C200.037 171.936 194.324 168.769 189.04 168.518C188.922 168.518 188.855 168.599 188.966 168.629C193.412 169.751 197.717 171.372 201.798 173.461C201.798 173.461 201.85 173.431 201.828 173.416Z" fill="#263238"/>
<path d="M192.244 176.347C192.244 178.056 192.244 179.714 192.437 181.364C192.511 182.193 192.644 183.007 192.792 183.821C192.974 184.639 193.198 185.446 193.465 186.241C192.429 184.842 191.817 183.175 191.704 181.438C191.627 180.579 191.627 179.715 191.704 178.855C191.78 178 191.961 177.157 192.244 176.347Z" fill="#263238"/>
<path d="M145.077 194.366L158.663 179.188C158.663 179.188 147.859 169.931 140.038 166.431C132.216 162.931 131.106 167.977 134.547 175.592C137.988 183.207 145.077 194.366 145.077 194.366Z" fill="#C7C7C7"/>
<path d="M155.052 183.214L145.077 194.366C145.077 194.366 137.988 183.207 134.547 175.592C131.964 169.864 131.935 165.587 135.42 165.313L155.052 183.214Z" fill="#A6A6A6"/>
<path d="M154.778 176.887C152.477 179.048 146.416 185.108 143.02 189.578C143.02 189.578 143.101 189.704 143.123 189.674C146.535 186.411 152.832 179.388 154.919 177.028C154.963 176.983 154.823 176.85 154.778 176.887Z" fill="#263238"/>
<path d="M103.652 232.239C103.792 232.387 157.931 220.525 158.412 219.896C159.152 219.008 149.436 178.293 139.231 166.15C136.678 163.108 128.553 163.315 124.912 166.386C106.908 181.564 103.134 231.699 103.652 232.239Z" fill="#EBEBEB"/>
<path fill-rule="evenodd" clip-rule="evenodd" d="M136.545 164.485L123.854 167.356C124.187 167.023 124.527 166.719 124.868 166.431L135.043 164.137C135.551 164.215 136.053 164.331 136.545 164.485ZM138.417 165.38L122.226 169.036C121.967 169.317 121.723 169.598 121.486 169.894L139.061 165.928C138.865 165.724 138.649 165.541 138.417 165.38ZM139.964 167.038L120.243 171.478C120.035 171.744 119.843 172.018 119.651 172.299L140.371 167.615C140.26 167.43 140.119 167.23 139.964 167.038ZM141.185 168.769L118.622 173.86C118.452 174.127 118.282 174.393 118.119 174.667L141.569 169.339L141.185 168.769ZM142.265 170.53L117.231 176.184L116.802 176.976L142.62 171.145L142.265 170.53ZM143.264 172.299L116.017 178.448L115.632 179.188L143.56 172.928L143.264 172.299ZM144.182 174.09L114.937 180.698C114.818 180.95 114.707 181.209 114.589 181.438L144.485 174.682C144.389 174.519 144.3 174.312 144.182 174.105V174.09ZM145.047 175.895L113.967 182.918L113.657 183.658L145.351 176.502C145.247 176.325 145.151 176.117 145.04 175.91L145.047 175.895ZM145.876 177.716L113.065 185.116C112.961 185.367 112.865 185.619 112.769 185.856L146.157 178.315C146.061 178.145 145.972 177.938 145.876 177.731V177.716ZM146.668 179.544L112.243 187.321C112.149 187.573 112.061 187.819 111.977 188.061L146.934 180.165L146.668 179.544ZM147.408 181.379L111.466 189.519C111.377 189.77 111.296 190.015 111.215 190.259L147.66 182.03C147.593 181.815 147.504 181.601 147.423 181.394L147.408 181.379ZM148.148 183.221L110.771 191.665C110.697 191.916 110.615 192.161 110.541 192.405L148.392 183.85L148.148 183.221ZM148.888 185.071L110.119 193.833L109.897 194.573L149.117 185.693L148.888 185.071ZM149.561 186.921L109.52 195.979C109.446 196.223 109.379 196.475 109.313 196.719L149.769 187.573C149.68 187.358 149.606 187.143 149.524 186.936L149.561 186.921ZM150.22 188.779L108.928 198.11C108.869 198.354 108.802 198.599 108.743 198.85L150.405 189.437L150.22 188.779ZM150.856 190.636L108.432 200.219C108.363 200.466 108.304 200.713 108.255 200.959L151.071 191.287C150.96 191.08 150.893 190.866 150.819 190.651L150.856 190.636ZM151.485 192.508L107.922 202.343C107.862 202.587 107.811 202.831 107.751 203.083L151.693 193.16C151.589 192.952 151.515 192.738 151.448 192.523L151.485 192.508ZM152.085 194.373L107.448 204.459L107.293 205.199L152.292 195.039C152.188 194.825 152.122 194.603 152.048 194.388L152.085 194.373ZM152.677 196.245L107.004 206.561C106.952 206.805 106.9 207.049 106.856 207.301L152.877 196.941L152.677 196.245ZM153.254 198.125L106.56 208.677C106.516 208.922 106.464 209.166 106.427 209.417L153.417 198.798C153.343 198.569 153.276 198.354 153.217 198.14L153.254 198.125ZM153.809 199.997L106.153 210.779C106.109 211.016 106.064 211.26 106.027 211.519L153.957 200.693C153.92 200.419 153.831 200.234 153.772 200.012L153.809 199.997ZM154.349 201.884L105.82 212.858C105.776 213.103 105.731 213.339 105.694 213.598L154.534 202.572C154.438 202.336 154.379 202.121 154.312 201.899L154.349 201.884ZM154.882 203.771L105.48 214.923L105.369 215.663L155.067 204.445C154.963 204.223 154.904 204.008 154.845 203.786L154.882 203.771ZM155.393 205.658L105.161 217.002L105.05 217.742L155.533 206.339C155.481 206.11 155.4 205.895 155.356 205.673L155.393 205.658ZM155.903 207.553L104.843 219.082C104.843 219.326 104.777 219.555 104.747 219.822L156.059 208.233C155.977 208.004 155.925 207.819 155.866 207.567L155.903 207.553ZM156.384 209.447L104.584 221.146L104.495 221.886L156.554 210.128C156.466 209.906 156.406 209.684 156.347 209.462L156.384 209.447ZM156.858 211.341L104.318 223.181C104.318 223.426 104.266 223.662 104.236 223.921L156.998 212L156.858 211.341ZM157.309 213.243L104.103 225.261C104.103 225.507 104.081 225.754 104.037 226.001L157.457 213.931C157.376 213.739 157.324 213.48 157.272 213.258L157.309 213.243ZM157.738 215.152L103.911 227.311C103.911 227.555 103.866 227.792 103.852 228.051L157.872 215.848C157.798 215.619 157.753 215.397 157.701 215.167L157.738 215.152ZM158.131 217.076L103.748 229.36C103.748 229.605 103.748 229.841 103.704 230.056L158.256 217.735C158.182 217.543 158.138 217.328 158.094 217.091L158.131 217.076ZM158.456 219.008L103.6 231.403C103.588 231.632 103.588 231.862 103.6 232.091L158.456 219.703C158.457 219.476 158.444 219.249 158.419 219.023L158.456 219.008Z" fill="#DBDBDB"/>
<path d="M136.826 175.54C134.362 175.821 128.908 171.566 126.629 167.815C126.481 167.556 126.754 164.758 126.939 161.34C127.036 159.268 127.102 156.959 127.006 154.85L140.4 157.477C139.761 160.142 139.453 162.876 139.483 165.617C139.496 165.906 139.538 166.194 139.608 166.475C139.608 166.52 139.608 166.564 139.608 166.616C139.978 168.281 140.681 175.096 136.826 175.54Z" fill="#F7A9A0"/>
<path d="M139.608 166.505C139.608 166.549 139.608 166.586 139.608 166.653C139.159 166.731 138.703 166.773 138.247 166.779C130.706 166.949 128.457 157.854 127.946 155.042L140.4 157.499C139.765 160.165 139.455 162.898 139.475 165.639C139.499 165.93 139.543 166.22 139.608 166.505Z" fill="#263238"/>
<path d="M122.936 138.577C122.145 143.432 126.414 156.559 130.129 159.112C135.516 162.812 143.449 162.176 146.357 155.908C149.192 149.825 143.323 132.813 139.253 130.585C133.259 127.3 124.113 131.414 122.936 138.577Z" fill="#F7A9A0"/>
<path d="M133.503 142.581C133.866 142.366 134.162 142.107 134.502 141.841C134.843 141.574 135.242 141.374 135.383 140.916C135.426 140.775 135.418 140.625 135.361 140.49C135.304 140.354 135.202 140.243 135.072 140.176C134.809 140.078 134.525 140.053 134.249 140.102C133.974 140.152 133.716 140.274 133.503 140.457C133.016 140.764 132.66 141.242 132.504 141.796C132.464 141.928 132.465 142.068 132.506 142.199C132.547 142.33 132.627 142.446 132.735 142.531C132.843 142.616 132.974 142.666 133.112 142.675C133.249 142.684 133.385 142.651 133.503 142.581Z" fill="#263238"/>
<path d="M142.295 140.005C141.885 140.027 141.475 140.027 141.066 140.005C140.634 140.079 140.189 140.009 139.801 139.806C139.695 139.718 139.62 139.599 139.587 139.466C139.554 139.333 139.564 139.193 139.616 139.066C139.767 138.827 139.979 138.633 140.23 138.503C140.481 138.373 140.762 138.312 141.044 138.326C141.614 138.275 142.183 138.435 142.642 138.777C142.755 138.859 142.839 138.973 142.884 139.105C142.93 139.236 142.934 139.378 142.896 139.512C142.858 139.646 142.78 139.765 142.673 139.853C142.565 139.941 142.433 139.994 142.295 140.005Z" fill="#263238"/>
<path d="M137.152 152.77C137.425 152.918 137.721 153.148 138.054 153.081C138.385 152.977 138.689 152.806 138.95 152.578C138.95 152.578 139.016 152.578 139.002 152.578C138.927 152.791 138.795 152.98 138.62 153.124C138.445 153.267 138.234 153.36 138.01 153.392C137.814 153.398 137.621 153.345 137.455 153.241C137.289 153.137 137.158 152.986 137.078 152.807C137.048 152.793 137.115 152.756 137.152 152.77Z" fill="#263238"/>
<path d="M137.314 149.825C137.644 150.109 138.03 150.322 138.447 150.449C138.863 150.577 139.302 150.616 139.734 150.565C140.115 150.532 140.489 150.442 140.844 150.299C140.913 150.277 140.98 150.25 141.044 150.217L141.236 150.129C141.28 150.105 141.315 150.067 141.336 150.022C141.358 149.977 141.364 149.926 141.355 149.877L141.318 149.788V149.714C141.14 149.019 140.77 147.99 140.77 147.99C141.059 148.042 142.502 148.249 142.383 147.894C141.401 144.811 140.11 141.836 138.528 139.014C138.518 138.992 138.5 138.975 138.478 138.967C138.456 138.959 138.431 138.96 138.41 138.969C138.388 138.979 138.371 138.997 138.363 139.019C138.355 139.042 138.355 139.066 138.365 139.088C139.261 141.929 140.644 144.601 141.584 147.45C141.066 147.376 140.541 147.376 140.023 147.45C139.934 147.502 140.763 149.418 140.829 149.736C140.832 149.749 140.832 149.761 140.829 149.773C140.281 149.991 139.695 150.097 139.106 150.086C138.516 150.074 137.935 149.945 137.396 149.707C137.292 149.692 137.24 149.773 137.314 149.825Z" fill="#263238"/>
<path d="M140.341 150.099C140.102 150.699 139.715 151.228 139.216 151.638C138.94 151.852 138.603 151.973 138.254 151.986C137.514 151.986 137.277 151.357 137.24 150.758C137.23 150.44 137.255 150.122 137.314 149.81C138.266 150.228 139.327 150.329 140.341 150.099Z" fill="#263238"/>
<path d="M139.216 151.631C138.94 151.844 138.603 151.966 138.254 151.979C137.514 151.979 137.277 151.35 137.24 150.75C137.621 150.654 138.023 150.688 138.381 150.848C138.74 151.008 139.034 151.283 139.216 151.631Z" fill="#FF9BBC"/>
<path d="M134.258 144.771C134.243 144.515 134.296 144.259 134.414 144.031C134.481 143.91 134.573 143.804 134.684 143.721C134.795 143.638 134.922 143.58 135.057 143.55C135.195 143.522 135.338 143.525 135.474 143.561C135.61 143.597 135.736 143.664 135.842 143.757C136.023 143.925 136.162 144.133 136.249 144.364C136.304 144.5 136.346 144.641 136.375 144.786C136.445 145.085 136.445 145.397 136.375 145.696C136.339 145.478 136.28 145.264 136.197 145.06C136.128 144.873 136.044 144.692 135.945 144.519C135.738 144.164 135.442 143.898 135.146 143.987C134.85 144.075 134.65 144.357 134.606 144.764C134.566 145.187 134.566 145.613 134.606 146.036C134.395 145.647 134.276 145.214 134.258 144.771Z" fill="#263238"/>
<path d="M142.924 142.011C142.801 141.793 142.625 141.61 142.413 141.478C142.29 141.413 142.155 141.373 142.016 141.361C141.878 141.35 141.738 141.367 141.606 141.411C141.475 141.463 141.358 141.543 141.263 141.647C141.168 141.751 141.098 141.876 141.059 142.011C140.996 142.253 140.996 142.508 141.059 142.751C141.09 142.896 141.13 143.039 141.177 143.18C141.283 143.46 141.45 143.713 141.666 143.92C141.578 143.718 141.514 143.507 141.473 143.291C141.438 143.095 141.414 142.897 141.399 142.699C141.399 142.292 141.495 141.907 141.791 141.818C141.958 141.777 142.134 141.791 142.292 141.86C142.449 141.928 142.58 142.046 142.665 142.196C142.916 142.539 143.135 142.906 143.316 143.291C143.287 142.839 143.153 142.401 142.924 142.011Z" fill="#263238"/>
<path d="M142.724 134.441C138.698 138.777 131.069 135.321 131.069 135.321C130.891 136.447 130.357 137.486 129.544 138.286C128.731 139.085 127.684 139.602 126.555 139.761C126.555 139.761 127.435 148.02 125.312 148.486C122.07 149.226 118.585 138.444 119.118 136.061C119.651 133.678 122.278 132.494 122.278 132.494C122.281 131.117 122.81 129.794 123.758 128.794C125.585 126.574 133.733 127.152 133.733 127.152C133.937 126.032 134.404 124.977 135.094 124.073C135.258 123.847 135.467 123.656 135.707 123.513C135.947 123.37 136.214 123.278 136.491 123.241C136.769 123.205 137.05 123.226 137.319 123.303C137.588 123.38 137.838 123.511 138.054 123.688C137.784 124.375 137.672 125.114 137.729 125.849C137.877 128.291 139.808 127.855 139.305 125.723C139.147 124.917 138.703 124.194 138.054 123.688C138.691 122.075 140.141 121.269 141.251 121.809C143.249 122.808 146.076 130.859 142.724 134.441Z" fill="#263238"/>
<path d="M135.975 149.218C135.272 149.357 134.543 149.296 133.873 149.041C133.203 148.787 132.617 148.349 132.183 147.778C131.749 147.208 131.484 146.527 131.417 145.813C131.351 145.099 131.486 144.381 131.807 143.74C132.129 143.099 132.623 142.561 133.235 142.187C133.847 141.813 134.551 141.618 135.268 141.625C135.985 141.631 136.686 141.838 137.291 142.223C137.896 142.608 138.381 143.155 138.691 143.802C139.129 144.718 139.186 145.77 138.851 146.728C138.515 147.686 137.814 148.472 136.9 148.915C136.608 149.059 136.296 149.161 135.975 149.218ZM134.584 142.196C134.313 142.251 134.05 142.338 133.799 142.455C133.034 142.818 132.436 143.46 132.127 144.249C131.818 145.038 131.821 145.915 132.137 146.702C132.452 147.488 133.055 148.125 133.823 148.482C134.592 148.84 135.467 148.891 136.272 148.625C137.076 148.359 137.749 147.797 138.154 147.052C138.558 146.308 138.664 145.437 138.449 144.617C138.233 143.798 137.714 143.091 136.996 142.641C136.278 142.191 135.415 142.032 134.584 142.196Z" fill="#F9C903"/>
<path d="M144.159 146.51C142.679 146.725 141.199 145.43 140.644 143.498C140.38 142.58 140.409 141.602 140.726 140.701C140.839 140.305 141.052 139.944 141.345 139.655C141.638 139.365 142.001 139.156 142.399 139.048C142.796 138.94 143.215 138.937 143.614 139.038C144.014 139.14 144.38 139.343 144.677 139.628C145.409 140.247 145.927 141.081 146.157 142.011C146.712 144.046 145.928 146.044 144.404 146.451L144.159 146.51ZM142.724 139.51L142.531 139.547C142.22 139.647 141.938 139.82 141.708 140.052C141.477 140.284 141.305 140.567 141.207 140.879C140.924 141.68 140.901 142.55 141.14 143.365C141.621 145.134 143.02 146.325 144.27 145.962C145.521 145.6 146.143 143.913 145.662 142.144C145.46 141.318 145.001 140.577 144.352 140.028C144.132 139.831 143.874 139.684 143.593 139.594C143.313 139.505 143.016 139.476 142.724 139.51Z" fill="#F9C903"/>
<path d="M138.706 144.268L138.276 143.994C138.676 143.35 139.756 142.314 140.955 142.98L140.704 143.424C139.631 142.825 138.743 144.179 138.706 144.268Z" fill="#F9C903"/>
<path d="M122.751 150.469L122.241 150.38C122.285 150.143 122.655 148.064 123.721 147.531C124.786 146.998 131.424 145.541 131.705 145.474L131.816 145.977C129.885 146.406 124.698 147.605 123.95 147.99C123.203 148.375 122.84 149.892 122.751 150.469Z" fill="#F9C903"/>
<path d="M127.28 149.159C127.28 149.159 123.58 145.289 121.774 146.68C119.969 148.071 123.254 154.006 125.674 154.502C125.983 154.589 126.307 154.613 126.625 154.572C126.944 154.531 127.251 154.425 127.528 154.262C127.804 154.099 128.045 153.881 128.235 153.622C128.425 153.363 128.561 153.068 128.634 152.756L127.28 149.159Z" fill="#F7A9A0"/>
<path d="M122.759 148.36C122.714 148.36 122.759 148.412 122.759 148.419C124.483 148.826 125.571 150.195 126.407 151.66C126.287 151.513 126.137 151.394 125.966 151.31C125.796 151.226 125.609 151.18 125.42 151.176C125.23 151.171 125.041 151.207 124.867 151.282C124.692 151.356 124.536 151.468 124.409 151.609C124.372 151.646 124.409 151.705 124.468 151.69C124.74 151.557 125.046 151.511 125.345 151.557C125.644 151.603 125.921 151.74 126.14 151.949C126.502 152.303 126.825 152.695 127.102 153.118C127.199 153.251 127.45 153.118 127.369 152.97C127.058 150.839 125.008 148.219 122.759 148.36Z" fill="#263238"/>
<path d="M120.442 181.408C124.202 204.422 133.577 219.37 137.966 220.096C149.769 222.042 169.734 202.735 175.706 198.206C178.111 196.371 158.478 179.943 156.162 182.193C150.686 187.491 143.331 195.809 142.946 195.898C142.206 196.083 139.394 190.851 129.966 176.051C122.315 164.07 118.911 172.003 120.442 181.408Z" fill="#F7A9A0"/>
<path d="M186.613 160.008C188.249 162.494 181.774 165.994 181.774 165.994C183.056 166.001 184.295 166.46 185.274 167.289C186.932 168.821 185.274 172.099 185.274 172.099C186.602 172.385 187.814 173.063 188.752 174.045C190.188 175.673 188.959 179.225 188.959 179.225C190.017 180.176 190.714 181.462 190.935 182.866C191.675 189.156 177.955 198.147 173.501 199.886L155.496 183.606C155.496 183.606 162.156 168.673 167.618 164.818C170.615 162.679 184.12 156.204 186.613 160.008Z" fill="#F7A9A0"/>
<path d="M181.677 165.957C177.807 167.126 174.218 169.221 170.777 171.278C170.703 171.322 170.777 171.441 170.851 171.396C174.248 169.309 178.288 168.081 181.759 166.135C181.855 166.083 181.781 165.928 181.677 165.957Z" fill="#263238"/>
<path d="M185 171.899C184.143 172.25 183.337 172.713 182.602 173.276C181.788 173.816 180.989 174.371 180.197 174.941C178.606 176.08 177.038 177.257 175.513 178.485C175.439 178.537 175.513 178.656 175.58 178.604C177.171 177.464 178.777 176.384 180.405 175.289C181.226 174.756 182.047 174.23 182.876 173.712C183.685 173.267 184.444 172.736 185.141 172.129C185.229 172.033 185.126 171.855 185 171.899Z" fill="#263238"/>
<path d="M188.87 179.27C188.103 179.596 187.397 180.052 186.784 180.617L184.63 182.208C183.195 183.258 181.752 184.317 180.279 185.316C180.263 185.325 180.252 185.341 180.248 185.359C180.244 185.377 180.247 185.396 180.257 185.412C180.267 185.428 180.282 185.439 180.3 185.443C180.318 185.447 180.337 185.444 180.353 185.434C181.833 184.428 183.372 183.436 184.867 182.407C185.607 181.904 186.347 181.401 187.087 180.927C187.796 180.524 188.427 179.998 188.952 179.373C188.965 179.363 188.974 179.347 188.976 179.329C188.978 179.312 188.974 179.295 188.963 179.281C188.952 179.267 188.936 179.258 188.919 179.256C188.902 179.254 188.884 179.259 188.87 179.27Z" fill="#263238"/>
<path d="M190.18 180.809C190.852 181.779 191.154 182.958 191.031 184.132C190.878 185.306 190.427 186.422 189.721 187.373C188.393 189.272 186.849 191.011 185.118 192.553C183.407 194.11 181.576 195.531 179.642 196.8C177.71 198.07 175.666 199.162 173.537 200.064H173.589C172.232 201.179 170.866 202.276 169.49 203.357C170.748 202.133 172.02 200.93 173.308 199.746C175.363 198.741 177.342 197.586 179.228 196.29C181.109 195.005 182.906 193.601 184.608 192.087C186.315 190.588 187.878 188.933 189.277 187.143C189.975 186.282 190.459 185.268 190.691 184.183C190.922 183.034 190.742 181.839 190.18 180.809Z" fill="#263238"/>
<path d="M122.759 200.116L140.866 190.799C140.866 190.799 134.103 178.3 128.02 172.225C121.937 166.15 119.14 170.479 119.614 178.818C120.087 187.158 122.759 200.116 122.759 200.116Z" fill="#C7C7C7"/>
<path d="M137.64 187.291C134.717 188.49 126.895 191.976 122.1 194.936C122.1 194.936 122.1 195.076 122.159 195.061C126.51 193.234 134.902 188.934 137.699 187.476C137.773 187.447 137.692 187.269 137.64 187.291Z" fill="#263238"/>
<path d="M323.084 283.669C322.344 285.637 286.565 330.126 284.123 330.962C283.205 331.281 276.42 326.448 268.391 320.373C266.659 319.063 264.876 317.694 263.07 316.296C251.356 307.245 239.138 297.359 239.138 297.359L262.989 267.53L286.269 287.28L291.382 291.609C291.382 291.609 312.702 280.709 315.469 280.08C318.237 279.451 323.809 281.693 323.084 283.669Z" fill="#C95F50"/>
<path d="M323.084 283.669C322.344 285.637 286.565 330.126 284.123 330.962C282.998 331.347 273.223 324.132 263.07 316.296L286.269 287.295L291.382 291.624C291.382 291.624 312.702 280.724 315.469 280.095C318.237 279.466 323.809 281.693 323.084 283.669Z" fill="white"/>
<path d="M323.084 283.669C322.344 285.637 286.565 330.126 284.123 330.962C283.205 331.281 276.42 326.448 268.391 320.373L291.382 291.624C291.382 291.624 312.702 280.724 315.469 280.095C318.237 279.466 323.809 281.693 323.084 283.669Z" fill="#F9C903"/>
<path d="M320.79 282.87C314.604 290.181 290.361 320.247 284.804 327.943C284.759 328.01 284.804 328.039 284.856 327.98C291.138 320.869 315.136 290.61 320.908 282.973C321.034 282.811 320.923 282.722 320.79 282.87Z" fill="#263238"/>
<path d="M311.54 281.664C310.853 282.475 310.341 283.42 310.037 284.439C309.732 285.457 309.642 286.528 309.771 287.584C309.993 289.486 310.939 291.23 312.413 292.453C312.458 292.49 312.524 292.408 312.487 292.364C311.213 290.923 310.44 289.107 310.287 287.189C310.133 285.271 310.607 283.356 311.636 281.73C311.642 281.717 311.644 281.703 311.64 281.689C311.637 281.676 311.628 281.664 311.617 281.656C311.605 281.648 311.591 281.644 311.577 281.645C311.563 281.647 311.55 281.653 311.54 281.664Z" fill="#263238"/>
<path d="M294.453 289.33C292.004 292.29 290.28 296.589 291.227 300.43C291.264 300.578 291.471 300.519 291.501 300.393C292.231 296.684 293.357 293.065 294.86 289.596C294.896 289.542 294.908 289.477 294.895 289.414C294.882 289.35 294.844 289.295 294.79 289.26C294.736 289.224 294.67 289.212 294.607 289.225C294.544 289.238 294.489 289.276 294.453 289.33Z" fill="#263238"/>
<path d="M297.199 287.739C294.757 290.699 293.033 294.998 293.98 298.839C294.017 298.987 294.224 298.935 294.254 298.839C294.984 295.128 296.11 291.506 297.613 288.035C297.652 287.98 297.668 287.912 297.657 287.845C297.646 287.779 297.609 287.719 297.554 287.68C297.499 287.641 297.431 287.625 297.364 287.636C297.298 287.647 297.238 287.684 297.199 287.739Z" fill="#263238"/>
<path d="M299.952 286.163C297.51 289.123 295.778 293.422 296.733 297.263C296.77 297.411 296.977 297.359 296.999 297.263C297.735 293.552 298.863 289.93 300.366 286.459C300.405 286.404 300.421 286.336 300.41 286.269C300.399 286.202 300.362 286.143 300.307 286.104C300.252 286.064 300.184 286.049 300.117 286.06C300.05 286.071 299.991 286.108 299.952 286.163Z" fill="#263238"/>
<path d="M302.704 284.587C300.262 287.547 298.531 291.846 299.485 295.687C299.485 295.835 299.729 295.775 299.752 295.687C300.484 291.978 301.61 288.359 303.111 284.89C303.152 284.836 303.169 284.768 303.159 284.702C303.149 284.635 303.114 284.575 303.06 284.535C303.006 284.495 302.938 284.477 302.871 284.487C302.805 284.497 302.745 284.533 302.704 284.587Z" fill="#263238"/>
<path d="M279.254 320.351C276.568 323.703 281.777 327.884 284.471 324.517C287.164 321.15 281.94 316.984 279.254 320.351Z" fill="white"/>
<path d="M289.081 279.695C286.609 280.198 286.306 283.084 286.861 285.068C287.868 288.455 289.749 291.518 292.315 293.948C292.325 293.96 292.337 293.97 292.351 293.977C292.365 293.984 292.381 293.987 292.396 293.987C292.412 293.987 292.427 293.984 292.441 293.977C292.456 293.97 292.468 293.96 292.478 293.948C292.544 293.98 292.617 293.996 292.69 293.995C292.764 293.994 292.836 293.976 292.901 293.942C292.967 293.908 293.023 293.86 293.067 293.8C293.11 293.741 293.139 293.672 293.151 293.6C293.388 290.292 294.054 286.784 293.269 283.506C292.811 281.538 291.412 279.222 289.081 279.695ZM292.478 288.479C292.396 290.114 292.241 291.728 292.226 293.363C291.114 291.67 290.089 289.921 289.155 288.124C288.716 287.245 288.335 286.337 288.015 285.408C287.557 283.965 287.416 279.029 290.901 281.345C292.825 282.603 292.574 286.518 292.478 288.479Z" fill="#263238"/>
<path d="M287.446 302.221C289.939 299.942 291.353 296.671 293.01 293.8C293.043 293.733 293.059 293.659 293.057 293.585C293.055 293.511 293.036 293.439 293 293.373C292.965 293.308 292.914 293.253 292.853 293.211C292.792 293.169 292.721 293.143 292.648 293.134C292.649 293.118 292.647 293.102 292.641 293.088C292.636 293.073 292.627 293.06 292.615 293.049C292.604 293.039 292.59 293.031 292.575 293.026C292.561 293.022 292.545 293.02 292.529 293.023C289.05 293.592 285.782 295.064 283.05 297.292C281.481 298.617 280.09 301.185 281.873 302.983C283.657 304.781 285.995 303.553 287.446 302.221ZM284.301 302.657C280.112 302.62 282.998 298.61 284.19 297.677C284.974 297.087 285.797 296.55 286.654 296.071C288.436 295.109 290.266 294.237 292.137 293.459C291.234 294.821 290.457 296.242 289.606 297.64C288.6 299.298 286.609 302.68 284.301 302.657Z" fill="#263238"/>
<path d="M285.026 282.788L260.199 316.281L176.431 258.139L168.357 252.53C168.357 252.53 166.071 254.069 162.622 255.971C157.842 258.613 150.834 261.965 144.633 262.875C134.273 264.414 116.876 264.251 108.107 252.515C100.707 242.643 104.732 229.767 104.732 229.767L116.18 224.906C116.18 224.906 143.205 202.387 160.706 201.714C168.143 201.418 178.969 207.049 188.989 212.94C199.008 218.83 285.026 282.788 285.026 282.788Z" fill="#37474F"/>
<path d="M168.357 252.552C168.357 252.552 166.071 254.091 162.622 255.993C156.539 248.711 143.656 235.473 143.264 235.007L168.357 252.552Z" fill="#263238"/>
<path d="M126.052 217.365C124.438 218.49 122.877 219.681 121.286 220.828C119.695 221.975 118.097 223.048 116.609 224.262C115.122 225.475 113.649 226.867 112.228 228.221C111.54 228.872 110.859 229.531 110.193 230.211C109.49 230.862 108.839 231.567 108.247 232.32C108.195 232.394 108.299 232.476 108.366 232.431C109.124 231.89 109.849 231.302 110.534 230.67L112.754 228.754C114.234 227.518 115.714 226.319 117.142 225.054C118.57 223.788 119.91 222.478 121.338 221.235C122.766 219.992 124.475 218.66 126.059 217.395L126.052 217.365Z" fill="#263238"/>
<path d="M279.195 281.59C277.581 283.329 276.094 285.201 274.592 287.036C273.09 288.871 271.58 290.736 270.093 292.586C267.133 296.286 264.113 299.986 261.213 303.767C259.607 305.832 258.016 307.911 256.521 310.065C256.454 310.161 256.61 310.265 256.684 310.183C259.888 306.661 262.819 302.902 265.786 299.187C268.753 295.472 271.706 291.735 274.666 287.968C276.264 285.904 277.907 283.854 279.38 281.701C279.402 281.612 279.261 281.516 279.195 281.59Z" fill="#263238"/>
<path d="M210.449 281.93C206.283 278.644 201.961 275.544 197.639 272.465C193.318 269.387 189.041 266.331 184.682 263.356C183.424 262.498 182.159 261.661 180.901 260.825C179.643 259.989 178.325 259.212 177.097 258.346C177.023 258.294 176.956 258.413 177.03 258.465C178.162 259.279 179.25 260.189 180.346 261.032C181.441 261.876 182.462 262.653 183.535 263.445C185.629 264.991 187.746 266.516 189.855 268.04C194.132 271.133 198.446 274.18 202.797 277.179C205.276 278.874 207.733 280.576 210.264 282.189C210.412 282.285 210.589 282.041 210.449 281.93Z" fill="#263238"/>
<path d="M237.237 247.372C233.389 244.183 229.259 241.311 225.219 238.359C221.179 235.406 217.079 232.365 212.979 229.397L200.777 220.584C196.833 217.728 192.911 214.834 188.744 212.311C186.465 210.934 184.134 209.654 181.729 208.5C179.399 207.312 176.973 206.322 174.477 205.54C174.461 205.533 174.442 205.533 174.425 205.54C174.409 205.547 174.395 205.56 174.388 205.577C174.382 205.594 174.382 205.612 174.389 205.629C174.395 205.646 174.409 205.659 174.425 205.666C176.483 206.813 178.636 207.782 180.708 208.885C182.78 209.987 184.785 211.105 186.776 212.333C190.913 214.842 194.812 217.691 198.734 220.51C206.874 226.363 215.014 232.246 223.206 238.018C227.794 241.252 232.286 244.678 237.052 247.638C237.2 247.72 237.377 247.49 237.237 247.372Z" fill="#263238"/>
<path d="M329.359 206.998C320.316 219.245 310.859 233.46 308.587 248.815C308.587 249.052 308.935 249.126 308.987 248.896C310.039 244.707 311.387 240.597 313.02 236.598C318.94 234.962 324.801 233.638 327.924 227.718C331.106 221.65 330.699 213.739 330.099 207.131C330.04 206.776 329.544 206.761 329.359 206.998Z" fill="#F9C903"/>
<path d="M313.079 236.479C317.142 227.362 322.359 218.209 328.989 210.712C329.034 210.661 329.1 210.712 329.056 210.786C324.719 216.122 321.419 221.938 318.2 227.858C321.197 224.817 324.475 222.094 327.309 218.867C327.369 218.808 327.457 218.867 327.406 218.963C324.586 222.338 321.486 226.016 317.837 228.517C316.851 230.327 315.864 232.145 314.877 233.971L315.617 233.586C315.662 233.586 315.699 233.63 315.654 233.652C315.381 233.793 315.099 233.941 314.811 234.067C314.337 234.925 313.864 235.791 313.375 236.649C313.257 236.842 313.02 236.679 313.079 236.479Z" fill="#263238"/>
<path d="M316.098 233.297C318.533 231.942 320.854 230.393 323.04 228.665C323.099 228.62 323.188 228.702 323.128 228.754C321.006 230.584 318.682 232.168 316.202 233.475C316.084 233.527 315.98 233.364 316.098 233.297Z" fill="#263238"/>
<path d="M307.544 246.536C307.544 246.721 307.877 246.713 307.877 246.536C307.921 241.474 307.877 236.39 307.951 231.314C309.253 228.694 312.028 227.251 313.967 225.157C315.355 223.624 316.564 221.939 317.571 220.133C319.905 215.815 321.331 211.066 321.759 206.176C322.292 200.767 320.242 182.911 317.956 183.532C316.779 183.858 312.946 192.701 311.932 195.624C310.286 200.437 309.082 205.391 308.336 210.424C306.486 222.33 306.641 234.555 307.544 246.536Z" fill="#F9C903"/>
<path d="M307.507 224.713C307.788 218.312 309.224 211.852 310.578 205.643C312.058 198.983 313.73 192.664 317.171 186.699C317.184 186.677 317.205 186.66 317.23 186.653C317.255 186.646 317.282 186.65 317.304 186.662C317.327 186.675 317.344 186.696 317.351 186.721C317.357 186.746 317.354 186.773 317.341 186.796C315.048 191.434 313.271 196.31 312.043 201.337C312.272 200.981 312.554 200.641 312.783 200.301C312.872 200.16 313.094 200.301 313.005 200.426C312.695 200.954 312.333 201.45 311.925 201.906C311.925 201.906 311.925 201.906 311.88 201.906C310.696 206.687 309.845 211.578 309.12 216.455C309.17 216.387 309.225 216.323 309.283 216.262C309.32 216.262 309.379 216.262 309.357 216.322C309.268 216.484 309.164 216.647 309.068 216.803C308.698 219.282 308.328 221.753 308.017 224.203C312.457 220.436 316.157 215.996 318.311 210.52C318.311 210.52 318.363 210.52 318.355 210.52C316.276 216.196 312.998 221.235 307.951 224.684C307.855 225.342 307.766 226.001 307.67 226.659C307.67 226.793 307.433 226.756 307.433 226.659C307.433 226.075 307.433 225.49 307.485 224.906C307.463 224.877 307.453 224.841 307.457 224.805C307.461 224.769 307.479 224.736 307.507 224.713Z" fill="#263238"/>
<path d="M309.586 215.441C312.953 210.416 316.098 205.532 318.562 199.975C318.568 199.96 318.58 199.949 318.594 199.942C318.609 199.936 318.625 199.936 318.64 199.942C318.655 199.948 318.667 199.959 318.673 199.974C318.679 199.988 318.679 200.005 318.673 200.019C316.594 205.54 313.686 211.119 309.749 215.559C309.675 215.663 309.512 215.545 309.586 215.441Z" fill="#263238"/>
<path d="M314.063 198.732C315.454 196.26 316.927 193.863 318.237 191.332C318.274 191.258 318.37 191.332 318.34 191.391C317.265 194.017 315.903 196.516 314.278 198.843C314.182 198.983 313.982 198.872 314.063 198.732Z" fill="#263238"/>
<path d="M304.14 231.906C304.067 235.255 303.665 238.589 302.941 241.859L303.097 242.947C304.124 239.329 304.723 235.604 304.88 231.847C304.909 231.795 304.925 231.736 304.925 231.677C304.925 231.617 304.909 231.558 304.88 231.506C305.022 226.464 304.648 221.421 303.763 216.455C302.194 207.16 298.775 198.236 292.285 191.295C292.232 191.243 292.167 191.205 292.096 191.185C292.024 191.164 291.949 191.16 291.876 191.175C291.804 191.189 291.736 191.221 291.678 191.268C291.62 191.315 291.575 191.375 291.545 191.443C288.926 198.103 289.843 206.028 292.071 212.666C293.281 216.258 295.011 219.654 297.206 222.745C299.478 225.845 302.312 228.487 304.14 231.906Z" fill="#F9C903"/>
<path d="M293.04 194.373C299.182 204.348 303.459 216.174 303.985 227.954C303.985 228.162 303.644 228.213 303.615 227.999C303.467 226.941 303.304 225.897 303.134 224.846C300.588 222.412 297.954 219.844 296.163 216.803C296.126 216.743 296.207 216.684 296.244 216.729C298.353 219.33 300.616 221.801 303.023 224.129C302.579 221.531 302.061 218.949 301.439 216.44L300.958 215.87C300.847 215.744 301.025 215.559 301.136 215.685L301.284 215.848C300.43 212.37 299.365 208.947 298.094 205.599C296.533 203.734 294.779 202.121 293.654 199.871C293.654 199.82 293.706 199.775 293.736 199.827C294.653 201.107 295.541 202.402 296.577 203.594C296.992 204.075 297.45 204.519 297.88 204.977C296.464 201.363 294.782 197.858 292.848 194.492C292.85 194.47 292.857 194.449 292.868 194.43C292.88 194.411 292.895 194.396 292.914 194.384C292.933 194.373 292.954 194.366 292.976 194.364C292.998 194.362 293.02 194.365 293.04 194.373Z" fill="#263238"/>
<path d="M294.313 206.679C296.296 209.351 298.56 211.904 300.41 214.664C300.462 214.745 300.344 214.827 300.277 214.76C297.909 212.54 295.896 209.499 294.179 206.753C294.128 206.672 294.253 206.598 294.313 206.679Z" fill="#263238"/>
<path d="M300.684 215.286L300.773 215.367C300.832 215.426 300.736 215.515 300.677 215.456L300.595 215.374C300.584 215.363 300.577 215.347 300.577 215.33C300.577 215.313 300.584 215.297 300.595 215.286C300.607 215.274 300.623 215.267 300.64 215.267C300.656 215.267 300.672 215.274 300.684 215.286Z" fill="#263238"/>
<path d="M283.42 213.547C284.149 219.115 286.391 224.378 289.902 228.761C291.352 230.479 293.144 231.875 295.164 232.861C297.443 233.985 299.826 235.288 302.179 236.213C303.299 239.063 304.132 242.018 304.665 245.034C304.739 244.782 304.813 244.508 304.895 244.257C303.378 231.262 294.971 220.162 284.227 213.036C284.142 212.981 284.044 212.952 283.944 212.951C283.843 212.951 283.745 212.979 283.66 213.033C283.575 213.087 283.507 213.164 283.465 213.255C283.422 213.346 283.407 213.447 283.42 213.547Z" fill="#F9C903"/>
<path d="M287.157 217.387C287.083 217.321 287.157 217.18 287.268 217.239C293.176 221.632 297.886 227.439 300.965 234.126C301.047 234.304 300.803 234.459 300.699 234.281C300.203 233.408 299.693 232.557 299.175 231.721C296.718 231.255 294.394 229.501 292.574 227.888C292.522 227.843 292.574 227.777 292.648 227.821C293.586 228.674 294.628 229.405 295.748 229.997C296.755 230.507 297.828 230.826 298.871 231.233C297.961 229.79 297.014 228.406 296.022 227.066C293.363 226.058 290.869 224.659 288.622 222.915C288.606 222.905 288.595 222.89 288.591 222.872C288.587 222.854 288.59 222.835 288.6 222.819C288.61 222.803 288.625 222.792 288.643 222.788C288.662 222.784 288.68 222.787 288.696 222.797C290.913 224.139 293.201 225.362 295.549 226.46C294.05 224.485 292.433 222.602 290.709 220.821C289.873 220.377 289.029 219.94 288.223 219.467C288.206 219.46 288.193 219.447 288.186 219.43C288.179 219.413 288.179 219.395 288.186 219.378C288.192 219.361 288.206 219.348 288.222 219.341C288.239 219.334 288.258 219.334 288.274 219.341C288.946 219.577 289.587 219.893 290.184 220.281C289.229 219.296 288.23 218.327 287.157 217.387Z" fill="#263238"/>
<path d="M287.386 221.879C287.534 221.964 287.672 222.063 287.801 222.175C287.838 222.175 287.801 222.256 287.749 222.242C287.601 222.169 287.458 222.088 287.32 221.997C287.246 221.938 287.312 221.82 287.386 221.879Z" fill="#263238"/>
<path d="M321.693 273.161H292.233L294.609 246.336L295.134 240.416H318.792L319.317 246.336L321.693 273.161Z" fill="#455A64"/>
<path d="M319.317 246.336H294.609L295.134 240.416H318.792L319.317 246.336Z" fill="#263238"/>
<path d="M320.198 236.279H293.721V242.133H320.198V236.279Z" fill="#455A64"/>
</g>
<defs>
<clipPath id="clip0">
<rect width="370" height="370" fill="white" transform="translate(0 0.619019)"/>
</clipPath>
</defs>
</svg>
