<svg width="26" height="26" viewBox="0 0 26 26" fill="none" xmlns="http://www.w3.org/2000/svg">
<path d="M14.1278 3.31517C14.2746 3.37737 14.3999 3.48141 14.488 3.61434C14.5762 3.74726 14.6232 3.90318 14.6234 4.06267V21.9377C14.6234 22.0977 14.5761 22.2541 14.4875 22.3873C14.399 22.5206 14.273 22.6247 14.1255 22.6867C13.978 22.7486 13.8155 22.7656 13.6583 22.7356C13.5012 22.7056 13.3564 22.6298 13.2421 22.5178L8.48738 17.8459H5.6875C5.04103 17.8459 4.42105 17.5891 3.96393 17.132C3.50681 16.6749 3.25 16.0549 3.25 15.4084V10.5497C3.25 9.9032 3.50681 9.28322 3.96393 8.8261C4.42105 8.36898 5.04103 8.11217 5.6875 8.11217H8.489L13.2454 3.48092C13.3597 3.36937 13.5044 3.294 13.6613 3.26423C13.8183 3.23447 13.9805 3.25162 14.1278 3.31354V3.31517ZM12.9984 5.98829L9.386 9.50804C9.23428 9.65597 9.03077 9.73877 8.81888 9.73879H5.6875C5.47201 9.73879 5.26535 9.8244 5.11298 9.97677C4.9606 10.1291 4.875 10.3358 4.875 10.5513V15.4084C4.875 15.6239 4.9606 15.8306 5.11298 15.9829C5.26535 16.1353 5.47201 16.2209 5.6875 16.2209H8.81888C9.03157 16.221 9.23576 16.3044 9.38762 16.4533L13 20.0007V5.98829H12.9984Z" fill="white"/>
<path d="M16.429 8.43201C16.4954 8.34841 16.5777 8.27872 16.6711 8.22694C16.7644 8.17515 16.8671 8.14228 16.9732 8.13021C17.0793 8.11814 17.1867 8.1271 17.2894 8.15657C17.392 8.18605 17.4878 8.23547 17.5713 8.30201H17.573L17.5746 8.30363L17.5778 8.30688L17.5876 8.31338L17.612 8.33451L17.6851 8.39951C18.0281 8.72886 18.3269 9.1014 18.574 9.50776C19.0485 10.2878 19.5067 11.4464 19.5067 12.9983C19.5067 14.5485 19.0485 15.7088 18.574 16.4888C18.3849 16.8029 18.165 17.0974 17.9175 17.3679C17.8137 17.4803 17.7036 17.5866 17.5876 17.6864L17.5746 17.6978C17.5746 17.6978 16.8482 18.0926 16.4306 17.571C16.297 17.4034 16.235 17.1899 16.2582 16.9768C16.2813 16.7638 16.3877 16.5685 16.5541 16.4335L16.5557 16.4303V16.4319L16.5573 16.4303L16.5866 16.4043C16.8173 16.1773 17.0188 15.9224 17.1862 15.6454C17.5258 15.0848 17.8817 14.2121 17.8817 12.9966C17.8817 11.7828 17.5258 10.9118 17.1862 10.3528C17.0186 10.0769 16.8172 9.82302 16.5866 9.59713C16.577 9.58831 16.5672 9.57964 16.5573 9.57113H16.559C16.3911 9.43703 16.2831 9.24189 16.2588 9.02841C16.2344 8.81493 16.2956 8.60048 16.429 8.43201Z" fill="white"/>
<path d="M19.1962 5.05179C19.1131 4.98295 19.017 4.93138 18.9137 4.90009C18.8103 4.86881 18.7018 4.85843 18.5944 4.86957C18.487 4.88071 18.3829 4.91315 18.2882 4.96498C18.1935 5.01682 18.11 5.08701 18.0427 5.17146C17.9755 5.25591 17.9257 5.35292 17.8963 5.45683C17.867 5.56073 17.8586 5.66945 17.8718 5.77662C17.8849 5.88379 17.9193 5.98726 17.9729 6.081C18.0265 6.17473 18.0982 6.25685 18.1839 6.32254L18.2017 6.33879L18.2862 6.41192C18.361 6.48017 18.4747 6.58579 18.6112 6.72879C18.8875 7.01641 19.2612 7.44867 19.6366 8.01904C20.3841 9.15816 21.13 10.8352 21.13 13.0062C21.1347 14.7774 20.6151 16.5104 19.6366 17.9868C19.2629 18.5555 18.8891 18.9845 18.6129 19.2705C18.4822 19.4065 18.3456 19.5367 18.2034 19.6605L18.1839 19.6768C18.025 19.8139 17.9253 20.0072 17.9057 20.2161C17.8861 20.4251 17.9481 20.6335 18.0787 20.7978C18.2094 20.962 18.3985 21.0693 18.6065 21.0973C18.8145 21.1252 19.0253 21.0715 19.1946 20.9475L19.2482 20.9037L19.3717 20.798C19.9874 20.2259 20.5324 19.5822 20.9951 18.8805C22.1478 17.1386 22.7601 15.0949 22.755 13.0062C22.7591 10.916 22.147 8.87104 20.9951 7.12692C20.6387 6.58272 20.2329 6.07248 19.7829 5.60267C19.613 5.42621 19.4351 5.25758 19.2499 5.09729L19.2141 5.06642L19.2027 5.05667L19.1979 5.05342L19.1962 5.05179Z" fill="white"/>
</svg>
