<svg width="26" height="26" viewBox="0 0 26 26" fill="none" xmlns="http://www.w3.org/2000/svg">
<path d="M14.625 15.7749L22.9873 24.1388C23.1399 24.2913 23.3468 24.3771 23.5625 24.3771C23.7783 24.3771 23.9852 24.2913 24.1378 24.1388C24.2904 23.9862 24.3761 23.7793 24.3761 23.5635C24.3761 23.3478 24.2904 23.1408 24.1378 22.9883L3.0128 1.86328C2.93726 1.78773 2.84757 1.72781 2.74887 1.68693C2.65017 1.64604 2.54438 1.625 2.43755 1.625C2.33072 1.625 2.22493 1.64604 2.12623 1.68693C2.02753 1.72781 1.93784 1.78773 1.8623 1.86328C1.78676 1.93882 1.72683 2.0285 1.68595 2.1272C1.64507 2.2259 1.62402 2.33169 1.62402 2.43853C1.62402 2.54536 1.64507 2.65115 1.68595 2.74985C1.72683 2.84855 1.78676 2.93823 1.8623 3.01378L6.9648 8.11465H5.68755C5.04108 8.11465 4.4211 8.37146 3.96398 8.82858C3.50686 9.2857 3.25005 9.90569 3.25005 10.5522V15.4093C3.25005 16.0557 3.50686 16.6757 3.96398 17.1328C4.4211 17.59 5.04108 17.8468 5.68755 17.8468H8.48743L13.2422 22.5187C13.3564 22.6312 13.5013 22.7075 13.6587 22.7378C13.8161 22.7682 13.979 22.7513 14.1269 22.6893C14.2747 22.6272 14.4009 22.5229 14.4895 22.3893C14.5782 22.2557 14.6253 22.0989 14.625 21.9385V15.7749ZM13.0001 14.1499V19.9999L9.3893 16.4542C9.23744 16.3052 9.03324 16.2218 8.82055 16.2218H5.68755C5.47206 16.2218 5.2654 16.1362 5.11303 15.9838C4.96065 15.8314 4.87505 15.6248 4.87505 15.4093V10.5505C4.87505 10.335 4.96065 10.1284 5.11303 9.976C5.2654 9.82363 5.47206 9.73803 5.68755 9.73803H8.5898L12.9984 14.1499H13.0001Z" fill="white"/>
<path d="M13 9.55205V5.98842L11.1914 7.74667L10.0425 6.5978L13.2437 3.48105C13.3582 3.37005 13.5029 3.29521 13.6596 3.26584C13.8164 3.23648 13.9783 3.2539 14.1252 3.31592C14.2722 3.37795 14.3976 3.48184 14.4859 3.61465C14.5742 3.74746 14.6214 3.90332 14.6217 4.0628V11.177L12.9967 9.55205H13Z" fill="white"/>
<path d="M19.0272 15.5807L17.7353 14.2888C17.8247 13.9118 17.8816 13.4812 17.8816 12.9985C17.8816 11.783 17.5257 10.912 17.1861 10.353C17.0185 10.0771 16.8171 9.82329 16.5865 9.59741C16.5768 9.58858 16.5671 9.57991 16.5572 9.57141H16.5588C16.401 9.43383 16.3024 9.24067 16.2836 9.03218C16.2647 8.82369 16.3271 8.61597 16.4576 8.45232C16.5882 8.28866 16.7768 8.18171 16.9843 8.15376C17.1918 8.12581 17.402 8.17901 17.5712 8.30228H17.5728L17.5745 8.30391L17.5777 8.30716L17.5875 8.31366L17.6118 8.33478C17.7188 8.42795 17.8207 8.52667 17.9173 8.63053C18.101 8.83041 18.3398 9.12128 18.5738 9.50803C19.0483 10.288 19.5066 11.4467 19.5066 12.9985C19.5134 13.882 19.3507 14.7585 19.0272 15.5807Z" fill="white"/>
<path d="M21.4921 18.046L20.2815 16.8353C20.844 15.6376 21.1337 14.33 21.1298 13.0068C21.1338 11.2337 20.6143 9.49882 19.6364 8.01971C19.3355 7.55911 18.9928 7.1272 18.6126 6.72946C18.4814 6.59348 18.3442 6.46335 18.2015 6.33946L18.1836 6.32321C18.0196 6.1875 17.9155 5.99284 17.8935 5.78111C17.8715 5.56938 17.9335 5.35748 18.0662 5.19099C18.1988 5.0245 18.3915 4.91671 18.6028 4.89081C18.8141 4.8649 19.0271 4.92295 19.196 5.05246L19.1976 5.05409L19.2025 5.05734L19.2139 5.06709L19.2496 5.09796C19.4349 5.25826 19.6127 5.42689 19.7826 5.60334C20.1158 5.94946 20.5561 6.45971 20.9949 7.12759C22.1467 8.87172 22.7589 10.9167 22.7548 13.0068C22.7595 14.7649 22.3255 16.4963 21.4921 18.0443V18.046Z" fill="white"/>
</svg>
