<svg width="26" height="26" viewBox="0 0 26 26" fill="none" xmlns="http://www.w3.org/2000/svg">
<path d="M14.8743 3.80261L16.781 7.61594C17.041 8.14677 17.7343 8.65594 18.3193 8.75344L21.7751 9.32761C23.9851 9.69594 24.5051 11.2993 22.9126 12.8809L20.226 15.5676C19.771 16.0226 19.5218 16.9001 19.6626 17.5284L20.4318 20.8543C21.0385 23.4868 19.641 24.5051 17.3118 23.1293L14.0726 21.2118C13.4876 20.8651 12.5235 20.8651 11.9276 21.2118L8.68848 23.1293C6.37015 24.5051 4.96181 23.4759 5.56848 20.8543L6.33765 17.5284C6.47848 16.9001 6.22931 16.0226 5.77431 15.5676L3.08765 12.8809C1.50598 11.2993 2.01515 9.69594 4.22515 9.32761L7.68098 8.75344C8.25515 8.65594 8.94848 8.14677 9.20848 7.61594L11.1151 3.80261C12.1551 1.73344 13.8451 1.73344 14.8743 3.80261Z" stroke="white" stroke-width="1.5" stroke-linecap="round" stroke-linejoin="round"/>
</svg>
