<svg width="21" height="20" viewBox="0 0 21 20" fill="none" xmlns="http://www.w3.org/2000/svg">
<path d="M2.375 2.5H18.625C19.1223 2.5 19.5992 2.69754 19.9508 3.04917C20.3025 3.40081 20.5 3.87772 20.5 4.375V15.625C20.5001 15.8713 20.4517 16.1152 20.3575 16.3428C20.2633 16.5704 20.1252 16.7772 19.9511 16.9514C19.777 17.1256 19.5703 17.2637 19.3427 17.358C19.1152 17.4523 18.8713 17.5008 18.625 17.5008H2.375C1.87772 17.5008 1.40081 17.3033 1.04917 16.9517C0.697544 16.6 0.5 16.1231 0.5 15.6258V4.37583C0.5 3.87855 0.697544 3.40164 1.04917 3.05001C1.40081 2.69838 1.87772 2.50083 2.375 2.50083V2.5ZM8.23167 6.84833C8.11319 6.73793 7.95648 6.67783 7.79456 6.68069C7.63265 6.68354 7.47816 6.74914 7.36365 6.86365C7.24914 6.97816 7.18354 7.13265 7.18069 7.29456C7.17783 7.45648 7.23793 7.61319 7.34833 7.73167L9.615 9.99833L7.3475 12.2692C7.23371 12.3871 7.17078 12.545 7.17228 12.7089C7.17378 12.8727 7.23959 13.0295 7.35552 13.1453C7.47146 13.2611 7.62825 13.3268 7.79212 13.3281C7.956 13.3295 8.11384 13.2664 8.23167 13.1525L10.4983 10.8833L12.7683 13.1525C12.8868 13.2629 13.0435 13.323 13.2054 13.3201C13.3674 13.3173 13.5218 13.2517 13.6364 13.1372C13.7509 13.0227 13.8165 12.8682 13.8193 12.7063C13.8222 12.5444 13.7621 12.3876 13.6517 12.2692L11.3825 9.99917L13.6517 7.73667C13.7098 7.67867 13.7559 7.60979 13.7874 7.53396C13.8189 7.45814 13.8351 7.37686 13.8352 7.29476C13.8353 7.21265 13.8192 7.13134 13.7878 7.05546C13.7565 6.97957 13.7105 6.91061 13.6525 6.8525C13.5945 6.79439 13.5256 6.74827 13.4498 6.71678C13.374 6.68529 13.2927 6.66904 13.2106 6.66897C13.1285 6.66889 13.0472 6.68498 12.9713 6.71633C12.8954 6.74768 12.8264 6.79367 12.7683 6.85167L10.4983 9.115L8.23167 6.84833Z" fill="#FF3333"/>
</svg>
