<svg width="26" height="26" viewBox="0 0 26 26" fill="none" xmlns="http://www.w3.org/2000/svg">
<g clip-path="url(#clip0_5401_117332)">
<path d="M13 25.1875C19.731 25.1875 25.1875 19.731 25.1875 13C25.1875 6.26903 19.731 0.8125 13 0.8125C6.26903 0.8125 0.8125 6.26903 0.8125 13C0.8125 19.731 6.26903 25.1875 13 25.1875Z" fill="#FFDD67"/>
<path d="M7.71875 16.25C10.1868 16.25 12.1875 14.2493 12.1875 11.7812C12.1875 9.31323 10.1868 7.3125 7.71875 7.3125C5.25073 7.3125 3.25 9.31323 3.25 11.7812C3.25 14.2493 5.25073 16.25 7.71875 16.25Z" fill="white"/>
<path d="M9.75 11.7812C9.75 12.9188 8.85625 13.8125 7.71875 13.8125C6.58125 13.8125 5.6875 12.9188 5.6875 11.7812C5.6875 10.6438 6.58125 9.75 7.71875 9.75C8.85625 9.75 9.75 10.6438 9.75 11.7812Z" fill="#664E27"/>
<path d="M22.75 11.7812C22.75 14.2594 20.7594 16.25 18.2812 16.25C15.8031 16.25 13.8125 14.2594 13.8125 11.7812C13.8125 9.30313 15.8031 7.3125 18.2812 7.3125C20.7594 7.3125 22.75 9.30313 22.75 11.7812Z" fill="white"/>
<path d="M20.3125 11.7812C20.3125 12.9188 19.4188 13.8125 18.2812 13.8125C17.1438 13.8125 16.25 12.9188 16.25 11.7812C16.25 10.6438 17.1438 9.75 18.2812 9.75C19.4188 9.75 20.3125 10.6438 20.3125 11.7812Z" fill="#664E27"/>
<path d="M20.3938 6.41793C19.0938 5.32106 17.3469 4.83356 15.6406 5.15856C15.3969 5.19918 15.1937 4.34606 15.4781 4.26481C17.4281 3.89918 19.4594 4.46793 20.9625 5.72731C21.2062 5.93043 20.5562 6.58043 20.3938 6.41793ZM10.3594 5.07731C8.65312 4.79293 6.90625 5.23981 5.60625 6.33668C5.44375 6.49918 4.79375 5.84918 5.0375 5.64606C6.54062 4.34606 8.57187 3.81793 10.5219 4.18356C10.8062 4.26481 10.6031 5.11793 10.3594 5.07731Z" fill="#917524"/>
<path d="M13 23.5625C15.0193 23.5625 16.6562 21.9255 16.6562 19.9062C16.6562 17.887 15.0193 16.25 13 16.25C10.9807 16.25 9.34375 17.887 9.34375 19.9062C9.34375 21.9255 10.9807 23.5625 13 23.5625Z" fill="#664E27"/>
<path d="M10.5625 18.6875C11.05 17.7125 11.9438 17.0625 13 17.0625C14.0562 17.0625 14.95 17.7125 15.4375 18.6875H10.5625Z" fill="white"/>
</g>
<defs>
<clipPath id="clip0_5401_117332">
<rect width="26" height="26" fill="white"/>
</clipPath>
</defs>
</svg>
