<svg width="40" height="40" viewBox="0 0 40 40" fill="none" xmlns="http://www.w3.org/2000/svg">
<path d="M28.334 33.333H6.66732V11.6663C6.66732 10.7497 5.91732 9.99967 5.00065 9.99967C4.08398 9.99967 3.33398 10.7497 3.33398 11.6663V33.333C3.33398 35.1663 4.83398 36.6663 6.66732 36.6663H28.334C29.2507 36.6663 30.0007 35.9163 30.0007 34.9997C30.0007 34.083 29.2507 33.333 28.334 33.333ZM33.334 3.33301H13.334C11.5007 3.33301 10.0007 4.83301 10.0007 6.66634V26.6663C10.0007 28.4997 11.5007 29.9997 13.334 29.9997H33.334C35.1673 29.9997 36.6673 28.4997 36.6673 26.6663V6.66634C36.6673 4.83301 35.1673 3.33301 33.334 3.33301ZM23.334 8.33301C26.1007 8.33301 28.334 10.5663 28.334 13.333C28.334 16.0997 26.1007 18.333 23.334 18.333C20.5673 18.333 18.334 16.0997 18.334 13.333C18.334 10.5663 20.5673 8.33301 23.334 8.33301ZM12.934 26.6663C15.384 23.6163 19.1173 21.6663 23.334 21.6663C27.5507 21.6663 31.284 23.6163 33.734 26.6663H12.934Z" fill="#4C5BD4"/>
</svg>
