<svg width="21" height="14" viewBox="0 0 21 14" fill="none" xmlns="http://www.w3.org/2000/svg">
<path d="M0.65774 12.782C0.757259 13.0167 0.901238 13.23 1.08174 13.41C1.26723 13.5974 1.4881 13.746 1.73153 13.8473C1.97495 13.9486 2.23608 14.0005 2.49974 14L14.4997 14C14.7967 14 15.0777 13.868 15.2687 13.641L20.2687 7.641C20.5777 7.27 20.5777 6.731 20.2687 6.36L15.2687 0.359996C15.0777 0.131997 14.7967 -4.31333e-06 14.4997 -4.3393e-06L2.49974 -5.38837e-06C2.23788 -0.00120895 1.9784 0.0496209 1.73635 0.149531C1.4943 0.24944 1.27451 0.396441 1.08974 0.581995C0.902364 0.767483 0.753715 0.988356 0.652431 1.23178C0.551147 1.47521 0.499244 1.73634 0.49974 1.99999L0.499739 12C0.499739 12.266 0.551739 12.525 0.65774 12.782Z" fill="url(#paint0_linear_385_16822)"/>
<defs>
<linearGradient id="paint0_linear_385_16822" x1="20.5005" y1="6.11549" x2="0.49965" y2="6.13744" gradientUnits="userSpaceOnUse">
<stop stop-color="#0086DA"/>
<stop offset="1" stop-color="#00A9E9"/>
<stop offset="1" stop-color="#00A9E9"/>
</linearGradient>
</defs>
</svg>
