<svg width="20" height="20" viewBox="0 0 20 20" fill="none" xmlns="http://www.w3.org/2000/svg">
<path d="M1.85968 9.49502V16.652H4.88968L5.04269 16.67C7.85568 17.326 9.71969 17.799 10.6487 18.092C11.8827 18.481 12.3427 18.576 13.1797 18.632C13.8057 18.675 14.5167 18.434 14.8407 18.104C15.0197 17.922 15.1537 17.548 15.2067 16.968C15.2177 16.8464 15.2611 16.73 15.3326 16.6309C15.404 16.5319 15.5007 16.4538 15.6127 16.405C15.8617 16.297 16.0687 16.121 16.2417 15.865C16.4017 15.631 16.5057 15.195 16.5247 14.564C16.528 14.448 16.5609 14.3348 16.6202 14.235C16.6796 14.1353 16.7634 14.0523 16.8637 13.994C17.4457 13.657 17.7337 13.277 17.7937 12.831C17.8597 12.338 17.6997 11.783 17.2807 11.151C17.1824 11.0028 17.1458 10.8221 17.1786 10.6473C17.2115 10.4725 17.3113 10.3174 17.4567 10.215C17.8577 9.93302 18.0777 9.54102 18.1327 8.98502C18.2207 8.09902 17.6557 7.44402 16.3767 7.31302C15.2376 7.20035 14.0874 7.29625 12.9827 7.59602C12.8574 7.62877 12.7253 7.62504 12.602 7.58529C12.4788 7.54553 12.3694 7.47139 12.2868 7.37159C12.2043 7.27179 12.1519 7.15049 12.1359 7.02195C12.12 6.89341 12.141 6.76299 12.1967 6.64602C12.6967 5.58802 12.9747 4.71502 13.0397 4.03902C13.1247 3.14202 12.9177 2.49202 12.4337 1.95602C12.0667 1.55002 11.4797 1.31802 11.2597 1.36602C10.9697 1.42802 10.7807 1.59602 10.5347 2.18402C10.3897 2.53202 10.3197 2.82802 10.1997 3.51902C10.0847 4.17502 10.0217 4.47102 9.89069 4.85902C9.49569 6.03502 8.52668 7.25402 7.22568 8.09502C6.31388 8.68373 5.32568 9.14469 4.28868 9.46502C4.2239 9.48499 4.15648 9.4951 4.08868 9.49502H1.85968V9.49502ZM1.81768 18.015C1.49468 18.024 1.20468 17.952 0.961685 17.782C0.651685 17.565 0.505685 17.223 0.502685 16.829L0.505685 9.50602C0.471685 9.11602 0.586685 8.75802 0.858685 8.49202C1.11368 8.24202 1.44668 8.12402 1.79868 8.13202H3.98368C4.86754 7.85039 5.7102 7.45294 6.48968 6.95002C7.53768 6.27202 8.30968 5.30002 8.60468 4.42402C8.70568 4.12202 8.75969 3.87202 8.86169 3.28402C8.99969 2.49502 9.08569 2.12802 9.28369 1.65602C9.69369 0.674018 10.2317 0.194018 10.9737 0.0330184C11.7037 -0.124982 12.7667 0.296018 13.4387 1.04002C14.1837 1.86402 14.5127 2.89502 14.3907 4.16902C14.3387 4.71702 14.1867 5.33002 13.9367 6.01302C14.7905 5.8886 15.6563 5.86979 16.5147 5.95702C18.5217 6.16202 19.6487 7.46902 19.4847 9.12102C19.4127 9.83302 19.1547 10.438 18.7157 10.913C19.0847 11.624 19.2317 12.327 19.1397 13.013C19.0337 13.803 18.5937 14.461 17.8617 14.972C17.8047 15.665 17.6457 16.218 17.3637 16.632C17.1415 16.9665 16.8516 17.2506 16.5127 17.466C16.4047 18.15 16.1777 18.685 15.8067 19.061C15.1917 19.687 14.0927 20.06 13.0887 19.992C12.1357 19.928 11.5717 19.812 10.2417 19.392C9.36468 19.115 7.54868 18.655 4.81168 18.015H1.81668H1.81768ZM3.51868 9.18402C3.51842 9.09455 3.53582 9.00591 3.56987 8.92318C3.60393 8.84045 3.65397 8.76525 3.71714 8.70189C3.78031 8.63854 3.85537 8.58827 3.938 8.55397C4.02063 8.51967 4.10922 8.50202 4.19868 8.50202C4.28798 8.50228 4.37636 8.52013 4.45876 8.55454C4.54116 8.58896 4.61597 8.63927 4.67893 8.7026C4.74189 8.76593 4.79176 8.84104 4.82569 8.92364C4.85962 9.00624 4.87695 9.09472 4.87668 9.18402V16.862C4.87682 16.9513 4.85936 17.0398 4.82531 17.1223C4.79125 17.2049 4.74128 17.2799 4.67822 17.3431C4.61517 17.4064 4.54028 17.4566 4.45783 17.4909C4.37538 17.5252 4.28698 17.5429 4.19768 17.543C4.10839 17.5429 4.01999 17.5252 3.93754 17.4909C3.85508 17.4566 3.7802 17.4064 3.71714 17.3431C3.65409 17.2799 3.60412 17.2049 3.57006 17.1223C3.53601 17.0398 3.51855 16.9513 3.51868 16.862V9.18402V9.18402Z" fill="#999999"/>
</svg>
