<svg width="24" height="24" viewBox="0 0 24 24" fill="none" xmlns="http://www.w3.org/2000/svg">
<path d="M14.2178 9.11493C13.9238 9.11493 13.6855 9.32531 13.6855 9.58489V18.467C13.6855 18.7263 13.9238 18.9369 14.2178 18.9369C14.5119 18.9369 14.7502 18.7263 14.7502 18.467V9.58489C14.7502 9.32531 14.5119 9.11493 14.2178 9.11493Z" fill="#CCCCCC"/>
<path d="M7.93615 9.11493C7.64211 9.11493 7.40381 9.32531 7.40381 9.58489V18.467C7.40381 18.7263 7.64211 18.9369 7.93615 18.9369C8.23018 18.9369 8.46848 18.7263 8.46848 18.467V9.58489C8.46848 9.32531 8.23018 9.11493 7.93615 9.11493Z" fill="#CCCCCC"/>
<path d="M3.35811 7.81981V19.3984C3.35811 20.0827 3.64237 20.7254 4.13894 21.1866C4.63322 21.649 5.32109 21.9115 6.04099 21.9126H16.1129C16.833 21.9115 17.5209 21.649 18.015 21.1866C18.5116 20.7254 18.7958 20.0827 18.7958 19.3984V7.81981C19.7829 7.58851 20.4226 6.74664 20.2905 5.85245C20.1583 4.95844 19.2955 4.28968 18.2741 4.2895H15.5486V3.70206C15.5517 3.20807 15.3304 2.73371 14.9343 2.38474C14.5382 2.03595 14 1.84173 13.4404 1.84576H8.71348C8.1539 1.84173 7.61575 2.03595 7.21961 2.38474C6.82348 2.73371 6.60223 3.20807 6.60535 3.70206V4.2895H3.87984C2.85842 4.28968 1.99566 4.95844 1.86341 5.85245C1.73137 6.74664 2.371 7.58851 3.35811 7.81981ZM16.1129 20.9727H6.04099C5.13083 20.9727 4.42278 20.2825 4.42278 19.3984V7.86111H17.7311V19.3984C17.7311 20.2825 17.0231 20.9727 16.1129 20.9727ZM7.67002 3.70206C7.66648 3.45736 7.77545 3.22183 7.97216 3.04909C8.16867 2.87635 8.43608 2.78144 8.71348 2.78566H13.4404C13.7178 2.78144 13.9853 2.87635 14.1818 3.04909C14.3785 3.22165 14.4874 3.45736 14.4839 3.70206V4.2895H7.67002V3.70206ZM3.87984 5.2294H18.2741C18.8033 5.2294 19.2323 5.60811 19.2323 6.07531C19.2323 6.5425 18.8033 6.92122 18.2741 6.92122H3.87984C3.35062 6.92122 2.92164 6.5425 2.92164 6.07531C2.92164 5.60811 3.35062 5.2294 3.87984 5.2294Z" fill="#CCCCCC"/>
<path d="M11.077 9.11493C10.783 9.11493 10.5447 9.32531 10.5447 9.58489V18.467C10.5447 18.7263 10.783 18.9369 11.077 18.9369C11.371 18.9369 11.6093 18.7263 11.6093 18.467V9.58489C11.6093 9.32531 11.371 9.11493 11.077 9.11493Z" fill="#CCCCCC"/>
<path d="M14.2178 9.11493C13.9238 9.11493 13.6855 9.32531 13.6855 9.58489V18.467C13.6855 18.7263 13.9238 18.9369 14.2178 18.9369C14.5119 18.9369 14.7502 18.7263 14.7502 18.467V9.58489C14.7502 9.32531 14.5119 9.11493 14.2178 9.11493Z" stroke="#CCCCCC" stroke-width="0.5"/>
<path d="M7.93615 9.11493C7.64211 9.11493 7.40381 9.32531 7.40381 9.58489V18.467C7.40381 18.7263 7.64211 18.9369 7.93615 18.9369C8.23018 18.9369 8.46848 18.7263 8.46848 18.467V9.58489C8.46848 9.32531 8.23018 9.11493 7.93615 9.11493Z" stroke="#CCCCCC" stroke-width="0.5"/>
<path d="M3.35811 7.81981V19.3984C3.35811 20.0827 3.64237 20.7254 4.13894 21.1866C4.63322 21.649 5.32109 21.9115 6.04099 21.9126H16.1129C16.833 21.9115 17.5209 21.649 18.015 21.1866C18.5116 20.7254 18.7958 20.0827 18.7958 19.3984V7.81981C19.7829 7.58851 20.4226 6.74664 20.2905 5.85245C20.1583 4.95844 19.2955 4.28968 18.2741 4.2895H15.5486V3.70206C15.5517 3.20807 15.3304 2.73371 14.9343 2.38474C14.5382 2.03595 14 1.84173 13.4404 1.84576H8.71348C8.1539 1.84173 7.61575 2.03595 7.21961 2.38474C6.82348 2.73371 6.60223 3.20807 6.60535 3.70206V4.2895H3.87984C2.85842 4.28968 1.99566 4.95844 1.86341 5.85245C1.73137 6.74664 2.371 7.58851 3.35811 7.81981ZM16.1129 20.9727H6.04099C5.13083 20.9727 4.42278 20.2825 4.42278 19.3984V7.86111H17.7311V19.3984C17.7311 20.2825 17.0231 20.9727 16.1129 20.9727ZM7.67002 3.70206C7.66648 3.45736 7.77545 3.22183 7.97216 3.04909C8.16867 2.87635 8.43608 2.78144 8.71348 2.78566H13.4404C13.7178 2.78144 13.9853 2.87635 14.1818 3.04909C14.3785 3.22165 14.4874 3.45736 14.4839 3.70206V4.2895H7.67002V3.70206ZM3.87984 5.2294H18.2741C18.8033 5.2294 19.2323 5.60811 19.2323 6.07531C19.2323 6.5425 18.8033 6.92122 18.2741 6.92122H3.87984C3.35062 6.92122 2.92164 6.5425 2.92164 6.07531C2.92164 5.60811 3.35062 5.2294 3.87984 5.2294Z" stroke="#CCCCCC" stroke-width="0.5"/>
<path d="M11.077 9.11493C10.783 9.11493 10.5447 9.32531 10.5447 9.58489V18.467C10.5447 18.7263 10.783 18.9369 11.077 18.9369C11.371 18.9369 11.6093 18.7263 11.6093 18.467V9.58489C11.6093 9.32531 11.371 9.11493 11.077 9.11493Z" stroke="#CCCCCC" stroke-width="0.5"/>
</svg>
