<svg width="20" height="20" viewBox="0 0 20 20" fill="none" xmlns="http://www.w3.org/2000/svg">
<path d="M18.403 18.3333C18.2004 18.3333 18.0061 18.2523 17.8629 18.1081C17.7196 17.9638 17.6391 17.7682 17.6391 17.5642C17.6379 16.3406 17.1547 15.1675 16.2954 14.3023C15.4362 13.4371 14.2712 12.9505 13.0561 12.9493H8.60284V14.1692C8.60278 14.4734 8.51315 14.7707 8.34528 15.0236C8.17741 15.2765 7.93884 15.4737 7.65973 15.5901C7.38062 15.7065 7.07351 15.7369 6.77721 15.6776C6.48091 15.6183 6.20873 15.4718 5.99508 15.2567L1.50443 10.7349C1.07483 10.3022 0.833496 9.71542 0.833496 9.10357C0.833496 8.49172 1.07483 7.90492 1.50443 7.47221L5.99508 2.95039C6.20873 2.73532 6.48091 2.58887 6.77721 2.52954C7.07351 2.47021 7.38062 2.50068 7.65973 2.61708C7.93884 2.73348 8.17741 2.9306 8.34528 3.18351C8.51315 3.43642 8.60278 3.73377 8.60284 4.03797V5.25783H12.2922C14.1149 5.25987 15.8623 5.98984 17.1511 7.28758C18.4399 8.58533 19.1648 10.3449 19.1668 12.1802V17.5642C19.1668 17.7682 19.0864 17.9638 18.9431 18.1081C18.7999 18.2523 18.6056 18.3333 18.403 18.3333ZM7.07515 4.03797L2.5845 8.55978C2.44131 8.70402 2.36086 8.89962 2.36086 9.10357C2.36086 9.30752 2.44131 9.50312 2.5845 9.64736L7.07515 14.1692V12.1802C7.07515 11.9762 7.15563 11.7805 7.29888 11.6363C7.44213 11.492 7.63641 11.411 7.839 11.411H13.0561C13.9235 11.4107 14.781 11.5968 15.5713 11.9568C16.3616 12.3168 17.0666 12.8423 17.6391 13.4985V12.1802C17.6375 10.7527 17.0737 9.38422 16.0713 8.37487C15.0689 7.36552 13.7098 6.79776 12.2922 6.79613H7.839C7.63641 6.79613 7.44213 6.71509 7.29888 6.57085C7.15563 6.42661 7.07515 6.23097 7.07515 6.02698V4.03797Z" fill="#474747"/>
</svg>
