<svg width="25" height="25" viewBox="0 0 25 25" fill="none" xmlns="http://www.w3.org/2000/svg">
<path d="M12.5003 12.4997C15.3768 12.4997 17.7087 10.1678 17.7087 7.29134C17.7087 4.41486 15.3768 2.08301 12.5003 2.08301C9.62384 2.08301 7.29199 4.41486 7.29199 7.29134C7.29199 10.1678 9.62384 12.4997 12.5003 12.4997Z" stroke="#FF3333" stroke-width="1.5" stroke-linecap="round" stroke-linejoin="round"/>
<path d="M3.55176 22.9167C3.55176 18.8854 7.56217 15.625 12.4997 15.625C13.4997 15.625 14.4684 15.7604 15.3747 16.0104" stroke="#FF3333" stroke-width="1.5" stroke-linecap="round" stroke-linejoin="round"/>
<path d="M22.9163 18.7497C22.9163 19.083 22.8747 19.4059 22.7913 19.7184C22.6976 20.1351 22.5309 20.5413 22.3122 20.8955C21.5934 22.1038 20.2705 22.9163 18.7497 22.9163C17.6768 22.9163 16.708 22.5101 15.9788 21.8434C15.6663 21.5726 15.3955 21.2497 15.1872 20.8955C14.8017 20.2705 14.583 19.5309 14.583 18.7497C14.583 17.6247 15.0309 16.5934 15.7601 15.8434C16.5205 15.0622 17.583 14.583 18.7497 14.583C19.9788 14.583 21.0934 15.1143 21.8434 15.9684C22.5101 16.708 22.9163 17.6872 22.9163 18.7497Z" stroke="#FF3333" stroke-width="1.5" stroke-miterlimit="10" stroke-linecap="round" stroke-linejoin="round"/>
<path d="M19.8229 17.6455L17.625 19.8434" stroke="#FF3333" stroke-width="1.5" stroke-miterlimit="10" stroke-linecap="round" stroke-linejoin="round"/>
<path d="M17.6455 17.666L19.8538 19.8639" stroke="#FF3333" stroke-width="1.5" stroke-miterlimit="10" stroke-linecap="round" stroke-linejoin="round"/>
</svg>
