<svg width="20" height="24" viewBox="0 0 20 24" fill="none" xmlns="http://www.w3.org/2000/svg">
<path d="M9.60005 0C8.32701 0 7.10611 0.505713 6.20594 1.40589C5.30576 2.30606 4.80005 3.52696 4.80005 4.8C4.80005 6.07304 5.30576 7.29394 6.20594 8.19411C7.10611 9.09429 8.32701 9.6 9.60005 9.6C10.8731 9.6 12.094 9.09429 12.9942 8.19411C13.8943 7.29394 14.4 6.07304 14.4 4.8C14.4 3.52696 13.8943 2.30606 12.9942 1.40589C12.094 0.505713 10.8731 0 9.60005 0ZM7.20005 4.8C7.20005 4.16348 7.45291 3.55303 7.90299 3.10294C8.35308 2.65286 8.96353 2.4 9.60005 2.4C10.2366 2.4 10.847 2.65286 11.2971 3.10294C11.7472 3.55303 12 4.16348 12 4.8C12 5.43652 11.7472 6.04697 11.2971 6.49706C10.847 6.94714 10.2366 7.2 9.60005 7.2C8.96353 7.2 8.35308 6.94714 7.90299 6.49706C7.45291 6.04697 7.20005 5.43652 7.20005 4.8Z" fill="#666666"/>
<path d="M15.6 12H3.6C2.64522 12 1.72955 12.3793 1.05442 13.0544C0.379285 13.7295 0 14.6452 0 15.6C0 18.2784 1.1016 20.424 2.9088 21.876C4.6872 23.304 7.0728 24 9.6 24C12.1272 24 14.5128 23.304 16.2912 21.876C18.096 20.424 19.2 18.2784 19.2 15.6C19.2 14.6452 18.8207 13.7295 18.1456 13.0544C17.4705 12.3793 16.5548 12 15.6 12ZM3.6 14.4H15.6C15.9183 14.4 16.2235 14.5264 16.4485 14.7515C16.6736 14.9765 16.8 15.2817 16.8 15.6C16.8 17.5608 16.02 19.0152 14.7888 20.004C13.5264 21.0168 11.712 21.6 9.6 21.6C7.488 21.6 5.6736 21.0168 4.4112 20.004C3.18 19.0152 2.4 17.5608 2.4 15.6C2.4 15.2817 2.52643 14.9765 2.75147 14.7515C2.97652 14.5264 3.28174 14.4 3.6 14.4Z" fill="#666666"/>
</svg>
