<svg width="24" height="24" viewBox="0 0 24 24" fill="none" xmlns="http://www.w3.org/2000/svg">
<path d="M10.5184 8.49081C10.4276 8.43404 10.3232 8.40263 10.2161 8.39981C10.1091 8.397 10.0032 8.4229 9.90953 8.47482C9.81585 8.52674 9.73778 8.60279 9.68342 8.69507C9.62906 8.78735 9.60039 8.89251 9.60039 8.99961V15.1796C9.60037 15.2881 9.62975 15.3945 9.68539 15.4876C9.74103 15.5806 9.82085 15.6569 9.91638 15.7082C10.0119 15.7596 10.1196 15.784 10.2279 15.7791C10.3362 15.7741 10.4412 15.7399 10.5316 15.68L15.3316 12.5012C15.4152 12.4458 15.4835 12.3704 15.5304 12.2818C15.5773 12.1931 15.6013 12.0942 15.6001 11.9939C15.5989 11.8937 15.5726 11.7953 15.5236 11.7079C15.4746 11.6204 15.4045 11.5466 15.3196 11.4932L10.5196 8.49081H10.5184ZM5.40039 3.59961C4.60474 3.59961 3.84168 3.91568 3.27907 4.47829C2.71646 5.0409 2.40039 5.80396 2.40039 6.59961V17.3996C2.40039 18.1953 2.71646 18.9583 3.27907 19.5209C3.84168 20.0835 4.60474 20.3996 5.40039 20.3996H18.6004C19.396 20.3996 20.1591 20.0835 20.7217 19.5209C21.2843 18.9583 21.6004 18.1953 21.6004 17.3996V6.59961C21.6004 5.80396 21.2843 5.0409 20.7217 4.47829C20.1591 3.91568 19.396 3.59961 18.6004 3.59961H5.40039ZM3.60039 6.59961C3.60039 6.12222 3.79003 5.66438 4.1276 5.32682C4.46516 4.98925 4.923 4.79961 5.40039 4.79961H18.6004C19.0778 4.79961 19.5356 4.98925 19.8732 5.32682C20.2107 5.66438 20.4004 6.12222 20.4004 6.59961V17.3996C20.4004 17.877 20.2107 18.3348 19.8732 18.6724C19.5356 19.01 19.0778 19.1996 18.6004 19.1996H5.40039C4.923 19.1996 4.46516 19.01 4.1276 18.6724C3.79003 18.3348 3.60039 17.877 3.60039 17.3996V6.59961Z" fill="#474747"/>
</svg>
