<svg width="24" height="24" viewBox="0 0 24 24" fill="none" xmlns="http://www.w3.org/2000/svg">
<path d="M22.3788 7.02565C22.1897 6.91313 21.9741 6.85266 21.7541 6.85039C21.534 6.84811 21.3173 6.90412 21.1259 7.0127L16.5294 9.58894V7.40235C16.5287 6.76542 16.2754 6.15477 15.825 5.70439C15.3746 5.25401 14.764 5.00069 14.127 5H3.40235C2.76542 5.00069 2.15477 5.25401 1.70439 5.70439C1.25401 6.15477 1.00069 6.76542 1 7.40235V16.8518C1.00069 17.4887 1.25401 18.0993 1.70439 18.5497C2.15477 19.0001 2.76542 19.2534 3.40235 19.2541H14.127C14.764 19.2534 15.3746 19.0001 15.825 18.5497C16.2754 18.0993 16.5287 17.4887 16.5294 16.8518V14.6652L21.1263 17.2419C21.3179 17.349 21.5342 17.4042 21.7537 17.402C21.9732 17.3998 22.1883 17.3402 22.3777 17.2292C22.567 17.1182 22.7241 16.9596 22.8333 16.7691C22.9424 16.5787 22.9999 16.363 23 16.1435V8.11059C23.0011 7.89107 22.9442 7.67515 22.8352 7.48465C22.7261 7.29415 22.5687 7.13582 22.3788 7.02565ZM15.7059 16.8518C15.7054 17.2704 15.539 17.6717 15.243 17.9677C14.947 18.2637 14.5456 18.4301 14.127 18.4306H3.40235C2.98376 18.4301 2.58243 18.2637 2.28644 17.9677C1.99044 17.6717 1.82396 17.2704 1.82353 16.8518V7.40235C1.82396 6.98375 1.99044 6.58243 2.28644 6.28644C2.58243 5.99044 2.98376 5.82396 3.40235 5.82353H14.127C14.5456 5.82396 14.947 5.99044 15.243 6.28644C15.539 6.58243 15.7054 6.98375 15.7059 7.40235V16.8518ZM22.1765 16.1435C22.1763 16.2194 22.1564 16.2939 22.1186 16.3597C22.0808 16.4255 22.0265 16.4803 21.961 16.5187C21.8956 16.557 21.8212 16.5776 21.7454 16.5784C21.6695 16.5792 21.5947 16.5602 21.5285 16.5233L16.5294 13.7209V10.5332L21.5278 7.73129C21.594 7.69419 21.6688 7.67503 21.7447 7.67574C21.8207 7.67644 21.8951 7.69698 21.9606 7.7353C22.0262 7.77363 22.0806 7.82842 22.1184 7.89425C22.1563 7.96008 22.1763 8.03465 22.1765 8.11059V16.1435Z" fill="white"/>
<path d="M13.6631 7.81059H11.7647C11.6555 7.81059 11.5508 7.85397 11.4735 7.93119C11.3963 8.00841 11.3529 8.11314 11.3529 8.22235C11.3529 8.33156 11.3963 8.43629 11.4735 8.51351C11.5508 8.59073 11.6555 8.63411 11.7647 8.63411H13.6631C13.7723 8.63411 13.877 8.59073 13.9542 8.51351C14.0314 8.43629 14.0748 8.33156 14.0748 8.22235C14.0748 8.11314 14.0314 8.00841 13.9542 7.93119C13.877 7.85397 13.7723 7.81059 13.6631 7.81059Z" fill="white"/>
<path d="M22.3788 7.02565C22.1897 6.91313 21.9741 6.85266 21.7541 6.85039C21.534 6.84811 21.3173 6.90412 21.1259 7.0127L16.5294 9.58894V7.40235C16.5287 6.76542 16.2754 6.15477 15.825 5.70439C15.3746 5.25401 14.764 5.00069 14.127 5H3.40235C2.76542 5.00069 2.15477 5.25401 1.70439 5.70439C1.25401 6.15477 1.00069 6.76542 1 7.40235V16.8518C1.00069 17.4887 1.25401 18.0993 1.70439 18.5497C2.15477 19.0001 2.76542 19.2534 3.40235 19.2541H14.127C14.764 19.2534 15.3746 19.0001 15.825 18.5497C16.2754 18.0993 16.5287 17.4887 16.5294 16.8518V14.6652L21.1263 17.2419C21.3179 17.349 21.5342 17.4042 21.7537 17.402C21.9732 17.3998 22.1883 17.3402 22.3777 17.2292C22.567 17.1182 22.7241 16.9596 22.8333 16.7691C22.9424 16.5787 22.9999 16.363 23 16.1435V8.11059C23.0011 7.89107 22.9442 7.67515 22.8352 7.48465C22.7261 7.29415 22.5687 7.13582 22.3788 7.02565ZM15.7059 16.8518C15.7054 17.2704 15.539 17.6717 15.243 17.9677C14.947 18.2637 14.5456 18.4301 14.127 18.4306H3.40235C2.98376 18.4301 2.58243 18.2637 2.28644 17.9677C1.99044 17.6717 1.82396 17.2704 1.82353 16.8518V7.40235C1.82396 6.98375 1.99044 6.58243 2.28644 6.28644C2.58243 5.99044 2.98376 5.82396 3.40235 5.82353H14.127C14.5456 5.82396 14.947 5.99044 15.243 6.28644C15.539 6.58243 15.7054 6.98375 15.7059 7.40235V16.8518ZM22.1765 16.1435C22.1763 16.2194 22.1564 16.2939 22.1186 16.3597C22.0808 16.4255 22.0265 16.4803 21.961 16.5187C21.8956 16.557 21.8212 16.5776 21.7454 16.5784C21.6695 16.5792 21.5947 16.5602 21.5285 16.5233L16.5294 13.7209V10.5332L21.5278 7.73129C21.594 7.69419 21.6688 7.67503 21.7447 7.67574C21.8207 7.67644 21.8951 7.69698 21.9606 7.7353C22.0262 7.77363 22.0806 7.82842 22.1184 7.89425C22.1563 7.96008 22.1763 8.03465 22.1765 8.11059V16.1435Z" stroke="white" stroke-width="0.5"/>
<path d="M13.6631 7.81059H11.7647C11.6555 7.81059 11.5508 7.85397 11.4735 7.93119C11.3963 8.00841 11.3529 8.11314 11.3529 8.22235C11.3529 8.33156 11.3963 8.43629 11.4735 8.51351C11.5508 8.59073 11.6555 8.63411 11.7647 8.63411H13.6631C13.7723 8.63411 13.877 8.59073 13.9542 8.51351C14.0314 8.43629 14.0748 8.33156 14.0748 8.22235C14.0748 8.11314 14.0314 8.00841 13.9542 7.93119C13.877 7.85397 13.7723 7.81059 13.6631 7.81059Z" stroke="white" stroke-width="0.5"/>
</svg>
