<svg width="30" height="30" viewBox="0 0 30 30" fill="none" xmlns="http://www.w3.org/2000/svg">
<path d="M26.3223 9.27375C26.116 9.14745 25.8809 9.07958 25.6408 9.07703C25.4008 9.07448 25.1643 9.13734 24.9555 9.25923L19.9412 12.151V9.6966C19.9404 8.98165 19.6641 8.29621 19.1727 7.79067C18.6814 7.28512 18.0153 7.00077 17.3204 7H5.62075C4.92591 7.00077 4.25975 7.28512 3.76842 7.79067C3.2771 8.29621 3.00075 8.98165 3 9.6966V20.3034C3.00075 21.0183 3.2771 21.7038 3.76842 22.2093C4.25975 22.7149 4.92591 22.9992 5.62075 23H17.3204C18.0153 22.9992 18.6814 22.7149 19.1727 22.2093C19.6641 21.7038 19.9404 21.0183 19.9412 20.3034V17.849L24.956 20.7413C25.165 20.8616 25.4009 20.9235 25.6404 20.921C25.8798 20.9185 26.1145 20.8517 26.3211 20.7271C26.5277 20.6025 26.699 20.4244 26.8181 20.2107C26.9372 19.9969 26.9999 19.7548 27 19.5084V10.4916C27.0012 10.2452 26.9392 10.0028 26.8202 9.78898C26.7012 9.57515 26.5295 9.39742 26.3223 9.27375ZM19.0428 20.3034C19.0423 20.7733 18.8607 21.2238 18.5378 21.556C18.2149 21.8882 17.7771 22.0751 17.3204 22.0756H5.62075C5.1641 22.0751 4.72629 21.8882 4.40339 21.556C4.08048 21.2238 3.89887 20.7733 3.8984 20.3034V9.6966C3.89887 9.22673 4.08048 8.77625 4.40339 8.444C4.72629 8.11176 5.1641 7.92489 5.62075 7.9244H17.3204C17.7771 7.92489 18.2149 8.11176 18.5378 8.444C18.8607 8.77625 19.0423 9.22673 19.0428 9.6966V20.3034ZM26.1016 19.5084C26.1014 19.5936 26.0797 19.6772 26.0384 19.7511C25.9972 19.8249 25.938 19.8864 25.8666 19.9295C25.7952 19.9726 25.7141 19.9957 25.6313 19.9966C25.5485 19.9975 25.467 19.9762 25.3947 19.9347L19.9412 16.7891V13.2109L25.3939 10.0658C25.4662 10.0242 25.5478 10.0027 25.6306 10.0035C25.7134 10.0043 25.7946 10.0273 25.8662 10.0703C25.9377 10.1134 25.997 10.1749 26.0383 10.2487C26.0796 10.3226 26.1014 10.4063 26.1016 10.4916V19.5084Z" fill="#474747"/>
<path d="M16.8142 10.1548H14.7433C14.6242 10.1548 14.5099 10.2035 14.4257 10.2902C14.3414 10.3769 14.2941 10.4945 14.2941 10.617C14.2941 10.7396 14.3414 10.8572 14.4257 10.9439C14.5099 11.0305 14.6242 11.0792 14.7433 11.0792H16.8142C16.9334 11.0792 17.0476 11.0305 17.1319 10.9439C17.2161 10.8572 17.2634 10.7396 17.2634 10.617C17.2634 10.4945 17.2161 10.3769 17.1319 10.2902C17.0476 10.2035 16.9334 10.1548 16.8142 10.1548Z" fill="#474747"/>
<path d="M26.3223 9.27375C26.116 9.14745 25.8809 9.07958 25.6408 9.07703C25.4008 9.07448 25.1643 9.13734 24.9555 9.25923L19.9412 12.151V9.6966C19.9404 8.98165 19.6641 8.29621 19.1727 7.79067C18.6814 7.28512 18.0153 7.00077 17.3204 7H5.62075C4.92591 7.00077 4.25975 7.28512 3.76842 7.79067C3.2771 8.29621 3.00075 8.98165 3 9.6966V20.3034C3.00075 21.0183 3.2771 21.7038 3.76842 22.2093C4.25975 22.7149 4.92591 22.9992 5.62075 23H17.3204C18.0153 22.9992 18.6814 22.7149 19.1727 22.2093C19.6641 21.7038 19.9404 21.0183 19.9412 20.3034V17.849L24.956 20.7413C25.165 20.8616 25.4009 20.9235 25.6404 20.921C25.8798 20.9185 26.1145 20.8517 26.3211 20.7271C26.5277 20.6025 26.699 20.4244 26.8181 20.2107C26.9372 19.9969 26.9999 19.7548 27 19.5084V10.4916C27.0012 10.2452 26.9392 10.0028 26.8202 9.78898C26.7012 9.57515 26.5295 9.39742 26.3223 9.27375ZM19.0428 20.3034C19.0423 20.7733 18.8607 21.2238 18.5378 21.556C18.2149 21.8882 17.7771 22.0751 17.3204 22.0756H5.62075C5.1641 22.0751 4.72629 21.8882 4.40339 21.556C4.08048 21.2238 3.89887 20.7733 3.8984 20.3034V9.6966C3.89887 9.22673 4.08048 8.77625 4.40339 8.444C4.72629 8.11176 5.1641 7.92489 5.62075 7.9244H17.3204C17.7771 7.92489 18.2149 8.11176 18.5378 8.444C18.8607 8.77625 19.0423 9.22673 19.0428 9.6966V20.3034ZM26.1016 19.5084C26.1014 19.5936 26.0797 19.6772 26.0384 19.7511C25.9972 19.8249 25.938 19.8864 25.8666 19.9295C25.7952 19.9726 25.7141 19.9957 25.6313 19.9966C25.5485 19.9975 25.467 19.9762 25.3947 19.9347L19.9412 16.7891V13.2109L25.3939 10.0658C25.4662 10.0242 25.5478 10.0027 25.6306 10.0035C25.7134 10.0043 25.7946 10.0273 25.8662 10.0703C25.9377 10.1134 25.997 10.1749 26.0383 10.2487C26.0796 10.3226 26.1014 10.4063 26.1016 10.4916V19.5084Z" stroke="#474747" stroke-width="0.5"/>
<path d="M16.8142 10.1548H14.7433C14.6242 10.1548 14.5099 10.2035 14.4257 10.2902C14.3414 10.3769 14.2941 10.4945 14.2941 10.617C14.2941 10.7396 14.3414 10.8572 14.4257 10.9439C14.5099 11.0305 14.6242 11.0792 14.7433 11.0792H16.8142C16.9334 11.0792 17.0476 11.0305 17.1319 10.9439C17.2161 10.8572 17.2634 10.7396 17.2634 10.617C17.2634 10.4945 17.2161 10.3769 17.1319 10.2902C17.0476 10.2035 16.9334 10.1548 16.8142 10.1548Z" stroke="#474747" stroke-width="0.5"/>
</svg>
