<svg width="18" height="18" viewBox="0 0 18 18" fill="none" xmlns="http://www.w3.org/2000/svg">
<path d="M9.3975 15.3146H4.6575C2.2875 15.3146 1.5 13.7396 1.5 12.1571V5.84207C1.5 3.47207 2.2875 2.68457 4.6575 2.68457H9.3975C11.7675 2.68457 12.555 3.47207 12.555 5.84207V12.1571C12.555 14.5271 11.76 15.3146 9.3975 15.3146Z" stroke="#474747" stroke-width="1.5" stroke-linecap="round" stroke-linejoin="round"/>
<path d="M14.6397 12.8251L12.5547 11.3626V6.6301L14.6397 5.1676C15.6597 4.4551 16.4997 4.8901 16.4997 6.1426V11.8576C16.4997 13.1101 15.6597 13.5451 14.6397 12.8251Z" stroke="#474747" stroke-width="1.5" stroke-linecap="round" stroke-linejoin="round"/>
<path d="M5.12048 5.99965L6.09356 11.2129L9.65597 11.1067" stroke="#FF3333" stroke-width="1.5" stroke-linecap="round" stroke-linejoin="round"/>
<path d="M7.59473 7.69531L5.12019 5.99924L3.42412 8.47378" stroke="#FF3333" stroke-width="1.5" stroke-linecap="round" stroke-linejoin="round"/>
</svg>
