<svg width="24" height="24" viewBox="0 0 24 24" fill="none" xmlns="http://www.w3.org/2000/svg">
<path d="M1.34673 21.6777C1.23784 21.9498 1.30159 22.2606 1.50879 22.4678C1.716 22.675 2.02677 22.7387 2.29882 22.6298L5.95447 21.1673C7.74127 22.3497 9.83751 22.978 11.9801 22.9733C12.2938 22.9733 12.6095 22.9603 12.9271 22.9341C18.9733 22.4296 23.4658 17.1192 22.9613 11.0729C22.4569 5.02667 17.1464 0.534166 11.1001 1.03865C5.76446 1.49721 1.52573 5.71603 1.04206 11.0495C0.825599 13.5059 1.44902 15.9631 2.81038 18.0192L1.34673 21.6777ZM1.77224 11.1088C2.23872 5.69423 6.84892 1.58418 12.2813 1.73984C17.7138 1.8955 22.0811 6.2628 22.2367 11.6952C22.3924 17.1276 18.2823 21.7379 12.8677 22.2043C10.5743 22.4069 8.27989 21.826 6.35911 20.5565C6.1599 20.4247 5.90878 20.3987 5.68679 20.4869L2.02821 21.9517L3.49296 18.2923C3.5805 18.0705 3.55454 17.8199 3.42338 17.6207C2.1523 15.6993 1.57023 13.4037 1.77224 11.1088Z" fill="#474747" stroke="#474747" stroke-width="0.5"/>
<path d="M4.66516 9.4242V14.5508C4.66637 15.5615 5.4854 16.3806 6.4961 16.3818H13.8199C14.8306 16.3806 15.6496 15.5615 15.6508 14.5508V14.4109L17.7227 15.4469C18.0632 15.6172 18.4677 15.5991 18.7916 15.3989C19.1155 15.1988 19.3127 14.8452 19.3127 14.4644V9.51062C19.3127 9.12986 19.1155 8.77626 18.7916 8.57612C18.4677 8.37597 18.0632 8.35781 17.7227 8.52814L15.6508 9.56408V9.4242C15.6496 8.4135 14.8306 7.59447 13.8199 7.59326H6.4961C5.4854 7.59447 4.66637 8.4135 4.66516 9.4242ZM18.0504 9.18325C18.1639 9.12654 18.2987 9.13261 18.4066 9.19929C18.5145 9.26597 18.5802 9.38376 18.5803 9.51062V14.4644C18.5802 14.5913 18.5145 14.7091 18.4066 14.7757C18.2987 14.8424 18.1639 14.8485 18.0504 14.7918L15.6508 13.5921V10.3829L18.0504 9.18325ZM14.9184 9.4242V14.5508C14.9184 15.1575 14.4266 15.6494 13.8199 15.6494H6.4961C5.88938 15.6494 5.39754 15.1575 5.39754 14.5508V9.4242C5.39754 8.81748 5.88938 8.32564 6.4961 8.32564H13.8199C14.4266 8.32564 14.9184 8.81748 14.9184 9.4242Z" fill="#474747" stroke="#474747" stroke-width="0.5"/>
<path fill-rule="evenodd" clip-rule="evenodd" d="M6.12988 9.79049V10.1567C6.12988 10.3589 6.29383 10.5229 6.49607 10.5229C6.69831 10.5229 6.86226 10.3589 6.86226 10.1567V9.79049H7.22845C7.43069 9.79049 7.59464 9.62654 7.59464 9.4243C7.59464 9.22205 7.43069 9.05811 7.22845 9.05811H6.86226C6.45778 9.05811 6.12988 9.386 6.12988 9.79049Z" fill="#474747" stroke="#474747" stroke-width="0.5"/>
</svg>
