<svg width="16" height="16" viewBox="0 0 16 16" fill="none" xmlns="http://www.w3.org/2000/svg">
<path d="M12.7993 8.80048H12.2554L10.6555 10.4004H12.1834L13.5993 12.0003H2.40003L3.82394 10.4004H5.46383L3.86393 8.80048H3.19998L0.80014 11.2003V14.4001C0.80014 15.28 1.51209 16 2.39203 16H13.5993C14.0236 16 14.4305 15.8314 14.7306 15.5314C15.0306 15.2314 15.1992 14.8244 15.1992 14.4001V11.2003L12.7993 8.80048ZM11.9994 4.76075L8.03965 8.72049L5.20784 5.88868L9.16758 1.92894L11.9994 4.76075ZM8.60762 0.233058L3.51196 5.32872C3.4378 5.40272 3.37897 5.49063 3.33882 5.5874C3.29868 5.68417 3.27802 5.78791 3.27802 5.89268C3.27802 5.99745 3.29868 6.10118 3.33882 6.19796C3.37897 6.29473 3.4378 6.38263 3.51196 6.45664L7.47169 10.4164C7.78367 10.7284 8.28764 10.7284 8.59962 10.4164L13.6873 5.32872C13.7614 5.25471 13.8203 5.1668 13.8604 5.07003C13.9006 4.97326 13.9212 4.86952 13.9212 4.76475C13.9212 4.65999 13.9006 4.55625 13.8604 4.45948C13.8203 4.3627 13.7614 4.2748 13.6873 4.20079L9.72754 0.241058C9.65537 0.165544 9.56876 0.105297 9.47286 0.0638916C9.37697 0.0224862 9.27373 0.000765995 9.16927 1.98976e-05C9.06482 -0.000726199 8.96128 0.019517 8.8648 0.0595483C8.76832 0.0995795 8.68086 0.158583 8.60762 0.233058Z" fill="#CCCCCC"/>
</svg>
