<svg width="24" height="24" viewBox="0 0 24 24" fill="none" xmlns="http://www.w3.org/2000/svg">
<path d="M12.3823 13.0235C12.7121 13.0235 13.0387 12.9586 13.3435 12.8323C13.6482 12.7061 13.9251 12.5211 14.1583 12.2879C14.3916 12.0546 14.5766 11.7777 14.7028 11.473C14.8291 11.1682 14.894 10.8416 14.894 10.5118C14.894 10.1819 14.8291 9.8553 14.7028 9.55055C14.5766 9.24581 14.3916 8.96892 14.1583 8.73568C13.9251 8.50244 13.6482 8.31742 13.3435 8.1912C13.0387 8.06497 12.7121 8 12.3823 8C11.7161 8 11.0772 8.26463 10.6062 8.73568C10.1351 9.20673 9.87049 9.8456 9.87049 10.5118C9.87049 11.1779 10.1351 11.8168 10.6062 12.2879C11.0772 12.7589 11.7161 13.0235 12.3823 13.0235V13.0235Z" stroke="#474747" stroke-width="1.5" stroke-linecap="round" stroke-linejoin="round"/>
<path d="M7 19.7695V20.2H17.7647V19.7695C17.7647 18.1619 17.7647 17.3582 17.4518 16.7439C17.1766 16.2037 16.7375 15.7646 16.1974 15.4894C15.5831 15.1765 14.7793 15.1765 13.1718 15.1765H11.5929C9.98541 15.1765 9.18165 15.1765 8.56734 15.4894C8.02723 15.7646 7.5881 16.2037 7.31289 16.7439C7 17.3582 7 18.1619 7 19.7695Z" stroke="#474747" stroke-width="1.5" stroke-linecap="round" stroke-linejoin="round"/>
<rect x="1.75" y="4.75" width="20.5" height="15.5" rx="2.25" stroke="#474747" stroke-width="1.5"/>
</svg>
