<svg width="22" height="22" viewBox="0 0 22 22" fill="none" xmlns="http://www.w3.org/2000/svg">
<path d="M12.1473 10.6468L11.7937 11.0003L12.1473 11.3539L20.4196 19.6262C20.6379 19.8445 20.6379 20.2015 20.4196 20.4199C20.2012 20.6382 19.8442 20.6382 19.6258 20.4199L11.3535 12.1476L11 11.794L10.6464 12.1476L2.37414 20.4199C2.15579 20.6382 1.79877 20.6382 1.58042 20.4199C1.36207 20.2015 1.36207 19.8445 1.58042 19.6262L9.85271 11.3539L10.2063 11.0003L9.85271 10.6468L1.58042 2.37448C1.36207 2.15613 1.36207 1.79911 1.58042 1.58076C1.79877 1.3624 2.15579 1.3624 2.37414 1.58076L10.6464 9.85305L11 10.2066L11.3535 9.85305L19.6258 1.58076C19.8442 1.3624 20.2012 1.3624 20.4196 1.58076C20.6379 1.79911 20.6379 2.15613 20.4196 2.37448L12.1473 10.6468Z" fill="#474747" stroke="#474747"/>
</svg>
