<svg width="24" height="24" viewBox="0 0 24 24" fill="none" xmlns="http://www.w3.org/2000/svg">
<path d="M15.85 3.85001L17.3 5.30001L15.12 7.46001C14.73 7.85001 14.73 8.49001 15.12 8.88001C15.51 9.27001 16.15 9.27001 16.54 8.88001L18.7 6.70001L20.15 8.15001C20.2205 8.21911 20.3099 8.2658 20.4069 8.28419C20.5039 8.30258 20.6041 8.29185 20.695 8.25335C20.7859 8.21486 20.8634 8.15031 20.9177 8.06786C20.9719 7.9854 21.0006 7.88872 21 7.79001V3.50001C21 3.22001 20.78 3.00001 20.5 3.00001H16.21C16.1113 2.99943 16.0146 3.02808 15.9322 3.08236C15.8497 3.13663 15.7852 3.2141 15.7467 3.305C15.7082 3.3959 15.6974 3.49616 15.7158 3.59315C15.7342 3.69014 15.7809 3.77951 15.85 3.85001ZM3.85001 8.15001L5.30001 6.70001L7.46001 8.88001C7.85001 9.27001 8.49001 9.27001 8.88001 8.88001C9.27001 8.49001 9.27001 7.85001 8.88001 7.46001L6.70001 5.30001L8.15001 3.85001C8.21911 3.77951 8.2658 3.69014 8.28419 3.59315C8.30258 3.49616 8.29185 3.3959 8.25335 3.305C8.21486 3.2141 8.15031 3.13663 8.06786 3.08236C7.9854 3.02808 7.88872 2.99943 7.79001 3.00001H3.50001C3.22001 3.00001 3.00001 3.22001 3.00001 3.50001V7.79001C3.00001 8.24001 3.54001 8.46001 3.85001 8.15001ZM8.15001 20.15L6.70001 18.7L8.88001 16.54C9.27001 16.15 9.27001 15.51 8.88001 15.12C8.49001 14.73 7.85001 14.73 7.46001 15.12L5.30001 17.3L3.85001 15.85C3.77951 15.7809 3.69014 15.7342 3.59315 15.7158C3.49616 15.6974 3.3959 15.7082 3.305 15.7467C3.2141 15.7852 3.13663 15.8497 3.08236 15.9322C3.02808 16.0146 2.99943 16.1113 3.00001 16.21V20.5C3.00001 20.78 3.22001 21 3.50001 21H7.79001C7.88872 21.0006 7.9854 20.9719 8.06786 20.9177C8.15031 20.8634 8.21486 20.7859 8.25335 20.695C8.29185 20.6041 8.30258 20.5039 8.28419 20.4069C8.2658 20.3099 8.21911 20.2205 8.15001 20.15ZM20.15 15.85L18.7 17.3L16.54 15.12C16.15 14.73 15.51 14.73 15.12 15.12C14.73 15.51 14.73 16.15 15.12 16.54L17.3 18.7L15.85 20.15C15.7809 20.2205 15.7342 20.3099 15.7158 20.4069C15.6974 20.5039 15.7082 20.6041 15.7467 20.695C15.7852 20.7859 15.8497 20.8634 15.9322 20.9177C16.0146 20.9719 16.1113 21.0006 16.21 21H20.5C20.78 21 21 20.78 21 20.5V16.21C21.0006 16.1113 20.9719 16.0146 20.9177 15.9322C20.8634 15.8497 20.7859 15.7852 20.695 15.7467C20.6041 15.7082 20.5039 15.6974 20.4069 15.7158C20.3099 15.7342 20.2205 15.7809 20.15 15.85Z" fill="#474747"/>
</svg>
